<?xml version="1.0" encoding="UTF-8"?>
<svg xmlns="http://www.w3.org/2000/svg" xmlns:xlink="http://www.w3.org/1999/xlink" width="327pt" height="66pt" viewBox="0 0 327 66" version="1.1">
<g id="surface1">
<path style="fill:none;stroke-width:1;stroke-linecap:butt;stroke-linejoin:miter;stroke:rgb(0%,0%,0%);stroke-opacity:1;stroke-miterlimit:4;" d="M 479.511719 564.1875 L 479.511719 592.714844 " transform="matrix(1,0,0,1,-455.6875,-552.3125)"/>
<path style="fill:none;stroke-width:1;stroke-linecap:butt;stroke-linejoin:miter;stroke:rgb(0%,0%,0%);stroke-opacity:1;stroke-miterlimit:4;" d="M 513.511719 564.1875 L 513.511719 592.714844 " transform="matrix(1,0,0,1,-455.6875,-552.3125)"/>
<path style="fill:none;stroke-width:1;stroke-linecap:butt;stroke-linejoin:miter;stroke:rgb(0%,0%,0%);stroke-opacity:1;stroke-miterlimit:4;" d="M 545.007812 564.1875 L 545.007812 592.714844 " transform="matrix(1,0,0,1,-455.6875,-552.3125)"/>
<path style="fill:none;stroke-width:1;stroke-linecap:butt;stroke-linejoin:miter;stroke:rgb(0%,0%,0%);stroke-opacity:1;stroke-miterlimit:4;" d="M 555.007812 564.1875 L 555.007812 592.714844 " transform="matrix(1,0,0,1,-455.6875,-552.3125)"/>
<path style="fill:none;stroke-width:1;stroke-linecap:butt;stroke-linejoin:miter;stroke:rgb(0%,0%,0%);stroke-opacity:1;stroke-miterlimit:4;" d="M 565.007812 564.1875 L 565.007812 592.714844 " transform="matrix(1,0,0,1,-455.6875,-552.3125)"/>
<path style="fill:none;stroke-width:1;stroke-linecap:butt;stroke-linejoin:miter;stroke:rgb(0%,0%,0%);stroke-opacity:1;stroke-miterlimit:4;" d="M 592.269531 564.1875 L 592.269531 592.714844 " transform="matrix(1,0,0,1,-455.6875,-552.3125)"/>
<path style="fill:none;stroke-width:1;stroke-linecap:butt;stroke-linejoin:miter;stroke:rgb(0%,0%,0%);stroke-opacity:1;stroke-miterlimit:4;" d="M 602.269531 564.1875 L 602.269531 592.714844 " transform="matrix(1,0,0,1,-455.6875,-552.3125)"/>
<path style="fill:none;stroke-width:1;stroke-linecap:butt;stroke-linejoin:miter;stroke:rgb(0%,0%,0%);stroke-opacity:1;stroke-miterlimit:4;" d="M 631.007812 564.1875 L 631.007812 592.714844 " transform="matrix(1,0,0,1,-455.6875,-552.3125)"/>
<path style="fill:none;stroke-width:1;stroke-linecap:butt;stroke-linejoin:miter;stroke:rgb(0%,0%,0%);stroke-opacity:1;stroke-miterlimit:4;" d="M 641.007812 564.1875 L 641.007812 592.714844 " transform="matrix(1,0,0,1,-455.6875,-552.3125)"/>
<path style="fill:none;stroke-width:1;stroke-linecap:butt;stroke-linejoin:miter;stroke:rgb(0%,0%,0%);stroke-opacity:1;stroke-miterlimit:4;" d="M 651.007812 564.1875 L 651.007812 592.714844 " transform="matrix(1,0,0,1,-455.6875,-552.3125)"/>
<path style="fill:none;stroke-width:1;stroke-linecap:butt;stroke-linejoin:miter;stroke:rgb(0%,0%,0%);stroke-opacity:1;stroke-miterlimit:4;" d="M 459.6875 566.636719 L 669.292969 566.636719 " transform="matrix(1,0,0,1,-455.6875,-552.3125)"/>
<path style="fill-rule:nonzero;fill:rgb(100%,93.333333%,66.666667%);fill-opacity:1;stroke-width:0.5;stroke-linecap:round;stroke-linejoin:miter;stroke:rgb(0%,0%,0%);stroke-opacity:1;stroke-miterlimit:4;" d="M 470.832031 556.570312 L 488.042969 556.570312 C 489.703125 556.570312 491.042969 557.914062 491.042969 559.570312 L 491.042969 574.640625 C 491.042969 576.300781 489.703125 577.640625 488.042969 577.640625 L 470.832031 577.640625 C 469.171875 577.640625 467.832031 576.300781 467.832031 574.640625 L 467.832031 559.570312 C 467.832031 557.914062 469.171875 556.570312 470.832031 556.570312 Z M 470.832031 556.570312 " transform="matrix(1,0,0,1,-455.6875,-552.3125)"/>
<path style="fill-rule:nonzero;fill:rgb(100%,93.333333%,66.666667%);fill-opacity:1;stroke-width:0.5;stroke-linecap:round;stroke-linejoin:miter;stroke:rgb(0%,0%,0%);stroke-opacity:1;stroke-miterlimit:4;" d="M 504.832031 556.570312 L 522.042969 556.570312 C 523.703125 556.570312 525.042969 557.914062 525.042969 559.570312 L 525.042969 574.640625 C 525.042969 576.300781 523.703125 577.640625 522.042969 577.640625 L 504.832031 577.640625 C 503.171875 577.640625 501.832031 576.300781 501.832031 574.640625 L 501.832031 559.570312 C 501.832031 557.914062 503.171875 556.570312 504.832031 556.570312 Z M 504.832031 556.570312 " transform="matrix(1,0,0,1,-455.6875,-552.3125)"/>
<path style="fill-rule:nonzero;fill:rgb(100%,93.333333%,66.666667%);fill-opacity:1;stroke-width:0.5;stroke-linecap:round;stroke-linejoin:miter;stroke:rgb(0%,0%,0%);stroke-opacity:1;stroke-miterlimit:4;" d="M 538.832031 556.570312 L 571.402344 556.570312 C 573.058594 556.570312 574.402344 557.914062 574.402344 559.570312 L 574.402344 574.640625 C 574.402344 576.300781 573.058594 577.640625 571.402344 577.640625 L 538.832031 577.640625 C 537.171875 577.640625 535.832031 576.300781 535.832031 574.640625 L 535.832031 559.570312 C 535.832031 557.914062 537.171875 556.570312 538.832031 556.570312 Z M 538.832031 556.570312 " transform="matrix(1,0,0,1,-455.6875,-552.3125)"/>
<path style="fill-rule:nonzero;fill:rgb(100%,93.333333%,66.666667%);fill-opacity:1;stroke-width:0.5;stroke-linecap:round;stroke-linejoin:miter;stroke:rgb(0%,0%,0%);stroke-opacity:1;stroke-miterlimit:4;" d="M 586.832031 556.570312 L 607.617188 556.570312 C 609.273438 556.570312 610.617188 557.914062 610.617188 559.570312 L 610.617188 574.640625 C 610.617188 576.300781 609.273438 577.640625 607.617188 577.640625 L 586.832031 577.640625 C 585.171875 577.640625 583.832031 576.300781 583.832031 574.640625 L 583.832031 559.570312 C 583.832031 557.914062 585.171875 556.570312 586.832031 556.570312 Z M 586.832031 556.570312 " transform="matrix(1,0,0,1,-455.6875,-552.3125)"/>
<path style="fill-rule:nonzero;fill:rgb(100%,93.333333%,66.666667%);fill-opacity:1;stroke-width:0.5;stroke-linecap:round;stroke-linejoin:miter;stroke:rgb(0%,0%,0%);stroke-opacity:1;stroke-miterlimit:4;" d="M 624.832031 556.570312 L 657.402344 556.570312 C 659.058594 556.570312 660.402344 557.914062 660.402344 559.570312 L 660.402344 574.640625 C 660.402344 576.300781 659.058594 577.640625 657.402344 577.640625 L 624.832031 577.640625 C 623.171875 577.640625 621.832031 576.300781 621.832031 574.640625 L 621.832031 559.570312 C 621.832031 557.914062 623.171875 556.570312 624.832031 556.570312 Z M 624.832031 556.570312 " transform="matrix(1,0,0,1,-455.6875,-552.3125)"/>
</g>
</svg>
