<?xml version="1.0" encoding="UTF-8"?>
<svg xmlns="http://www.w3.org/2000/svg" xmlns:xlink="http://www.w3.org/1999/xlink" width="411pt" height="50pt" viewBox="0 0 411 50" version="1.1">
<g id="surface1">
<path style="fill-rule:nonzero;fill:rgb(100%,93.333333%,66.666667%);fill-opacity:1;stroke-width:0.5;stroke-linecap:round;stroke-linejoin:miter;stroke:rgb(0%,0%,0%);stroke-opacity:1;stroke-miterlimit:4;" d="M 568.170748 588.53094 L 585.385591 588.53094 C 587.041841 588.53094 588.385591 589.87469 588.385591 591.53094 L 588.385591 606.601252 C 588.385591 608.257502 587.041841 609.601252 585.385591 609.601252 L 568.170748 609.601252 C 566.514498 609.601252 565.170748 608.257502 565.170748 606.601252 L 565.170748 591.53094 C 565.170748 589.87469 566.514498 588.53094 568.170748 588.53094 Z M 568.170748 588.53094 " transform="matrix(1,0,0,1,-471.99106,-584.28094)"/>
<path style="fill-rule:nonzero;fill:rgb(100%,93.333333%,66.666667%);fill-opacity:1;stroke-width:0.5;stroke-linecap:round;stroke-linejoin:miter;stroke:rgb(0%,0%,0%);stroke-opacity:1;stroke-miterlimit:4;" d="M 721.24106 588.53094 L 738.455904 588.53094 C 740.112154 588.53094 741.455904 589.87469 741.455904 591.53094 L 741.455904 606.601252 C 741.455904 608.257502 740.112154 609.601252 738.455904 609.601252 L 721.24106 609.601252 C 719.58481 609.601252 718.24106 608.257502 718.24106 606.601252 L 718.24106 591.53094 C 718.24106 589.87469 719.58481 588.53094 721.24106 588.53094 Z M 721.24106 588.53094 " transform="matrix(1,0,0,1,-471.99106,-584.28094)"/>
<path style="fill-rule:nonzero;fill:rgb(100%,93.333333%,66.666667%);fill-opacity:1;stroke-width:0.5;stroke-linecap:round;stroke-linejoin:miter;stroke:rgb(0%,0%,0%);stroke-opacity:1;stroke-miterlimit:4;" d="M 639.24106 588.53094 L 665.385591 588.53094 C 667.041841 588.53094 668.385591 589.87469 668.385591 591.53094 L 668.385591 606.601252 C 668.385591 608.257502 667.041841 609.601252 665.385591 609.601252 L 639.24106 609.601252 C 637.58481 609.601252 636.24106 608.257502 636.24106 606.601252 L 636.24106 591.53094 C 636.24106 589.87469 637.58481 588.53094 639.24106 588.53094 Z M 639.24106 588.53094 " transform="matrix(1,0,0,1,-471.99106,-584.28094)"/>
<path style=" stroke:none;fill-rule:nonzero;fill:rgb(0%,0%,0%);fill-opacity:1;" d="M 208.601562 17.808594 L 208.601562 17.785156 L 208.589844 17.785156 L 208.589844 17.746094 L 208.574219 17.746094 L 208.574219 17.734375 L 208.5625 17.722656 L 208.5625 17.710938 L 208.550781 17.710938 L 208.550781 17.699219 L 208.527344 17.699219 L 208.527344 17.683594 L 208.488281 17.683594 L 208.488281 17.671875 L 208.4375 17.671875 C 208.152344 17.671875 207.238281 17.773438 206.914062 17.796875 C 206.824219 17.808594 206.6875 17.824219 206.6875 18.046875 C 206.6875 18.199219 206.800781 18.199219 206.976562 18.199219 C 207.574219 18.199219 207.601562 18.285156 207.601562 18.410156 L 207.5625 18.660156 L 205.761719 25.808594 C 205.714844 25.984375 205.714844 26.011719 205.714844 26.085938 C 205.714844 26.359375 205.964844 26.421875 206.074219 26.421875 C 206.238281 26.421875 206.425781 26.324219 206.5 26.171875 C 206.5625 26.058594 207.113281 23.761719 207.1875 23.449219 C 207.613281 23.484375 208.636719 23.683594 208.636719 24.511719 C 208.636719 24.585938 208.636719 24.636719 208.601562 24.761719 C 208.574219 24.910156 208.550781 25.058594 208.550781 25.199219 C 208.550781 25.933594 209.050781 26.421875 209.6875 26.421875 C 210.0625 26.421875 210.402344 26.234375 210.675781 25.773438 C 210.988281 25.222656 211.125 24.535156 211.125 24.511719 C 211.125 24.386719 211.011719 24.386719 210.976562 24.386719 C 210.851562 24.386719 210.839844 24.449219 210.800781 24.609375 C 210.550781 25.523438 210.261719 26.160156 209.714844 26.160156 C 209.476562 26.160156 209.3125 26.023438 209.3125 25.574219 C 209.3125 25.359375 209.363281 25.074219 209.414062 24.871094 C 209.464844 24.660156 209.464844 24.609375 209.464844 24.484375 C 209.464844 23.683594 208.6875 23.324219 207.625 23.183594 C 208.011719 22.960938 208.414062 22.574219 208.699219 22.273438 C 209.300781 21.609375 209.863281 21.074219 210.476562 21.074219 C 210.550781 21.074219 210.5625 21.074219 210.589844 21.085938 C 210.738281 21.109375 210.75 21.109375 210.851562 21.183594 C 210.875 21.199219 210.875 21.210938 210.902344 21.234375 C 210.300781 21.273438 210.1875 21.761719 210.1875 21.910156 C 210.1875 22.109375 210.324219 22.347656 210.664062 22.347656 C 210.988281 22.347656 211.351562 22.074219 211.351562 21.585938 C 211.351562 21.210938 211.0625 20.796875 210.5 20.796875 C 210.152344 20.796875 209.574219 20.898438 208.6875 21.898438 C 208.261719 22.371094 207.777344 22.859375 207.300781 23.046875 Z M 208.601562 17.808594 "/>
<path style="fill:none;stroke-width:1;stroke-linecap:butt;stroke-linejoin:miter;stroke:rgb(0%,0%,0%);stroke-opacity:1;stroke-miterlimit:4;" d="M 588.385591 599.066096 L 636.24106 599.066096 " transform="matrix(1,0,0,1,-471.99106,-584.28094)"/>
<path style="fill:none;stroke-width:1;stroke-linecap:butt;stroke-linejoin:miter;stroke:rgb(0%,0%,0%);stroke-opacity:1;stroke-miterlimit:4;" d="M 668.385591 599.132502 L 718.24106 599.077815 " transform="matrix(1,0,0,1,-471.99106,-584.28094)"/>
<path style=" stroke:none;fill-rule:nonzero;fill:rgb(0%,0%,0%);fill-opacity:1;" d="M 237.917969 17.960938 L 237.917969 17.925781 L 237.90625 17.925781 L 237.90625 17.898438 L 237.894531 17.886719 L 237.894531 17.875 L 237.882812 17.875 L 237.882812 17.863281 L 237.871094 17.863281 L 237.871094 17.847656 L 237.84375 17.847656 L 237.84375 17.835938 L 237.808594 17.835938 L 237.808594 17.824219 L 237.757812 17.824219 C 237.46875 17.824219 236.558594 17.925781 236.246094 17.949219 C 236.144531 17.960938 236.007812 17.972656 236.007812 18.210938 C 236.007812 18.347656 236.132812 18.347656 236.308594 18.347656 C 236.90625 18.347656 236.917969 18.460938 236.917969 18.5625 L 236.882812 18.8125 L 235.320312 25.011719 C 235.28125 25.148438 235.257812 25.238281 235.257812 25.4375 C 235.257812 26.148438 235.808594 26.574219 236.382812 26.574219 C 236.792969 26.574219 237.105469 26.335938 237.320312 25.886719 C 237.542969 25.410156 237.695312 24.6875 237.695312 24.660156 C 237.695312 24.535156 237.582031 24.535156 237.542969 24.535156 C 237.417969 24.535156 237.40625 24.597656 237.371094 24.761719 C 237.15625 25.574219 236.917969 26.3125 236.417969 26.3125 C 236.058594 26.3125 236.058594 25.910156 236.058594 25.738281 C 236.058594 25.4375 236.070312 25.375 236.132812 25.136719 Z M 237.917969 17.960938 "/>
<path style=" stroke:none;fill-rule:nonzero;fill:rgb(0%,0%,0%);fill-opacity:1;" d="M 258.292969 13.796875 L 258.292969 13.671875 L 258.28125 13.648438 L 258.28125 13.574219 L 258.257812 13.472656 L 258.242188 13.421875 L 258.230469 13.371094 L 258.21875 13.335938 L 258.207031 13.296875 L 258.195312 13.261719 L 258.179688 13.222656 L 258.15625 13.199219 L 258.144531 13.160156 L 258.117188 13.136719 L 258.105469 13.109375 L 258.019531 13.023438 L 257.992188 13.011719 L 257.96875 12.996094 L 257.945312 12.984375 L 257.917969 12.972656 L 257.90625 12.960938 L 257.882812 12.949219 L 257.855469 12.949219 L 257.832031 12.933594 L 257.792969 12.933594 L 257.769531 12.921875 L 257.742188 12.921875 C 257.429688 12.921875 257.132812 13.246094 257.132812 13.523438 C 257.132812 13.683594 257.195312 13.761719 257.332031 13.898438 C 257.59375 14.148438 257.757812 14.472656 257.757812 14.910156 C 257.757812 15.433594 256.992188 18.285156 255.542969 18.285156 C 254.90625 18.285156 254.617188 17.847656 254.617188 17.199219 C 254.617188 16.496094 254.957031 15.597656 255.34375 14.574219 C 255.429688 14.359375 255.492188 14.183594 255.492188 13.949219 C 255.492188 13.386719 255.09375 12.921875 254.46875 12.921875 C 253.304688 12.921875 252.832031 14.722656 252.832031 14.835938 C 252.832031 14.960938 252.957031 14.960938 252.980469 14.960938 C 253.105469 14.960938 253.117188 14.933594 253.179688 14.734375 C 253.542969 13.484375 254.070312 13.199219 254.429688 13.199219 C 254.53125 13.199219 254.742188 13.199219 254.742188 13.597656 C 254.742188 13.910156 254.617188 14.246094 254.53125 14.472656 C 253.992188 15.910156 253.832031 16.484375 253.832031 17.011719 C 253.832031 18.359375 254.917969 18.546875 255.492188 18.546875 C 257.582031 18.546875 258.292969 14.449219 258.292969 13.796875 Z M 258.292969 13.796875 "/>
<path style=" stroke:none;fill-rule:nonzero;fill:rgb(0%,0%,0%);fill-opacity:1;" d="M 260.96875 14.511719 L 260.96875 14.472656 L 260.980469 14.472656 L 260.980469 14.421875 L 260.992188 14.421875 L 260.992188 14.371094 C 260.992188 14.335938 260.96875 14.246094 260.855469 14.246094 C 260.679688 14.246094 259.957031 14.324219 259.742188 14.335938 C 259.679688 14.347656 259.554688 14.359375 259.554688 14.535156 C 259.554688 14.660156 259.679688 14.660156 259.78125 14.660156 C 260.195312 14.660156 260.195312 14.722656 260.195312 14.785156 C 260.195312 14.847656 260.179688 14.910156 260.15625 14.984375 L 259.082031 19.273438 C 259.054688 19.359375 259.042969 19.460938 259.042969 19.546875 C 259.042969 20.097656 259.542969 20.371094 259.957031 20.371094 C 260.167969 20.371094 260.429688 20.296875 260.65625 19.910156 C 260.84375 19.585938 260.96875 19.074219 260.96875 19.046875 C 260.96875 18.921875 260.84375 18.921875 260.820312 18.921875 C 260.707031 18.921875 260.679688 18.984375 260.644531 19.136719 C 260.53125 19.574219 260.367188 20.121094 259.992188 20.121094 C 259.757812 20.121094 259.695312 19.910156 259.695312 19.699219 C 259.695312 19.609375 259.730469 19.449219 259.757812 19.347656 Z M 260.96875 14.511719 "/>
<path style=" stroke:none;fill-rule:nonzero;fill:rgb(0%,0%,0%);fill-opacity:1;" d="M 172.695312 16.984375 L 172.65625 17.058594 L 172.605469 17.136719 L 172.554688 17.210938 L 172.507812 17.273438 L 172.46875 17.335938 L 172.417969 17.386719 L 172.367188 17.449219 L 172.332031 17.496094 L 172.230469 17.597656 L 172.179688 17.636719 L 172.144531 17.671875 L 172.09375 17.710938 L 172.042969 17.746094 L 171.992188 17.773438 L 171.957031 17.808594 L 171.90625 17.835938 L 171.855469 17.859375 L 171.804688 17.886719 L 171.757812 17.910156 L 171.71875 17.921875 L 171.667969 17.933594 L 171.617188 17.960938 L 171.570312 17.972656 L 171.46875 17.996094 L 171.417969 17.996094 L 171.367188 18.011719 L 171.269531 18.023438 L 171.167969 18.035156 C 171.019531 18.046875 170.90625 18.046875 170.90625 18.285156 C 170.90625 18.359375 170.96875 18.421875 171.070312 18.421875 C 171.40625 18.421875 171.792969 18.371094 172.132812 18.371094 C 172.542969 18.371094 172.980469 18.421875 173.382812 18.421875 C 173.457031 18.421875 173.617188 18.421875 173.617188 18.183594 C 173.617188 18.046875 173.507812 18.035156 173.417969 18.035156 C 173.132812 18.011719 172.832031 17.910156 172.832031 17.597656 C 172.832031 17.449219 172.90625 17.308594 173.007812 17.136719 L 173.957031 15.546875 L 177.070312 15.546875 L 177.03125 15.160156 L 174.195312 15.160156 L 176.644531 11.058594 L 177.03125 15.160156 L 177.070312 15.546875 C 177.105469 15.808594 177.269531 17.496094 177.269531 17.621094 C 177.269531 17.996094 176.632812 18.035156 176.382812 18.035156 C 176.207031 18.035156 176.082031 18.035156 176.082031 18.285156 C 176.082031 18.421875 176.230469 18.421875 176.257812 18.421875 C 176.769531 18.421875 177.292969 18.371094 177.804688 18.371094 C 178.117188 18.371094 178.90625 18.421875 179.21875 18.421875 C 179.292969 18.421875 179.429688 18.421875 179.429688 18.171875 C 179.429688 18.035156 179.320312 18.035156 179.15625 18.035156 C 178.382812 18.035156 178.382812 17.949219 178.34375 17.585938 L 177.582031 9.824219 C 177.554688 9.574219 177.554688 9.523438 177.34375 9.523438 C 177.144531 9.523438 177.105469 9.609375 177.03125 9.734375 Z M 172.695312 16.984375 "/>
<path style=" stroke:none;fill-rule:nonzero;fill:rgb(0%,0%,0%);fill-opacity:1;" d="M 183.632812 14.847656 L 183.632812 14.796875 L 183.617188 14.785156 L 183.617188 14.746094 L 183.605469 14.734375 L 183.605469 14.722656 L 183.59375 14.710938 L 183.59375 14.699219 L 183.582031 14.683594 L 183.582031 14.671875 L 183.570312 14.660156 L 183.554688 14.648438 L 183.542969 14.636719 L 183.53125 14.621094 L 183.507812 14.597656 L 183.492188 14.585938 L 183.480469 14.574219 L 183.46875 14.574219 L 183.457031 14.558594 L 183.445312 14.546875 L 183.417969 14.546875 L 183.40625 14.535156 L 183.367188 14.535156 L 183.34375 14.523438 L 183.28125 14.523438 C 183.03125 14.523438 182.792969 14.761719 182.792969 14.996094 C 182.792969 15.136719 182.90625 15.335938 183.144531 15.335938 C 183.382812 15.335938 183.632812 15.097656 183.632812 14.847656 Z M 183.632812 14.847656 "/>
<path style=" stroke:none;fill-rule:nonzero;fill:rgb(0%,0%,0%);fill-opacity:1;" d="M 181.792969 20.710938 L 181.769531 20.761719 L 181.757812 20.824219 L 181.742188 20.871094 L 181.71875 20.933594 L 181.695312 20.984375 L 181.667969 21.035156 L 181.644531 21.085938 L 181.617188 21.136719 L 181.59375 21.183594 L 181.570312 21.234375 L 181.53125 21.273438 L 181.507812 21.324219 L 181.46875 21.371094 L 181.429688 21.410156 L 181.394531 21.449219 L 181.367188 21.484375 L 181.332031 21.523438 L 181.28125 21.558594 L 181.242188 21.597656 L 181.207031 21.621094 L 181.167969 21.648438 L 181.117188 21.671875 L 181.082031 21.699219 L 181.03125 21.722656 L 180.992188 21.746094 L 180.945312 21.761719 L 180.90625 21.773438 L 180.804688 21.796875 L 180.757812 21.808594 L 180.667969 21.808594 C 180.554688 21.808594 180.445312 21.796875 180.355469 21.761719 C 180.582031 21.660156 180.644531 21.449219 180.644531 21.324219 C 180.644531 21.109375 180.480469 20.996094 180.304688 20.996094 C 180.042969 20.996094 179.804688 21.234375 179.804688 21.511719 C 179.804688 21.835938 180.15625 22.058594 180.667969 22.058594 C 181.195312 22.058594 182.21875 21.746094 182.480469 20.683594 L 183.269531 17.574219 C 183.292969 17.472656 183.304688 17.398438 183.304688 17.273438 C 183.304688 16.785156 182.90625 16.449219 182.382812 16.449219 C 181.40625 16.449219 180.855469 17.660156 180.855469 17.785156 C 180.855469 17.898438 180.980469 17.898438 181.007812 17.898438 C 181.105469 17.898438 181.117188 17.871094 181.179688 17.734375 C 181.394531 17.234375 181.84375 16.699219 182.355469 16.699219 C 182.570312 16.699219 182.644531 16.835938 182.644531 17.121094 C 182.644531 17.210938 182.632812 17.335938 182.617188 17.386719 Z M 181.792969 20.710938 "/>
<path style=" stroke:none;fill-rule:nonzero;fill:rgb(0%,0%,0%);fill-opacity:1;" d="M 187.167969 14.511719 L 187.167969 14.472656 L 187.179688 14.472656 L 187.179688 14.421875 L 187.195312 14.421875 L 187.195312 14.371094 C 187.195312 14.335938 187.167969 14.246094 187.054688 14.246094 C 186.882812 14.246094 186.15625 14.324219 185.945312 14.335938 C 185.867188 14.347656 185.757812 14.359375 185.757812 14.535156 C 185.757812 14.660156 185.867188 14.660156 185.980469 14.660156 C 186.394531 14.660156 186.394531 14.722656 186.394531 14.785156 C 186.394531 14.847656 186.382812 14.910156 186.355469 14.984375 L 185.132812 19.898438 C 185.09375 20.058594 185.09375 20.074219 185.09375 20.097656 C 185.09375 20.222656 185.195312 20.371094 185.382812 20.371094 C 185.617188 20.371094 185.730469 20.199219 185.78125 20.011719 C 185.804688 19.972656 186.179688 18.449219 186.21875 18.324219 C 186.832031 18.386719 187.332031 18.585938 187.332031 19.035156 C 187.332031 19.074219 187.332031 19.121094 187.304688 19.210938 C 187.28125 19.335938 187.28125 19.386719 187.28125 19.472656 C 187.28125 20.097656 187.78125 20.371094 188.195312 20.371094 C 189.042969 20.371094 189.304688 19.046875 189.304688 19.046875 C 189.304688 18.921875 189.195312 18.921875 189.167969 18.921875 C 189.042969 18.921875 189.03125 18.972656 188.992188 19.136719 C 188.882812 19.511719 188.65625 20.121094 188.21875 20.121094 C 187.992188 20.121094 187.917969 19.910156 187.917969 19.671875 C 187.917969 19.523438 187.917969 19.511719 187.96875 19.285156 C 187.980469 19.261719 188.019531 19.109375 188.019531 19.011719 C 188.019531 18.234375 186.96875 18.121094 186.605469 18.097656 C 186.855469 17.933594 187.179688 17.648438 187.332031 17.523438 C 187.769531 17.097656 188.207031 16.699219 188.695312 16.699219 C 188.792969 16.699219 188.90625 16.722656 188.980469 16.808594 C 188.605469 16.871094 188.53125 17.160156 188.53125 17.296875 C 188.53125 17.484375 188.679688 17.609375 188.882812 17.609375 C 189.117188 17.609375 189.367188 17.421875 189.367188 17.058594 C 189.367188 16.773438 189.167969 16.449219 188.707031 16.449219 C 188.207031 16.449219 187.757812 16.808594 187.304688 17.210938 C 186.945312 17.558594 186.65625 17.835938 186.304688 17.984375 Z M 187.167969 14.511719 "/>
<path style=" stroke:none;fill-rule:nonzero;fill:rgb(0%,0%,0%);fill-opacity:1;" d="M 126.269531 18.804688 L 126.269531 18.757812 L 126.257812 18.730469 L 126.257812 18.695312 L 126.246094 18.667969 L 126.246094 18.644531 L 126.234375 18.632812 L 126.234375 18.605469 L 126.222656 18.59375 L 126.207031 18.570312 L 126.195312 18.554688 L 126.183594 18.53125 L 126.160156 18.507812 L 126.144531 18.480469 L 126.132812 18.46875 L 126.109375 18.457031 L 126.082031 18.429688 L 126.058594 18.417969 L 126.046875 18.40625 L 126.019531 18.394531 L 125.996094 18.394531 L 125.984375 18.382812 L 125.957031 18.367188 L 125.910156 18.367188 L 125.882812 18.355469 L 125.808594 18.355469 C 125.472656 18.355469 125.132812 18.679688 125.132812 19.019531 C 125.132812 19.242188 125.308594 19.457031 125.609375 19.457031 C 125.894531 19.457031 126.269531 19.167969 126.269531 18.804688 Z M 126.269531 18.804688 "/>
<path style=" stroke:none;fill-rule:nonzero;fill:rgb(0%,0%,0%);fill-opacity:1;" d="M 125.320312 23.46875 L 125.332031 23.445312 L 125.347656 23.40625 L 125.359375 23.382812 L 125.371094 23.355469 L 125.382812 23.320312 L 125.394531 23.292969 L 125.394531 23.28125 L 125.410156 23.257812 L 125.421875 23.230469 L 125.433594 23.207031 L 125.433594 23.195312 L 125.445312 23.167969 L 125.445312 23.15625 L 125.457031 23.132812 L 125.472656 23.105469 L 125.484375 23.070312 L 125.496094 23.03125 L 125.496094 23.007812 L 125.507812 22.992188 L 125.519531 22.96875 L 125.519531 22.957031 L 125.535156 22.929688 L 125.535156 22.90625 L 125.546875 22.882812 L 125.558594 22.867188 L 125.558594 22.832031 L 125.570312 22.804688 L 125.582031 22.78125 L 125.597656 22.757812 C 125.695312 22.507812 125.757812 22.332031 125.757812 22.09375 C 125.757812 21.53125 125.359375 21.070312 124.734375 21.070312 C 123.570312 21.070312 123.097656 22.867188 123.097656 22.980469 C 123.097656 23.105469 123.222656 23.105469 123.246094 23.105469 C 123.371094 23.105469 123.382812 23.082031 123.445312 22.882812 C 123.785156 21.71875 124.285156 21.34375 124.695312 21.34375 C 124.796875 21.34375 125.007812 21.34375 125.007812 21.742188 C 125.007812 22.007812 124.921875 22.269531 124.871094 22.394531 C 124.769531 22.71875 124.222656 24.15625 124.019531 24.695312 C 123.894531 25.007812 123.734375 25.417969 123.734375 25.679688 C 123.734375 26.269531 124.160156 26.695312 124.746094 26.695312 C 125.921875 26.695312 126.382812 24.894531 126.382812 24.78125 C 126.382812 24.65625 126.269531 24.65625 126.234375 24.65625 C 126.109375 24.65625 126.109375 24.707031 126.046875 24.882812 C 125.820312 25.667969 125.410156 26.429688 124.769531 26.429688 C 124.570312 26.429688 124.472656 26.304688 124.472656 26.019531 C 124.472656 25.707031 124.546875 25.53125 124.832031 24.78125 Z M 125.320312 23.46875 "/>
<path style=" stroke:none;fill-rule:nonzero;fill:rgb(0%,0%,0%);fill-opacity:1;" d="M 157.644531 18.6875 L 157.644531 18.597656 L 157.632812 18.574219 L 157.632812 18.550781 L 157.621094 18.535156 L 157.621094 18.511719 L 157.605469 18.5 L 157.59375 18.472656 L 157.582031 18.449219 L 157.582031 18.4375 L 157.570312 18.425781 L 157.558594 18.398438 L 157.53125 18.386719 L 157.519531 18.375 L 157.507812 18.347656 L 157.496094 18.335938 L 157.46875 18.324219 L 157.457031 18.3125 L 157.433594 18.300781 L 157.417969 18.285156 L 157.394531 18.285156 L 157.371094 18.273438 L 157.355469 18.261719 L 157.332031 18.261719 L 157.308594 18.25 L 157.28125 18.25 L 157.257812 18.238281 L 157.167969 18.238281 C 156.882812 18.238281 156.519531 18.523438 156.519531 18.898438 C 156.519531 19.136719 156.695312 19.335938 156.980469 19.335938 C 157.308594 19.335938 157.644531 19.011719 157.644531 18.6875 Z M 157.644531 18.6875 "/>
<path style=" stroke:none;fill-rule:nonzero;fill:rgb(0%,0%,0%);fill-opacity:1;" d="M 155.144531 27.0625 L 155.121094 27.148438 L 155.09375 27.238281 L 155.070312 27.324219 L 155.042969 27.410156 L 155.007812 27.488281 L 154.980469 27.5625 L 154.945312 27.648438 L 154.90625 27.722656 L 154.871094 27.800781 L 154.832031 27.863281 L 154.78125 27.9375 L 154.746094 28 L 154.695312 28.0625 L 154.65625 28.125 L 154.605469 28.1875 L 154.558594 28.25 L 154.507812 28.300781 L 154.457031 28.347656 L 154.394531 28.398438 L 154.34375 28.4375 L 154.292969 28.488281 L 154.230469 28.523438 L 154.167969 28.5625 L 154.121094 28.585938 L 154.058594 28.625 L 153.996094 28.648438 L 153.933594 28.660156 L 153.871094 28.6875 L 153.746094 28.710938 L 153.621094 28.710938 C 153.542969 28.710938 153.355469 28.710938 153.132812 28.597656 C 153.507812 28.511719 153.695312 28.199219 153.695312 27.949219 C 153.695312 27.75 153.558594 27.511719 153.21875 27.511719 C 152.90625 27.511719 152.542969 27.773438 152.542969 28.222656 C 152.542969 28.710938 153.042969 28.988281 153.644531 28.988281 C 154.519531 28.988281 155.667969 28.335938 155.980469 27.097656 L 157.121094 22.5625 C 157.183594 22.3125 157.183594 22.136719 157.183594 22.097656 C 157.183594 21.386719 156.667969 20.949219 156.042969 20.949219 C 154.769531 20.949219 154.070312 22.75 154.070312 22.863281 C 154.070312 22.988281 154.195312 22.988281 154.21875 22.988281 C 154.332031 22.988281 154.34375 22.972656 154.445312 22.738281 C 154.746094 21.988281 155.320312 21.222656 156.007812 21.222656 C 156.183594 21.222656 156.40625 21.273438 156.40625 21.800781 C 156.40625 22.085938 156.371094 22.222656 156.320312 22.4375 Z M 155.144531 27.0625 "/>
<path style=" stroke:none;fill-rule:nonzero;fill:rgb(0%,0%,0%);fill-opacity:1;" d="M 103.839844 17.722656 L 103.863281 17.773438 L 103.875 17.808594 L 103.886719 17.859375 L 103.914062 17.898438 L 103.925781 17.949219 L 103.949219 17.984375 L 103.976562 18.023438 L 104 18.058594 L 104.027344 18.097656 L 104.050781 18.136719 L 104.089844 18.171875 L 104.113281 18.210938 L 104.152344 18.234375 L 104.175781 18.273438 L 104.214844 18.296875 L 104.25 18.324219 L 104.289062 18.359375 L 104.324219 18.371094 L 104.363281 18.398438 L 104.402344 18.421875 L 104.4375 18.449219 L 104.488281 18.460938 L 104.527344 18.484375 L 104.574219 18.496094 L 104.613281 18.511719 L 104.714844 18.535156 L 104.75 18.535156 L 104.800781 18.546875 L 104.949219 18.546875 C 105.386719 18.546875 105.675781 18.273438 105.875 17.871094 C 106.089844 17.421875 106.238281 16.660156 106.238281 16.636719 C 106.238281 16.511719 106.125 16.511719 106.089844 16.511719 C 105.976562 16.511719 105.964844 16.574219 105.925781 16.734375 C 105.75 17.433594 105.511719 18.285156 104.988281 18.285156 C 104.726562 18.285156 104.601562 18.121094 104.601562 17.710938 C 104.601562 17.433594 104.75 16.847656 104.851562 16.421875 L 105.199219 15.074219 C 105.238281 14.886719 105.363281 14.421875 105.414062 14.234375 C 105.476562 13.949219 105.601562 13.472656 105.601562 13.398438 C 105.601562 13.171875 105.425781 13.058594 105.238281 13.058594 C 105.175781 13.058594 104.851562 13.074219 104.75 13.496094 C 104.511719 14.410156 103.964844 16.585938 103.8125 17.234375 C 103.800781 17.285156 103.3125 18.285156 102.402344 18.285156 C 101.75 18.285156 101.625 17.722656 101.625 17.261719 C 101.625 16.574219 101.976562 15.585938 102.300781 14.722656 C 102.449219 14.359375 102.511719 14.183594 102.511719 13.949219 C 102.511719 13.386719 102.113281 12.921875 101.488281 12.921875 C 100.3125 12.921875 99.851562 14.722656 99.851562 14.835938 C 99.851562 14.960938 99.976562 14.960938 100 14.960938 C 100.125 14.960938 100.136719 14.933594 100.199219 14.734375 C 100.511719 13.660156 100.988281 13.199219 101.449219 13.199219 C 101.5625 13.199219 101.761719 13.210938 101.761719 13.609375 C 101.761719 13.910156 101.625 14.273438 101.550781 14.460938 C 101.089844 15.683594 100.839844 16.460938 100.839844 17.058594 C 100.839844 18.246094 101.6875 18.546875 102.363281 18.546875 C 103.1875 18.546875 103.625 17.996094 103.839844 17.722656 Z M 103.839844 17.722656 "/>
<path style=" stroke:none;fill-rule:nonzero;fill:rgb(0%,0%,0%);fill-opacity:1;" d="M 109.425781 11.734375 L 109.5 11.710938 L 109.5625 11.671875 L 109.625 11.648438 L 109.675781 11.621094 L 109.738281 11.597656 L 109.789062 11.574219 L 109.851562 11.546875 L 109.902344 11.535156 L 109.949219 11.511719 L 110 11.484375 L 110.039062 11.472656 L 110.089844 11.449219 L 110.125 11.433594 L 110.164062 11.421875 L 110.199219 11.398438 L 110.238281 11.386719 L 110.277344 11.371094 L 110.3125 11.359375 L 110.351562 11.347656 L 110.375 11.324219 L 110.414062 11.308594 L 110.4375 11.296875 L 110.476562 11.285156 L 110.5 11.273438 L 110.527344 11.273438 L 110.550781 11.261719 L 110.601562 11.234375 L 110.636719 11.210938 L 110.6875 11.199219 C 110.851562 11.121094 110.925781 11.085938 110.925781 10.921875 C 110.925781 10.773438 110.8125 10.648438 110.664062 10.648438 C 110.601562 10.648438 110.574219 10.648438 110.476562 10.722656 L 109.289062 11.511719 L 109.425781 10.234375 C 109.4375 10.074219 109.425781 9.859375 109.164062 9.859375 C 109.0625 9.859375 108.886719 9.921875 108.886719 10.109375 C 108.886719 10.199219 108.925781 10.460938 108.9375 10.546875 C 108.949219 10.683594 109.011719 11.324219 109.027344 11.511719 L 107.851562 10.722656 C 107.761719 10.671875 107.738281 10.648438 107.664062 10.648438 C 107.511719 10.648438 107.402344 10.773438 107.402344 10.921875 C 107.402344 11.097656 107.5 11.148438 107.574219 11.171875 L 108.886719 11.722656 C 108.175781 12.035156 107.851562 12.160156 107.636719 12.261719 C 107.476562 12.335938 107.402344 12.371094 107.402344 12.535156 C 107.402344 12.683594 107.511719 12.808594 107.664062 12.808594 C 107.726562 12.808594 107.738281 12.808594 107.851562 12.734375 L 109.027344 11.949219 L 108.886719 13.347656 C 108.886719 13.535156 109.0625 13.597656 109.164062 13.597656 C 109.261719 13.597656 109.425781 13.535156 109.425781 13.347656 C 109.425781 13.261719 109.402344 12.996094 109.386719 12.910156 C 109.375 12.773438 109.3125 12.136719 109.289062 11.949219 L 110.339844 12.636719 C 110.5625 12.808594 110.574219 12.808594 110.664062 12.808594 C 110.8125 12.808594 110.925781 12.683594 110.925781 12.535156 C 110.925781 12.359375 110.824219 12.308594 110.75 12.285156 Z M 109.425781 11.734375 "/>
<path style=" stroke:none;fill-rule:nonzero;fill:rgb(0%,0%,0%);fill-opacity:1;" d="M 109.4375 16.222656 L 109.4375 16.171875 L 109.425781 16.160156 L 109.425781 16.136719 L 109.414062 16.109375 L 109.414062 16.085938 L 109.386719 16.058594 L 109.386719 16.046875 L 109.363281 16.023438 L 109.363281 16.011719 L 109.351562 15.996094 L 109.339844 15.984375 L 109.324219 15.972656 L 109.300781 15.949219 L 109.277344 15.949219 L 109.25 15.921875 L 109.238281 15.921875 L 109.214844 15.910156 L 109.199219 15.910156 L 109.175781 15.898438 L 109.089844 15.898438 C 108.863281 15.898438 108.601562 16.121094 108.601562 16.371094 C 108.601562 16.523438 108.714844 16.699219 108.949219 16.699219 C 109.199219 16.699219 109.4375 16.460938 109.4375 16.222656 Z M 109.4375 16.222656 "/>
<path style=" stroke:none;fill-rule:nonzero;fill:rgb(0%,0%,0%);fill-opacity:1;" d="M 107.664062 20.636719 L 107.664062 20.660156 L 107.652344 20.683594 L 107.636719 20.722656 L 107.625 20.746094 L 107.625 20.773438 L 107.613281 20.785156 L 107.613281 20.808594 L 107.601562 20.835938 L 107.601562 20.871094 L 107.589844 20.898438 L 107.589844 21.011719 C 107.589844 21.410156 107.9375 21.746094 108.414062 21.746094 C 109.289062 21.746094 109.664062 20.546875 109.664062 20.410156 C 109.664062 20.296875 109.550781 20.296875 109.527344 20.296875 C 109.402344 20.296875 109.402344 20.347656 109.363281 20.449219 C 109.164062 21.148438 108.777344 21.496094 108.4375 21.496094 C 108.261719 21.496094 108.226562 21.386719 108.226562 21.199219 C 108.226562 20.996094 108.277344 20.835938 108.363281 20.636719 C 108.449219 20.410156 108.539062 20.171875 108.636719 19.949219 C 108.714844 19.734375 109.027344 18.949219 109.0625 18.847656 C 109.089844 18.761719 109.113281 18.648438 109.113281 18.558594 C 109.113281 18.160156 108.761719 17.824219 108.289062 17.824219 C 107.425781 17.824219 107.027344 19.011719 107.027344 19.160156 C 107.027344 19.273438 107.152344 19.273438 107.175781 19.273438 C 107.300781 19.273438 107.300781 19.222656 107.339844 19.136719 C 107.5625 18.386719 107.9375 18.074219 108.261719 18.074219 C 108.402344 18.074219 108.476562 18.136719 108.476562 18.371094 C 108.476562 18.574219 108.425781 18.699219 108.214844 19.234375 Z M 107.664062 20.636719 "/>
<path style="fill-rule:nonzero;fill:rgb(100%,93.333333%,66.666667%);fill-opacity:1;stroke-width:0.5;stroke-linecap:round;stroke-linejoin:miter;stroke:rgb(0%,0%,0%);stroke-opacity:1;stroke-miterlimit:4;" d="M 479.24106 588.53094 L 496.455904 588.53094 C 498.112154 588.53094 499.455904 589.87469 499.455904 591.53094 L 499.455904 606.601252 C 499.455904 608.257502 498.112154 609.601252 496.455904 609.601252 L 479.24106 609.601252 C 477.58481 609.601252 476.24106 608.257502 476.24106 606.601252 L 476.24106 591.53094 C 476.24106 589.87469 477.58481 588.53094 479.24106 588.53094 Z M 479.24106 588.53094 " transform="matrix(1,0,0,1,-471.99106,-584.28094)"/>
<path style=" stroke:none;fill-rule:nonzero;fill:rgb(0%,0%,0%);fill-opacity:1;" d="M 17.035156 13.699219 L 16.863281 13.699219 L 16.824219 13.710938 L 16.773438 13.710938 L 16.761719 13.722656 L 16.722656 13.722656 L 16.710938 13.734375 L 16.6875 13.734375 L 16.660156 13.761719 L 16.636719 13.761719 L 16.613281 13.785156 L 16.585938 13.785156 L 16.5625 13.808594 L 16.535156 13.824219 L 16.523438 13.835938 L 16.511719 13.859375 L 16.488281 13.871094 C 16.285156 14.058594 16.273438 14.273438 16.273438 14.359375 C 16.273438 14.648438 16.488281 14.785156 16.722656 14.785156 C 17.085938 14.785156 17.425781 14.496094 17.425781 13.996094 C 17.425781 13.386719 16.835938 12.921875 15.960938 12.921875 C 14.273438 12.921875 12.625 14.710938 12.625 16.460938 C 12.625 17.574219 13.347656 18.546875 14.636719 18.546875 C 16.410156 18.546875 17.460938 17.234375 17.460938 17.085938 C 17.460938 17.011719 17.386719 16.921875 17.3125 16.921875 C 17.25 16.921875 17.222656 16.949219 17.148438 17.046875 C 16.175781 18.285156 14.8125 18.285156 14.660156 18.285156 C 13.886719 18.285156 13.550781 17.671875 13.550781 16.921875 C 13.550781 16.421875 13.785156 15.210938 14.210938 14.449219 C 14.597656 13.734375 15.285156 13.199219 15.972656 13.199219 C 16.386719 13.199219 16.863281 13.359375 17.035156 13.699219 Z M 17.035156 13.699219 "/>
<path style=" stroke:none;fill-rule:nonzero;fill:rgb(0%,0%,0%);fill-opacity:1;" d="M 65.042969 13.957031 L 65.144531 13.957031 L 65.167969 13.945312 L 65.253906 13.945312 L 65.269531 13.933594 L 65.304688 13.933594 L 65.316406 13.921875 L 65.332031 13.921875 L 65.355469 13.90625 L 65.367188 13.90625 L 65.378906 13.894531 L 65.394531 13.882812 L 65.417969 13.859375 L 65.417969 13.84375 L 65.429688 13.84375 L 65.429688 13.832031 L 65.441406 13.820312 L 65.441406 13.796875 L 65.457031 13.78125 L 65.457031 13.707031 C 65.457031 13.457031 65.230469 13.457031 65.054688 13.457031 L 57.605469 13.457031 C 57.429688 13.457031 57.191406 13.457031 57.191406 13.707031 C 57.191406 13.957031 57.429688 13.957031 57.617188 13.957031 Z M 65.042969 13.957031 "/>
<path style=" stroke:none;fill-rule:nonzero;fill:rgb(0%,0%,0%);fill-opacity:1;" d="M 65.054688 16.359375 L 65.242188 16.359375 L 65.253906 16.34375 L 65.292969 16.34375 L 65.304688 16.332031 L 65.316406 16.332031 L 65.34375 16.320312 L 65.355469 16.320312 L 65.367188 16.308594 L 65.378906 16.308594 L 65.394531 16.296875 L 65.40625 16.28125 L 65.417969 16.269531 L 65.417969 16.257812 L 65.429688 16.246094 L 65.429688 16.234375 L 65.441406 16.234375 L 65.441406 16.207031 L 65.457031 16.195312 L 65.457031 16.109375 C 65.457031 15.871094 65.230469 15.871094 65.042969 15.871094 L 57.617188 15.871094 C 57.429688 15.871094 57.191406 15.871094 57.191406 16.109375 C 57.191406 16.359375 57.429688 16.359375 57.605469 16.359375 Z M 65.054688 16.359375 "/>
</g>
</svg>
