<?xml version="1.0" encoding="UTF-8" standalone="no"?>
<!-- Created with Inkscape (http://www.inkscape.org/) -->

<svg
   xmlns:ns0="http://www.iki.fi/pav/software/textext/"
   xmlns:dc="http://purl.org/dc/elements/1.1/"
   xmlns:cc="http://creativecommons.org/ns#"
   xmlns:rdf="http://www.w3.org/1999/02/22-rdf-syntax-ns#"
   xmlns:svg="http://www.w3.org/2000/svg"
   xmlns="http://www.w3.org/2000/svg"
   xmlns:sodipodi="http://sodipodi.sourceforge.net/DTD/sodipodi-0.dtd"
   xmlns:inkscape="http://www.inkscape.org/namespaces/inkscape"
   width="300.875"
   height="33.176037"
   id="svg73625"
   version="1.1"
   inkscape:version="0.92.1 r15371"
   sodipodi:docname="tensors_matrixproduct.svg">
  <defs
     id="defs73627" />
  <sodipodi:namedview
     id="base"
     pagecolor="#ffffff"
     bordercolor="#666666"
     borderopacity="1.0"
     inkscape:pageopacity="0.0"
     inkscape:pageshadow="2"
     inkscape:zoom="2.8"
     inkscape:cx="250.29523"
     inkscape:cy="15.949763"
     inkscape:document-units="px"
     inkscape:current-layer="layer1"
     showgrid="false"
     fit-margin-top="4"
     fit-margin-left="4"
     fit-margin-right="4"
     fit-margin-bottom="4"
     inkscape:window-width="2560"
     inkscape:window-height="1393"
     inkscape:window-x="0"
     inkscape:window-y="0"
     inkscape:window-maximized="1" />
  <metadata
     id="metadata73630">
    <rdf:RDF>
      <cc:Work
         rdf:about="">
        <dc:format>image/svg+xml</dc:format>
        <dc:type
           rdf:resource="http://purl.org/dc/dcmitype/StillImage" />
        <dc:title />
      </cc:Work>
    </rdf:RDF>
  </metadata>
  <g
     inkscape:label="Ebene 1"
     inkscape:groupmode="layer"
     id="layer1"
     transform="translate(-199.5625,-515.8125)">
    <rect
       ry="3"
       rx="2.9999998"
       y="520.05927"
       x="232.85242"
       height="21.071428"
       width="32.142857"
       id="rect10238"
       style="fill:#ffeeaa;fill-opacity:1;stroke:#000000;stroke-width:0.5;stroke-linecap:round;stroke-linejoin:miter;stroke-miterlimit:4;stroke-opacity:1;stroke-dasharray:none;stroke-dashoffset:0" />
    <rect
       style="fill:#ffeeaa;fill-opacity:1;stroke:#000000;stroke-width:0.5;stroke-linecap:round;stroke-linejoin:miter;stroke-miterlimit:4;stroke-opacity:1;stroke-dasharray:none;stroke-dashoffset:0"
       id="rect8359"
       width="32.142857"
       height="21.071428"
       x="435.78101"
       y="520.05927"
       rx="2.9999998"
       ry="3" />
    <rect
       ry="3"
       rx="2.9999998"
       y="520.05927"
       x="351.78101"
       height="21.071428"
       width="32.142857"
       id="rect8357"
       style="fill:#ffeeaa;fill-opacity:1;stroke:#000000;stroke-width:0.5;stroke-linecap:round;stroke-linejoin:miter;stroke-miterlimit:4;stroke-opacity:1;stroke-dasharray:none;stroke-dashoffset:0" />
    <g
       style="font-style:normal;font-variant:normal;font-weight:normal;font-stretch:normal;letter-spacing:normal;word-spacing:normal;text-anchor:start;fill:none;stroke:#000000;stroke-linecap:butt;stroke-linejoin:miter;stroke-miterlimit:10.43299961;stroke-dasharray:none;stroke-dashoffset:0;stroke-opacity:1"
       ns0:preamble="/home/milan/phd/Dokumente/tex/graphics/svg_mathbbm.tex"
       ns0:text="$A_{ij}$"
       word-spacing="normal"
       letter-spacing="normal"
       font-size-adjust="none"
       font-stretch="normal"
       font-weight="normal"
       font-variant="normal"
       font-style="normal"
       stroke-miterlimit="10.433"
       xml:space="preserve"
       transform="matrix(1.25,0,0,-1.25,79.374565,1418.1321)"
       id="content"><path
         style="fill:#000000;stroke-width:0"
         inkscape:connector-curvature="0"
         id="path8001"
         d="m 225.21,708.27 -0.03,-0.06 -0.04,-0.06 -0.04,-0.06 -0.04,-0.05 -0.03,-0.05 -0.04,-0.04 -0.04,-0.05 -0.03,-0.04 -0.04,-0.04 -0.04,-0.04 -0.04,-0.03 -0.03,-0.03 -0.04,-0.03 -0.04,-0.03 -0.04,-0.02 -0.03,-0.03 -0.04,-0.02 -0.04,-0.02 -0.04,-0.02 -0.04,-0.02 -0.03,-0.01 -0.04,-0.01 -0.04,-0.02 -0.04,-0.01 -0.04,-0.01 -0.04,-0.01 h -0.04 l -0.04,-0.01 -0.08,-0.01 -0.08,-0.01 c -0.12,-0.01 -0.21,-0.01 -0.21,-0.2 0,-0.06 0.05,-0.11 0.13,-0.11 0.27,0 0.58,0.04 0.85,0.04 0.33,0 0.68,-0.04 1,-0.04 0.06,0 0.19,0 0.19,0.19 0,0.11 -0.09,0.12 -0.16,0.12 -0.23,0.02 -0.47,0.1 -0.47,0.35 0,0.12 0.06,0.23 0.14,0.37 l 0.76,1.27 h 2.49 l -0.03,0.31 h -2.27 l 1.96,3.28 0.31,-3.28 0.03,-0.31 c 0.03,-0.21 0.16,-1.56 0.16,-1.66 0,-0.3 -0.51,-0.33 -0.71,-0.33 -0.14,0 -0.24,0 -0.24,-0.2 0,-0.11 0.12,-0.11 0.14,-0.11 0.41,0 0.83,0.04 1.24,0.04 0.25,0 0.88,-0.04 1.13,-0.04 0.06,0 0.17,0 0.17,0.2 0,0.11 -0.09,0.11 -0.22,0.11 -0.62,0 -0.62,0.07 -0.65,0.36 l -0.61,6.21 c -0.02,0.2 -0.02,0.24 -0.19,0.24 -0.16,0 -0.19,-0.07 -0.25,-0.17 z" /><path
         style="fill:#000000;stroke-width:0"
         inkscape:connector-curvature="0"
         id="path8003"
         d="m 233.16,709.98 v 0.01 0.01 0.01 0.01 l -0.01,0.01 v 0.01 0.01 l -0.01,0.02 v 0.01 l -0.01,0.01 v 0.01 l -0.01,0.01 v 0.01 l -0.01,0.01 -0.01,0.01 -0.01,0.01 v 0.01 l -0.01,0.01 -0.01,0.01 -0.01,0.01 h -0.02 l -0.01,0.01 -0.01,0.01 -0.01,0.01 h -0.02 l -0.01,0.01 h -0.01 -0.02 l -0.02,0.01 h -0.01 -0.02 -0.02 c -0.19,0 -0.39,-0.18 -0.39,-0.38 0,-0.12 0.09,-0.27 0.28,-0.27 0.2,0 0.39,0.2 0.39,0.39 z" /><path
         style="fill:#000000;stroke-width:0"
         inkscape:connector-curvature="0"
         id="path8005"
         d="m 231.74,706.45 -0.01,-0.02 v -0.02 l -0.01,-0.03 -0.01,-0.02 v -0.02 l -0.01,-0.01 v -0.02 l -0.01,-0.02 v -0.02 -0.02 l -0.01,-0.01 v -0.01 -0.01 -0.01 -0.01 -0.02 -0.01 -0.01 -0.01 c 0,-0.32 0.28,-0.59 0.66,-0.59 0.7,0 1,0.96 1,1.06 0,0.1 -0.09,0.1 -0.11,0.1 -0.1,0 -0.1,-0.05 -0.13,-0.12 -0.16,-0.56 -0.47,-0.84 -0.74,-0.84 -0.14,0 -0.18,0.09 -0.18,0.24 0,0.16 0.05,0.29 0.12,0.45 0.07,0.18 0.14,0.37 0.22,0.55 0.06,0.17 0.31,0.8 0.34,0.88 0.02,0.07 0.04,0.16 0.04,0.23 0,0.32 -0.28,0.59 -0.66,0.59 -0.69,0 -1.01,-0.95 -1.01,-1.07 0,-0.09 0.1,-0.09 0.12,-0.09 0.1,0 0.1,0.04 0.13,0.11 0.18,0.6 0.48,0.85 0.74,0.85 0.11,0 0.17,-0.05 0.17,-0.24 0,-0.16 -0.04,-0.27 -0.21,-0.7 z" /><path
         style="fill:#000000;stroke-width:0"
         inkscape:connector-curvature="0"
         id="path8007"
         d="m 236.78,709.98 v 0.01 0.01 0.01 0.01 l -0.01,0.01 v 0.02 0.01 l -0.01,0.01 v 0.01 l -0.01,0.01 v 0.01 l -0.01,0.01 -0.01,0.01 v 0.01 l -0.01,0.01 -0.01,0.01 -0.01,0.01 -0.01,0.01 -0.01,0.01 -0.01,0.01 -0.01,0.01 h -0.01 l -0.01,0.01 -0.02,0.01 h -0.01 l -0.01,0.01 h -0.02 -0.01 l -0.02,0.01 h -0.01 -0.02 -0.02 c -0.2,0 -0.39,-0.19 -0.39,-0.38 0,-0.11 0.09,-0.27 0.28,-0.27 0.19,0 0.39,0.19 0.39,0.39 z" /><path
         style="fill:#000000;stroke-width:0"
         inkscape:connector-curvature="0"
         id="path8009"
         d="m 235.3,705.29 -0.01,-0.04 -0.01,-0.05 -0.02,-0.04 -0.01,-0.05 -0.02,-0.04 -0.02,-0.04 -0.02,-0.04 -0.02,-0.04 -0.02,-0.04 -0.02,-0.04 -0.03,-0.03 -0.02,-0.04 -0.03,-0.04 -0.03,-0.03 -0.03,-0.03 -0.03,-0.03 -0.03,-0.03 -0.03,-0.03 -0.03,-0.03 -0.03,-0.02 -0.03,-0.02 -0.04,-0.02 -0.03,-0.02 -0.04,-0.02 -0.03,-0.02 -0.04,-0.01 -0.04,-0.01 -0.03,-0.01 -0.04,-0.01 -0.04,-0.01 h -0.04 -0.04 c -0.08,0 -0.17,0.01 -0.25,0.04 0.19,0.08 0.24,0.25 0.24,0.35 0,0.17 -0.13,0.26 -0.27,0.26 -0.22,0 -0.4,-0.19 -0.4,-0.41 0,-0.26 0.27,-0.44 0.69,-0.44 0.42,0 1.24,0.25 1.45,1.1 l 0.63,2.49 c 0.02,0.08 0.03,0.14 0.03,0.24 0,0.39 -0.32,0.66 -0.74,0.66 -0.78,0 -1.22,-0.97 -1.22,-1.07 0,-0.09 0.1,-0.09 0.12,-0.09 0.08,0 0.09,0.02 0.14,0.13 0.17,0.4 0.53,0.83 0.94,0.83 0.17,0 0.23,-0.11 0.23,-0.34 0,-0.07 -0.01,-0.17 -0.02,-0.21 z" /></g>    <g
       style="font-style:normal;font-variant:normal;font-weight:normal;font-stretch:normal;letter-spacing:normal;word-spacing:normal;text-anchor:start;fill:none;stroke:#000000;stroke-linecap:butt;stroke-linejoin:miter;stroke-miterlimit:10.43299961;stroke-opacity:1;stroke-dasharray:none;stroke-dashoffset:0"
       ns0:preamble="/home/milan/phd/Dokumente/tex/graphics/svg_mathbbm.tex"
       ns0:text="$i$"
       word-spacing="normal"
       letter-spacing="normal"
       font-size-adjust="none"
       font-stretch="normal"
       font-weight="normal"
       font-variant="normal"
       font-style="normal"
       stroke-miterlimit="10.433"
       xml:space="preserve"
       transform="matrix(1.25,0,0,-1.25,62.373295,1426.2696)"
       id="g8084"><path
         style="fill:#000000;stroke-width:0"
         inkscape:connector-curvature="0"
         id="path8119"
         d="m 226.26,713.33 0,0.02 0,0.02 -0.01,0.02 0,0.02 0,0.01 -0.01,0.02 0,0.02 -0.01,0.01 0,0.02 -0.01,0.01 -0.01,0.02 -0.01,0.01 -0.01,0.02 -0.01,0.01 -0.01,0.01 -0.01,0.02 -0.01,0.01 -0.02,0.01 -0.01,0.01 -0.01,0.01 -0.02,0.01 -0.01,0.01 -0.02,0.01 -0.02,0 -0.01,0.01 -0.02,0.01 -0.02,0 -0.02,0 -0.02,0.01 -0.02,0 -0.02,0 -0.02,0 c -0.27,0 -0.54,-0.26 -0.54,-0.53 0,-0.18 0.14,-0.35 0.38,-0.35 0.23,0 0.53,0.23 0.53,0.52 z" /><path
         style="fill:#000000;stroke-width:0"
         inkscape:connector-curvature="0"
         id="path8121"
         d="m 225.5,709.6 0.01,0.02 0.01,0.03 0.01,0.02 0.01,0.02 0.01,0.03 0.01,0.02 0,0.01 0.01,0.02 0.01,0.02 0.01,0.02 0,0.01 0.01,0.02 0,0.01 0.01,0.02 0.01,0.02 0.01,0.03 0.01,0.03 0,0.02 0.01,0.01 0.01,0.02 0,0.01 0.01,0.02 0,0.02 0.01,0.02 0.01,0.01 0,0.03 0.01,0.02 0.01,0.02 0.01,0.02 c 0.08,0.2 0.13,0.34 0.13,0.53 0,0.45 -0.32,0.82 -0.82,0.82 -0.93,0 -1.31,-1.44 -1.31,-1.53 0,-0.1 0.1,-0.1 0.12,-0.1 0.1,0 0.11,0.02 0.16,0.18 0.27,0.93 0.67,1.23 1,1.23 0.08,0 0.25,0 0.25,-0.32 0,-0.21 -0.07,-0.42 -0.11,-0.52 -0.08,-0.26 -0.52,-1.41 -0.68,-1.84 -0.1,-0.25 -0.23,-0.58 -0.23,-0.79 0,-0.47 0.34,-0.81 0.81,-0.81 0.94,0 1.31,1.44 1.31,1.53 0,0.1 -0.09,0.1 -0.12,0.1 -0.1,0 -0.1,-0.04 -0.15,-0.18 -0.18,-0.63 -0.51,-1.24 -1.02,-1.24 -0.16,0 -0.24,0.1 -0.24,0.33 0,0.25 0.06,0.39 0.29,0.99 z" /></g>    <g
       id="g8146"
       transform="matrix(1.25,0,0,-1.25,110.97734,1426.2776)"
       xml:space="preserve"
       stroke-miterlimit="10.433"
       font-style="normal"
       font-variant="normal"
       font-weight="normal"
       font-stretch="normal"
       font-size-adjust="none"
       letter-spacing="normal"
       word-spacing="normal"
       ns0:text="$j$"
       ns0:preamble="/home/milan/phd/Dokumente/tex/graphics/svg_mathbbm.tex"
       style="font-style:normal;font-variant:normal;font-weight:normal;font-stretch:normal;letter-spacing:normal;word-spacing:normal;text-anchor:start;fill:none;stroke:#000000;stroke-linecap:butt;stroke-linejoin:miter;stroke-miterlimit:10.43299961;stroke-opacity:1;stroke-dasharray:none;stroke-dashoffset:0"><path
         style="fill:#000000;stroke-width:0"
         inkscape:connector-curvature="0"
         d="m 227.38,713.33 0,0.02 0,0.02 0,0.02 0,0.01 -0.01,0.02 0,0.02 -0.01,0.01 0,0.02 -0.01,0.01 -0.01,0.02 -0.01,0.02 0,0.01 -0.01,0.01 -0.01,0.02 -0.02,0.01 -0.01,0.01 -0.01,0.02 -0.01,0.01 -0.02,0.01 -0.01,0.01 -0.02,0.01 -0.01,0.01 -0.02,0 -0.02,0.01 -0.01,0.01 -0.02,0 -0.02,0.01 -0.02,0 -0.02,0.01 -0.02,0 -0.02,0 -0.03,0 c -0.23,0 -0.52,-0.23 -0.52,-0.53 0,-0.19 0.14,-0.35 0.37,-0.35 0.26,0 0.53,0.26 0.53,0.52 z"
         id="path8178" /><path
         style="fill:#000000;stroke-width:0"
         inkscape:connector-curvature="0"
         d="m 225.38,706.63 -0.02,-0.07 -0.02,-0.07 -0.02,-0.07 -0.02,-0.07 -0.03,-0.06 -0.02,-0.06 -0.03,-0.07 -0.03,-0.06 -0.03,-0.06 -0.03,-0.05 -0.04,-0.06 -0.03,-0.05 -0.04,-0.05 -0.03,-0.05 -0.04,-0.05 -0.04,-0.05 -0.04,-0.04 -0.04,-0.04 -0.05,-0.04 -0.04,-0.03 -0.04,-0.04 -0.05,-0.03 -0.05,-0.03 -0.04,-0.02 -0.05,-0.03 -0.05,-0.02 -0.05,-0.01 -0.05,-0.02 -0.05,-0.01 -0.05,-0.01 -0.05,0 -0.05,0 c -0.06,0 -0.21,0 -0.39,0.09 0.3,0.07 0.45,0.32 0.45,0.52 0,0.16 -0.11,0.35 -0.38,0.35 -0.25,0 -0.54,-0.21 -0.54,-0.57 0,-0.39 0.4,-0.61 0.88,-0.61 0.7,0 1.62,0.52 1.87,1.51 l 0.91,3.63 c 0.05,0.2 0.05,0.34 0.05,0.37 0,0.57 -0.41,0.92 -0.91,0.92 -1.02,0 -1.58,-1.44 -1.58,-1.53 0,-0.1 0.1,-0.1 0.12,-0.1 0.09,0 0.1,0.01 0.18,0.2 0.24,0.6 0.7,1.21 1.25,1.21 0.14,0 0.32,-0.04 0.32,-0.46 0,-0.23 -0.03,-0.34 -0.07,-0.51 z"
         id="path8180" /></g>    <g
       id="g8280"
       transform="matrix(1.25,0,0,-1.25,197.26927,1426.0071)"
       xml:space="preserve"
       stroke-miterlimit="10.433"
       font-style="normal"
       font-variant="normal"
       font-weight="normal"
       font-stretch="normal"
       font-size-adjust="none"
       letter-spacing="normal"
       word-spacing="normal"
       ns0:text="$k$"
       ns0:preamble="/home/milan/phd/Dokumente/tex/graphics/svg_mathbbm.tex"
       style="font-style:normal;font-variant:normal;font-weight:normal;font-stretch:normal;letter-spacing:normal;word-spacing:normal;text-anchor:start;fill:none;stroke:#000000;stroke-linecap:butt;stroke-linejoin:miter;stroke-miterlimit:10.43299961;stroke-opacity:1;stroke-dasharray:none;stroke-dashoffset:0"><path
         style="fill:#000000;stroke-width:0"
         inkscape:connector-curvature="0"
         d="m 226.29,713.91 0,0 0,0 0,0 0,0 0,0.01 0,0 0,0 0,0.01 -0.01,0 0,0.01 0,0 0,0 0,0.01 0,0 0,0.01 -0.01,0 0,0.01 0,0 -0.01,0.01 0,0 0,0.01 -0.01,0 0,0 0,0 0,0.01 -0.01,0 0,0 0,0 -0.01,0 0,0.01 0,0 -0.01,0 0,0 -0.01,0 0,0 0,0 -0.01,0 0,0.01 -0.01,0 0,0 -0.01,0 0,0 -0.01,0 -0.01,0 0,0 c -0.23,0 -0.96,-0.08 -1.22,-0.1 -0.07,-0.01 -0.18,-0.02 -0.18,-0.2 0,-0.12 0.09,-0.12 0.23,-0.12 0.48,0 0.5,-0.07 0.5,-0.17 l -0.03,-0.2 -1.44,-5.72 c -0.04,-0.14 -0.04,-0.16 -0.04,-0.22 0,-0.22 0.2,-0.27 0.29,-0.27 0.13,0 0.28,0.08 0.34,0.2 0.05,0.09 0.49,1.93 0.55,2.18 0.34,-0.03 1.16,-0.19 1.16,-0.85 0,-0.06 0,-0.1 -0.03,-0.2 -0.02,-0.12 -0.04,-0.24 -0.04,-0.35 0,-0.59 0.4,-0.98 0.91,-0.98 0.3,0 0.57,0.15 0.79,0.52 0.25,0.44 0.36,0.99 0.36,1.01 0,0.1 -0.09,0.1 -0.12,0.1 -0.1,0 -0.11,-0.05 -0.14,-0.18 -0.2,-0.73 -0.43,-1.24 -0.87,-1.24 -0.19,0 -0.32,0.11 -0.32,0.47 0,0.17 0.04,0.4 0.08,0.56 0.04,0.17 0.04,0.21 0.04,0.31 0,0.64 -0.62,0.93 -1.47,1.04 0.31,0.18 0.63,0.49 0.86,0.73 0.48,0.53 0.93,0.96 1.42,0.96 0.06,0 0.07,0 0.09,-0.01 0.12,-0.02 0.13,-0.02 0.21,-0.08 0.02,-0.01 0.02,-0.02 0.04,-0.04 -0.48,-0.03 -0.57,-0.42 -0.57,-0.54 0,-0.16 0.11,-0.35 0.38,-0.35 0.26,0 0.55,0.22 0.55,0.61 0,0.3 -0.23,0.63 -0.68,0.63 -0.28,0 -0.74,-0.08 -1.45,-0.88 -0.34,-0.38 -0.73,-0.77 -1.11,-0.92 z"
         id="path8322" /></g>    <path
       inkscape:connection-end-point="d4"
       inkscape:connection-end="#rect8359"
       inkscape:connection-start-point="d4"
       inkscape:connection-start="#rect8357"
       inkscape:connector-curvature="0"
       inkscape:connector-type="polyline"
       id="path8363"
       d="m 383.92386,530.59498 h 51.85715"
       style="fill:none;stroke:#000000;stroke-width:1px;stroke-linecap:butt;stroke-linejoin:miter;stroke-opacity:1" />
    <path
       inkscape:connection-start-point="d4"
       inkscape:connection-start="#rect8357"
       inkscape:connector-curvature="0"
       inkscape:connector-type="polyline"
       id="path8365"
       d="m 351.78101,530.52629 -25.7143,-0.1099"
       style="fill:none;stroke:#000000;stroke-width:1px;stroke-linecap:butt;stroke-linejoin:miter;stroke-opacity:1" />
    <path
       inkscape:connection-start-point="d4"
       inkscape:connection-start="#rect8359"
       inkscape:connector-curvature="0"
       inkscape:connector-type="polyline"
       id="path8367"
       d="m 467.92386,530.65936 28.49998,0.11417"
       style="fill:none;stroke:#000000;stroke-width:1px;stroke-linecap:butt;stroke-linejoin:miter;stroke-opacity:1" />
    <g
       id="g8208"
       transform="matrix(1.25,0,0,-1.25,144.95071,1426.1583)"
       xml:space="preserve"
       stroke-miterlimit="10.433"
       font-style="normal"
       font-variant="normal"
       font-weight="normal"
       font-stretch="normal"
       font-size-adjust="none"
       letter-spacing="normal"
       word-spacing="normal"
       ns0:text="$l$"
       ns0:preamble="/home/milan/phd/Dokumente/tex/graphics/svg_mathbbm.tex"
       style="font-style:normal;font-variant:normal;font-weight:normal;font-stretch:normal;letter-spacing:normal;word-spacing:normal;text-anchor:start;fill:none;stroke:#000000;stroke-linecap:butt;stroke-linejoin:miter;stroke-miterlimit:10.43299961;stroke-opacity:1;stroke-dasharray:none;stroke-dashoffset:0"><path
         style="fill:#000000;stroke-width:0"
         inkscape:connector-curvature="0"
         d="m 226,713.91 0,0 0,0 0,0 0,0 0,0.01 0,0 0,0 0,0.01 0,0 0,0.01 0,0 -0.01,0 0,0.01 0,0 0,0.01 0,0 -0.01,0.01 0,0 0,0.01 -0.01,0 0,0.01 0,0 -0.01,0 0,0 0,0.01 -0.01,0 0,0 0,0 -0.01,0 0,0.01 0,0 -0.01,0 0,0 0,0 -0.01,0 0,0 -0.01,0 0,0.01 -0.01,0 0,0 -0.01,0 0,0 -0.01,0 0,0 -0.01,0 c -0.23,0 -0.96,-0.08 -1.21,-0.1 -0.08,-0.01 -0.19,-0.02 -0.19,-0.21 0,-0.11 0.1,-0.11 0.24,-0.11 0.48,0 0.49,-0.09 0.49,-0.17 l -0.03,-0.2 -1.25,-4.96 c -0.03,-0.11 -0.05,-0.18 -0.05,-0.34 0,-0.57 0.44,-0.91 0.9,-0.91 0.33,0 0.58,0.19 0.75,0.55 0.18,0.38 0.3,0.96 0.3,0.98 0,0.1 -0.09,0.1 -0.12,0.1 -0.1,0 -0.11,-0.05 -0.14,-0.18 -0.17,-0.65 -0.36,-1.24 -0.76,-1.24 -0.29,0 -0.29,0.32 -0.29,0.46 0,0.24 0.01,0.29 0.06,0.48 z"
         id="path8479" /></g>    <path
       style="fill:none;stroke:#000000;stroke-width:1px;stroke-linecap:butt;stroke-linejoin:miter;stroke-opacity:1"
       d="m 264.99529,530.65936 28.49999,0.11417"
       id="path10244"
       inkscape:connector-type="polyline"
       inkscape:connector-curvature="0" />
    <g
       id="g10246"
       transform="matrix(1.25,0,0,-1.25,-42.216415,1418.1321)"
       xml:space="preserve"
       stroke-miterlimit="10.433"
       font-style="normal"
       font-variant="normal"
       font-weight="normal"
       font-stretch="normal"
       font-size-adjust="none"
       letter-spacing="normal"
       word-spacing="normal"
       ns0:text="$C_{mn}$"
       ns0:preamble="/home/milan/phd/Dokumente/tex/graphics/svg_mathbbm.tex"
       style="font-style:normal;font-variant:normal;font-weight:normal;font-stretch:normal;letter-spacing:normal;word-spacing:normal;text-anchor:start;fill:none;stroke:#000000;stroke-linecap:butt;stroke-linejoin:miter;stroke-miterlimit:10.43299961;stroke-opacity:1;stroke-dasharray:none;stroke-dashoffset:0"><path
         style="fill:#000000;stroke-width:0"
         inkscape:connector-curvature="0"
         d="m 230.99,714.03 0,0 0,0.01 0,0 0,0 0,0.01 0,0 0,0 0,0.01 0,0 0,0.01 -0.01,0 0,0 0,0.01 0,0 -0.01,0.01 0,0 0,0 0,0.01 -0.01,0 0,0 -0.01,0.01 0,0 -0.01,0 0,0.01 -0.01,0 0,0 0,0 -0.01,0 0,0 0,0 -0.01,0 0,0.01 0,0 -0.01,0 0,0 0,0 -0.01,0 0,0 -0.01,0 c -0.03,0 -0.04,-0.01 -0.14,-0.12 l -0.7,-0.77 c -0.09,0.14 -0.55,0.89 -1.65,0.89 -2.22,0 -4.46,-2.2 -4.46,-4.5 0,-1.64 1.17,-2.72 2.7,-2.72 0.86,0 1.62,0.39 2.14,0.85 0.93,0.82 1.1,1.72 1.1,1.75 0,0.1 -0.1,0.1 -0.12,0.1 -0.06,0 -0.11,-0.02 -0.13,-0.1 -0.09,-0.29 -0.32,-0.99 -1,-1.57 -0.69,-0.56 -1.32,-0.73 -1.83,-0.73 -0.9,0 -1.95,0.52 -1.95,2.07 0,0.57 0.2,2.18 1.2,3.34 0.61,0.7 1.54,1.2 2.43,1.2 1.01,0 1.6,-0.77 1.6,-1.92 0,-0.39 -0.03,-0.4 -0.03,-0.5 0,-0.1 0.11,-0.1 0.15,-0.1 0.13,0 0.13,0.02 0.18,0.2 z"
         id="path10329" /><path
         style="fill:#000000;stroke-width:0"
         inkscape:connector-curvature="0"
         d="m 233.58,706.19 -0.01,-0.01 0,-0.01 0,-0.02 -0.01,-0.01 0,-0.02 -0.01,-0.01 0,-0.03 -0.01,-0.04 -0.01,-0.03 -0.01,-0.03 0,-0.01 -0.01,-0.02 0,-0.01 0,-0.02 -0.01,-0.01 0,-0.02 0,-0.01 -0.01,-0.01 0,-0.02 0,-0.01 0,-0.01 -0.01,-0.01 0,-0.01 0,0 0,-0.01 0,-0.01 0,0 0,-0.01 c 0,-0.15 0.12,-0.22 0.23,-0.22 0.13,0 0.24,0.09 0.28,0.15 0.03,0.07 0.09,0.29 0.12,0.44 0.04,0.13 0.11,0.45 0.15,0.62 0.05,0.15 0.09,0.31 0.12,0.47 0.08,0.3 0.08,0.31 0.22,0.53 0.22,0.34 0.57,0.73 1.11,0.73 0.39,0 0.41,-0.32 0.41,-0.48 0,-0.42 -0.3,-1.19 -0.41,-1.49 -0.07,-0.19 -0.1,-0.25 -0.1,-0.37 0,-0.37 0.31,-0.6 0.66,-0.6 0.7,0 1,0.96 1,1.06 0,0.1 -0.09,0.1 -0.11,0.1 -0.09,0 -0.1,-0.05 -0.13,-0.12 -0.16,-0.56 -0.46,-0.84 -0.74,-0.84 -0.14,0 -0.17,0.09 -0.17,0.24 0,0.16 0.03,0.25 0.16,0.56 0.08,0.22 0.37,0.96 0.37,1.35 0,0.11 0,0.4 -0.26,0.6 -0.12,0.09 -0.32,0.19 -0.65,0.19 -0.62,0 -1.01,-0.41 -1.23,-0.71 -0.06,0.6 -0.55,0.71 -0.91,0.71 -0.58,0 -0.97,-0.36 -1.17,-0.63 -0.05,0.47 -0.46,0.63 -0.75,0.63 -0.3,0 -0.46,-0.22 -0.55,-0.38 -0.15,-0.25 -0.25,-0.65 -0.25,-0.69 0,-0.09 0.1,-0.09 0.12,-0.09 0.1,0 0.1,0.02 0.15,0.21 0.11,0.41 0.24,0.75 0.51,0.75 0.18,0 0.23,-0.15 0.23,-0.34 0,-0.13 -0.06,-0.39 -0.11,-0.57 -0.05,-0.19 -0.12,-0.48 -0.15,-0.63 l -0.23,-0.89 c -0.02,-0.09 -0.07,-0.27 -0.07,-0.29 0,-0.15 0.13,-0.22 0.24,-0.22 0.13,0 0.24,0.09 0.27,0.15 0.04,0.07 0.09,0.29 0.13,0.44 0.03,0.13 0.11,0.45 0.15,0.62 0.04,0.15 0.08,0.31 0.12,0.47 0.08,0.28 0.09,0.34 0.29,0.62 0.2,0.28 0.52,0.64 1.05,0.64 0.4,0 0.41,-0.35 0.41,-0.48 0,-0.18 -0.02,-0.27 -0.12,-0.66 z"
         id="path10331" /><path
         style="fill:#000000;stroke-width:0"
         inkscape:connector-curvature="0"
         d="m 238.47,706.07 0,-0.01 0,-0.01 -0.01,-0.01 0,-0.01 0,-0.01 0,-0.01 -0.01,-0.01 0,-0.01 -0.01,-0.02 0,-0.03 -0.01,-0.02 0,-0.02 -0.01,-0.01 0,-0.01 0,-0.01 0,-0.01 -0.01,-0.01 0,-0.01 0,-0.01 0,-0.01 0,0 0,-0.01 -0.01,-0.01 0,0 0,-0.01 0,0 0,0 0,0 0,0 0,-0.01 c 0,-0.15 0.13,-0.22 0.24,-0.22 0.12,0 0.24,0.09 0.27,0.15 0.04,0.07 0.09,0.29 0.13,0.44 0.03,0.13 0.11,0.45 0.15,0.62 0.04,0.15 0.08,0.31 0.12,0.47 0.07,0.28 0.09,0.34 0.29,0.62 0.19,0.28 0.52,0.64 1.05,0.64 0.4,0 0.41,-0.35 0.41,-0.48 0,-0.42 -0.3,-1.19 -0.41,-1.49 -0.08,-0.19 -0.11,-0.25 -0.11,-0.37 0,-0.37 0.31,-0.6 0.66,-0.6 0.7,0 1.01,0.96 1.01,1.06 0,0.1 -0.1,0.1 -0.12,0.1 -0.09,0 -0.1,-0.05 -0.13,-0.12 -0.16,-0.56 -0.46,-0.84 -0.74,-0.84 -0.14,0 -0.17,0.09 -0.17,0.24 0,0.16 0.03,0.25 0.16,0.56 0.08,0.22 0.37,0.96 0.37,1.35 0,0.67 -0.54,0.79 -0.91,0.79 -0.57,0 -0.96,-0.36 -1.17,-0.63 -0.05,0.47 -0.46,0.63 -0.75,0.63 -0.3,0 -0.46,-0.22 -0.55,-0.38 -0.15,-0.25 -0.25,-0.65 -0.25,-0.69 0,-0.09 0.1,-0.09 0.12,-0.09 0.1,0 0.1,0.02 0.15,0.21 0.11,0.41 0.24,0.75 0.51,0.75 0.18,0 0.23,-0.15 0.23,-0.34 0,-0.13 -0.06,-0.39 -0.11,-0.57 -0.05,-0.19 -0.12,-0.48 -0.15,-0.63 z"
         id="path10333" /></g>    <g
       style="font-style:normal;font-variant:normal;font-weight:normal;font-stretch:normal;letter-spacing:normal;word-spacing:normal;text-anchor:start;fill:none;stroke:#000000;stroke-linecap:butt;stroke-linejoin:miter;stroke-miterlimit:10.43299961;stroke-opacity:1;stroke-dasharray:none;stroke-dashoffset:0"
       ns0:preamble="/home/milan/phd/Dokumente/tex/graphics/svg_mathbbm.tex"
       ns0:text="$n$"
       word-spacing="normal"
       letter-spacing="normal"
       font-size-adjust="none"
       font-stretch="normal"
       font-weight="normal"
       font-variant="normal"
       font-style="normal"
       stroke-miterlimit="10.433"
       xml:space="preserve"
       transform="matrix(1.25,0,0,-1.25,-5.659295,1426.0071)"
       id="g10240"><path
         id="path10480"
         d="m 224.31,707.71 0,-0.01 -0.01,-0.02 0,-0.01 0,-0.02 -0.01,-0.03 -0.01,-0.03 -0.01,-0.03 0,-0.04 -0.01,-0.03 -0.01,-0.03 0,-0.01 -0.01,-0.02 0,-0.01 0,-0.02 0,-0.01 -0.01,-0.01 0,-0.02 0,-0.01 0,-0.01 -0.01,-0.01 0,-0.01 0,-0.01 0,-0.01 0,0 0,-0.01 0,-0.01 c 0,-0.18 0.14,-0.26 0.29,-0.26 0.12,0 0.29,0.07 0.37,0.27 0,0.02 0.12,0.49 0.18,0.74 l 0.22,0.89 c 0.06,0.22 0.12,0.44 0.17,0.67 0.04,0.17 0.12,0.46 0.13,0.5 0.15,0.3 0.68,1.21 1.62,1.21 0.45,0 0.54,-0.37 0.54,-0.7 0,-0.61 -0.49,-1.89 -0.65,-2.31 -0.09,-0.23 -0.1,-0.35 -0.1,-0.46 0,-0.47 0.35,-0.81 0.82,-0.81 0.93,0 1.3,1.45 1.3,1.53 0,0.1 -0.09,0.1 -0.12,0.1 -0.1,0 -0.1,-0.04 -0.15,-0.18 -0.19,-0.68 -0.52,-1.24 -1.01,-1.24 -0.17,0 -0.24,0.1 -0.24,0.33 0,0.25 0.09,0.49 0.18,0.71 0.19,0.52 0.61,1.62 0.61,2.18 0,0.67 -0.43,1.07 -1.15,1.07 -0.89,0 -1.38,-0.64 -1.55,-0.87 -0.05,0.56 -0.46,0.87 -0.92,0.87 -0.45,0 -0.64,-0.39 -0.74,-0.57 -0.16,-0.34 -0.3,-0.92 -0.3,-0.96 0,-0.1 0.1,-0.1 0.12,-0.1 0.1,0 0.11,0.01 0.17,0.22 0.17,0.71 0.37,1.19 0.73,1.19 0.19,0 0.3,-0.13 0.3,-0.46 0,-0.21 -0.03,-0.32 -0.16,-0.83 z"
         inkscape:connector-curvature="0"
         style="fill:#000000;stroke-width:0" /></g>    <g
       id="g10254"
       transform="matrix(1.25,0,0,-1.25,-63.977855,1426.1583)"
       xml:space="preserve"
       stroke-miterlimit="10.433"
       font-style="normal"
       font-variant="normal"
       font-weight="normal"
       font-stretch="normal"
       font-size-adjust="none"
       letter-spacing="normal"
       word-spacing="normal"
       ns0:text="$m$"
       ns0:preamble="/home/milan/phd/Dokumente/tex/graphics/svg_mathbbm.tex"
       style="font-style:normal;font-variant:normal;font-weight:normal;font-stretch:normal;letter-spacing:normal;word-spacing:normal;text-anchor:start;fill:none;stroke:#000000;stroke-linecap:butt;stroke-linejoin:miter;stroke-miterlimit:10.43299961;stroke-opacity:1;stroke-dasharray:none;stroke-dashoffset:0"><path
         style="fill:#000000;stroke-width:0"
         inkscape:connector-curvature="0"
         d="m 224.31,707.71 0,-0.01 -0.01,-0.02 0,-0.01 0,-0.02 -0.01,-0.03 -0.01,-0.03 -0.01,-0.03 0,-0.04 -0.01,-0.03 -0.01,-0.03 0,-0.01 -0.01,-0.02 0,-0.01 0,-0.02 0,-0.01 -0.01,-0.01 0,-0.02 0,-0.01 0,-0.01 -0.01,-0.01 0,-0.01 0,-0.01 0,-0.01 0,0 0,-0.01 0,-0.01 c 0,-0.18 0.14,-0.26 0.29,-0.26 0.12,0 0.29,0.07 0.37,0.27 0,0.02 0.12,0.49 0.18,0.74 l 0.22,0.89 c 0.06,0.22 0.12,0.44 0.17,0.67 0.04,0.17 0.12,0.46 0.13,0.5 0.15,0.3 0.68,1.21 1.62,1.21 0.45,0 0.54,-0.37 0.54,-0.7 0,-0.25 -0.07,-0.52 -0.15,-0.82 l -0.28,-1.16 -0.2,-0.75 c -0.04,-0.2 -0.13,-0.54 -0.13,-0.59 0,-0.18 0.14,-0.26 0.29,-0.26 0.31,0 0.37,0.24 0.45,0.56 0.14,0.56 0.51,2.01 0.6,2.4 0.03,0.12 0.55,1.32 1.64,1.32 0.43,0 0.54,-0.34 0.54,-0.7 0,-0.56 -0.42,-1.7 -0.62,-2.22 -0.09,-0.24 -0.13,-0.35 -0.13,-0.55 0,-0.47 0.35,-0.81 0.82,-0.81 0.93,0 1.3,1.45 1.3,1.53 0,0.1 -0.09,0.1 -0.12,0.1 -0.1,0 -0.1,-0.04 -0.15,-0.18 -0.15,-0.53 -0.47,-1.24 -1.01,-1.24 -0.17,0 -0.24,0.1 -0.24,0.33 0,0.25 0.09,0.49 0.18,0.71 0.18,0.51 0.6,1.62 0.6,2.18 0,0.65 -0.39,1.07 -1.14,1.07 -0.75,0 -1.25,-0.44 -1.62,-0.97 -0.01,0.13 -0.04,0.47 -0.32,0.71 -0.25,0.21 -0.57,0.26 -0.82,0.26 -0.89,0 -1.38,-0.64 -1.55,-0.87 -0.05,0.57 -0.47,0.87 -0.92,0.87 -0.45,0 -0.64,-0.39 -0.73,-0.57 -0.18,-0.35 -0.31,-0.93 -0.31,-0.96 0,-0.1 0.1,-0.1 0.12,-0.1 0.1,0 0.11,0.01 0.17,0.22 0.17,0.71 0.37,1.19 0.73,1.19 0.16,0 0.3,-0.08 0.3,-0.46 0,-0.21 -0.03,-0.32 -0.16,-0.83 z"
         id="path10627" /></g>    <path
       inkscape:connection-start-point="d4"
       inkscape:connection-start="#rect10238"
       inkscape:connector-curvature="0"
       inkscape:connector-type="polyline"
       id="path10701"
       d="m 232.85242,530.67343 -29.27627,0.1429"
       style="fill:none;stroke:#000000;stroke-width:1px;stroke-linecap:butt;stroke-linejoin:miter;stroke-opacity:1" />
    <g
       id="g10703"
       transform="matrix(1.25,0,0,-1.25,26.665005,1417.8012)"
       xml:space="preserve"
       stroke-miterlimit="10.433"
       font-style="normal"
       font-variant="normal"
       font-weight="normal"
       font-stretch="normal"
       font-size-adjust="none"
       letter-spacing="normal"
       word-spacing="normal"
       ns0:text="$=$"
       ns0:preamble="/home/milan/phd/Dokumente/tex/graphics/svg_mathbbm.tex"
       style="font-style:normal;font-variant:normal;font-weight:normal;font-stretch:normal;letter-spacing:normal;word-spacing:normal;text-anchor:start;fill:none;stroke:#000000;stroke-linecap:butt;stroke-linejoin:miter;stroke-miterlimit:10.43299961;stroke-opacity:1;stroke-dasharray:none;stroke-dashoffset:0"><path
         style="fill:#000000;stroke-width:0"
         inkscape:connector-curvature="0"
         d="m 230.27,710.37 0.03,0 0.02,0 0.03,0 0.02,0.01 0.01,0 0.02,0 0.01,0 0.02,0 0.01,0 0.01,0.01 0.02,0 0.01,0 0.01,0.01 0.01,0 0.02,0.01 0.01,0 0.01,0.01 0.01,0.01 0.01,0.01 0.01,0.01 0,0.01 0.01,0 0,0.01 0,0 0.01,0.01 0,0.01 0,0 0,0.01 0.01,0.01 0,0 0,0.01 0,0.01 0,0.01 0,0.01 0,0 0,0.01 0,0.01 c 0,0.2 -0.18,0.2 -0.32,0.2 h -5.96 c -0.14,0 -0.33,0 -0.33,-0.2 0,-0.2 0.19,-0.2 0.34,-0.2 z"
         id="path10936" /><path
         style="fill:#000000;stroke-width:0"
         inkscape:connector-curvature="0"
         d="m 230.28,708.45 0.01,0 0.01,0 0.03,0 0.03,0 0.01,0 0.02,0 0.01,0 0.01,0 0.02,0 0.01,0.01 0.02,0 0.01,0 0.01,0.01 0.01,0 0.02,0.01 0.01,0 0.01,0.01 0.01,0 0.01,0.01 0.01,0.01 0.01,0.01 0,0 0,0.01 0.01,0.01 0,0 0,0.01 0.01,0 0,0.01 0,0.01 0,0 0.01,0.01 0,0.01 0,0 0,0.01 0,0.01 0,0.01 0,0.01 0,0.01 0,0.01 c 0,0.19 -0.18,0.19 -0.33,0.19 h -5.94 c -0.15,0 -0.34,0 -0.34,-0.19 0,-0.2 0.19,-0.2 0.33,-0.2 z"
         id="path10938" /></g>    <g
       style="font-style:normal;font-variant:normal;font-weight:normal;font-stretch:normal;letter-spacing:normal;word-spacing:normal;text-anchor:start;fill:none;stroke:#000000;stroke-linecap:butt;stroke-linejoin:miter;stroke-miterlimit:10.43299961;stroke-opacity:1;stroke-dasharray:none;stroke-dashoffset:0"
       ns0:preamble="/home/milan/phd/Dokumente/tex/graphics/svg_mathbbm.tex"
       ns0:text="$B_{kl}$"
       word-spacing="normal"
       letter-spacing="normal"
       font-size-adjust="none"
       font-stretch="normal"
       font-weight="normal"
       font-variant="normal"
       font-style="normal"
       stroke-miterlimit="10.433"
       xml:space="preserve"
       transform="matrix(1.25,0,0,-1.25,162.71215,1418.1321)"
       id="g8026"><path
         id="path11875"
         d="m 225.02,707.9 -0.01,-0.04 0,-0.03 -0.01,-0.03 -0.01,-0.03 -0.01,-0.03 -0.01,-0.03 -0.01,-0.02 -0.01,-0.03 -0.01,-0.02 -0.01,-0.02 -0.02,-0.02 -0.01,-0.02 -0.01,-0.02 -0.02,-0.01 -0.02,-0.02 -0.02,-0.01 -0.02,-0.01 -0.03,-0.01 -0.03,-0.01 -0.03,-0.01 -0.03,-0.01 -0.02,0 -0.01,-0.01 -0.02,0 -0.02,0 -0.02,-0.01 -0.02,0 -0.02,0 -0.03,0 -0.02,-0.01 -0.03,0 -0.02,0 -0.03,0 -0.02,0 -0.03,0 -0.03,0 -0.03,0 -0.03,-0.01 -0.03,0 -0.04,0 -0.03,0 -0.04,0 -0.03,0 c -0.17,0 -0.27,0 -0.27,-0.2 0,-0.11 0.09,-0.11 0.27,-0.11 h 3.55 c 1.57,0 2.75,1.18 2.75,2.15 0,0.72 -0.58,1.29 -1.55,1.4 1.04,0.19 2.08,0.92 2.08,1.87 0,0.73 -0.65,1.37 -1.85,1.37 l -0.14,-0.31 c 0.88,0 1.09,-0.58 1.09,-1.02 0,-0.87 -0.86,-1.82 -2.07,-1.82 h -1.45 l -0.06,-0.22 h 1.88 c 0.95,0 1.14,-0.73 1.14,-1.16 0,-0.98 -0.88,-1.95 -2.06,-1.95 h -1.35 c -0.14,0 -0.16,0 -0.22,0.01 -0.1,0.01 -0.13,0.02 -0.13,0.1 0,0.03 0,0.05 0.05,0.23 l 0.69,2.77 0.06,0.22 0.61,2.46 c 0.09,0.35 0.11,0.38 0.54,0.38 h 1.28 l 0.14,0.31 h -3.34 c -0.19,0 -0.29,0 -0.29,-0.2 0,-0.11 0.09,-0.11 0.28,-0.11 0.02,0 0.21,0 0.38,-0.02 0.18,-0.02 0.27,-0.03 0.27,-0.16 0,-0.04 -0.01,-0.07 -0.04,-0.19 z"
         inkscape:connector-curvature="0"
         style="fill:#000000;stroke-width:0" /><path
         id="path11877"
         d="m 233.17,710.25 0,0 0,0 0,0 0,0 0,0 0,0 0,0.01 0,0 0,0 0,0 0.01,0.01 0,0 0,0 0,0.01 0,0 0,0.01 0,0 0,0.01 0.01,0.01 0,0 0,0.01 0,0 0,0 0,0.01 0,0 0,0.01 0,0 0,0 0.01,0.01 0,0 0,0 0,0 0,0 0,0 0,0.01 0,0 0,0 0,0 0,0 0,0 0,0 c 0,0.03 -0.03,0.1 -0.11,0.1 -0.14,0 -0.72,-0.06 -0.9,-0.07 -0.05,-0.01 -0.15,-0.02 -0.15,-0.16 0,-0.1 0.1,-0.1 0.18,-0.1 0.34,0 0.34,-0.05 0.34,-0.1 0,-0.05 -0.02,-0.1 -0.03,-0.16 l -0.98,-3.93 c -0.04,-0.13 -0.04,-0.14 -0.04,-0.16 0,-0.1 0.09,-0.22 0.24,-0.22 0.19,0 0.28,0.14 0.32,0.29 0.01,0.03 0.31,1.25 0.34,1.35 0.49,-0.05 0.89,-0.21 0.89,-0.57 0,-0.03 0,-0.07 -0.01,-0.14 -0.03,-0.1 -0.03,-0.14 -0.03,-0.21 0,-0.5 0.4,-0.72 0.74,-0.72 0.67,0 0.88,1.06 0.88,1.06 0,0.1 -0.09,0.1 -0.11,0.1 -0.1,0 -0.1,-0.04 -0.14,-0.17 -0.08,-0.3 -0.27,-0.79 -0.61,-0.79 -0.19,0 -0.25,0.17 -0.25,0.36 0,0.12 0,0.13 0.05,0.31 0,0.02 0.03,0.14 0.03,0.22 0,0.62 -0.83,0.71 -1.13,0.73 0.21,0.13 0.46,0.36 0.58,0.46 0.36,0.34 0.71,0.66 1.1,0.66 0.08,0 0.17,-0.02 0.22,-0.09 -0.3,-0.05 -0.36,-0.28 -0.36,-0.39 0,-0.15 0.12,-0.25 0.28,-0.25 0.19,0 0.4,0.15 0.4,0.44 0,0.23 -0.17,0.49 -0.54,0.49 -0.39,0 -0.76,-0.29 -1.11,-0.61 -0.3,-0.28 -0.53,-0.5 -0.81,-0.62 z"
         inkscape:connector-curvature="0"
         style="fill:#000000;stroke-width:0" /><path
         id="path11879"
         d="m 237.36,710.25 0,0 0,0 0,0 0,0 0,0 0,0 0,0.01 0,0 0,0 0,0 0,0.01 0,0 0,0 0.01,0.01 0,0 0,0.01 0,0 0,0.01 0,0.01 0,0 0,0.01 0.01,0 0,0 0,0.01 0,0 0,0.01 0,0 0,0 0,0.01 0,0 0,0 0,0 0,0 0,0 0,0.01 0,0 0,0 0,0 0,0 0,0 0,0 c 0,0.03 -0.02,0.1 -0.11,0.1 -0.14,0 -0.72,-0.06 -0.89,-0.07 -0.05,-0.01 -0.15,-0.02 -0.15,-0.16 0,-0.1 0.1,-0.1 0.18,-0.1 0.33,0 0.33,-0.05 0.33,-0.1 0,-0.05 -0.01,-0.1 -0.03,-0.16 l -0.86,-3.43 c -0.02,-0.07 -0.03,-0.15 -0.03,-0.22 0,-0.44 0.4,-0.66 0.73,-0.66 0.17,0 0.38,0.06 0.56,0.37 0.15,0.26 0.25,0.67 0.25,0.69 0,0.1 -0.1,0.1 -0.12,0.1 -0.09,0 -0.11,-0.05 -0.14,-0.17 -0.09,-0.35 -0.22,-0.79 -0.52,-0.79 -0.19,0 -0.23,0.17 -0.23,0.34 0,0.07 0.02,0.2 0.04,0.28 z"
         inkscape:connector-curvature="0"
         style="fill:#000000;stroke-width:0" /></g>  </g>
</svg>
