<?xml version="1.0" encoding="UTF-8"?>
<svg xmlns="http://www.w3.org/2000/svg" xmlns:xlink="http://www.w3.org/1999/xlink" width="452pt" height="50pt" viewBox="0 0 452 50" version="1.1">
<g id="surface1">
<path style="fill-rule:nonzero;fill:rgb(100%,93.333333%,66.666667%);fill-opacity:1;stroke-width:0.5;stroke-linecap:round;stroke-linejoin:miter;stroke:rgb(0%,0%,0%);stroke-opacity:1;stroke-miterlimit:4;" d="M 235.851562 520.058594 L 261.996094 520.058594 C 263.652344 520.058594 264.996094 521.402344 264.996094 523.058594 L 264.996094 538.128906 C 264.996094 539.789062 263.652344 541.128906 261.996094 541.128906 L 235.851562 541.128906 C 234.195312 541.128906 232.851562 539.789062 232.851562 538.128906 L 232.851562 523.058594 C 232.851562 521.402344 234.195312 520.058594 235.851562 520.058594 Z M 235.851562 520.058594 " transform="matrix(1,0,0,1,-199.5625,-515.8125)"/>
<path style="fill-rule:nonzero;fill:rgb(100%,93.333333%,66.666667%);fill-opacity:1;stroke-width:0.5;stroke-linecap:round;stroke-linejoin:miter;stroke:rgb(0%,0%,0%);stroke-opacity:1;stroke-miterlimit:4;" d="M 438.78125 520.058594 L 464.925781 520.058594 C 466.582031 520.058594 467.925781 521.402344 467.925781 523.058594 L 467.925781 538.128906 C 467.925781 539.789062 466.582031 541.128906 464.925781 541.128906 L 438.78125 541.128906 C 437.125 541.128906 435.78125 539.789062 435.78125 538.128906 L 435.78125 523.058594 C 435.78125 521.402344 437.125 520.058594 438.78125 520.058594 Z M 438.78125 520.058594 " transform="matrix(1,0,0,1,-199.5625,-515.8125)"/>
<path style="fill-rule:nonzero;fill:rgb(100%,93.333333%,66.666667%);fill-opacity:1;stroke-width:0.5;stroke-linecap:round;stroke-linejoin:miter;stroke:rgb(0%,0%,0%);stroke-opacity:1;stroke-miterlimit:4;" d="M 354.78125 520.058594 L 380.925781 520.058594 C 382.582031 520.058594 383.925781 521.402344 383.925781 523.058594 L 383.925781 538.128906 C 383.925781 539.789062 382.582031 541.128906 380.925781 541.128906 L 354.78125 541.128906 C 353.125 541.128906 351.78125 539.789062 351.78125 538.128906 L 351.78125 523.058594 C 351.78125 521.402344 353.125 520.058594 354.78125 520.058594 Z M 354.78125 520.058594 " transform="matrix(1,0,0,1,-199.5625,-515.8125)"/>
<path style=" stroke:none;fill-rule:nonzero;fill:rgb(0%,0%,0%);fill-opacity:1;" d="M 161.324219 16.980469 L 161.285156 17.058594 L 161.238281 17.132812 L 161.1875 17.207031 L 161.136719 17.269531 L 161.097656 17.332031 L 161.050781 17.382812 L 161 17.445312 L 160.960938 17.496094 L 160.910156 17.542969 L 160.863281 17.59375 L 160.8125 17.632812 L 160.773438 17.667969 L 160.722656 17.707031 L 160.675781 17.746094 L 160.625 17.769531 L 160.585938 17.808594 L 160.535156 17.832031 L 160.488281 17.855469 L 160.4375 17.882812 L 160.386719 17.90625 L 160.347656 17.917969 L 160.300781 17.933594 L 160.25 17.957031 L 160.148438 17.980469 L 160.097656 17.996094 L 160.050781 17.996094 L 160 18.007812 L 159.898438 18.019531 L 159.800781 18.03125 C 159.648438 18.042969 159.535156 18.042969 159.535156 18.28125 C 159.535156 18.355469 159.597656 18.417969 159.699219 18.417969 C 160.035156 18.417969 160.425781 18.371094 160.761719 18.371094 C 161.175781 18.371094 161.613281 18.417969 162.011719 18.417969 C 162.085938 18.417969 162.25 18.417969 162.25 18.183594 C 162.25 18.042969 162.136719 18.03125 162.050781 18.03125 C 161.761719 18.007812 161.460938 17.90625 161.460938 17.59375 C 161.460938 17.445312 161.535156 17.308594 161.636719 17.132812 L 162.585938 15.542969 L 165.699219 15.542969 L 165.660156 15.15625 L 162.824219 15.15625 L 165.273438 11.058594 L 165.660156 15.15625 L 165.699219 15.542969 C 165.738281 15.808594 165.898438 17.496094 165.898438 17.621094 C 165.898438 17.996094 165.261719 18.03125 165.011719 18.03125 C 164.835938 18.03125 164.710938 18.03125 164.710938 18.28125 C 164.710938 18.417969 164.863281 18.417969 164.886719 18.417969 C 165.398438 18.417969 165.925781 18.371094 166.4375 18.371094 C 166.75 18.371094 167.535156 18.417969 167.847656 18.417969 C 167.925781 18.417969 168.0625 18.417969 168.0625 18.167969 C 168.0625 18.03125 167.949219 18.03125 167.785156 18.03125 C 167.011719 18.03125 167.011719 17.945312 166.972656 17.582031 L 166.210938 9.820312 C 166.1875 9.570312 166.1875 9.519531 165.972656 9.519531 C 165.773438 9.519531 165.738281 9.605469 165.660156 9.730469 Z M 161.324219 16.980469 "/>
<path style=" stroke:none;fill-rule:nonzero;fill:rgb(0%,0%,0%);fill-opacity:1;" d="M 171.261719 14.84375 L 171.261719 14.792969 L 171.25 14.78125 L 171.25 14.757812 L 171.238281 14.730469 L 171.238281 14.71875 L 171.222656 14.707031 L 171.222656 14.695312 L 171.210938 14.683594 L 171.210938 14.667969 L 171.175781 14.632812 L 171.175781 14.621094 L 171.136719 14.582031 L 171.113281 14.582031 L 171.097656 14.570312 L 171.085938 14.558594 L 171.074219 14.542969 L 171.050781 14.542969 L 171.035156 14.53125 L 171 14.53125 L 170.972656 14.519531 L 170.910156 14.519531 C 170.675781 14.519531 170.425781 14.746094 170.425781 14.996094 C 170.425781 15.144531 170.535156 15.332031 170.773438 15.332031 C 171.023438 15.332031 171.261719 15.082031 171.261719 14.84375 Z M 171.261719 14.84375 "/>
<path style=" stroke:none;fill-rule:nonzero;fill:rgb(0%,0%,0%);fill-opacity:1;" d="M 169.488281 19.257812 L 169.472656 19.28125 L 169.472656 19.308594 L 169.460938 19.34375 L 169.449219 19.371094 L 169.449219 19.394531 L 169.4375 19.40625 L 169.4375 19.433594 L 169.425781 19.457031 L 169.425781 19.507812 L 169.410156 19.519531 L 169.410156 19.632812 C 169.410156 20.03125 169.761719 20.371094 170.238281 20.371094 C 171.113281 20.371094 171.488281 19.167969 171.488281 19.042969 C 171.488281 18.917969 171.375 18.917969 171.347656 18.917969 C 171.222656 18.917969 171.222656 18.980469 171.1875 19.070312 C 170.988281 19.769531 170.597656 20.121094 170.261719 20.121094 C 170.085938 20.121094 170.035156 20.007812 170.035156 19.820312 C 170.035156 19.621094 170.097656 19.457031 170.1875 19.257812 C 170.273438 19.03125 170.363281 18.792969 170.460938 18.570312 C 170.535156 18.355469 170.847656 17.570312 170.886719 17.46875 C 170.910156 17.382812 170.9375 17.269531 170.9375 17.183594 C 170.9375 16.78125 170.585938 16.445312 170.113281 16.445312 C 169.25 16.445312 168.847656 17.632812 168.847656 17.78125 C 168.847656 17.894531 168.972656 17.894531 169 17.894531 C 169.125 17.894531 169.125 17.84375 169.160156 17.757812 C 169.386719 17.007812 169.761719 16.695312 170.085938 16.695312 C 170.222656 16.695312 170.300781 16.757812 170.300781 16.996094 C 170.300781 17.195312 170.25 17.332031 170.035156 17.871094 Z M 169.488281 19.257812 "/>
<path style=" stroke:none;fill-rule:nonzero;fill:rgb(0%,0%,0%);fill-opacity:1;" d="M 175.785156 14.84375 L 175.785156 14.792969 L 175.773438 14.78125 L 175.773438 14.746094 L 175.761719 14.730469 L 175.761719 14.71875 L 175.75 14.707031 L 175.75 14.695312 L 175.722656 14.667969 L 175.722656 14.65625 L 175.6875 14.621094 L 175.675781 14.605469 L 175.660156 14.59375 L 175.636719 14.570312 L 175.625 14.570312 L 175.613281 14.558594 L 175.585938 14.542969 L 175.574219 14.542969 L 175.5625 14.53125 L 175.523438 14.53125 L 175.5 14.519531 L 175.4375 14.519531 C 175.1875 14.519531 174.949219 14.757812 174.949219 14.996094 C 174.949219 15.132812 175.0625 15.332031 175.300781 15.332031 C 175.535156 15.332031 175.785156 15.09375 175.785156 14.84375 Z M 175.785156 14.84375 "/>
<path style=" stroke:none;fill-rule:nonzero;fill:rgb(0%,0%,0%);fill-opacity:1;" d="M 173.9375 20.707031 L 173.925781 20.757812 L 173.910156 20.820312 L 173.886719 20.871094 L 173.875 20.933594 L 173.847656 20.980469 L 173.800781 21.082031 L 173.773438 21.132812 L 173.75 21.183594 L 173.722656 21.230469 L 173.6875 21.269531 L 173.660156 21.320312 L 173.625 21.371094 L 173.585938 21.40625 L 173.550781 21.445312 L 173.511719 21.480469 L 173.472656 21.519531 L 173.4375 21.558594 L 173.398438 21.59375 L 173.363281 21.621094 L 173.324219 21.644531 L 173.273438 21.667969 L 173.238281 21.695312 L 173.1875 21.71875 L 173.148438 21.746094 L 173.097656 21.757812 L 173.050781 21.769531 L 173.011719 21.78125 L 172.960938 21.792969 L 172.910156 21.808594 L 172.8125 21.808594 C 172.710938 21.808594 172.597656 21.792969 172.5 21.757812 C 172.738281 21.65625 172.800781 21.445312 172.800781 21.320312 C 172.800781 21.105469 172.636719 20.996094 172.460938 20.996094 C 172.1875 20.996094 171.960938 21.230469 171.960938 21.507812 C 171.960938 21.832031 172.300781 22.058594 172.824219 22.058594 C 173.347656 22.058594 174.375 21.746094 174.636719 20.683594 L 175.425781 17.570312 C 175.449219 17.46875 175.460938 17.394531 175.460938 17.269531 C 175.460938 16.78125 175.0625 16.445312 174.535156 16.445312 C 173.5625 16.445312 173.011719 17.65625 173.011719 17.78125 C 173.011719 17.894531 173.136719 17.894531 173.160156 17.894531 C 173.261719 17.894531 173.273438 17.871094 173.335938 17.730469 C 173.550781 17.230469 174 16.695312 174.511719 16.695312 C 174.722656 16.695312 174.800781 16.832031 174.800781 17.121094 C 174.800781 17.207031 174.785156 17.332031 174.773438 17.382812 Z M 173.9375 20.707031 "/>
<path style=" stroke:none;fill-rule:nonzero;fill:rgb(0%,0%,0%);fill-opacity:1;" d="M 145.636719 18.792969 L 145.636719 18.746094 L 145.625 18.71875 L 145.625 18.683594 L 145.609375 18.65625 L 145.609375 18.632812 L 145.597656 18.621094 L 145.597656 18.59375 L 145.585938 18.582031 L 145.574219 18.558594 L 145.5625 18.542969 L 145.546875 18.519531 L 145.523438 18.496094 L 145.511719 18.46875 L 145.5 18.457031 L 145.472656 18.445312 L 145.460938 18.433594 L 145.449219 18.417969 L 145.421875 18.40625 L 145.410156 18.394531 L 145.386719 18.382812 L 145.359375 18.382812 L 145.347656 18.371094 L 145.324219 18.355469 L 145.273438 18.355469 L 145.25 18.34375 L 145.171875 18.34375 C 144.835938 18.34375 144.5 18.667969 144.5 19.007812 C 144.5 19.230469 144.671875 19.445312 144.972656 19.445312 C 145.261719 19.445312 145.636719 19.15625 145.636719 18.792969 Z M 145.636719 18.792969 "/>
<path style=" stroke:none;fill-rule:nonzero;fill:rgb(0%,0%,0%);fill-opacity:1;" d="M 144.6875 23.457031 L 144.699219 23.433594 L 144.710938 23.394531 L 144.722656 23.371094 L 144.734375 23.34375 L 144.75 23.308594 L 144.761719 23.28125 L 144.761719 23.269531 L 144.773438 23.246094 L 144.785156 23.21875 L 144.796875 23.195312 L 144.796875 23.183594 L 144.8125 23.15625 L 144.8125 23.144531 L 144.824219 23.121094 L 144.835938 23.09375 L 144.847656 23.058594 L 144.859375 23.019531 L 144.859375 22.996094 L 144.875 22.980469 L 144.886719 22.957031 L 144.886719 22.945312 L 144.898438 22.917969 L 144.898438 22.894531 L 144.910156 22.871094 L 144.921875 22.855469 L 144.921875 22.820312 L 144.9375 22.792969 L 144.960938 22.746094 C 145.0625 22.496094 145.125 22.320312 145.125 22.082031 C 145.125 21.519531 144.722656 21.058594 144.097656 21.058594 C 142.9375 21.058594 142.460938 22.855469 142.460938 22.96875 C 142.460938 23.09375 142.585938 23.09375 142.609375 23.09375 C 142.734375 23.09375 142.75 23.070312 142.8125 22.871094 C 143.148438 21.707031 143.648438 21.332031 144.0625 21.332031 C 144.160156 21.332031 144.375 21.332031 144.375 21.730469 C 144.375 21.996094 144.285156 22.257812 144.234375 22.382812 C 144.136719 22.707031 143.585938 24.144531 143.386719 24.683594 C 143.261719 24.996094 143.097656 25.40625 143.097656 25.667969 C 143.097656 26.257812 143.523438 26.683594 144.109375 26.683594 C 145.285156 26.683594 145.75 24.882812 145.75 24.769531 C 145.75 24.644531 145.636719 24.644531 145.597656 24.644531 C 145.472656 24.644531 145.472656 24.695312 145.410156 24.871094 C 145.1875 25.65625 144.773438 26.417969 144.136719 26.417969 C 143.9375 26.417969 143.835938 26.292969 143.835938 26.007812 C 143.835938 25.695312 143.910156 25.519531 144.199219 24.769531 Z M 144.6875 23.457031 "/>
<path style=" stroke:none;fill-rule:nonzero;fill:rgb(0%,0%,0%);fill-opacity:1;" d="M 195.640625 18.800781 L 195.640625 18.714844 L 195.628906 18.691406 L 195.628906 18.664062 L 195.613281 18.652344 L 195.613281 18.628906 L 195.601562 18.613281 L 195.578125 18.566406 L 195.578125 18.550781 L 195.566406 18.539062 L 195.550781 18.515625 L 195.527344 18.503906 L 195.515625 18.488281 L 195.503906 18.464844 L 195.488281 18.453125 L 195.464844 18.441406 L 195.453125 18.425781 L 195.425781 18.414062 L 195.414062 18.402344 L 195.390625 18.402344 L 195.363281 18.390625 L 195.351562 18.378906 L 195.328125 18.378906 L 195.300781 18.363281 L 195.277344 18.363281 L 195.253906 18.351562 L 195.164062 18.351562 C 194.878906 18.351562 194.515625 18.640625 194.515625 19.015625 C 194.515625 19.253906 194.691406 19.453125 194.976562 19.453125 C 195.300781 19.453125 195.640625 19.128906 195.640625 18.800781 Z M 195.640625 18.800781 "/>
<path style=" stroke:none;fill-rule:nonzero;fill:rgb(0%,0%,0%);fill-opacity:1;" d="M 193.140625 27.175781 L 193.113281 27.265625 L 193.089844 27.351562 L 193.066406 27.441406 L 193.039062 27.527344 L 193.003906 27.601562 L 192.976562 27.675781 L 192.941406 27.765625 L 192.863281 27.914062 L 192.828125 27.976562 L 192.777344 28.050781 L 192.738281 28.113281 L 192.691406 28.175781 L 192.652344 28.238281 L 192.550781 28.363281 L 192.503906 28.414062 L 192.453125 28.464844 L 192.390625 28.515625 L 192.339844 28.550781 L 192.289062 28.601562 L 192.226562 28.640625 L 192.164062 28.675781 L 192.113281 28.703125 L 192.050781 28.738281 L 191.988281 28.765625 L 191.925781 28.777344 L 191.863281 28.800781 L 191.800781 28.816406 L 191.738281 28.828125 L 191.613281 28.828125 C 191.539062 28.828125 191.351562 28.828125 191.128906 28.714844 C 191.503906 28.628906 191.691406 28.316406 191.691406 28.066406 C 191.691406 27.863281 191.550781 27.628906 191.214844 27.628906 C 190.902344 27.628906 190.539062 27.890625 190.539062 28.339844 C 190.539062 28.828125 191.039062 29.101562 191.640625 29.101562 C 192.515625 29.101562 193.664062 28.453125 193.976562 27.214844 L 195.113281 22.675781 C 195.175781 22.425781 195.175781 22.253906 195.175781 22.214844 C 195.175781 21.503906 194.664062 21.066406 194.039062 21.066406 C 192.765625 21.066406 192.066406 22.863281 192.066406 22.976562 C 192.066406 23.101562 192.191406 23.101562 192.214844 23.101562 C 192.328125 23.101562 192.339844 23.089844 192.441406 22.851562 C 192.738281 22.101562 193.316406 21.339844 194.003906 21.339844 C 194.175781 21.339844 194.402344 21.390625 194.402344 21.914062 C 194.402344 22.203125 194.363281 22.339844 194.316406 22.550781 Z M 193.140625 27.175781 "/>
<path style=" stroke:none;fill-rule:nonzero;fill:rgb(0%,0%,0%);fill-opacity:1;" d="M 280.570312 17.808594 L 280.570312 17.78125 L 280.558594 17.78125 L 280.558594 17.746094 L 280.542969 17.746094 L 280.542969 17.730469 L 280.53125 17.71875 L 280.53125 17.707031 L 280.519531 17.707031 L 280.519531 17.695312 L 280.496094 17.695312 L 280.496094 17.683594 L 280.457031 17.683594 L 280.457031 17.667969 L 280.40625 17.667969 C 280.121094 17.667969 279.207031 17.769531 278.882812 17.792969 C 278.792969 17.808594 278.65625 17.820312 278.65625 18.042969 C 278.65625 18.195312 278.769531 18.195312 278.945312 18.195312 C 279.542969 18.195312 279.570312 18.28125 279.570312 18.40625 L 279.53125 18.65625 L 277.730469 25.808594 C 277.683594 25.980469 277.683594 26.007812 277.683594 26.082031 C 277.683594 26.355469 277.933594 26.417969 278.042969 26.417969 C 278.207031 26.417969 278.394531 26.320312 278.46875 26.167969 C 278.53125 26.058594 279.082031 23.757812 279.15625 23.445312 C 279.582031 23.480469 280.605469 23.683594 280.605469 24.507812 C 280.605469 24.582031 280.605469 24.632812 280.570312 24.757812 C 280.542969 24.90625 280.519531 25.058594 280.519531 25.195312 C 280.519531 25.933594 281.019531 26.417969 281.65625 26.417969 C 282.03125 26.417969 282.371094 26.230469 282.644531 25.769531 C 282.957031 25.21875 283.09375 24.53125 283.09375 24.507812 C 283.09375 24.382812 282.980469 24.382812 282.945312 24.382812 C 282.820312 24.382812 282.808594 24.445312 282.769531 24.605469 C 282.519531 25.519531 282.230469 26.15625 281.683594 26.15625 C 281.445312 26.15625 281.28125 26.019531 281.28125 25.570312 C 281.28125 25.355469 281.332031 25.070312 281.382812 24.871094 C 281.433594 24.65625 281.433594 24.605469 281.433594 24.480469 C 281.433594 23.683594 280.65625 23.320312 279.59375 23.183594 C 279.980469 22.957031 280.382812 22.570312 280.667969 22.269531 C 281.269531 21.605469 281.832031 21.070312 282.445312 21.070312 C 282.519531 21.070312 282.53125 21.070312 282.558594 21.082031 C 282.707031 21.105469 282.71875 21.105469 282.820312 21.183594 C 282.84375 21.195312 282.84375 21.207031 282.871094 21.230469 C 282.269531 21.269531 282.15625 21.757812 282.15625 21.90625 C 282.15625 22.105469 282.292969 22.34375 282.632812 22.34375 C 282.957031 22.34375 283.320312 22.070312 283.320312 21.582031 C 283.320312 21.207031 283.03125 20.792969 282.46875 20.792969 C 282.121094 20.792969 281.542969 20.894531 280.65625 21.894531 C 280.230469 22.371094 279.746094 22.855469 279.269531 23.042969 Z M 280.570312 17.808594 "/>
<path style="fill:none;stroke-width:1;stroke-linecap:butt;stroke-linejoin:miter;stroke:rgb(0%,0%,0%);stroke-opacity:1;stroke-miterlimit:4;" d="M 383.925781 530.59375 L 435.78125 530.59375 " transform="matrix(1,0,0,1,-199.5625,-515.8125)"/>
<path style="fill:none;stroke-width:1;stroke-linecap:butt;stroke-linejoin:miter;stroke:rgb(0%,0%,0%);stroke-opacity:1;stroke-miterlimit:4;" d="M 351.78125 530.527344 L 326.066406 530.417969 " transform="matrix(1,0,0,1,-199.5625,-515.8125)"/>
<path style="fill:none;stroke-width:1;stroke-linecap:butt;stroke-linejoin:miter;stroke:rgb(0%,0%,0%);stroke-opacity:1;stroke-miterlimit:4;" d="M 467.925781 530.660156 L 496.425781 530.773438 " transform="matrix(1,0,0,1,-199.5625,-515.8125)"/>
<path style=" stroke:none;fill-rule:nonzero;fill:rgb(0%,0%,0%);fill-opacity:1;" d="M 227.886719 17.957031 L 227.886719 17.921875 L 227.875 17.921875 L 227.875 17.894531 L 227.863281 17.882812 L 227.863281 17.871094 L 227.851562 17.871094 L 227.851562 17.859375 L 227.839844 17.859375 L 227.839844 17.847656 L 227.8125 17.847656 L 227.8125 17.832031 L 227.777344 17.832031 L 227.777344 17.820312 L 227.726562 17.820312 C 227.4375 17.820312 226.527344 17.921875 226.214844 17.945312 C 226.113281 17.957031 225.976562 17.972656 225.976562 18.207031 C 225.976562 18.347656 226.101562 18.347656 226.277344 18.347656 C 226.875 18.347656 226.886719 18.457031 226.886719 18.558594 L 226.851562 18.808594 L 225.289062 25.007812 C 225.25 25.144531 225.226562 25.234375 225.226562 25.433594 C 225.226562 26.144531 225.777344 26.570312 226.351562 26.570312 C 226.761719 26.570312 227.074219 26.332031 227.289062 25.882812 C 227.511719 25.410156 227.664062 24.683594 227.664062 24.660156 C 227.664062 24.535156 227.550781 24.535156 227.511719 24.535156 C 227.386719 24.535156 227.375 24.597656 227.339844 24.757812 C 227.125 25.570312 226.886719 26.308594 226.386719 26.308594 C 226.027344 26.308594 226.027344 25.910156 226.027344 25.734375 C 226.027344 25.433594 226.039062 25.371094 226.101562 25.132812 Z M 227.886719 17.957031 "/>
<path style="fill:none;stroke-width:1;stroke-linecap:butt;stroke-linejoin:miter;stroke:rgb(0%,0%,0%);stroke-opacity:1;stroke-miterlimit:4;" d="M 264.996094 530.660156 L 293.496094 530.773438 " transform="matrix(1,0,0,1,-199.5625,-515.8125)"/>
<path style=" stroke:none;fill-rule:nonzero;fill:rgb(0%,0%,0%);fill-opacity:1;" d="M 46.957031 9.78125 L 46.957031 9.730469 L 46.945312 9.730469 L 46.945312 9.71875 L 46.933594 9.707031 L 46.933594 9.695312 L 46.921875 9.695312 L 46.910156 9.683594 L 46.894531 9.683594 L 46.894531 9.667969 L 46.859375 9.667969 L 46.859375 9.65625 L 46.820312 9.65625 C 46.785156 9.65625 46.769531 9.667969 46.644531 9.808594 L 45.769531 10.769531 C 45.660156 10.59375 45.082031 9.65625 43.707031 9.65625 C 40.933594 9.65625 38.132812 12.40625 38.132812 15.28125 C 38.132812 17.332031 39.597656 18.683594 41.507812 18.683594 C 42.582031 18.683594 43.535156 18.195312 44.183594 17.621094 C 45.347656 16.59375 45.558594 15.46875 45.558594 15.433594 C 45.558594 15.308594 45.433594 15.308594 45.410156 15.308594 C 45.332031 15.308594 45.269531 15.332031 45.246094 15.433594 C 45.132812 15.792969 44.847656 16.667969 43.996094 17.394531 C 43.132812 18.09375 42.347656 18.308594 41.707031 18.308594 C 40.582031 18.308594 39.269531 17.65625 39.269531 15.71875 C 39.269531 15.007812 39.519531 12.996094 40.769531 11.542969 C 41.535156 10.667969 42.695312 10.042969 43.808594 10.042969 C 45.070312 10.042969 45.808594 11.007812 45.808594 12.445312 C 45.808594 12.933594 45.769531 12.945312 45.769531 13.070312 C 45.769531 13.195312 45.910156 13.195312 45.957031 13.195312 C 46.121094 13.195312 46.121094 13.167969 46.183594 12.945312 Z M 46.957031 9.78125 "/>
<path style=" stroke:none;fill-rule:nonzero;fill:rgb(0%,0%,0%);fill-opacity:1;" d="M 50.195312 19.582031 L 50.183594 19.59375 L 50.183594 19.632812 L 50.171875 19.644531 L 50.171875 19.667969 L 50.160156 19.683594 L 50.160156 19.71875 L 50.144531 19.769531 L 50.132812 19.808594 L 50.121094 19.84375 L 50.121094 19.855469 L 50.109375 19.882812 L 50.109375 19.917969 L 50.097656 19.933594 L 50.097656 19.96875 L 50.082031 19.980469 L 50.082031 20.03125 L 50.070312 20.042969 L 50.070312 20.09375 C 50.070312 20.28125 50.222656 20.371094 50.359375 20.371094 C 50.519531 20.371094 50.660156 20.257812 50.707031 20.183594 C 50.746094 20.09375 50.820312 19.820312 50.859375 19.632812 C 50.910156 19.46875 50.996094 19.070312 51.046875 18.855469 C 51.109375 18.667969 51.160156 18.46875 51.195312 18.269531 C 51.296875 17.894531 51.296875 17.882812 51.472656 17.605469 C 51.746094 17.183594 52.183594 16.695312 52.859375 16.695312 C 53.347656 16.695312 53.371094 17.09375 53.371094 17.292969 C 53.371094 17.820312 52.996094 18.78125 52.859375 19.15625 C 52.769531 19.394531 52.734375 19.46875 52.734375 19.621094 C 52.734375 20.082031 53.121094 20.371094 53.558594 20.371094 C 54.433594 20.371094 54.808594 19.167969 54.808594 19.042969 C 54.808594 18.917969 54.695312 18.917969 54.671875 18.917969 C 54.558594 18.917969 54.546875 18.980469 54.507812 19.070312 C 54.308594 19.769531 53.933594 20.121094 53.582031 20.121094 C 53.410156 20.121094 53.371094 20.007812 53.371094 19.820312 C 53.371094 19.621094 53.410156 19.507812 53.570312 19.121094 C 53.671875 18.84375 54.035156 17.917969 54.035156 17.433594 C 54.035156 17.292969 54.035156 16.933594 53.707031 16.683594 C 53.558594 16.570312 53.308594 16.445312 52.894531 16.445312 C 52.121094 16.445312 51.632812 16.957031 51.359375 17.332031 C 51.285156 16.582031 50.671875 16.445312 50.222656 16.445312 C 49.496094 16.445312 49.007812 16.894531 48.757812 17.230469 C 48.695312 16.644531 48.183594 16.445312 47.820312 16.445312 C 47.445312 16.445312 47.246094 16.71875 47.132812 16.917969 C 46.945312 17.230469 46.820312 17.730469 46.820312 17.78125 C 46.820312 17.894531 46.945312 17.894531 46.972656 17.894531 C 47.097656 17.894531 47.097656 17.871094 47.160156 17.632812 C 47.296875 17.121094 47.457031 16.695312 47.796875 16.695312 C 48.019531 16.695312 48.082031 16.882812 48.082031 17.121094 C 48.082031 17.28125 48.007812 17.605469 47.945312 17.832031 C 47.882812 18.070312 47.796875 18.433594 47.757812 18.621094 L 47.472656 19.730469 C 47.445312 19.84375 47.382812 20.070312 47.382812 20.09375 C 47.382812 20.28125 47.546875 20.371094 47.683594 20.371094 C 47.847656 20.371094 47.984375 20.257812 48.019531 20.183594 C 48.070312 20.09375 48.132812 19.820312 48.183594 19.632812 C 48.222656 19.46875 48.320312 19.070312 48.371094 18.855469 C 48.421875 18.667969 48.472656 18.46875 48.519531 18.269531 C 48.621094 17.917969 48.632812 17.84375 48.882812 17.496094 C 49.132812 17.144531 49.535156 16.695312 50.195312 16.695312 C 50.695312 16.695312 50.707031 17.132812 50.707031 17.292969 C 50.707031 17.519531 50.683594 17.632812 50.558594 18.121094 Z M 50.195312 19.582031 "/>
<path style=" stroke:none;fill-rule:nonzero;fill:rgb(0%,0%,0%);fill-opacity:1;" d="M 56.308594 19.730469 L 56.308594 19.757812 L 56.296875 19.769531 L 56.296875 19.808594 L 56.285156 19.820312 L 56.285156 19.832031 L 56.269531 19.855469 L 56.269531 19.894531 L 56.257812 19.917969 L 56.257812 19.945312 L 56.246094 19.957031 L 56.246094 19.996094 L 56.234375 20.007812 L 56.234375 20.058594 L 56.222656 20.070312 L 56.222656 20.09375 C 56.222656 20.28125 56.382812 20.371094 56.519531 20.371094 C 56.671875 20.371094 56.820312 20.257812 56.859375 20.183594 C 56.910156 20.09375 56.972656 19.820312 57.019531 19.632812 C 57.058594 19.46875 57.160156 19.070312 57.207031 18.855469 C 57.257812 18.667969 57.308594 18.46875 57.359375 18.269531 C 57.445312 17.917969 57.472656 17.84375 57.722656 17.496094 C 57.957031 17.144531 58.371094 16.695312 59.035156 16.695312 C 59.535156 16.695312 59.546875 17.132812 59.546875 17.292969 C 59.546875 17.820312 59.171875 18.78125 59.035156 19.15625 C 58.933594 19.394531 58.894531 19.46875 58.894531 19.621094 C 58.894531 20.082031 59.285156 20.371094 59.722656 20.371094 C 60.597656 20.371094 60.984375 19.167969 60.984375 19.042969 C 60.984375 18.917969 60.859375 18.917969 60.832031 18.917969 C 60.722656 18.917969 60.707031 18.980469 60.671875 19.070312 C 60.472656 19.769531 60.097656 20.121094 59.746094 20.121094 C 59.570312 20.121094 59.535156 20.007812 59.535156 19.820312 C 59.535156 19.621094 59.570312 19.507812 59.734375 19.121094 C 59.832031 18.84375 60.195312 17.917969 60.195312 17.433594 C 60.195312 16.59375 59.519531 16.445312 59.058594 16.445312 C 58.347656 16.445312 57.859375 16.894531 57.597656 17.230469 C 57.535156 16.644531 57.019531 16.445312 56.660156 16.445312 C 56.285156 16.445312 56.082031 16.71875 55.972656 16.917969 C 55.785156 17.230469 55.660156 17.730469 55.660156 17.78125 C 55.660156 17.894531 55.785156 17.894531 55.808594 17.894531 C 55.933594 17.894531 55.933594 17.871094 55.996094 17.632812 C 56.132812 17.121094 56.296875 16.695312 56.632812 16.695312 C 56.859375 16.695312 56.921875 16.882812 56.921875 17.121094 C 56.921875 17.28125 56.847656 17.605469 56.785156 17.832031 C 56.722656 18.070312 56.632812 18.433594 56.597656 18.621094 Z M 56.308594 19.730469 "/>
<path style=" stroke:none;fill-rule:nonzero;fill:rgb(0%,0%,0%);fill-opacity:1;" d="M 75.164062 25.558594 L 75.164062 25.570312 L 75.152344 25.59375 L 75.152344 25.632812 L 75.140625 25.667969 L 75.117188 25.746094 L 75.117188 25.792969 L 75.101562 25.832031 L 75.089844 25.871094 L 75.089844 25.882812 L 75.078125 25.90625 L 75.078125 25.957031 L 75.066406 25.96875 L 75.066406 26.019531 L 75.054688 26.03125 L 75.054688 26.09375 C 75.054688 26.320312 75.226562 26.417969 75.414062 26.417969 C 75.566406 26.417969 75.777344 26.332031 75.878906 26.082031 C 75.878906 26.058594 76.027344 25.46875 76.101562 25.15625 L 76.378906 24.042969 C 76.453125 23.769531 76.527344 23.496094 76.589844 23.207031 C 76.640625 22.996094 76.742188 22.632812 76.753906 22.582031 C 76.941406 22.207031 77.601562 21.070312 78.777344 21.070312 C 79.339844 21.070312 79.453125 21.53125 79.453125 21.945312 C 79.453125 22.707031 78.839844 24.308594 78.640625 24.832031 C 78.527344 25.121094 78.515625 25.269531 78.515625 25.40625 C 78.515625 25.996094 78.953125 26.417969 79.539062 26.417969 C 80.703125 26.417969 81.164062 24.605469 81.164062 24.507812 C 81.164062 24.382812 81.054688 24.382812 81.015625 24.382812 C 80.890625 24.382812 80.890625 24.433594 80.828125 24.605469 C 80.589844 25.457031 80.179688 26.15625 79.566406 26.15625 C 79.351562 26.15625 79.265625 26.03125 79.265625 25.746094 C 79.265625 25.433594 79.378906 25.132812 79.492188 24.855469 C 79.726562 24.207031 80.253906 22.832031 80.253906 22.132812 C 80.253906 21.292969 79.714844 20.792969 78.816406 20.792969 C 77.703125 20.792969 77.089844 21.59375 76.878906 21.882812 C 76.816406 21.183594 76.304688 20.792969 75.726562 20.792969 C 75.164062 20.792969 74.929688 21.28125 74.804688 21.507812 C 74.601562 21.933594 74.429688 22.65625 74.429688 22.707031 C 74.429688 22.832031 74.554688 22.832031 74.578125 22.832031 C 74.703125 22.832031 74.714844 22.820312 74.789062 22.558594 C 75.003906 21.667969 75.253906 21.070312 75.703125 21.070312 C 75.941406 21.070312 76.078125 21.230469 76.078125 21.644531 C 76.078125 21.90625 76.039062 22.042969 75.878906 22.683594 Z M 75.164062 25.558594 "/>
<path style=" stroke:none;fill-rule:nonzero;fill:rgb(0%,0%,0%);fill-opacity:1;" d="M 16.847656 25.707031 L 16.847656 25.722656 L 16.835938 25.746094 L 16.835938 25.785156 L 16.820312 25.820312 L 16.808594 25.859375 L 16.796875 25.894531 L 16.796875 25.945312 L 16.785156 25.984375 L 16.773438 26.019531 L 16.773438 26.035156 L 16.757812 26.058594 L 16.757812 26.109375 L 16.746094 26.121094 L 16.746094 26.171875 L 16.734375 26.183594 L 16.734375 26.246094 C 16.734375 26.472656 16.910156 26.570312 17.097656 26.570312 C 17.246094 26.570312 17.460938 26.484375 17.558594 26.234375 C 17.558594 26.207031 17.710938 25.621094 17.785156 25.308594 L 18.058594 24.195312 C 18.132812 23.921875 18.210938 23.644531 18.273438 23.359375 C 18.320312 23.144531 18.421875 22.785156 18.433594 22.734375 C 18.621094 22.359375 19.285156 21.222656 20.460938 21.222656 C 21.023438 21.222656 21.132812 21.683594 21.132812 22.097656 C 21.132812 22.410156 21.046875 22.746094 20.945312 23.121094 L 20.597656 24.570312 L 20.347656 25.507812 C 20.296875 25.757812 20.183594 26.183594 20.183594 26.246094 C 20.183594 26.472656 20.359375 26.570312 20.546875 26.570312 C 20.933594 26.570312 21.007812 26.269531 21.109375 25.871094 C 21.285156 25.171875 21.746094 23.359375 21.859375 22.871094 C 21.898438 22.722656 22.546875 21.222656 23.910156 21.222656 C 24.445312 21.222656 24.585938 21.644531 24.585938 22.097656 C 24.585938 22.796875 24.058594 24.222656 23.808594 24.871094 C 23.695312 25.171875 23.648438 25.308594 23.648438 25.558594 C 23.648438 26.144531 24.085938 26.570312 24.671875 26.570312 C 25.835938 26.570312 26.296875 24.757812 26.296875 24.660156 C 26.296875 24.535156 26.183594 24.535156 26.148438 24.535156 C 26.023438 24.535156 26.023438 24.582031 25.960938 24.757812 C 25.773438 25.421875 25.371094 26.308594 24.695312 26.308594 C 24.484375 26.308594 24.398438 26.183594 24.398438 25.894531 C 24.398438 25.582031 24.507812 25.285156 24.621094 25.007812 C 24.847656 24.371094 25.371094 22.984375 25.371094 22.285156 C 25.371094 21.472656 24.882812 20.945312 23.945312 20.945312 C 23.007812 20.945312 22.382812 21.496094 21.921875 22.160156 C 21.910156 21.996094 21.871094 21.570312 21.523438 21.269531 C 21.210938 21.007812 20.808594 20.945312 20.496094 20.945312 C 19.382812 20.945312 18.773438 21.746094 18.558594 22.035156 C 18.496094 21.320312 17.972656 20.945312 17.410156 20.945312 C 16.847656 20.945312 16.609375 21.433594 16.496094 21.660156 C 16.273438 22.097656 16.109375 22.820312 16.109375 22.859375 C 16.109375 22.984375 16.234375 22.984375 16.257812 22.984375 C 16.382812 22.984375 16.398438 22.972656 16.472656 22.707031 C 16.683594 21.820312 16.933594 21.222656 17.382812 21.222656 C 17.585938 21.222656 17.757812 21.320312 17.757812 21.796875 C 17.757812 22.058594 17.722656 22.195312 17.558594 22.832031 Z M 16.847656 25.707031 "/>
<path style="fill:none;stroke-width:1;stroke-linecap:butt;stroke-linejoin:miter;stroke:rgb(0%,0%,0%);stroke-opacity:1;stroke-miterlimit:4;" d="M 232.851562 530.671875 L 203.574219 530.816406 " transform="matrix(1,0,0,1,-199.5625,-515.8125)"/>
<path style=" stroke:none;fill-rule:nonzero;fill:rgb(0%,0%,0%);fill-opacity:1;" d="M 114.941406 14.027344 L 115.039062 14.027344 L 115.066406 14.015625 L 115.152344 14.015625 L 115.164062 14 L 115.203125 14 L 115.214844 13.988281 L 115.226562 13.988281 L 115.253906 13.976562 L 115.265625 13.976562 L 115.289062 13.953125 L 115.300781 13.9375 L 115.316406 13.925781 L 115.316406 13.914062 L 115.328125 13.914062 L 115.328125 13.902344 L 115.339844 13.890625 L 115.339844 13.863281 L 115.351562 13.851562 L 115.351562 13.777344 C 115.351562 13.527344 115.128906 13.527344 114.953125 13.527344 L 107.503906 13.527344 C 107.328125 13.527344 107.089844 13.527344 107.089844 13.777344 C 107.089844 14.027344 107.328125 14.027344 107.515625 14.027344 Z M 114.941406 14.027344 "/>
<path style=" stroke:none;fill-rule:nonzero;fill:rgb(0%,0%,0%);fill-opacity:1;" d="M 114.953125 16.425781 L 115.140625 16.425781 L 115.152344 16.414062 L 115.191406 16.414062 L 115.203125 16.402344 L 115.214844 16.402344 L 115.238281 16.390625 L 115.253906 16.390625 L 115.265625 16.375 L 115.277344 16.375 L 115.300781 16.351562 L 115.316406 16.339844 L 115.316406 16.328125 L 115.328125 16.3125 L 115.328125 16.300781 L 115.339844 16.300781 L 115.339844 16.277344 L 115.351562 16.265625 L 115.351562 16.175781 C 115.351562 15.9375 115.128906 15.9375 114.941406 15.9375 L 107.515625 15.9375 C 107.328125 15.9375 107.089844 15.9375 107.089844 16.175781 C 107.089844 16.425781 107.328125 16.425781 107.503906 16.425781 Z M 114.953125 16.425781 "/>
<path style=" stroke:none;fill-rule:nonzero;fill:rgb(0%,0%,0%);fill-opacity:1;" d="M 244.425781 17.445312 L 244.414062 17.496094 L 244.414062 17.53125 L 244.398438 17.570312 L 244.386719 17.605469 L 244.363281 17.683594 L 244.351562 17.707031 L 244.335938 17.746094 L 244.3125 17.792969 L 244.289062 17.820312 L 244.273438 17.84375 L 244.261719 17.871094 L 244.238281 17.882812 L 244.210938 17.90625 L 244.1875 17.917969 L 244.164062 17.933594 L 244.085938 17.957031 L 244.050781 17.96875 L 244.011719 17.980469 L 243.988281 17.980469 L 243.976562 17.996094 L 243.925781 17.996094 L 243.898438 18.007812 L 243.8125 18.007812 L 243.789062 18.019531 L 243.550781 18.019531 L 243.511719 18.03125 L 243.300781 18.03125 C 243.085938 18.03125 242.960938 18.03125 242.960938 18.28125 C 242.960938 18.417969 243.074219 18.417969 243.300781 18.417969 L 247.738281 18.417969 C 249.699219 18.417969 251.175781 16.945312 251.175781 15.730469 C 251.175781 14.832031 250.449219 14.121094 249.238281 13.980469 C 250.539062 13.746094 251.835938 12.832031 251.835938 11.644531 C 251.835938 10.730469 251.023438 9.933594 249.523438 9.933594 L 249.351562 10.320312 C 250.449219 10.320312 250.710938 11.042969 250.710938 11.59375 C 250.710938 12.683594 249.636719 13.871094 248.125 13.871094 L 246.3125 13.871094 L 246.238281 14.144531 L 248.585938 14.144531 C 249.773438 14.144531 250.011719 15.058594 250.011719 15.59375 C 250.011719 16.820312 248.914062 18.03125 247.4375 18.03125 L 245.75 18.03125 C 245.574219 18.03125 245.550781 18.03125 245.476562 18.019531 C 245.351562 18.007812 245.3125 17.996094 245.3125 17.894531 C 245.3125 17.855469 245.3125 17.832031 245.375 17.605469 L 246.238281 14.144531 L 246.3125 13.871094 L 247.074219 10.792969 C 247.1875 10.355469 247.210938 10.320312 247.75 10.320312 L 249.351562 10.320312 L 249.523438 9.933594 L 245.351562 9.933594 C 245.113281 9.933594 244.988281 9.933594 244.988281 10.183594 C 244.988281 10.320312 245.101562 10.320312 245.335938 10.320312 C 245.363281 10.320312 245.601562 10.320312 245.8125 10.34375 C 246.039062 10.371094 246.148438 10.382812 246.148438 10.542969 C 246.148438 10.59375 246.136719 10.632812 246.101562 10.78125 Z M 244.425781 17.445312 "/>
<path style=" stroke:none;fill-rule:nonzero;fill:rgb(0%,0%,0%);fill-opacity:1;" d="M 254.613281 14.507812 L 254.613281 14.496094 L 254.625 14.480469 L 254.625 14.445312 L 254.636719 14.433594 L 254.636719 14.394531 L 254.648438 14.382812 L 254.648438 14.371094 C 254.648438 14.332031 254.613281 14.246094 254.511719 14.246094 C 254.335938 14.246094 253.613281 14.320312 253.386719 14.332031 C 253.324219 14.34375 253.199219 14.355469 253.199219 14.53125 C 253.199219 14.65625 253.324219 14.65625 253.425781 14.65625 C 253.851562 14.65625 253.851562 14.71875 253.851562 14.78125 C 253.851562 14.84375 253.824219 14.90625 253.8125 14.980469 L 252.585938 19.894531 C 252.539062 20.058594 252.539062 20.070312 252.539062 20.09375 C 252.539062 20.21875 252.648438 20.371094 252.835938 20.371094 C 253.074219 20.371094 253.1875 20.195312 253.238281 20.007812 C 253.25 19.96875 253.625 18.445312 253.664062 18.320312 C 254.273438 18.382812 254.773438 18.582031 254.773438 19.03125 C 254.773438 19.070312 254.773438 19.121094 254.761719 19.207031 C 254.726562 19.332031 254.726562 19.382812 254.726562 19.46875 C 254.726562 20.09375 255.226562 20.371094 255.648438 20.371094 C 256.488281 20.371094 256.75 19.042969 256.75 19.042969 C 256.75 18.917969 256.636719 18.917969 256.613281 18.917969 C 256.488281 18.917969 256.488281 18.96875 256.4375 19.132812 C 256.335938 19.507812 256.101562 20.121094 255.675781 20.121094 C 255.4375 20.121094 255.363281 19.90625 255.363281 19.667969 C 255.363281 19.519531 255.363281 19.507812 255.425781 19.28125 C 255.425781 19.257812 255.460938 19.105469 255.460938 19.007812 C 255.460938 18.230469 254.425781 18.121094 254.050781 18.09375 C 254.3125 17.933594 254.625 17.644531 254.773438 17.519531 C 255.226562 17.09375 255.664062 16.695312 256.148438 16.695312 C 256.25 16.695312 256.363281 16.71875 256.425781 16.808594 C 256.050781 16.871094 255.976562 17.15625 255.976562 17.292969 C 255.976562 17.480469 256.125 17.605469 256.324219 17.605469 C 256.5625 17.605469 256.824219 17.417969 256.824219 17.058594 C 256.824219 16.769531 256.613281 16.445312 256.148438 16.445312 C 255.664062 16.445312 255.199219 16.808594 254.761719 17.207031 C 254.386719 17.558594 254.101562 17.832031 253.75 17.980469 Z M 254.613281 14.507812 "/>
<path style=" stroke:none;fill-rule:nonzero;fill:rgb(0%,0%,0%);fill-opacity:1;" d="M 259.851562 14.507812 L 259.851562 14.480469 L 259.863281 14.46875 L 259.863281 14.417969 L 259.875 14.417969 L 259.875 14.371094 C 259.875 14.332031 259.851562 14.246094 259.738281 14.246094 C 259.5625 14.246094 258.835938 14.320312 258.625 14.332031 C 258.5625 14.34375 258.4375 14.355469 258.4375 14.53125 C 258.4375 14.65625 258.5625 14.65625 258.664062 14.65625 C 259.074219 14.65625 259.074219 14.71875 259.074219 14.78125 C 259.074219 14.84375 259.0625 14.90625 259.039062 14.980469 L 257.960938 19.269531 C 257.9375 19.355469 257.925781 19.457031 257.925781 19.542969 C 257.925781 20.09375 258.425781 20.371094 258.835938 20.371094 C 259.050781 20.371094 259.3125 20.292969 259.539062 19.90625 C 259.726562 19.582031 259.851562 19.070312 259.851562 19.042969 C 259.851562 18.917969 259.726562 18.917969 259.699219 18.917969 C 259.585938 18.917969 259.5625 18.980469 259.523438 19.132812 C 259.414062 19.570312 259.25 20.121094 258.875 20.121094 C 258.636719 20.121094 258.585938 19.90625 258.585938 19.695312 C 258.585938 19.605469 258.613281 19.445312 258.636719 19.34375 Z M 259.851562 14.507812 "/>
</g>
</svg>
