<?xml version="1.0" encoding="UTF-8" standalone="no"?>
<!-- Created with Inkscape (http://www.inkscape.org/) -->

<svg
   xmlns:ns0="http://www.iki.fi/pav/software/textext/"
   xmlns:dc="http://purl.org/dc/elements/1.1/"
   xmlns:cc="http://creativecommons.org/ns#"
   xmlns:rdf="http://www.w3.org/1999/02/22-rdf-syntax-ns#"
   xmlns:svg="http://www.w3.org/2000/svg"
   xmlns="http://www.w3.org/2000/svg"
   xmlns:sodipodi="http://sodipodi.sourceforge.net/DTD/sodipodi-0.dtd"
   xmlns:inkscape="http://www.inkscape.org/namespaces/inkscape"
   width="390.46747"
   height="141.76569"
   id="svg73625"
   version="1.1"
   inkscape:version="0.48.5 r10040"
   sodipodi:docname="tensors_mpo.svg">
  <defs
     id="defs73627" />
  <sodipodi:namedview
     id="base"
     pagecolor="#ffffff"
     bordercolor="#666666"
     borderopacity="1.0"
     inkscape:pageopacity="0.0"
     inkscape:pageshadow="2"
     inkscape:zoom="2.8"
     inkscape:cx="112.37748"
     inkscape:cy="175.45572"
     inkscape:document-units="px"
     inkscape:current-layer="layer1"
     showgrid="false"
     fit-margin-top="4"
     fit-margin-left="4"
     fit-margin-right="4"
     fit-margin-bottom="4"
     inkscape:window-width="1920"
     inkscape:window-height="1144"
     inkscape:window-x="0"
     inkscape:window-y="0"
     inkscape:window-maximized="1" />
  <metadata
     id="metadata73630">
    <rdf:RDF>
      <cc:Work
         rdf:about="">
        <dc:format>image/svg+xml</dc:format>
        <dc:type
           rdf:resource="http://purl.org/dc/dcmitype/StillImage" />
        <dc:title></dc:title>
      </cc:Work>
    </rdf:RDF>
  </metadata>
  <g
     inkscape:label="Ebene 1"
     inkscape:groupmode="layer"
     id="layer1"
     transform="translate(-168.87627,-571.1875)">
    <path
       inkscape:connector-curvature="0"
       id="path68520"
       d="m 283.03092,589.28027 0,28.52691"
       style="fill:none;stroke:#000000;stroke-width:1px;stroke-linecap:butt;stroke-linejoin:miter;stroke-opacity:1" />
    <path
       style="fill:none;stroke:#000000;stroke-width:1px;stroke-linecap:butt;stroke-linejoin:miter;stroke-opacity:1"
       d="m 299.03092,589.28027 0,28.52691"
       id="path68522"
       inkscape:connector-curvature="0" />
    <path
       style="fill:none;stroke:#000000;stroke-width:1px;stroke-linecap:butt;stroke-linejoin:miter;stroke-opacity:1"
       d="m 315.03092,589.28027 0,28.52691"
       id="path68524"
       inkscape:connector-curvature="0" />
    <path
       style="fill:none;stroke:#000000;stroke-width:1px;stroke-linecap:butt;stroke-linejoin:miter;stroke-opacity:1"
       d="m 271.88806,656.70884 0,28.52691"
       id="path68770"
       inkscape:connector-curvature="0" />
    <path
       inkscape:connector-curvature="0"
       id="path68772"
       d="m 247.88806,656.70884 0,28.52691"
       style="fill:none;stroke:#000000;stroke-width:1px;stroke-linecap:butt;stroke-linejoin:miter;stroke-opacity:1" />
    <rect
       ry="3.0000007"
       rx="2.9999998"
       y="642.87219"
       x="227.86504"
       height="26.374731"
       width="64.215195"
       id="rect68774"
       style="fill:#ffeeaa;fill-opacity:1;stroke:#000000;stroke-width:0.5;stroke-linecap:round;stroke-linejoin:miter;stroke-miterlimit:4;stroke-opacity:1;stroke-dasharray:none;stroke-dashoffset:0" />
    <g
       style="font-style:normal;font-variant:normal;font-weight:normal;font-stretch:normal;letter-spacing:normal;word-spacing:normal;text-anchor:start;fill:none;stroke:#000000;stroke-linecap:butt;stroke-linejoin:miter;stroke-miterlimit:10.43299961;stroke-opacity:1;stroke-dasharray:none;stroke-dashoffset:0"
       ns0:preamble="/home/milan/phd/Dokumente/tex/graphics/svg_mathbbm.tex"
       ns0:text="$j$"
       word-spacing="normal"
       letter-spacing="normal"
       font-size-adjust="none"
       font-stretch="normal"
       font-weight="normal"
       font-variant="normal"
       font-style="normal"
       stroke-miterlimit="10.433"
       xml:space="preserve"
       transform="matrix(1.25,0,0,-1.25,-4.6005382,1565.9765)"
       id="g68776"><path
         style="fill:#000000;stroke-width:0"
         inkscape:connector-curvature="0"
         id="path68778"
         d="m 227.38,713.33 0,0.02 0,0.02 0,0.02 0,0.01 -0.01,0.02 0,0.02 -0.01,0.01 0,0.02 -0.01,0.01 -0.01,0.02 -0.01,0.02 0,0.01 -0.01,0.01 -0.01,0.02 -0.02,0.01 -0.01,0.01 -0.01,0.02 -0.01,0.01 -0.02,0.01 -0.01,0.01 -0.02,0.01 -0.01,0.01 -0.02,0 -0.02,0.01 -0.01,0.01 -0.02,0 -0.02,0.01 -0.02,0 -0.02,0.01 -0.02,0 -0.02,0 -0.03,0 c -0.23,0 -0.52,-0.23 -0.52,-0.53 0,-0.19 0.14,-0.35 0.37,-0.35 0.26,0 0.53,0.26 0.53,0.52 z" /><path
         style="fill:#000000;stroke-width:0"
         inkscape:connector-curvature="0"
         id="path68780"
         d="m 225.38,706.63 -0.02,-0.07 -0.02,-0.07 -0.02,-0.07 -0.02,-0.07 -0.03,-0.06 -0.02,-0.06 -0.03,-0.07 -0.03,-0.06 -0.03,-0.06 -0.03,-0.05 -0.04,-0.06 -0.03,-0.05 -0.04,-0.05 -0.03,-0.05 -0.04,-0.05 -0.04,-0.05 -0.04,-0.04 -0.04,-0.04 -0.05,-0.04 -0.04,-0.03 -0.04,-0.04 -0.05,-0.03 -0.05,-0.03 -0.04,-0.02 -0.05,-0.03 -0.05,-0.02 -0.05,-0.01 -0.05,-0.02 -0.05,-0.01 -0.05,-0.01 -0.05,0 -0.05,0 c -0.06,0 -0.21,0 -0.39,0.09 0.3,0.07 0.45,0.32 0.45,0.52 0,0.16 -0.11,0.35 -0.38,0.35 -0.25,0 -0.54,-0.21 -0.54,-0.57 0,-0.39 0.4,-0.61 0.88,-0.61 0.7,0 1.62,0.52 1.87,1.51 l 0.91,3.63 c 0.05,0.2 0.05,0.34 0.05,0.37 0,0.57 -0.41,0.92 -0.91,0.92 -1.02,0 -1.58,-1.44 -1.58,-1.53 0,-0.1 0.1,-0.1 0.12,-0.1 0.09,0 0.1,0.01 0.18,0.2 0.24,0.6 0.7,1.21 1.25,1.21 0.14,0 0.32,-0.04 0.32,-0.46 0,-0.23 -0.03,-0.34 -0.07,-0.51 z" /></g>    <g
       id="g68782"
       transform="matrix(1.25,0,0,-1.25,-28.600538,1565.9765)"
       xml:space="preserve"
       stroke-miterlimit="10.433"
       font-style="normal"
       font-variant="normal"
       font-weight="normal"
       font-stretch="normal"
       font-size-adjust="none"
       letter-spacing="normal"
       word-spacing="normal"
       ns0:text="$i$"
       ns0:preamble="/home/milan/phd/Dokumente/tex/graphics/svg_mathbbm.tex"
       style="font-style:normal;font-variant:normal;font-weight:normal;font-stretch:normal;letter-spacing:normal;word-spacing:normal;text-anchor:start;fill:none;stroke:#000000;stroke-linecap:butt;stroke-linejoin:miter;stroke-miterlimit:10.43299961;stroke-opacity:1;stroke-dasharray:none;stroke-dashoffset:0"><path
         style="fill:#000000;stroke-width:0"
         inkscape:connector-curvature="0"
         d="m 226.26,713.33 0,0.02 0,0.02 -0.01,0.02 0,0.02 0,0.01 -0.01,0.02 0,0.02 -0.01,0.01 0,0.02 -0.01,0.01 -0.01,0.02 -0.01,0.01 -0.01,0.02 -0.01,0.01 -0.01,0.01 -0.01,0.02 -0.01,0.01 -0.02,0.01 -0.01,0.01 -0.01,0.01 -0.02,0.01 -0.01,0.01 -0.02,0.01 -0.02,0 -0.01,0.01 -0.02,0.01 -0.02,0 -0.02,0 -0.02,0.01 -0.02,0 -0.02,0 -0.02,0 c -0.27,0 -0.54,-0.26 -0.54,-0.53 0,-0.18 0.14,-0.35 0.38,-0.35 0.23,0 0.53,0.23 0.53,0.52 z"
         id="path68784" /><path
         style="fill:#000000;stroke-width:0"
         inkscape:connector-curvature="0"
         d="m 225.5,709.6 0.01,0.02 0.01,0.03 0.01,0.02 0.01,0.02 0.01,0.03 0.01,0.02 0,0.01 0.01,0.02 0.01,0.02 0.01,0.02 0,0.01 0.01,0.02 0,0.01 0.01,0.02 0.01,0.02 0.01,0.03 0.01,0.03 0,0.02 0.01,0.01 0.01,0.02 0,0.01 0.01,0.02 0,0.02 0.01,0.02 0.01,0.01 0,0.03 0.01,0.02 0.01,0.02 0.01,0.02 c 0.08,0.2 0.13,0.34 0.13,0.53 0,0.45 -0.32,0.82 -0.82,0.82 -0.93,0 -1.31,-1.44 -1.31,-1.53 0,-0.1 0.1,-0.1 0.12,-0.1 0.1,0 0.11,0.02 0.16,0.18 0.27,0.93 0.67,1.23 1,1.23 0.08,0 0.25,0 0.25,-0.32 0,-0.21 -0.07,-0.42 -0.11,-0.52 -0.08,-0.26 -0.52,-1.41 -0.68,-1.84 -0.1,-0.25 -0.23,-0.58 -0.23,-0.79 0,-0.47 0.34,-0.81 0.81,-0.81 0.94,0 1.31,1.44 1.31,1.53 0,0.1 -0.09,0.1 -0.12,0.1 -0.1,0 -0.1,-0.04 -0.15,-0.18 -0.18,-0.63 -0.51,-1.24 -1.02,-1.24 -0.16,0 -0.24,0.1 -0.24,0.33 0,0.25 0.06,0.39 0.29,0.99 z"
         id="path68786" /></g>    <g
       id="g68788"
       transform="matrix(1.25,0,0,-1.25,20.513702,1535.0273)"
       xml:space="preserve"
       stroke-miterlimit="10.433"
       font-style="normal"
       font-variant="normal"
       font-weight="normal"
       font-stretch="normal"
       font-size-adjust="none"
       letter-spacing="normal"
       word-spacing="normal"
       ns0:text="$r$"
       ns0:preamble="/home/milan/phd/Dokumente/tex/graphics/svg_mathbbm.tex"
       style="font-style:normal;font-variant:normal;font-weight:normal;font-stretch:normal;letter-spacing:normal;word-spacing:normal;text-anchor:start;fill:none;stroke:#000000;stroke-linecap:butt;stroke-linejoin:miter;stroke-miterlimit:10.43299961;stroke-opacity:1;stroke-dasharray:none;stroke-dashoffset:0"><path
         style="fill:#000000;stroke-width:0"
         inkscape:connector-curvature="0"
         d="m 224.31,707.71 0,-0.01 -0.01,-0.02 0,-0.01 0,-0.02 -0.01,-0.03 -0.01,-0.03 -0.01,-0.03 0,-0.04 -0.01,-0.03 -0.01,-0.03 0,-0.01 -0.01,-0.02 0,-0.01 0,-0.02 0,-0.01 -0.01,-0.01 0,-0.02 0,-0.01 0,-0.01 -0.01,-0.01 0,-0.01 0,-0.01 0,-0.01 0,0 0,-0.01 0,-0.01 c 0,-0.18 0.14,-0.26 0.29,-0.26 0.12,0 0.29,0.07 0.37,0.27 0.02,0.04 0.35,1.39 0.39,1.57 0.08,0.33 0.26,1.03 0.32,1.3 0.04,0.12 0.32,0.59 0.56,0.81 0.08,0.07 0.37,0.33 0.79,0.33 0.26,0 0.41,-0.12 0.42,-0.12 -0.3,-0.05 -0.51,-0.29 -0.51,-0.55 0,-0.16 0.1,-0.35 0.37,-0.35 0.27,0 0.55,0.23 0.55,0.59 0,0.35 -0.32,0.65 -0.83,0.65 -0.64,0 -1.08,-0.49 -1.27,-0.77 -0.08,0.45 -0.44,0.77 -0.91,0.77 -0.45,0 -0.64,-0.39 -0.73,-0.57 -0.18,-0.34 -0.31,-0.93 -0.31,-0.96 0,-0.1 0.1,-0.1 0.12,-0.1 0.1,0 0.11,0.01 0.17,0.22 0.17,0.71 0.37,1.19 0.73,1.19 0.16,0 0.3,-0.08 0.3,-0.46 0,-0.21 -0.03,-0.32 -0.16,-0.83 z"
         id="path68790" /></g>    <path
       inkscape:connector-curvature="0"
       id="path68792"
       d="m 387.88806,656.70884 0,28.52691"
       style="fill:none;stroke:#000000;stroke-width:1px;stroke-linecap:butt;stroke-linejoin:miter;stroke-opacity:1" />
    <path
       style="fill:none;stroke:#000000;stroke-width:1px;stroke-linecap:butt;stroke-linejoin:miter;stroke-opacity:1"
       d="m 363.88806,656.70884 0,28.52691"
       id="path68794"
       inkscape:connector-curvature="0" />
    <rect
       style="fill:#ffeeaa;fill-opacity:1;stroke:#000000;stroke-width:0.5;stroke-linecap:round;stroke-linejoin:miter;stroke-miterlimit:4;stroke-opacity:1;stroke-dasharray:none;stroke-dashoffset:0"
       id="rect68796"
       width="64.215195"
       height="26.374731"
       x="343.86502"
       y="642.87219"
       rx="2.9999998"
       ry="3.0000007" />
    <g
       id="g68798"
       transform="matrix(1.25,0,0,-1.25,54.513702,1535.0273)"
       xml:space="preserve"
       stroke-miterlimit="10.433"
       font-style="normal"
       font-variant="normal"
       font-weight="normal"
       font-stretch="normal"
       font-size-adjust="none"
       letter-spacing="normal"
       word-spacing="normal"
       ns0:text="$l$"
       ns0:preamble="/home/milan/phd/Dokumente/tex/graphics/svg_mathbbm.tex"
       style="font-style:normal;font-variant:normal;font-weight:normal;font-stretch:normal;letter-spacing:normal;word-spacing:normal;text-anchor:start;fill:none;stroke:#000000;stroke-linecap:butt;stroke-linejoin:miter;stroke-miterlimit:10.43299961;stroke-opacity:1;stroke-dasharray:none;stroke-dashoffset:0"><path
         d="m 226,713.91 0,0 0,0 0,0 0,0 0,0.01 0,0 0,0 0,0.01 0,0 0,0.01 0,0 -0.01,0 0,0.01 0,0 0,0.01 0,0 -0.01,0.01 0,0 0,0.01 -0.01,0 0,0.01 0,0 -0.01,0 0,0 0,0.01 -0.01,0 0,0 0,0 -0.01,0 0,0.01 0,0 -0.01,0 0,0 0,0 -0.01,0 0,0 -0.01,0 0,0.01 -0.01,0 0,0 -0.01,0 0,0 -0.01,0 0,0 -0.01,0 c -0.23,0 -0.96,-0.08 -1.21,-0.1 -0.08,-0.01 -0.19,-0.02 -0.19,-0.21 0,-0.11 0.1,-0.11 0.24,-0.11 0.48,0 0.49,-0.09 0.49,-0.17 l -0.03,-0.2 -1.25,-4.96 c -0.03,-0.11 -0.05,-0.18 -0.05,-0.34 0,-0.57 0.44,-0.91 0.9,-0.91 0.33,0 0.58,0.19 0.75,0.55 0.18,0.38 0.3,0.96 0.3,0.98 0,0.1 -0.09,0.1 -0.12,0.1 -0.1,0 -0.11,-0.05 -0.14,-0.18 -0.17,-0.65 -0.36,-1.24 -0.76,-1.24 -0.29,0 -0.29,0.32 -0.29,0.46 0,0.24 0.01,0.29 0.06,0.48 z"
         id="path68800"
         inkscape:connector-curvature="0"
         style="fill:#000000;stroke-width:0" /></g>    <g
       id="g68802"
       transform="matrix(1.25,0,0,-1.25,111.39946,1565.9765)"
       xml:space="preserve"
       stroke-miterlimit="10.433"
       font-style="normal"
       font-variant="normal"
       font-weight="normal"
       font-stretch="normal"
       font-size-adjust="none"
       letter-spacing="normal"
       word-spacing="normal"
       ns0:text="$j$"
       ns0:preamble="/home/milan/phd/Dokumente/tex/graphics/svg_mathbbm.tex"
       style="font-style:normal;font-variant:normal;font-weight:normal;font-stretch:normal;letter-spacing:normal;word-spacing:normal;text-anchor:start;fill:none;stroke:#000000;stroke-linecap:butt;stroke-linejoin:miter;stroke-miterlimit:10.43299961;stroke-opacity:1;stroke-dasharray:none;stroke-dashoffset:0"><path
         d="m 227.38,713.33 0,0.02 0,0.02 0,0.02 0,0.01 -0.01,0.02 0,0.02 -0.01,0.01 0,0.02 -0.01,0.01 -0.01,0.02 -0.01,0.02 0,0.01 -0.01,0.01 -0.01,0.02 -0.02,0.01 -0.01,0.01 -0.01,0.02 -0.01,0.01 -0.02,0.01 -0.01,0.01 -0.02,0.01 -0.01,0.01 -0.02,0 -0.02,0.01 -0.01,0.01 -0.02,0 -0.02,0.01 -0.02,0 -0.02,0.01 -0.02,0 -0.02,0 -0.03,0 c -0.23,0 -0.52,-0.23 -0.52,-0.53 0,-0.19 0.14,-0.35 0.37,-0.35 0.26,0 0.53,0.26 0.53,0.52 z"
         id="path68804"
         inkscape:connector-curvature="0"
         style="fill:#000000;stroke-width:0" /><path
         d="m 225.38,706.63 -0.02,-0.07 -0.02,-0.07 -0.02,-0.07 -0.02,-0.07 -0.03,-0.06 -0.02,-0.06 -0.03,-0.07 -0.03,-0.06 -0.03,-0.06 -0.03,-0.05 -0.04,-0.06 -0.03,-0.05 -0.04,-0.05 -0.03,-0.05 -0.04,-0.05 -0.04,-0.05 -0.04,-0.04 -0.04,-0.04 -0.05,-0.04 -0.04,-0.03 -0.04,-0.04 -0.05,-0.03 -0.05,-0.03 -0.04,-0.02 -0.05,-0.03 -0.05,-0.02 -0.05,-0.01 -0.05,-0.02 -0.05,-0.01 -0.05,-0.01 -0.05,0 -0.05,0 c -0.06,0 -0.21,0 -0.39,0.09 0.3,0.07 0.45,0.32 0.45,0.52 0,0.16 -0.11,0.35 -0.38,0.35 -0.25,0 -0.54,-0.21 -0.54,-0.57 0,-0.39 0.4,-0.61 0.88,-0.61 0.7,0 1.62,0.52 1.87,1.51 l 0.91,3.63 c 0.05,0.2 0.05,0.34 0.05,0.37 0,0.57 -0.41,0.92 -0.91,0.92 -1.02,0 -1.58,-1.44 -1.58,-1.53 0,-0.1 0.1,-0.1 0.12,-0.1 0.09,0 0.1,0.01 0.18,0.2 0.24,0.6 0.7,1.21 1.25,1.21 0.14,0 0.32,-0.04 0.32,-0.46 0,-0.23 -0.03,-0.34 -0.07,-0.51 z"
         id="path68806"
         inkscape:connector-curvature="0"
         style="fill:#000000;stroke-width:0" /></g>    <g
       style="font-style:normal;font-variant:normal;font-weight:normal;font-stretch:normal;letter-spacing:normal;word-spacing:normal;text-anchor:start;fill:none;stroke:#000000;stroke-linecap:butt;stroke-linejoin:miter;stroke-miterlimit:10.43299961;stroke-opacity:1;stroke-dasharray:none;stroke-dashoffset:0"
       ns0:preamble="/home/milan/phd/Dokumente/tex/graphics/svg_mathbbm.tex"
       ns0:text="$i$"
       word-spacing="normal"
       letter-spacing="normal"
       font-size-adjust="none"
       font-stretch="normal"
       font-weight="normal"
       font-variant="normal"
       font-style="normal"
       stroke-miterlimit="10.433"
       xml:space="preserve"
       transform="matrix(1.25,0,0,-1.25,87.399463,1565.9765)"
       id="g68808"><path
         id="path68810"
         d="m 226.26,713.33 0,0.02 0,0.02 -0.01,0.02 0,0.02 0,0.01 -0.01,0.02 0,0.02 -0.01,0.01 0,0.02 -0.01,0.01 -0.01,0.02 -0.01,0.01 -0.01,0.02 -0.01,0.01 -0.01,0.01 -0.01,0.02 -0.01,0.01 -0.02,0.01 -0.01,0.01 -0.01,0.01 -0.02,0.01 -0.01,0.01 -0.02,0.01 -0.02,0 -0.01,0.01 -0.02,0.01 -0.02,0 -0.02,0 -0.02,0.01 -0.02,0 -0.02,0 -0.02,0 c -0.27,0 -0.54,-0.26 -0.54,-0.53 0,-0.18 0.14,-0.35 0.38,-0.35 0.23,0 0.53,0.23 0.53,0.52 z"
         inkscape:connector-curvature="0"
         style="fill:#000000;stroke-width:0" /><path
         id="path68812"
         d="m 225.5,709.6 0.01,0.02 0.01,0.03 0.01,0.02 0.01,0.02 0.01,0.03 0.01,0.02 0,0.01 0.01,0.02 0.01,0.02 0.01,0.02 0,0.01 0.01,0.02 0,0.01 0.01,0.02 0.01,0.02 0.01,0.03 0.01,0.03 0,0.02 0.01,0.01 0.01,0.02 0,0.01 0.01,0.02 0,0.02 0.01,0.02 0.01,0.01 0,0.03 0.01,0.02 0.01,0.02 0.01,0.02 c 0.08,0.2 0.13,0.34 0.13,0.53 0,0.45 -0.32,0.82 -0.82,0.82 -0.93,0 -1.31,-1.44 -1.31,-1.53 0,-0.1 0.1,-0.1 0.12,-0.1 0.1,0 0.11,0.02 0.16,0.18 0.27,0.93 0.67,1.23 1,1.23 0.08,0 0.25,0 0.25,-0.32 0,-0.21 -0.07,-0.42 -0.11,-0.52 -0.08,-0.26 -0.52,-1.41 -0.68,-1.84 -0.1,-0.25 -0.23,-0.58 -0.23,-0.79 0,-0.47 0.34,-0.81 0.81,-0.81 0.94,0 1.31,1.44 1.31,1.53 0,0.1 -0.09,0.1 -0.12,0.1 -0.1,0 -0.1,-0.04 -0.15,-0.18 -0.18,-0.63 -0.51,-1.24 -1.02,-1.24 -0.16,0 -0.24,0.1 -0.24,0.33 0,0.25 0.06,0.39 0.29,0.99 z"
         inkscape:connector-curvature="0"
         style="fill:#000000;stroke-width:0" /></g>    <g
       style="font-style:normal;font-variant:normal;font-weight:normal;font-stretch:normal;letter-spacing:normal;word-spacing:normal;text-anchor:start;fill:none;stroke:#000000;stroke-linecap:butt;stroke-linejoin:miter;stroke-miterlimit:10.43299961;stroke-opacity:1;stroke-dasharray:none;stroke-dashoffset:0"
       ns0:preamble="/home/milan/phd/Dokumente/tex/graphics/svg_mathbbm.tex"
       ns0:text="$r$"
       word-spacing="normal"
       letter-spacing="normal"
       font-size-adjust="none"
       font-stretch="normal"
       font-weight="normal"
       font-variant="normal"
       font-style="normal"
       stroke-miterlimit="10.433"
       xml:space="preserve"
       transform="matrix(1.25,0,0,-1.25,136.5137,1535.0273)"
       id="g68814"><path
         id="path68816"
         d="m 224.31,707.71 0,-0.01 -0.01,-0.02 0,-0.01 0,-0.02 -0.01,-0.03 -0.01,-0.03 -0.01,-0.03 0,-0.04 -0.01,-0.03 -0.01,-0.03 0,-0.01 -0.01,-0.02 0,-0.01 0,-0.02 0,-0.01 -0.01,-0.01 0,-0.02 0,-0.01 0,-0.01 -0.01,-0.01 0,-0.01 0,-0.01 0,-0.01 0,0 0,-0.01 0,-0.01 c 0,-0.18 0.14,-0.26 0.29,-0.26 0.12,0 0.29,0.07 0.37,0.27 0.02,0.04 0.35,1.39 0.39,1.57 0.08,0.33 0.26,1.03 0.32,1.3 0.04,0.12 0.32,0.59 0.56,0.81 0.08,0.07 0.37,0.33 0.79,0.33 0.26,0 0.41,-0.12 0.42,-0.12 -0.3,-0.05 -0.51,-0.29 -0.51,-0.55 0,-0.16 0.1,-0.35 0.37,-0.35 0.27,0 0.55,0.23 0.55,0.59 0,0.35 -0.32,0.65 -0.83,0.65 -0.64,0 -1.08,-0.49 -1.27,-0.77 -0.08,0.45 -0.44,0.77 -0.91,0.77 -0.45,0 -0.64,-0.39 -0.73,-0.57 -0.18,-0.34 -0.31,-0.93 -0.31,-0.96 0,-0.1 0.1,-0.1 0.12,-0.1 0.1,0 0.11,0.01 0.17,0.22 0.17,0.71 0.37,1.19 0.73,1.19 0.16,0 0.3,-0.08 0.3,-0.46 0,-0.21 -0.03,-0.32 -0.16,-0.83 z"
         inkscape:connector-curvature="0"
         style="fill:#000000;stroke-width:0" /></g>    <path
       style="fill:none;stroke:#000000;stroke-width:1px;stroke-linecap:butt;stroke-linejoin:miter;stroke-opacity:1"
       d="m 503.88806,656.70884 0,28.52691"
       id="path68818"
       inkscape:connector-curvature="0" />
    <path
       inkscape:connector-curvature="0"
       id="path68820"
       d="m 479.88806,656.70884 0,28.52691"
       style="fill:none;stroke:#000000;stroke-width:1px;stroke-linecap:butt;stroke-linejoin:miter;stroke-opacity:1" />
    <rect
       ry="3.0000007"
       rx="2.9999998"
       y="642.87219"
       x="459.86499"
       height="26.374731"
       width="64.215195"
       id="rect68822"
       style="fill:#ffeeaa;fill-opacity:1;stroke:#000000;stroke-width:0.5;stroke-linecap:round;stroke-linejoin:miter;stroke-miterlimit:4;stroke-opacity:1;stroke-dasharray:none;stroke-dashoffset:0" />
    <g
       style="font-style:normal;font-variant:normal;font-weight:normal;font-stretch:normal;letter-spacing:normal;word-spacing:normal;text-anchor:start;fill:none;stroke:#000000;stroke-linecap:butt;stroke-linejoin:miter;stroke-miterlimit:10.43299961;stroke-opacity:1;stroke-dasharray:none;stroke-dashoffset:0"
       ns0:preamble="/home/milan/phd/Dokumente/tex/graphics/svg_mathbbm.tex"
       ns0:text="$l$"
       word-spacing="normal"
       letter-spacing="normal"
       font-size-adjust="none"
       font-stretch="normal"
       font-weight="normal"
       font-variant="normal"
       font-style="normal"
       stroke-miterlimit="10.433"
       xml:space="preserve"
       transform="matrix(1.25,0,0,-1.25,170.5137,1535.0273)"
       id="g68824"><path
         style="fill:#000000;stroke-width:0"
         inkscape:connector-curvature="0"
         id="path68826"
         d="m 226,713.91 0,0 0,0 0,0 0,0 0,0.01 0,0 0,0 0,0.01 0,0 0,0.01 0,0 -0.01,0 0,0.01 0,0 0,0.01 0,0 -0.01,0.01 0,0 0,0.01 -0.01,0 0,0.01 0,0 -0.01,0 0,0 0,0.01 -0.01,0 0,0 0,0 -0.01,0 0,0.01 0,0 -0.01,0 0,0 0,0 -0.01,0 0,0 -0.01,0 0,0.01 -0.01,0 0,0 -0.01,0 0,0 -0.01,0 0,0 -0.01,0 c -0.23,0 -0.96,-0.08 -1.21,-0.1 -0.08,-0.01 -0.19,-0.02 -0.19,-0.21 0,-0.11 0.1,-0.11 0.24,-0.11 0.48,0 0.49,-0.09 0.49,-0.17 l -0.03,-0.2 -1.25,-4.96 c -0.03,-0.11 -0.05,-0.18 -0.05,-0.34 0,-0.57 0.44,-0.91 0.9,-0.91 0.33,0 0.58,0.19 0.75,0.55 0.18,0.38 0.3,0.96 0.3,0.98 0,0.1 -0.09,0.1 -0.12,0.1 -0.1,0 -0.11,-0.05 -0.14,-0.18 -0.17,-0.65 -0.36,-1.24 -0.76,-1.24 -0.29,0 -0.29,0.32 -0.29,0.46 0,0.24 0.01,0.29 0.06,0.48 z" /></g>    <g
       style="font-style:normal;font-variant:normal;font-weight:normal;font-stretch:normal;letter-spacing:normal;word-spacing:normal;text-anchor:start;fill:none;stroke:#000000;stroke-linecap:butt;stroke-linejoin:miter;stroke-miterlimit:10.43299961;stroke-opacity:1;stroke-dasharray:none;stroke-dashoffset:0"
       ns0:preamble="/home/milan/phd/Dokumente/tex/graphics/svg_mathbbm.tex"
       ns0:text="$j$"
       word-spacing="normal"
       letter-spacing="normal"
       font-size-adjust="none"
       font-stretch="normal"
       font-weight="normal"
       font-variant="normal"
       font-style="normal"
       stroke-miterlimit="10.433"
       xml:space="preserve"
       transform="matrix(1.25,0,0,-1.25,227.39946,1565.9765)"
       id="g68828"><path
         style="fill:#000000;stroke-width:0"
         inkscape:connector-curvature="0"
         id="path68830"
         d="m 227.38,713.33 0,0.02 0,0.02 0,0.02 0,0.01 -0.01,0.02 0,0.02 -0.01,0.01 0,0.02 -0.01,0.01 -0.01,0.02 -0.01,0.02 0,0.01 -0.01,0.01 -0.01,0.02 -0.02,0.01 -0.01,0.01 -0.01,0.02 -0.01,0.01 -0.02,0.01 -0.01,0.01 -0.02,0.01 -0.01,0.01 -0.02,0 -0.02,0.01 -0.01,0.01 -0.02,0 -0.02,0.01 -0.02,0 -0.02,0.01 -0.02,0 -0.02,0 -0.03,0 c -0.23,0 -0.52,-0.23 -0.52,-0.53 0,-0.19 0.14,-0.35 0.37,-0.35 0.26,0 0.53,0.26 0.53,0.52 z" /><path
         style="fill:#000000;stroke-width:0"
         inkscape:connector-curvature="0"
         id="path68832"
         d="m 225.38,706.63 -0.02,-0.07 -0.02,-0.07 -0.02,-0.07 -0.02,-0.07 -0.03,-0.06 -0.02,-0.06 -0.03,-0.07 -0.03,-0.06 -0.03,-0.06 -0.03,-0.05 -0.04,-0.06 -0.03,-0.05 -0.04,-0.05 -0.03,-0.05 -0.04,-0.05 -0.04,-0.05 -0.04,-0.04 -0.04,-0.04 -0.05,-0.04 -0.04,-0.03 -0.04,-0.04 -0.05,-0.03 -0.05,-0.03 -0.04,-0.02 -0.05,-0.03 -0.05,-0.02 -0.05,-0.01 -0.05,-0.02 -0.05,-0.01 -0.05,-0.01 -0.05,0 -0.05,0 c -0.06,0 -0.21,0 -0.39,0.09 0.3,0.07 0.45,0.32 0.45,0.52 0,0.16 -0.11,0.35 -0.38,0.35 -0.25,0 -0.54,-0.21 -0.54,-0.57 0,-0.39 0.4,-0.61 0.88,-0.61 0.7,0 1.62,0.52 1.87,1.51 l 0.91,3.63 c 0.05,0.2 0.05,0.34 0.05,0.37 0,0.57 -0.41,0.92 -0.91,0.92 -1.02,0 -1.58,-1.44 -1.58,-1.53 0,-0.1 0.1,-0.1 0.12,-0.1 0.09,0 0.1,0.01 0.18,0.2 0.24,0.6 0.7,1.21 1.25,1.21 0.14,0 0.32,-0.04 0.32,-0.46 0,-0.23 -0.03,-0.34 -0.07,-0.51 z" /></g>    <g
       id="g68834"
       transform="matrix(1.25,0,0,-1.25,203.39946,1565.9765)"
       xml:space="preserve"
       stroke-miterlimit="10.433"
       font-style="normal"
       font-variant="normal"
       font-weight="normal"
       font-stretch="normal"
       font-size-adjust="none"
       letter-spacing="normal"
       word-spacing="normal"
       ns0:text="$i$"
       ns0:preamble="/home/milan/phd/Dokumente/tex/graphics/svg_mathbbm.tex"
       style="font-style:normal;font-variant:normal;font-weight:normal;font-stretch:normal;letter-spacing:normal;word-spacing:normal;text-anchor:start;fill:none;stroke:#000000;stroke-linecap:butt;stroke-linejoin:miter;stroke-miterlimit:10.43299961;stroke-opacity:1;stroke-dasharray:none;stroke-dashoffset:0"><path
         style="fill:#000000;stroke-width:0"
         inkscape:connector-curvature="0"
         d="m 226.26,713.33 0,0.02 0,0.02 -0.01,0.02 0,0.02 0,0.01 -0.01,0.02 0,0.02 -0.01,0.01 0,0.02 -0.01,0.01 -0.01,0.02 -0.01,0.01 -0.01,0.02 -0.01,0.01 -0.01,0.01 -0.01,0.02 -0.01,0.01 -0.02,0.01 -0.01,0.01 -0.01,0.01 -0.02,0.01 -0.01,0.01 -0.02,0.01 -0.02,0 -0.01,0.01 -0.02,0.01 -0.02,0 -0.02,0 -0.02,0.01 -0.02,0 -0.02,0 -0.02,0 c -0.27,0 -0.54,-0.26 -0.54,-0.53 0,-0.18 0.14,-0.35 0.38,-0.35 0.23,0 0.53,0.23 0.53,0.52 z"
         id="path68836" /><path
         style="fill:#000000;stroke-width:0"
         inkscape:connector-curvature="0"
         d="m 225.5,709.6 0.01,0.02 0.01,0.03 0.01,0.02 0.01,0.02 0.01,0.03 0.01,0.02 0,0.01 0.01,0.02 0.01,0.02 0.01,0.02 0,0.01 0.01,0.02 0,0.01 0.01,0.02 0.01,0.02 0.01,0.03 0.01,0.03 0,0.02 0.01,0.01 0.01,0.02 0,0.01 0.01,0.02 0,0.02 0.01,0.02 0.01,0.01 0,0.03 0.01,0.02 0.01,0.02 0.01,0.02 c 0.08,0.2 0.13,0.34 0.13,0.53 0,0.45 -0.32,0.82 -0.82,0.82 -0.93,0 -1.31,-1.44 -1.31,-1.53 0,-0.1 0.1,-0.1 0.12,-0.1 0.1,0 0.11,0.02 0.16,0.18 0.27,0.93 0.67,1.23 1,1.23 0.08,0 0.25,0 0.25,-0.32 0,-0.21 -0.07,-0.42 -0.11,-0.52 -0.08,-0.26 -0.52,-1.41 -0.68,-1.84 -0.1,-0.25 -0.23,-0.58 -0.23,-0.79 0,-0.47 0.34,-0.81 0.81,-0.81 0.94,0 1.31,1.44 1.31,1.53 0,0.1 -0.09,0.1 -0.12,0.1 -0.1,0 -0.1,-0.04 -0.15,-0.18 -0.18,-0.63 -0.51,-1.24 -1.02,-1.24 -0.16,0 -0.24,0.1 -0.24,0.33 0,0.25 0.06,0.39 0.29,0.99 z"
         id="path68838" /></g>    <g
       id="g68840"
       transform="matrix(1.25,0,0,-1.25,252.5137,1535.0273)"
       xml:space="preserve"
       stroke-miterlimit="10.433"
       font-style="normal"
       font-variant="normal"
       font-weight="normal"
       font-stretch="normal"
       font-size-adjust="none"
       letter-spacing="normal"
       word-spacing="normal"
       ns0:text="$r$"
       ns0:preamble="/home/milan/phd/Dokumente/tex/graphics/svg_mathbbm.tex"
       style="font-style:normal;font-variant:normal;font-weight:normal;font-stretch:normal;letter-spacing:normal;word-spacing:normal;text-anchor:start;fill:none;stroke:#000000;stroke-linecap:butt;stroke-linejoin:miter;stroke-miterlimit:10.43299961;stroke-opacity:1;stroke-dasharray:none;stroke-dashoffset:0"><path
         style="fill:#000000;stroke-width:0"
         inkscape:connector-curvature="0"
         d="m 224.31,707.71 0,-0.01 -0.01,-0.02 0,-0.01 0,-0.02 -0.01,-0.03 -0.01,-0.03 -0.01,-0.03 0,-0.04 -0.01,-0.03 -0.01,-0.03 0,-0.01 -0.01,-0.02 0,-0.01 0,-0.02 0,-0.01 -0.01,-0.01 0,-0.02 0,-0.01 0,-0.01 -0.01,-0.01 0,-0.01 0,-0.01 0,-0.01 0,0 0,-0.01 0,-0.01 c 0,-0.18 0.14,-0.26 0.29,-0.26 0.12,0 0.29,0.07 0.37,0.27 0.02,0.04 0.35,1.39 0.39,1.57 0.08,0.33 0.26,1.03 0.32,1.3 0.04,0.12 0.32,0.59 0.56,0.81 0.08,0.07 0.37,0.33 0.79,0.33 0.26,0 0.41,-0.12 0.42,-0.12 -0.3,-0.05 -0.51,-0.29 -0.51,-0.55 0,-0.16 0.1,-0.35 0.37,-0.35 0.27,0 0.55,0.23 0.55,0.59 0,0.35 -0.32,0.65 -0.83,0.65 -0.64,0 -1.08,-0.49 -1.27,-0.77 -0.08,0.45 -0.44,0.77 -0.91,0.77 -0.45,0 -0.64,-0.39 -0.73,-0.57 -0.18,-0.34 -0.31,-0.93 -0.31,-0.96 0,-0.1 0.1,-0.1 0.12,-0.1 0.1,0 0.11,0.01 0.17,0.22 0.17,0.71 0.37,1.19 0.73,1.19 0.16,0 0.3,-0.08 0.3,-0.46 0,-0.21 -0.03,-0.32 -0.16,-0.83 z"
         id="path68842" /></g>    <path
       inkscape:connector-curvature="0"
       inkscape:connector-type="polyline"
       id="path68866"
       d="m 292.08022,656.05954 51.78481,0"
       style="fill:none;stroke:#000000;stroke-width:1px;stroke-linecap:butt;stroke-linejoin:miter;stroke-opacity:1" />
    <path
       inkscape:connector-curvature="0"
       inkscape:connector-type="polyline"
       id="path68868"
       d="m 408.08022,656.05954 51.78481,0"
       style="fill:none;stroke:#000000;stroke-width:1px;stroke-linecap:butt;stroke-linejoin:miter;stroke-opacity:1" />
    <path
       inkscape:connector-curvature="0"
       inkscape:connector-type="polyline"
       id="path68870"
       d="m 524.08021,656.05954 31.26674,0"
       style="fill:none;stroke:#000000;stroke-width:1px;stroke-linecap:butt;stroke-linejoin:miter;stroke-opacity:1" />
    <g
       id="g68872"
       transform="matrix(1.25,0,0,-1.25,-40.793928,1542.4603)"
       xml:space="preserve"
       stroke-miterlimit="10.433"
       font-style="normal"
       font-variant="normal"
       font-weight="normal"
       font-stretch="normal"
       font-size-adjust="none"
       letter-spacing="normal"
       word-spacing="normal"
       ns0:text="$\\bigl(A_{i,j}\\bigr)_{l,r}$"
       ns0:preamble="/home/milan/phd/Dokumente/tex/graphics/svg_mathbbm.tex"
       style="font-style:normal;font-variant:normal;font-weight:normal;font-stretch:normal;letter-spacing:normal;word-spacing:normal;text-anchor:start;fill:none;stroke:#000000;stroke-linecap:butt;stroke-linejoin:miter;stroke-miterlimit:10.43299961;stroke-opacity:1;stroke-dasharray:none;stroke-dashoffset:0"><path
         style="fill:#000000;stroke-width:0"
         inkscape:connector-curvature="0"
         d="m 227.54,703.78 0,0 0,0.01 0,0 0,0.01 0,0 0,0 0,0 0,0.01 0,0 0,0 -0.01,0.01 0,0 0,0 0,0 0,0.01 0,0 0,0 -0.01,0.01 0,0 0,0.01 -0.01,0 0,0.01 -0.01,0 0,0.01 c -0.46,0.49 -1.13,1.29 -1.55,2.91 -0.23,0.9 -0.32,1.93 -0.32,2.85 0,2.61 0.63,4.44 1.82,5.73 0.09,0.09 0.09,0.11 0.09,0.13 0,0.1 -0.08,0.1 -0.12,0.1 -0.15,0 -0.68,-0.59 -0.81,-0.74 -1.02,-1.2 -1.67,-2.99 -1.67,-5.21 0,-1.41 0.25,-3.41 1.56,-5.08 0.1,-0.12 0.74,-0.88 0.92,-0.88 0.04,0 0.12,0 0.12,0.1 z"
         id="path68874" /><path
         style="fill:#000000;stroke-width:0"
         inkscape:connector-curvature="0"
         d="m 229.78,708.27 -0.04,-0.06 -0.04,-0.06 -0.03,-0.06 -0.04,-0.05 -0.04,-0.05 -0.03,-0.04 -0.04,-0.05 -0.04,-0.04 -0.04,-0.04 -0.03,-0.04 -0.04,-0.03 -0.04,-0.03 -0.04,-0.03 -0.03,-0.03 -0.04,-0.02 -0.04,-0.03 -0.04,-0.02 -0.03,-0.02 -0.04,-0.02 -0.04,-0.02 -0.04,-0.01 -0.04,-0.01 -0.04,-0.02 -0.03,-0.01 -0.04,-0.01 -0.04,-0.01 -0.04,0 -0.04,-0.01 -0.08,-0.01 -0.09,-0.01 c -0.11,-0.01 -0.2,-0.01 -0.2,-0.2 0,-0.06 0.05,-0.11 0.13,-0.11 0.26,0 0.57,0.04 0.85,0.04 0.33,0 0.68,-0.04 1,-0.04 0.06,0 0.18,0 0.18,0.19 0,0.11 -0.08,0.12 -0.15,0.12 -0.23,0.02 -0.47,0.1 -0.47,0.35 0,0.12 0.06,0.23 0.14,0.37 l 0.75,1.27 h 2.5 l -0.03,0.31 h -2.28 l 1.96,3.28 0.32,-3.28 0.03,-0.31 c 0.02,-0.21 0.16,-1.56 0.16,-1.66 0,-0.3 -0.52,-0.33 -0.72,-0.33 -0.13,0 -0.23,0 -0.23,-0.2 0,-0.11 0.11,-0.11 0.13,-0.11 0.41,0 0.84,0.04 1.25,0.04 0.25,0 0.87,-0.04 1.12,-0.04 0.06,0 0.18,0 0.18,0.2 0,0.11 -0.1,0.11 -0.23,0.11 -0.61,0 -0.61,0.07 -0.64,0.36 l -0.61,6.21 c -0.02,0.2 -0.02,0.24 -0.19,0.24 -0.16,0 -0.2,-0.07 -0.26,-0.17 z"
         id="path68876" /><path
         style="fill:#000000;stroke-width:0"
         inkscape:connector-curvature="0"
         d="m 237.73,709.98 0,0.01 0,0.01 -0.01,0.01 0,0.01 0,0.01 0,0.01 -0.01,0.01 0,0.02 0,0.01 -0.01,0.01 0,0.01 -0.01,0.01 -0.01,0.01 0,0.01 -0.01,0.01 -0.01,0.01 -0.01,0.01 -0.01,0.01 -0.01,0.01 -0.01,0.01 -0.01,0 -0.01,0.01 -0.01,0.01 -0.02,0.01 -0.01,0 -0.01,0.01 -0.02,0 -0.01,0 -0.02,0.01 -0.02,0 -0.01,0 -0.02,0 c -0.19,0 -0.39,-0.18 -0.39,-0.38 0,-0.12 0.09,-0.27 0.28,-0.27 0.2,0 0.39,0.2 0.39,0.39 z"
         id="path68878" /><path
         style="fill:#000000;stroke-width:0"
         inkscape:connector-curvature="0"
         d="m 236.31,706.45 -0.01,-0.02 0,-0.02 -0.02,-0.03 0,-0.02 -0.01,-0.02 0,-0.01 -0.01,-0.02 0,-0.02 0,-0.02 -0.01,-0.02 0,-0.01 0,-0.01 0,-0.01 0,-0.01 -0.01,-0.01 0,-0.02 0,-0.01 0,-0.01 0,-0.01 c 0,-0.32 0.28,-0.59 0.66,-0.59 0.7,0 1.01,0.96 1.01,1.06 0,0.1 -0.09,0.1 -0.11,0.1 -0.1,0 -0.11,-0.05 -0.14,-0.12 -0.16,-0.56 -0.46,-0.84 -0.73,-0.84 -0.14,0 -0.18,0.09 -0.18,0.24 0,0.16 0.05,0.29 0.11,0.45 0.07,0.18 0.15,0.37 0.23,0.55 0.06,0.17 0.31,0.8 0.34,0.88 0.02,0.07 0.04,0.16 0.04,0.23 0,0.32 -0.28,0.59 -0.66,0.59 -0.69,0 -1.01,-0.95 -1.01,-1.07 0,-0.09 0.1,-0.09 0.12,-0.09 0.09,0 0.1,0.04 0.12,0.11 0.18,0.6 0.49,0.85 0.75,0.85 0.11,0 0.17,-0.05 0.17,-0.24 0,-0.16 -0.04,-0.27 -0.22,-0.7 z"
         id="path68880" /><path
         style="fill:#000000;stroke-width:0"
         inkscape:connector-curvature="0"
         d="m 239.76,705.74 0,-0.07 -0.01,-0.07 0,-0.08 -0.01,-0.08 -0.01,-0.03 0,-0.04 -0.01,-0.04 -0.01,-0.04 -0.01,-0.04 -0.01,-0.04 -0.01,-0.04 -0.02,-0.04 -0.01,-0.04 -0.02,-0.04 -0.02,-0.04 -0.01,-0.04 -0.03,-0.04 -0.02,-0.04 -0.02,-0.05 -0.03,-0.04 -0.03,-0.04 -0.03,-0.04 -0.03,-0.04 -0.04,-0.04 -0.03,-0.04 -0.04,-0.05 -0.04,-0.04 -0.05,-0.04 c -0.02,-0.03 -0.04,-0.05 -0.04,-0.08 0,-0.05 0.05,-0.1 0.09,-0.1 0.1,0 0.69,0.55 0.69,1.38 0,0.43 -0.16,0.76 -0.48,0.76 -0.23,0 -0.4,-0.18 -0.4,-0.4 0,-0.22 0.16,-0.4 0.4,-0.4 0.17,0 0.28,0.11 0.29,0.11 z"
         id="path68882" /><path
         style="fill:#000000;stroke-width:0"
         inkscape:connector-curvature="0"
         d="m 243.71,709.98 0,0.01 0,0.01 0,0.01 0,0.01 0,0.01 -0.01,0.02 0,0.01 0,0.01 -0.01,0.01 0,0.01 -0.01,0.01 -0.01,0.01 0,0.01 -0.01,0.01 -0.01,0.01 -0.01,0.01 -0.01,0.01 0,0.01 -0.01,0.01 -0.02,0.01 -0.01,0.01 -0.01,0 -0.01,0.01 -0.01,0.01 -0.02,0 -0.01,0.01 -0.02,0 -0.01,0 -0.02,0.01 -0.01,0 -0.02,0 -0.02,0 c -0.2,0 -0.39,-0.19 -0.39,-0.38 0,-0.11 0.09,-0.27 0.28,-0.27 0.19,0 0.39,0.19 0.39,0.39 z"
         id="path68884" /><path
         style="fill:#000000;stroke-width:0"
         inkscape:connector-curvature="0"
         d="m 242.24,705.29 -0.02,-0.04 -0.01,-0.05 -0.01,-0.04 -0.02,-0.05 -0.02,-0.04 -0.02,-0.04 -0.02,-0.04 -0.02,-0.04 -0.02,-0.04 -0.02,-0.04 -0.03,-0.03 -0.02,-0.04 -0.03,-0.04 -0.03,-0.03 -0.02,-0.03 -0.03,-0.03 -0.03,-0.03 -0.04,-0.03 -0.03,-0.03 -0.03,-0.02 -0.03,-0.02 -0.04,-0.02 -0.03,-0.02 -0.04,-0.02 -0.03,-0.02 -0.04,-0.01 -0.03,-0.01 -0.04,-0.01 -0.04,-0.01 -0.04,-0.01 -0.03,0 -0.04,0 c -0.09,0 -0.18,0.01 -0.25,0.04 0.18,0.08 0.23,0.25 0.23,0.35 0,0.17 -0.13,0.26 -0.27,0.26 -0.21,0 -0.4,-0.19 -0.4,-0.41 0,-0.26 0.28,-0.44 0.7,-0.44 0.41,0 1.23,0.25 1.44,1.1 l 0.63,2.49 c 0.02,0.08 0.04,0.14 0.04,0.24 0,0.39 -0.33,0.66 -0.75,0.66 -0.77,0 -1.22,-0.97 -1.22,-1.07 0,-0.09 0.1,-0.09 0.12,-0.09 0.08,0 0.09,0.02 0.14,0.13 0.17,0.4 0.54,0.83 0.94,0.83 0.17,0 0.24,-0.11 0.24,-0.34 0,-0.07 -0.02,-0.17 -0.03,-0.21 z"
         id="path68886" /><path
         style="fill:#000000;stroke-width:0"
         inkscape:connector-curvature="0"
         d="m 247.89,709.63 -0.01,0.27 -0.01,0.29 -0.01,0.29 -0.03,0.31 -0.04,0.31 -0.05,0.32 -0.06,0.32 -0.08,0.33 -0.04,0.17 -0.05,0.17 -0.05,0.17 -0.06,0.16 -0.06,0.17 -0.07,0.17 -0.07,0.17 -0.07,0.16 -0.08,0.17 -0.09,0.17 -0.09,0.16 -0.09,0.17 -0.11,0.16 -0.1,0.16 -0.12,0.16 -0.11,0.16 c -0.1,0.12 -0.75,0.87 -0.93,0.87 -0.05,0 -0.12,-0.02 -0.12,-0.1 0,-0.04 0.02,-0.07 0.06,-0.1 0.48,-0.51 1.13,-1.32 1.53,-2.9 0.23,-0.9 0.32,-1.92 0.32,-2.85 0,-1 -0.09,-2.02 -0.35,-2.99 -0.37,-1.39 -0.96,-2.18 -1.47,-2.74 -0.09,-0.09 -0.09,-0.11 -0.09,-0.13 0,-0.08 0.07,-0.1 0.12,-0.1 0.15,0 0.7,0.61 0.82,0.75 1.01,1.2 1.66,2.99 1.66,5.2 z"
         id="path68888" /><path
         style="fill:#000000;stroke-width:0"
         inkscape:connector-curvature="0"
         d="m 251.38,707.76 0,0 0,0 0,0 0,0 0,0 0.01,0 0,0 0,0.01 0,0 0,0 0,0.01 0,0 0,0 0,0.01 0,0 0,0.01 0.01,0 0,0.01 0,0.01 0,0.01 0,0 0,0 0,0.01 0.01,0 0,0.01 0,0 0,0 0,0.01 0,0 0,0 0,0 0,0 0,0 0,0 0,0.01 0,0 0,0 0,0 0,0 0,0 c 0,0.03 -0.03,0.1 -0.11,0.1 -0.14,0 -0.72,-0.06 -0.89,-0.07 -0.05,-0.01 -0.15,-0.02 -0.15,-0.16 0,-0.1 0.1,-0.1 0.18,-0.1 0.33,0 0.33,-0.05 0.33,-0.11 0,-0.04 -0.01,-0.09 -0.03,-0.15 l -0.86,-3.43 c -0.02,-0.07 -0.03,-0.15 -0.03,-0.22 0,-0.44 0.4,-0.66 0.73,-0.66 0.17,0 0.38,0.06 0.56,0.37 0.15,0.26 0.24,0.67 0.24,0.69 0,0.09 -0.09,0.09 -0.11,0.09 -0.1,0 -0.11,-0.04 -0.14,-0.16 -0.09,-0.35 -0.22,-0.79 -0.52,-0.79 -0.19,0 -0.24,0.17 -0.24,0.34 0,0.07 0.02,0.21 0.04,0.28 z"
         id="path68890" /><path
         style="fill:#000000;stroke-width:0"
         inkscape:connector-curvature="0"
         d="m 253.45,703.25 0,-0.07 0,-0.08 -0.01,-0.07 -0.01,-0.08 0,-0.03 -0.01,-0.04 -0.01,-0.04 -0.01,-0.04 -0.01,-0.04 -0.01,-0.04 -0.01,-0.04 -0.01,-0.04 -0.02,-0.04 -0.02,-0.04 -0.01,-0.04 -0.02,-0.04 -0.02,-0.04 -0.03,-0.05 -0.02,-0.04 -0.03,-0.04 -0.03,-0.04 -0.03,-0.04 -0.03,-0.04 -0.03,-0.04 -0.04,-0.05 -0.04,-0.04 -0.04,-0.04 -0.04,-0.04 c -0.03,-0.03 -0.05,-0.05 -0.05,-0.08 0,-0.05 0.05,-0.1 0.1,-0.1 0.09,0 0.69,0.55 0.69,1.38 0,0.43 -0.17,0.76 -0.49,0.76 -0.23,0 -0.4,-0.18 -0.4,-0.4 0,-0.22 0.16,-0.4 0.4,-0.4 0.17,0 0.28,0.11 0.29,0.11 z"
         id="path68892" /><path
         style="fill:#000000;stroke-width:0"
         inkscape:connector-curvature="0"
         d="m 255.98,704.54 0,0.01 0,0 0,0 0.01,0.01 0,0 0,0.01 0,0.01 0,0.01 0,0 0.01,0.01 0,0.01 0,0.01 0,0.01 0.01,0.01 0,0.03 0.01,0.02 0.01,0.03 0,0.03 0.01,0.03 0.01,0.03 0.01,0.03 0.01,0.06 0.02,0.06 0,0.03 0.01,0.03 0.01,0.03 0.01,0.03 0,0.02 0.01,0.03 0.01,0.02 0,0.01 0,0.01 0.01,0.01 0,0.01 0,0.01 0,0.01 0,0.01 0.01,0 0,0.01 0,0 0,0.01 0,0 0,0 0,0.01 c 0.02,0.05 0.22,0.4 0.44,0.57 0.08,0.05 0.27,0.19 0.57,0.19 0.07,0 0.24,0 0.38,-0.1 -0.22,-0.06 -0.31,-0.25 -0.31,-0.38 0,-0.15 0.12,-0.25 0.28,-0.25 0.16,0 0.39,0.13 0.39,0.42 0,0.36 -0.38,0.51 -0.74,0.51 -0.36,0 -0.67,-0.15 -0.98,-0.5 -0.12,0.43 -0.55,0.5 -0.71,0.5 -0.26,0 -0.44,-0.16 -0.55,-0.36 -0.16,-0.27 -0.26,-0.67 -0.26,-0.71 0,-0.09 0.1,-0.09 0.12,-0.09 0.1,0 0.11,0.02 0.16,0.21 0.1,0.42 0.23,0.75 0.5,0.75 0.18,0 0.23,-0.15 0.23,-0.34 0,-0.13 -0.06,-0.39 -0.11,-0.58 -0.05,-0.18 -0.12,-0.47 -0.15,-0.62 l -0.22,-0.89 c -0.03,-0.09 -0.07,-0.27 -0.07,-0.29 0,-0.15 0.12,-0.22 0.23,-0.22 0.11,0 0.25,0.06 0.3,0.2 0.02,0.04 0.09,0.35 0.13,0.52 z"
         id="path68894" /></g>    <g
       style="font-style:normal;font-variant:normal;font-weight:normal;font-stretch:normal;letter-spacing:normal;word-spacing:normal;text-anchor:start;fill:none;stroke:#000000;stroke-linecap:butt;stroke-linejoin:miter;stroke-miterlimit:10.43299961;stroke-opacity:1;stroke-dasharray:none;stroke-dashoffset:0"
       ns0:preamble="/home/milan/phd/Dokumente/tex/graphics/svg_mathbbm.tex"
       ns0:text="$\\bigl(B_{i,j}\\bigr)_{l,r}$"
       word-spacing="normal"
       letter-spacing="normal"
       font-size-adjust="none"
       font-stretch="normal"
       font-weight="normal"
       font-variant="normal"
       font-style="normal"
       stroke-miterlimit="10.433"
       xml:space="preserve"
       transform="matrix(1.25,0,0,-1.25,75.206073,1542.4603)"
       id="g68896"><path
         id="path68898"
         d="m 227.54,703.78 0,0 0,0.01 0,0 0,0.01 0,0 0,0 0,0 0,0.01 0,0 0,0 -0.01,0.01 0,0 0,0 0,0 0,0.01 0,0 0,0 -0.01,0.01 0,0 0,0.01 -0.01,0 0,0.01 -0.01,0 0,0.01 c -0.46,0.49 -1.13,1.29 -1.55,2.91 -0.23,0.9 -0.32,1.93 -0.32,2.85 0,2.61 0.63,4.44 1.82,5.73 0.09,0.09 0.09,0.11 0.09,0.13 0,0.1 -0.08,0.1 -0.12,0.1 -0.15,0 -0.68,-0.59 -0.81,-0.74 -1.02,-1.2 -1.67,-2.99 -1.67,-5.21 0,-1.41 0.25,-3.41 1.56,-5.08 0.1,-0.12 0.74,-0.88 0.92,-0.88 0.04,0 0.12,0 0.12,0.1 z"
         inkscape:connector-curvature="0"
         style="fill:#000000;stroke-width:0" /><path
         id="path68900"
         d="m 229.59,707.9 -0.01,-0.04 -0.01,-0.03 -0.01,-0.03 -0.01,-0.03 0,-0.03 -0.01,-0.03 -0.01,-0.02 -0.01,-0.03 -0.01,-0.02 -0.02,-0.02 -0.01,-0.02 -0.01,-0.02 -0.02,-0.02 -0.02,-0.01 -0.02,-0.02 -0.02,-0.01 -0.02,-0.01 -0.02,-0.01 -0.03,-0.01 -0.03,-0.01 -0.03,-0.01 -0.02,0 -0.02,-0.01 -0.02,0 -0.02,0 -0.02,-0.01 -0.02,0 -0.02,0 -0.02,0 -0.02,-0.01 -0.03,0 -0.02,0 -0.03,0 -0.03,0 -0.03,0 -0.02,0 -0.03,0 -0.04,-0.01 -0.03,0 -0.03,0 -0.03,0 -0.04,0 -0.04,0 c -0.17,0 -0.26,0 -0.26,-0.2 0,-0.11 0.09,-0.11 0.26,-0.11 h 3.56 c 1.57,0 2.74,1.18 2.74,2.15 0,0.72 -0.58,1.29 -1.54,1.4 1.04,0.19 2.08,0.92 2.08,1.87 0,0.73 -0.66,1.37 -1.85,1.37 l -0.14,-0.31 c 0.87,0 1.08,-0.58 1.08,-1.02 0,-0.87 -0.85,-1.82 -2.07,-1.82 h -1.45 l -0.06,-0.22 h 1.88 c 0.96,0 1.15,-0.73 1.15,-1.16 0,-0.98 -0.89,-1.95 -2.06,-1.95 h -1.36 c -0.13,0 -0.15,0 -0.21,0.01 -0.1,0.01 -0.13,0.02 -0.13,0.1 0,0.03 0,0.05 0.05,0.23 l 0.68,2.77 0.06,0.22 0.62,2.46 c 0.09,0.35 0.11,0.38 0.54,0.38 h 1.28 l 0.14,0.31 h -3.34 c -0.19,0 -0.29,0 -0.29,-0.2 0,-0.11 0.09,-0.11 0.28,-0.11 0.02,0 0.2,0 0.37,-0.02 0.18,-0.02 0.27,-0.03 0.27,-0.16 0,-0.04 -0.01,-0.07 -0.04,-0.19 z"
         inkscape:connector-curvature="0"
         style="fill:#000000;stroke-width:0" /><path
         id="path68902"
         d="m 237.81,709.98 0,0.01 0,0.01 0,0.01 0,0.01 -0.01,0.01 0,0.01 0,0.01 -0.01,0.02 0,0.01 0,0.01 -0.01,0.01 -0.01,0.01 0,0.01 -0.01,0.01 -0.01,0.01 0,0.01 -0.01,0.01 -0.01,0.01 -0.01,0.01 -0.01,0.01 -0.01,0 -0.02,0.01 -0.01,0.01 -0.01,0.01 -0.01,0 -0.02,0.01 -0.01,0 -0.02,0 -0.02,0.01 -0.01,0 -0.02,0 -0.02,0 c -0.18,0 -0.39,-0.18 -0.39,-0.38 0,-0.12 0.09,-0.27 0.28,-0.27 0.2,0 0.39,0.2 0.39,0.39 z"
         inkscape:connector-curvature="0"
         style="fill:#000000;stroke-width:0" /><path
         id="path68904"
         d="m 236.39,706.45 0,-0.02 -0.01,-0.02 -0.01,-0.03 -0.01,-0.02 0,-0.02 -0.01,-0.01 0,-0.02 -0.01,-0.02 0,-0.02 0,-0.02 -0.01,-0.01 0,-0.01 0,-0.01 0,-0.01 0,-0.01 0,-0.02 0,-0.01 0,-0.01 0,-0.01 c 0,-0.32 0.28,-0.59 0.66,-0.59 0.7,0 1,0.96 1,1.06 0,0.1 -0.09,0.1 -0.11,0.1 -0.1,0 -0.1,-0.05 -0.13,-0.12 -0.16,-0.56 -0.47,-0.84 -0.74,-0.84 -0.14,0 -0.17,0.09 -0.17,0.24 0,0.16 0.04,0.29 0.11,0.45 0.07,0.18 0.14,0.37 0.22,0.55 0.06,0.17 0.31,0.8 0.34,0.88 0.02,0.07 0.04,0.16 0.04,0.23 0,0.32 -0.28,0.59 -0.66,0.59 -0.69,0 -1.01,-0.95 -1.01,-1.07 0,-0.09 0.1,-0.09 0.12,-0.09 0.1,0 0.1,0.04 0.13,0.11 0.18,0.6 0.48,0.85 0.74,0.85 0.11,0 0.17,-0.05 0.17,-0.24 0,-0.16 -0.04,-0.27 -0.21,-0.7 z"
         inkscape:connector-curvature="0"
         style="fill:#000000;stroke-width:0" /><path
         id="path68906"
         d="m 239.84,705.74 0,-0.07 0,-0.07 -0.01,-0.08 -0.01,-0.08 0,-0.03 -0.01,-0.04 -0.01,-0.04 0,-0.04 -0.01,-0.04 -0.01,-0.04 -0.02,-0.04 -0.01,-0.04 -0.02,-0.04 -0.01,-0.04 -0.02,-0.04 -0.02,-0.04 -0.02,-0.04 -0.02,-0.04 -0.03,-0.05 -0.03,-0.04 -0.02,-0.04 -0.03,-0.04 -0.04,-0.04 -0.03,-0.04 -0.04,-0.04 -0.04,-0.05 -0.04,-0.04 -0.04,-0.04 c -0.03,-0.03 -0.05,-0.05 -0.05,-0.08 0,-0.05 0.06,-0.1 0.1,-0.1 0.1,0 0.69,0.55 0.69,1.38 0,0.43 -0.17,0.76 -0.49,0.76 -0.23,0 -0.4,-0.18 -0.4,-0.4 0,-0.22 0.16,-0.4 0.41,-0.4 0.17,0 0.28,0.11 0.28,0.11 z"
         inkscape:connector-curvature="0"
         style="fill:#000000;stroke-width:0" /><path
         id="path68908"
         d="m 243.8,709.98 0,0.01 0,0.01 -0.01,0.01 0,0.01 0,0.01 0,0.02 -0.01,0.01 0,0.01 0,0.01 -0.01,0.01 -0.01,0.01 0,0.01 -0.01,0.01 -0.01,0.01 0,0.01 -0.01,0.01 -0.01,0.01 -0.01,0.01 -0.01,0.01 -0.01,0.01 -0.01,0.01 -0.01,0 -0.02,0.01 -0.01,0.01 -0.01,0 -0.02,0.01 -0.01,0 -0.02,0 -0.01,0.01 -0.02,0 -0.01,0 -0.02,0 c -0.2,0 -0.39,-0.19 -0.39,-0.38 0,-0.11 0.08,-0.27 0.28,-0.27 0.19,0 0.39,0.19 0.39,0.39 z"
         inkscape:connector-curvature="0"
         style="fill:#000000;stroke-width:0" /><path
         id="path68910"
         d="m 242.32,705.29 -0.01,-0.04 -0.01,-0.05 -0.02,-0.04 -0.01,-0.05 -0.02,-0.04 -0.02,-0.04 -0.02,-0.04 -0.02,-0.04 -0.02,-0.04 -0.03,-0.04 -0.02,-0.03 -0.03,-0.04 -0.02,-0.04 -0.03,-0.03 -0.03,-0.03 -0.03,-0.03 -0.03,-0.03 -0.03,-0.03 -0.03,-0.03 -0.03,-0.02 -0.04,-0.02 -0.03,-0.02 -0.04,-0.02 -0.03,-0.02 -0.04,-0.02 -0.03,-0.01 -0.04,-0.01 -0.04,-0.01 -0.03,-0.01 -0.04,-0.01 -0.04,0 -0.04,0 c -0.09,0 -0.17,0.01 -0.25,0.04 0.18,0.08 0.24,0.25 0.24,0.35 0,0.17 -0.13,0.26 -0.27,0.26 -0.22,0 -0.4,-0.19 -0.4,-0.41 0,-0.26 0.27,-0.44 0.69,-0.44 0.42,0 1.23,0.25 1.45,1.1 l 0.63,2.49 c 0.02,0.08 0.03,0.14 0.03,0.24 0,0.39 -0.33,0.66 -0.75,0.66 -0.77,0 -1.21,-0.97 -1.21,-1.07 0,-0.09 0.09,-0.09 0.11,-0.09 0.09,0 0.1,0.02 0.14,0.13 0.18,0.4 0.54,0.83 0.94,0.83 0.18,0 0.24,-0.11 0.24,-0.34 0,-0.07 -0.01,-0.17 -0.02,-0.21 z"
         inkscape:connector-curvature="0"
         style="fill:#000000;stroke-width:0" /><path
         id="path68912"
         d="m 247.97,709.63 0,0.27 -0.01,0.29 -0.02,0.29 -0.03,0.31 -0.04,0.31 -0.05,0.32 -0.06,0.32 -0.08,0.33 -0.04,0.17 -0.05,0.17 -0.05,0.17 -0.06,0.16 -0.06,0.17 -0.06,0.17 -0.07,0.17 -0.08,0.16 -0.08,0.17 -0.08,0.17 -0.09,0.16 -0.1,0.17 -0.1,0.16 -0.11,0.16 -0.11,0.16 -0.12,0.16 c -0.1,0.12 -0.75,0.87 -0.93,0.87 -0.04,0 -0.11,-0.02 -0.11,-0.1 0,-0.04 0.02,-0.07 0.05,-0.1 0.48,-0.51 1.13,-1.32 1.54,-2.9 0.23,-0.9 0.32,-1.92 0.32,-2.85 0,-1 -0.09,-2.02 -0.35,-2.99 -0.38,-1.39 -0.97,-2.18 -1.48,-2.74 -0.08,-0.09 -0.08,-0.11 -0.08,-0.13 0,-0.08 0.07,-0.1 0.11,-0.1 0.15,0 0.7,0.61 0.82,0.75 1.02,1.2 1.66,2.99 1.66,5.2 z"
         inkscape:connector-curvature="0"
         style="fill:#000000;stroke-width:0" /><path
         id="path68914"
         d="m 251.47,707.76 0,0 0,0 0,0 0,0 0,0 0,0 0,0 0,0.01 0,0 0,0 0,0.01 0.01,0 0,0 0,0.01 0,0 0,0.01 0,0 0,0.01 0,0.01 0.01,0.01 0,0 0,0 0,0.01 0,0 0,0.01 0,0 0,0 0,0.01 0,0 0,0 0,0 0.01,0 0,0 0,0 0,0.01 0,0 0,0 0,0 0,0 0,0 c 0,0.03 -0.03,0.1 -0.12,0.1 -0.14,0 -0.71,-0.06 -0.89,-0.07 -0.05,-0.01 -0.14,-0.02 -0.14,-0.16 0,-0.1 0.09,-0.1 0.17,-0.1 0.33,0 0.33,-0.05 0.33,-0.11 0,-0.04 -0.01,-0.09 -0.02,-0.15 l -0.87,-3.43 c -0.02,-0.07 -0.02,-0.15 -0.02,-0.22 0,-0.44 0.39,-0.66 0.73,-0.66 0.16,0 0.37,0.06 0.55,0.37 0.15,0.26 0.25,0.67 0.25,0.69 0,0.09 -0.09,0.09 -0.11,0.09 -0.1,0 -0.12,-0.04 -0.14,-0.16 -0.09,-0.35 -0.23,-0.79 -0.52,-0.79 -0.19,0 -0.24,0.17 -0.24,0.34 0,0.07 0.02,0.21 0.04,0.28 z"
         inkscape:connector-curvature="0"
         style="fill:#000000;stroke-width:0" /><path
         id="path68916"
         d="m 253.54,703.25 -0.01,-0.07 0,-0.08 0,-0.07 -0.01,-0.08 -0.01,-0.03 -0.01,-0.04 0,-0.04 -0.01,-0.04 -0.01,-0.04 -0.01,-0.04 -0.02,-0.04 -0.01,-0.04 -0.01,-0.04 -0.02,-0.04 -0.02,-0.04 -0.02,-0.04 -0.02,-0.04 -0.02,-0.05 -0.03,-0.04 -0.02,-0.04 -0.03,-0.04 -0.03,-0.04 -0.03,-0.04 -0.04,-0.04 -0.04,-0.05 -0.03,-0.04 -0.04,-0.04 -0.05,-0.04 c -0.03,-0.03 -0.05,-0.05 -0.05,-0.08 0,-0.05 0.06,-0.1 0.1,-0.1 0.1,0 0.69,0.55 0.69,1.38 0,0.43 -0.17,0.76 -0.49,0.76 -0.23,0 -0.39,-0.18 -0.39,-0.4 0,-0.22 0.16,-0.4 0.4,-0.4 0.17,0 0.28,0.11 0.29,0.11 z"
         inkscape:connector-curvature="0"
         style="fill:#000000;stroke-width:0" /><path
         id="path68918"
         d="m 256.07,704.54 0,0.01 0,0 0,0 0,0.01 0,0 0,0.01 0.01,0.01 0,0.01 0,0 0,0.01 0,0.01 0.01,0.01 0,0.01 0,0.01 0.01,0.03 0,0.02 0.01,0.03 0.01,0.03 0,0.03 0.01,0.03 0.01,0.03 0.02,0.06 0.01,0.06 0.01,0.03 0.01,0.03 0,0.03 0.01,0.03 0.01,0.02 0.01,0.03 0,0.02 0,0.01 0.01,0.01 0,0.01 0,0.01 0.01,0.01 0,0.01 0,0.01 0,0 0,0.01 0,0 0.01,0.01 0,0 0,0 0,0.01 c 0.01,0.05 0.21,0.4 0.44,0.57 0.08,0.05 0.26,0.19 0.56,0.19 0.07,0 0.25,0 0.39,-0.1 -0.23,-0.06 -0.31,-0.25 -0.31,-0.38 0,-0.15 0.12,-0.25 0.28,-0.25 0.16,0 0.39,0.13 0.39,0.42 0,0.36 -0.39,0.51 -0.74,0.51 -0.36,0 -0.68,-0.15 -0.98,-0.5 -0.13,0.43 -0.55,0.5 -0.72,0.5 -0.26,0 -0.43,-0.16 -0.54,-0.36 -0.16,-0.27 -0.26,-0.67 -0.26,-0.71 0,-0.09 0.1,-0.09 0.12,-0.09 0.1,0 0.1,0.02 0.15,0.21 0.1,0.42 0.24,0.75 0.51,0.75 0.18,0 0.23,-0.15 0.23,-0.34 0,-0.13 -0.06,-0.39 -0.11,-0.58 -0.05,-0.18 -0.12,-0.47 -0.16,-0.62 l -0.22,-0.89 c -0.03,-0.09 -0.07,-0.27 -0.07,-0.29 0,-0.15 0.13,-0.22 0.24,-0.22 0.1,0 0.24,0.06 0.3,0.2 0.01,0.04 0.09,0.35 0.13,0.52 z"
         inkscape:connector-curvature="0"
         style="fill:#000000;stroke-width:0" /></g>    <g
       id="g68920"
       transform="matrix(1.25,0,0,-1.25,191.20607,1542.4603)"
       xml:space="preserve"
       stroke-miterlimit="10.433"
       font-style="normal"
       font-variant="normal"
       font-weight="normal"
       font-stretch="normal"
       font-size-adjust="none"
       letter-spacing="normal"
       word-spacing="normal"
       ns0:text="$\\bigl(C_{i,j}\\bigr)_{l,r}$"
       ns0:preamble="/home/milan/phd/Dokumente/tex/graphics/svg_mathbbm.tex"
       style="font-style:normal;font-variant:normal;font-weight:normal;font-stretch:normal;letter-spacing:normal;word-spacing:normal;text-anchor:start;fill:none;stroke:#000000;stroke-linecap:butt;stroke-linejoin:miter;stroke-miterlimit:10.43299961;stroke-opacity:1;stroke-dasharray:none;stroke-dashoffset:0"><path
         style="fill:#000000;stroke-width:0"
         inkscape:connector-curvature="0"
         d="m 227.54,703.78 0,0 0,0.01 0,0 0,0.01 0,0 0,0 0,0 0,0.01 0,0 0,0 -0.01,0.01 0,0 0,0 0,0 0,0.01 0,0 0,0 -0.01,0.01 0,0 0,0.01 -0.01,0 0,0.01 -0.01,0 0,0.01 c -0.46,0.49 -1.13,1.29 -1.55,2.91 -0.23,0.9 -0.32,1.93 -0.32,2.85 0,2.61 0.63,4.44 1.82,5.73 0.09,0.09 0.09,0.11 0.09,0.13 0,0.1 -0.08,0.1 -0.12,0.1 -0.15,0 -0.68,-0.59 -0.81,-0.74 -1.02,-1.2 -1.67,-2.99 -1.67,-5.21 0,-1.41 0.25,-3.41 1.56,-5.08 0.1,-0.12 0.74,-0.88 0.92,-0.88 0.04,0 0.12,0 0.12,0.1 z"
         id="path68922" /><path
         style="fill:#000000;stroke-width:0"
         inkscape:connector-curvature="0"
         d="m 235.56,714.03 0,0 0,0.01 0,0 0,0 0,0.01 0,0 0,0 -0.01,0.01 0,0 0,0.01 0,0 0,0 0,0.01 -0.01,0 0,0.01 0,0 0,0 -0.01,0.01 0,0 -0.01,0 0,0.01 0,0 -0.01,0 -0.01,0.01 0,0 0,0 -0.01,0 0,0 0,0 -0.01,0 0,0 0,0.01 -0.01,0 0,0 0,0 -0.01,0 0,0 -0.01,0 0,0 c -0.03,0 -0.04,-0.01 -0.15,-0.12 l -0.7,-0.77 c -0.09,0.14 -0.54,0.89 -1.65,0.89 -2.22,0 -4.46,-2.2 -4.46,-4.5 0,-1.64 1.18,-2.72 2.7,-2.72 0.87,0 1.62,0.39 2.15,0.85 0.93,0.82 1.09,1.72 1.09,1.75 0,0.1 -0.09,0.1 -0.11,0.1 -0.06,0 -0.11,-0.02 -0.13,-0.1 -0.09,-0.29 -0.32,-0.99 -1.01,-1.57 -0.69,-0.56 -1.31,-0.73 -1.83,-0.73 -0.89,0 -1.95,0.52 -1.95,2.07 0,0.57 0.21,2.18 1.2,3.34 0.61,0.7 1.55,1.2 2.43,1.2 1.02,0 1.6,-0.77 1.6,-1.92 0,-0.39 -0.03,-0.4 -0.03,-0.5 0,-0.1 0.11,-0.1 0.15,-0.1 0.13,0 0.13,0.02 0.18,0.2 z"
         id="path68924" /><path
         style="fill:#000000;stroke-width:0"
         inkscape:connector-curvature="0"
         d="m 237.38,709.98 -0.01,0.01 0,0.01 0,0.01 0,0.01 0,0.01 0,0.01 -0.01,0.01 0,0.02 -0.01,0.01 0,0.01 -0.01,0.01 0,0.01 -0.01,0.01 -0.01,0.01 0,0.01 -0.01,0.01 -0.01,0.01 -0.01,0.01 -0.01,0.01 -0.01,0.01 -0.01,0 -0.01,0.01 -0.01,0.01 -0.02,0.01 -0.01,0 -0.01,0.01 -0.02,0 -0.02,0 -0.01,0.01 -0.02,0 -0.02,0 -0.01,0 c -0.19,0 -0.39,-0.18 -0.39,-0.38 0,-0.12 0.09,-0.27 0.28,-0.27 0.2,0 0.39,0.2 0.39,0.39 z"
         id="path68926" /><path
         style="fill:#000000;stroke-width:0"
         inkscape:connector-curvature="0"
         d="m 235.96,706.45 -0.01,-0.02 -0.01,-0.02 -0.01,-0.03 0,-0.02 -0.01,-0.02 0,-0.01 -0.01,-0.02 0,-0.02 -0.01,-0.02 0,-0.02 0,-0.01 0,-0.01 0,-0.01 -0.01,-0.01 0,-0.01 0,-0.02 0,-0.01 0,-0.01 0,-0.01 c 0,-0.32 0.28,-0.59 0.66,-0.59 0.7,0 1.01,0.96 1.01,1.06 0,0.1 -0.09,0.1 -0.11,0.1 -0.1,0 -0.11,-0.05 -0.14,-0.12 -0.16,-0.56 -0.46,-0.84 -0.74,-0.84 -0.14,0 -0.17,0.09 -0.17,0.24 0,0.16 0.05,0.29 0.11,0.45 0.07,0.18 0.15,0.37 0.23,0.55 0.06,0.17 0.31,0.8 0.34,0.88 0.02,0.07 0.04,0.16 0.04,0.23 0,0.32 -0.28,0.59 -0.66,0.59 -0.69,0 -1.01,-0.95 -1.01,-1.07 0,-0.09 0.09,-0.09 0.12,-0.09 0.09,0 0.1,0.04 0.12,0.11 0.18,0.6 0.49,0.85 0.74,0.85 0.12,0 0.18,-0.05 0.18,-0.24 0,-0.16 -0.04,-0.27 -0.22,-0.7 z"
         id="path68928" /><path
         style="fill:#000000;stroke-width:0"
         inkscape:connector-curvature="0"
         d="m 239.41,705.74 0,-0.07 -0.01,-0.07 0,-0.08 -0.01,-0.08 -0.01,-0.03 0,-0.04 -0.01,-0.04 -0.01,-0.04 -0.01,-0.04 -0.01,-0.04 -0.01,-0.04 -0.02,-0.04 -0.01,-0.04 -0.02,-0.04 -0.02,-0.04 -0.02,-0.04 -0.02,-0.04 -0.02,-0.04 -0.02,-0.05 -0.03,-0.04 -0.03,-0.04 -0.03,-0.04 -0.03,-0.04 -0.04,-0.04 -0.03,-0.04 -0.04,-0.05 -0.04,-0.04 -0.05,-0.04 c -0.02,-0.03 -0.04,-0.05 -0.04,-0.08 0,-0.05 0.05,-0.1 0.09,-0.1 0.1,0 0.69,0.55 0.69,1.38 0,0.43 -0.17,0.76 -0.48,0.76 -0.24,0 -0.4,-0.18 -0.4,-0.4 0,-0.22 0.16,-0.4 0.4,-0.4 0.17,0 0.28,0.11 0.29,0.11 z"
         id="path68930" /><path
         style="fill:#000000;stroke-width:0"
         inkscape:connector-curvature="0"
         d="m 243.36,709.98 0,0.01 0,0.01 0,0.01 0,0.01 -0.01,0.01 0,0.02 0,0.01 -0.01,0.01 0,0.01 -0.01,0.01 0,0.01 -0.01,0.01 0,0.01 -0.01,0.01 -0.01,0.01 -0.01,0.01 -0.01,0.01 -0.01,0.01 -0.01,0.01 -0.01,0.01 -0.01,0.01 -0.01,0 -0.01,0.01 -0.01,0.01 -0.02,0 -0.01,0.01 -0.02,0 -0.01,0 -0.02,0.01 -0.01,0 -0.02,0 -0.02,0 c -0.2,0 -0.39,-0.19 -0.39,-0.38 0,-0.11 0.09,-0.27 0.28,-0.27 0.19,0 0.39,0.19 0.39,0.39 z"
         id="path68932" /><path
         style="fill:#000000;stroke-width:0"
         inkscape:connector-curvature="0"
         d="m 241.88,705.29 -0.01,-0.04 -0.01,-0.05 -0.01,-0.04 -0.02,-0.05 -0.02,-0.04 -0.02,-0.04 -0.02,-0.04 -0.02,-0.04 -0.02,-0.04 -0.02,-0.04 -0.03,-0.03 -0.02,-0.04 -0.03,-0.04 -0.03,-0.03 -0.03,-0.03 -0.02,-0.03 -0.04,-0.03 -0.03,-0.03 -0.03,-0.03 -0.03,-0.02 -0.03,-0.02 -0.04,-0.02 -0.03,-0.02 -0.04,-0.02 -0.03,-0.02 -0.04,-0.01 -0.04,-0.01 -0.03,-0.01 -0.04,-0.01 -0.04,-0.01 -0.04,0 -0.03,0 c -0.09,0 -0.18,0.01 -0.25,0.04 0.18,0.08 0.23,0.25 0.23,0.35 0,0.17 -0.13,0.26 -0.27,0.26 -0.21,0 -0.4,-0.19 -0.4,-0.41 0,-0.26 0.28,-0.44 0.69,-0.44 0.42,0 1.24,0.25 1.45,1.1 l 0.63,2.49 c 0.02,0.08 0.03,0.14 0.03,0.24 0,0.39 -0.32,0.66 -0.74,0.66 -0.77,0 -1.22,-0.97 -1.22,-1.07 0,-0.09 0.1,-0.09 0.12,-0.09 0.08,0 0.09,0.02 0.14,0.13 0.17,0.4 0.53,0.83 0.94,0.83 0.17,0 0.23,-0.11 0.23,-0.34 0,-0.07 -0.01,-0.17 -0.02,-0.21 z"
         id="path68934" /><path
         style="fill:#000000;stroke-width:0"
         inkscape:connector-curvature="0"
         d="m 247.54,709.63 -0.01,0.27 -0.01,0.29 -0.02,0.29 -0.02,0.31 -0.04,0.31 -0.05,0.32 -0.06,0.32 -0.08,0.33 -0.05,0.17 -0.04,0.17 -0.06,0.17 -0.05,0.16 -0.06,0.17 -0.07,0.17 -0.07,0.17 -0.07,0.16 -0.08,0.17 -0.09,0.17 -0.09,0.16 -0.09,0.17 -0.11,0.16 -0.1,0.16 -0.12,0.16 -0.12,0.16 c -0.1,0.12 -0.74,0.87 -0.92,0.87 -0.05,0 -0.12,-0.02 -0.12,-0.1 0,-0.04 0.02,-0.07 0.06,-0.1 0.48,-0.51 1.12,-1.32 1.53,-2.9 0.23,-0.9 0.32,-1.92 0.32,-2.85 0,-1 -0.09,-2.02 -0.35,-2.99 -0.38,-1.39 -0.96,-2.18 -1.47,-2.74 -0.09,-0.09 -0.09,-0.11 -0.09,-0.13 0,-0.08 0.07,-0.1 0.12,-0.1 0.15,0 0.7,0.61 0.82,0.75 1.01,1.2 1.66,2.99 1.66,5.2 z"
         id="path68936" /><path
         style="fill:#000000;stroke-width:0"
         inkscape:connector-curvature="0"
         d="m 251.03,707.76 0,0 0,0 0,0 0,0 0,0 0,0 0,0 0.01,0.01 0,0 0,0 0,0.01 0,0 0,0 0,0.01 0,0 0,0.01 0.01,0 0,0.01 0,0.01 0,0.01 0,0 0,0 0,0.01 0,0 0.01,0.01 0,0 0,0 0,0.01 0,0 0,0 0,0 0,0 0,0 0,0 0,0.01 0,0 0,0 0,0 0,0 0,0 c 0,0.03 -0.03,0.1 -0.11,0.1 -0.14,0 -0.72,-0.06 -0.89,-0.07 -0.05,-0.01 -0.15,-0.02 -0.15,-0.16 0,-0.1 0.1,-0.1 0.18,-0.1 0.33,0 0.33,-0.05 0.33,-0.11 0,-0.04 -0.02,-0.09 -0.03,-0.15 l -0.86,-3.43 c -0.02,-0.07 -0.03,-0.15 -0.03,-0.22 0,-0.44 0.4,-0.66 0.73,-0.66 0.17,0 0.38,0.06 0.56,0.37 0.14,0.26 0.24,0.67 0.24,0.69 0,0.09 -0.09,0.09 -0.11,0.09 -0.1,0 -0.11,-0.04 -0.14,-0.16 -0.09,-0.35 -0.22,-0.79 -0.52,-0.79 -0.19,0 -0.24,0.17 -0.24,0.34 0,0.07 0.02,0.21 0.04,0.28 z"
         id="path68938" /><path
         style="fill:#000000;stroke-width:0"
         inkscape:connector-curvature="0"
         d="m 253.1,703.25 0,-0.07 0,-0.08 -0.01,-0.07 -0.01,-0.08 -0.01,-0.03 0,-0.04 -0.01,-0.04 -0.01,-0.04 -0.01,-0.04 -0.01,-0.04 -0.01,-0.04 -0.02,-0.04 -0.01,-0.04 -0.02,-0.04 -0.01,-0.04 -0.02,-0.04 -0.03,-0.04 -0.02,-0.05 -0.02,-0.04 -0.03,-0.04 -0.03,-0.04 -0.03,-0.04 -0.03,-0.04 -0.03,-0.04 -0.04,-0.05 -0.04,-0.04 -0.04,-0.04 -0.04,-0.04 c -0.03,-0.03 -0.05,-0.05 -0.05,-0.08 0,-0.05 0.05,-0.1 0.09,-0.1 0.1,0 0.69,0.55 0.69,1.38 0,0.43 -0.16,0.76 -0.48,0.76 -0.23,0 -0.4,-0.18 -0.4,-0.4 0,-0.22 0.16,-0.4 0.4,-0.4 0.17,0 0.28,0.11 0.29,0.11 z"
         id="path68940" /><path
         style="fill:#000000;stroke-width:0"
         inkscape:connector-curvature="0"
         d="m 255.63,704.54 0,0.01 0,0 0,0 0.01,0.01 0,0 0,0.01 0,0.01 0,0.01 0,0 0.01,0.01 0,0.01 0,0.01 0,0.01 0.01,0.01 0,0.03 0.01,0.02 0,0.03 0.01,0.03 0.01,0.03 0.01,0.03 0,0.03 0.02,0.06 0.02,0.06 0,0.03 0.01,0.03 0.01,0.03 0.01,0.03 0,0.02 0.01,0.03 0.01,0.02 0,0.01 0,0.01 0,0.01 0.01,0.01 0,0.01 0,0.01 0,0.01 0.01,0 0,0.01 0,0 0,0.01 0,0 0,0 0,0.01 c 0.02,0.05 0.22,0.4 0.44,0.57 0.08,0.05 0.27,0.19 0.57,0.19 0.07,0 0.24,0 0.38,-0.1 -0.22,-0.06 -0.31,-0.25 -0.31,-0.38 0,-0.15 0.12,-0.25 0.28,-0.25 0.16,0 0.39,0.13 0.39,0.42 0,0.36 -0.38,0.51 -0.74,0.51 -0.36,0 -0.67,-0.15 -0.98,-0.5 -0.12,0.43 -0.55,0.5 -0.72,0.5 -0.25,0 -0.43,-0.16 -0.54,-0.36 -0.16,-0.27 -0.26,-0.67 -0.26,-0.71 0,-0.09 0.1,-0.09 0.12,-0.09 0.1,0 0.11,0.02 0.16,0.21 0.1,0.42 0.23,0.75 0.5,0.75 0.18,0 0.23,-0.15 0.23,-0.34 0,-0.13 -0.06,-0.39 -0.11,-0.58 -0.05,-0.18 -0.12,-0.47 -0.15,-0.62 l -0.22,-0.89 c -0.03,-0.09 -0.07,-0.27 -0.07,-0.29 0,-0.15 0.12,-0.22 0.23,-0.22 0.11,0 0.25,0.06 0.3,0.2 0.02,0.04 0.09,0.35 0.13,0.52 z"
         id="path68942" /></g>    <path
       style="fill:none;stroke:#000000;stroke-width:1px;stroke-linecap:butt;stroke-linejoin:miter;stroke-opacity:1"
       d="m 235.03092,589.28027 0,28.52691"
       id="path68968"
       inkscape:connector-curvature="0" />
    <path
       inkscape:connector-curvature="0"
       id="path68970"
       d="m 251.03092,589.28027 0,28.52691"
       style="fill:none;stroke:#000000;stroke-width:1px;stroke-linecap:butt;stroke-linejoin:miter;stroke-opacity:1" />
    <path
       inkscape:connector-curvature="0"
       id="path68972"
       d="m 267.03092,589.28027 0,28.52691"
       style="fill:none;stroke:#000000;stroke-width:1px;stroke-linecap:butt;stroke-linejoin:miter;stroke-opacity:1" />
    <rect
       style="fill:#ffeeaa;fill-opacity:1;stroke:#000000;stroke-width:0.5;stroke-linecap:round;stroke-linejoin:miter;stroke-miterlimit:4;stroke-opacity:1;stroke-dasharray:none;stroke-dashoffset:0"
       id="rect68976"
       width="98.307838"
       height="26.374731"
       x="227.00789"
       y="575.4436"
       rx="2.9999998"
       ry="3.0000007" />
    <g
       style="font-style:normal;font-variant:normal;font-weight:normal;font-stretch:normal;letter-spacing:normal;word-spacing:normal;text-anchor:start;fill:none;stroke:#000000;stroke-linecap:butt;stroke-linejoin:miter;stroke-miterlimit:10.43299961;stroke-opacity:1;stroke-dasharray:none;stroke-dashoffset:0"
       ns0:preamble="/home/milan/phd/Dokumente/tex/graphics/svg_mathbbm.tex"
       ns0:text="$=$"
       word-spacing="normal"
       letter-spacing="normal"
       font-size-adjust="none"
       font-stretch="normal"
       font-weight="normal"
       font-variant="normal"
       font-style="normal"
       stroke-miterlimit="10.433"
       xml:space="preserve"
       transform="matrix(1.25,0,0,-1.25,91.272793,1475.4793)"
       id="g68978"><path
         id="path68980"
         d="m 230.27,710.37 0.03,0 0.02,0 0.03,0 0.02,0.01 0.01,0 0.02,0 0.01,0 0.02,0 0.01,0 0.01,0.01 0.02,0 0.01,0 0.01,0.01 0.01,0 0.02,0.01 0.01,0 0.01,0.01 0.01,0.01 0.01,0.01 0.01,0.01 0,0.01 0.01,0 0,0.01 0,0 0.01,0.01 0,0.01 0,0 0,0.01 0.01,0.01 0,0 0,0.01 0,0.01 0,0.01 0,0.01 0,0 0,0.01 0,0.01 c 0,0.2 -0.18,0.2 -0.32,0.2 h -5.96 c -0.14,0 -0.33,0 -0.33,-0.2 0,-0.2 0.19,-0.2 0.34,-0.2 z"
         inkscape:connector-curvature="0"
         style="fill:#000000;stroke-width:0" /><path
         id="path68982"
         d="m 230.28,708.45 0.01,0 0.01,0 0.03,0 0.03,0 0.01,0 0.02,0 0.01,0 0.01,0 0.02,0 0.01,0.01 0.02,0 0.01,0 0.01,0.01 0.01,0 0.02,0.01 0.01,0 0.01,0.01 0.01,0 0.01,0.01 0.01,0.01 0.01,0.01 0,0 0,0.01 0.01,0.01 0,0 0,0.01 0.01,0 0,0.01 0,0.01 0,0 0.01,0.01 0,0.01 0,0 0,0.01 0,0.01 0,0.01 0,0.01 0,0.01 0,0.01 c 0,0.19 -0.18,0.19 -0.33,0.19 h -5.94 c -0.15,0 -0.34,0 -0.34,-0.19 0,-0.2 0.19,-0.2 0.33,-0.2 z"
         inkscape:connector-curvature="0"
         style="fill:#000000;stroke-width:0" /></g>    <g
       style="font-style:normal;font-variant:normal;font-weight:normal;font-stretch:normal;letter-spacing:normal;word-spacing:normal;text-anchor:start;fill:none;stroke:#000000;stroke-linecap:butt;stroke-linejoin:miter;stroke-miterlimit:10.43299961;stroke-opacity:1;stroke-dasharray:none;stroke-dashoffset:0"
       ns0:preamble="/home/milan/phd/Dokumente/tex/graphics/svg_mathbbm.tex"
       ns0:text="$\\rho_{i_1i_2i_3,j_1j_2j_3}$"
       word-spacing="normal"
       letter-spacing="normal"
       font-size-adjust="none"
       font-stretch="normal"
       font-weight="normal"
       font-variant="normal"
       font-style="normal"
       stroke-miterlimit="10.433"
       xml:space="preserve"
       transform="matrix(1.25,0,0,-1.25,-33.166308,1475.0317)"
       id="g69016"><path
         style="fill:#000000;stroke-width:0"
         inkscape:connector-curvature="0"
         id="path70278"
         d="m 223.76,705.41 0,-0.01 0,0 0,-0.01 -0.01,-0.01 0,0 0,0 0,-0.01 0,0 0,-0.01 0,0 0,-0.01 0,0 0,-0.01 -0.01,0 0,-0.01 0,0 0,-0.01 0,-0.01 0,0 0,-0.01 0,0 -0.01,-0.01 0,0 0,0 0,-0.01 0,0 0,-0.01 0,0 0,0 0,0 0,-0.01 0,0 0,0 0,-0.01 0,0 0,0 c 0,-0.15 0.11,-0.27 0.28,-0.27 0.21,0 0.33,0.18 0.35,0.21 0.05,0.09 0.37,1.42 0.63,2.49 0.2,-0.4 0.52,-0.66 0.99,-0.66 l -0.01,0.21 c -0.7,0 -0.86,0.8 -0.86,0.89 0,0.04 0.05,0.24 0.08,0.37 0.28,1.11 0.38,1.47 0.6,1.86 0.43,0.73 0.92,0.95 1.23,0.95 0.37,0 0.69,-0.29 0.69,-0.98 0,-0.54 -0.29,-1.66 -0.56,-2.14 -0.33,-0.63 -0.8,-0.95 -1.18,-0.95 h 0 l 0.01,-0.21 c 1.16,0 2.45,1.4 2.45,2.88 0,1.05 -0.66,1.62 -1.39,1.62 -0.96,0 -2.01,-1 -2.3,-2.21 z" /><path
         style="fill:#000000;stroke-width:0"
         inkscape:connector-curvature="0"
         id="path70280"
         d="m 230.84,709.98 0,0.01 0,0.01 0,0.01 0,0.01 -0.01,0.01 0,0.01 0,0.01 -0.01,0.02 0,0.01 -0.01,0.01 0,0.01 -0.01,0.01 0,0.01 -0.01,0.01 -0.01,0.01 -0.01,0.01 -0.01,0.01 0,0.01 -0.01,0.01 -0.02,0.01 -0.01,0 -0.01,0.01 -0.01,0.01 -0.01,0.01 -0.02,0 -0.01,0.01 -0.02,0 -0.01,0 -0.02,0.01 -0.01,0 -0.02,0 -0.02,0 c -0.19,0 -0.39,-0.18 -0.39,-0.38 0,-0.12 0.09,-0.27 0.28,-0.27 0.2,0 0.39,0.2 0.39,0.39 z" /><path
         style="fill:#000000;stroke-width:0"
         inkscape:connector-curvature="0"
         id="path70282"
         d="m 229.42,706.45 -0.01,-0.02 0,-0.02 -0.01,-0.03 -0.01,-0.02 0,-0.02 -0.01,-0.01 0,-0.02 -0.01,-0.02 0,-0.02 -0.01,-0.02 0,-0.01 0,-0.01 0,-0.01 0,-0.01 0,-0.01 0,-0.02 0,-0.01 0,-0.01 0,-0.01 c 0,-0.32 0.27,-0.59 0.66,-0.59 0.69,0 1,0.96 1,1.06 0,0.1 -0.09,0.1 -0.11,0.1 -0.1,0 -0.11,-0.05 -0.13,-0.12 -0.16,-0.56 -0.47,-0.84 -0.74,-0.84 -0.14,0 -0.18,0.09 -0.18,0.24 0,0.16 0.05,0.29 0.12,0.45 0.07,0.18 0.14,0.37 0.22,0.55 0.06,0.17 0.31,0.8 0.34,0.88 0.02,0.07 0.04,0.16 0.04,0.23 0,0.32 -0.28,0.59 -0.66,0.59 -0.69,0 -1.01,-0.95 -1.01,-1.07 0,-0.09 0.1,-0.09 0.12,-0.09 0.1,0 0.1,0.04 0.12,0.11 0.19,0.6 0.49,0.85 0.75,0.85 0.11,0 0.17,-0.05 0.17,-0.24 0,-0.16 -0.04,-0.27 -0.21,-0.7 z" /><path
         style="fill:#000000;stroke-width:0"
         inkscape:connector-curvature="0"
         id="path70284"
         d="m 233.38,707.79 0,0.01 0,0.01 0,0 0,0.01 0,0.01 0,0 0,0.01 0,0 0,0.01 0,0 0,0.01 0,0 0,0.01 0,0 0,0.01 0,0 0,0 0,0.01 -0.01,0 0,0 0,0.01 0,0.01 0,0 -0.01,0.01 0,0 -0.01,0 0,0.01 -0.01,0 0,0 -0.01,0 -0.01,0.01 0,0 -0.01,0 -0.01,0 0,0 0,0 -0.01,0 0,0 -0.01,0 0,0 -0.01,0 -0.01,0 0,0 -0.01,0 0,0 -0.01,0 -0.01,0 0,0 -0.01,0 -0.01,0 -0.01,0 c -0.35,-0.32 -0.9,-0.32 -1,-0.32 h -0.09 v -0.21 h 0.09 c 0.11,0 0.44,0.01 0.72,0.13 v -2.48 c 0,-0.15 0,-0.21 -0.52,-0.21 h -0.25 v -0.22 c 0.27,0.02 0.72,0.02 1,0.02 0.29,0 0.73,0 1.01,-0.02 v 0.22 h -0.25 c -0.53,0 -0.53,0.06 -0.53,0.21 z" /><path
         style="fill:#000000;stroke-width:0"
         inkscape:connector-curvature="0"
         id="path70286"
         d="m 237.55,709.98 0,0.01 0,0.01 -0.01,0.01 0,0.01 0,0.01 0,0.01 -0.01,0.01 0,0.02 0,0.01 -0.01,0.01 0,0.01 -0.01,0.01 -0.01,0.01 0,0.01 -0.01,0.01 -0.01,0.01 -0.01,0.01 -0.01,0.01 -0.01,0.01 -0.01,0.01 -0.01,0 -0.01,0.01 -0.01,0.01 -0.02,0.01 -0.01,0 -0.01,0.01 -0.02,0 -0.01,0 -0.02,0.01 -0.02,0 -0.01,0 -0.02,0 c -0.19,0 -0.39,-0.18 -0.39,-0.38 0,-0.12 0.09,-0.27 0.28,-0.27 0.2,0 0.39,0.2 0.39,0.39 z" /><path
         style="fill:#000000;stroke-width:0"
         inkscape:connector-curvature="0"
         id="path70288"
         d="m 236.13,706.45 -0.01,-0.02 0,-0.02 -0.02,-0.03 0,-0.02 -0.01,-0.02 0,-0.01 -0.01,-0.02 0,-0.02 0,-0.02 -0.01,-0.02 0,-0.01 0,-0.01 0,-0.01 0,-0.01 -0.01,-0.01 0,-0.02 0,-0.01 0,-0.01 0,-0.01 c 0,-0.32 0.28,-0.59 0.67,-0.59 0.69,0 1,0.96 1,1.06 0,0.1 -0.09,0.1 -0.11,0.1 -0.1,0 -0.11,-0.05 -0.14,-0.12 -0.16,-0.56 -0.46,-0.84 -0.73,-0.84 -0.14,0 -0.18,0.09 -0.18,0.24 0,0.16 0.05,0.29 0.11,0.45 0.07,0.18 0.15,0.37 0.23,0.55 0.06,0.17 0.31,0.8 0.34,0.88 0.02,0.07 0.04,0.16 0.04,0.23 0,0.32 -0.28,0.59 -0.66,0.59 -0.69,0 -1.01,-0.95 -1.01,-1.07 0,-0.09 0.09,-0.09 0.12,-0.09 0.09,0 0.1,0.04 0.12,0.11 0.18,0.6 0.49,0.85 0.75,0.85 0.11,0 0.17,-0.05 0.17,-0.24 0,-0.16 -0.04,-0.27 -0.21,-0.7 z" /><path
         style="fill:#000000;stroke-width:0"
         inkscape:connector-curvature="0"
         id="path70290"
         d="m 241.04,705.59 h -0.21 c -0.01,-0.09 -0.07,-0.4 -0.14,-0.45 -0.04,-0.03 -0.46,-0.03 -0.54,-0.03 h -0.97 c 0.33,0.24 0.7,0.52 0.99,0.72 0.45,0.31 0.87,0.6 0.87,1.12 0,0.64 -0.6,0.99 -1.31,0.99 -0.68,0 -1.17,-0.39 -1.17,-0.87 0,-0.26 0.22,-0.3 0.29,-0.3 0.14,0 0.29,0.08 0.29,0.29 0,0.18 -0.13,0.28 -0.28,0.29 0.14,0.22 0.43,0.37 0.76,0.37 0.48,0 0.89,-0.29 0.89,-0.77 0,-0.42 -0.29,-0.74 -0.67,-1.06 l -1.22,-1.03 c -0.05,-0.04 -0.05,-0.04 -0.06,-0.08 v -0.15 h 2.32 z" /><path
         style="fill:#000000;stroke-width:0"
         inkscape:connector-curvature="0"
         id="path70292"
         d="m 244.25,709.98 0,0.01 0,0.01 0,0.01 0,0.01 0,0.01 -0.01,0.01 0,0.01 0,0.02 -0.01,0.01 0,0.01 -0.01,0.01 0,0.01 -0.01,0.01 -0.01,0.01 0,0.01 -0.01,0.01 -0.01,0.01 -0.01,0.01 -0.01,0.01 -0.01,0.01 -0.01,0 -0.01,0.01 -0.02,0.01 -0.01,0.01 -0.01,0 -0.02,0.01 -0.01,0 -0.02,0 -0.01,0.01 -0.02,0 -0.02,0 -0.01,0 c -0.19,0 -0.39,-0.18 -0.39,-0.38 0,-0.12 0.09,-0.27 0.27,-0.27 0.21,0 0.39,0.2 0.39,0.39 z" /><path
         style="fill:#000000;stroke-width:0"
         inkscape:connector-curvature="0"
         id="path70294"
         d="m 242.83,706.45 0,-0.02 -0.01,-0.02 -0.01,-0.03 0,-0.02 -0.01,-0.02 0,-0.01 -0.01,-0.02 0,-0.02 -0.01,-0.02 0,-0.02 0,-0.01 -0.01,-0.01 0,-0.01 0,-0.01 0,-0.01 0,-0.02 0,-0.01 0,-0.01 0,-0.01 c 0,-0.32 0.28,-0.59 0.66,-0.59 0.7,0 1,0.96 1,1.06 0,0.1 -0.09,0.1 -0.11,0.1 -0.09,0 -0.1,-0.05 -0.13,-0.12 -0.16,-0.56 -0.47,-0.84 -0.74,-0.84 -0.14,0 -0.17,0.09 -0.17,0.24 0,0.16 0.05,0.29 0.11,0.45 0.07,0.18 0.15,0.37 0.22,0.55 0.07,0.17 0.32,0.8 0.34,0.88 0.03,0.07 0.05,0.16 0.05,0.23 0,0.32 -0.28,0.59 -0.67,0.59 -0.68,0 -1.01,-0.95 -1.01,-1.07 0,-0.09 0.1,-0.09 0.12,-0.09 0.1,0 0.11,0.04 0.13,0.11 0.18,0.6 0.49,0.85 0.74,0.85 0.12,0 0.18,-0.05 0.18,-0.24 0,-0.16 -0.04,-0.27 -0.22,-0.7 z" /><path
         style="fill:#000000;stroke-width:0"
         inkscape:connector-curvature="0"
         id="path70296"
         d="m 246.46,706.28 0.04,0 0.04,-0.01 0.04,0 0.04,-0.01 0.04,0 0.04,-0.01 0.03,-0.01 0.04,-0.01 0.03,-0.02 0.04,-0.01 0.03,-0.02 0.03,-0.02 0.03,-0.02 0.03,-0.02 0.02,-0.02 0.03,-0.02 0.02,-0.03 0.03,-0.03 0.02,-0.03 0.02,-0.03 0.02,-0.03 0.01,-0.03 0.02,-0.03 0.01,-0.04 0.02,-0.03 0.01,-0.04 0.01,-0.04 0.01,-0.04 0,-0.04 0.01,-0.05 0,-0.04 0,-0.05 c 0,-0.5 -0.32,-0.77 -0.76,-0.77 -0.05,0 -0.64,0 -0.9,0.26 0.21,0.03 0.27,0.18 0.27,0.3 0,0.18 -0.14,0.3 -0.31,0.3 -0.16,0 -0.31,-0.1 -0.31,-0.31 0,-0.52 0.59,-0.75 1.27,-0.75 0.81,0 1.32,0.49 1.32,0.97 0,0.41 -0.36,0.75 -0.93,0.88 0.6,0.2 0.76,0.57 0.76,0.85 0,0.41 -0.51,0.71 -1.14,0.71 -0.61,0 -1.1,-0.26 -1.1,-0.7 0,-0.24 0.19,-0.3 0.28,-0.3 0.15,0 0.29,0.11 0.29,0.29 0,0.11 -0.06,0.25 -0.24,0.28 0.21,0.23 0.65,0.24 0.76,0.24 0.36,0 0.62,-0.18 0.62,-0.52 0,-0.29 -0.19,-0.74 -0.71,-0.77 -0.14,0 -0.16,-0.01 -0.29,-0.01 -0.06,-0.01 -0.11,-0.01 -0.11,-0.09 0,-0.08 0.05,-0.08 0.14,-0.08 z" /><path
         style="fill:#000000;stroke-width:0"
         inkscape:connector-curvature="0"
         id="path70298"
         d="m 250.17,705.74 0,-0.07 0,-0.07 -0.01,-0.08 0,-0.08 -0.01,-0.03 -0.01,-0.04 0,-0.04 -0.01,-0.04 -0.01,-0.04 -0.01,-0.04 -0.02,-0.04 -0.01,-0.04 -0.02,-0.04 -0.01,-0.04 -0.02,-0.04 -0.02,-0.04 -0.02,-0.04 -0.02,-0.04 -0.03,-0.05 -0.03,-0.04 -0.02,-0.04 -0.03,-0.04 -0.04,-0.04 -0.03,-0.04 -0.04,-0.04 -0.04,-0.05 -0.04,-0.04 -0.04,-0.04 c -0.03,-0.03 -0.05,-0.05 -0.05,-0.08 0,-0.05 0.06,-0.1 0.1,-0.1 0.1,0 0.69,0.55 0.69,1.38 0,0.43 -0.17,0.76 -0.49,0.76 -0.23,0 -0.4,-0.18 -0.4,-0.4 0,-0.22 0.16,-0.4 0.41,-0.4 0.16,0 0.28,0.11 0.28,0.11 z" /><path
         style="fill:#000000;stroke-width:0"
         inkscape:connector-curvature="0"
         id="path70300"
         d="m 254.13,709.98 0,0.01 0,0.01 0,0.01 -0.01,0.01 0,0.01 0,0.02 -0.01,0.01 0,0.01 0,0.01 -0.01,0.01 0,0.01 -0.01,0.01 -0.01,0.01 0,0.01 -0.01,0.01 -0.01,0.01 -0.01,0.01 -0.01,0.01 -0.01,0.01 -0.01,0.01 -0.01,0.01 -0.01,0 -0.02,0.01 -0.01,0.01 -0.01,0 -0.02,0.01 -0.01,0 -0.02,0 -0.01,0.01 -0.02,0 -0.01,0 -0.02,0 c -0.2,0 -0.39,-0.19 -0.39,-0.38 0,-0.11 0.08,-0.27 0.28,-0.27 0.19,0 0.39,0.19 0.39,0.39 z" /><path
         style="fill:#000000;stroke-width:0"
         inkscape:connector-curvature="0"
         id="path70302"
         d="m 252.65,705.29 -0.01,-0.04 -0.01,-0.05 -0.02,-0.04 -0.01,-0.05 -0.02,-0.04 -0.02,-0.04 -0.02,-0.04 -0.02,-0.04 -0.02,-0.04 -0.03,-0.04 -0.02,-0.03 -0.03,-0.04 -0.02,-0.04 -0.03,-0.03 -0.03,-0.03 -0.03,-0.03 -0.03,-0.03 -0.03,-0.03 -0.03,-0.03 -0.03,-0.02 -0.04,-0.02 -0.03,-0.02 -0.03,-0.02 -0.04,-0.02 -0.04,-0.02 -0.03,-0.01 -0.04,-0.01 -0.04,-0.01 -0.03,-0.01 -0.04,-0.01 -0.04,0 -0.04,0 c -0.09,0 -0.17,0.01 -0.25,0.04 0.18,0.08 0.24,0.25 0.24,0.35 0,0.17 -0.13,0.26 -0.27,0.26 -0.22,0 -0.4,-0.19 -0.4,-0.41 0,-0.26 0.27,-0.44 0.69,-0.44 0.42,0 1.23,0.25 1.45,1.1 l 0.63,2.49 c 0.02,0.08 0.03,0.14 0.03,0.24 0,0.39 -0.33,0.66 -0.75,0.66 -0.77,0 -1.21,-0.97 -1.21,-1.07 0,-0.09 0.09,-0.09 0.11,-0.09 0.09,0 0.1,0.02 0.14,0.13 0.18,0.4 0.54,0.83 0.94,0.83 0.18,0 0.24,-0.11 0.24,-0.34 0,-0.07 -0.01,-0.17 -0.02,-0.21 z" /><path
         style="fill:#000000;stroke-width:0"
         inkscape:connector-curvature="0"
         id="path70304"
         d="m 256.35,707.79 0,0.01 0,0.01 0,0 0,0.01 0,0.01 0,0 0,0.01 0,0 0,0.01 0,0 -0.01,0.01 0,0 0,0.01 0,0 0,0.01 0,0 0,0 0,0.01 0,0 0,0 0,0.01 -0.01,0.01 0,0 0,0.01 -0.01,0 0,0 -0.01,0.01 0,0 -0.01,0 0,0 -0.01,0.01 -0.01,0 -0.01,0 0,0 0,0 -0.01,0 0,0 -0.01,0 0,0 -0.01,0 -0.01,0 0,0 -0.01,0 0,0 -0.01,0 -0.01,0 0,0 -0.01,0 -0.01,0 0,0 -0.01,0 c -0.35,-0.32 -0.91,-0.32 -1.01,-0.32 h -0.08 v -0.21 h 0.08 c 0.12,0 0.44,0.01 0.73,0.13 v -2.48 c 0,-0.15 0,-0.21 -0.53,-0.21 h -0.25 v -0.22 c 0.28,0.02 0.72,0.02 1.01,0.02 0.29,0 0.73,0 1,-0.02 v 0.22 h -0.25 c -0.52,0 -0.52,0.06 -0.52,0.21 z" /><path
         style="fill:#000000;stroke-width:0"
         inkscape:connector-curvature="0"
         id="path70306"
         d="m 261.31,709.98 0,0.01 0,0.01 0,0.01 0,0.01 0,0.01 -0.01,0.02 0,0.01 0,0.01 -0.01,0.01 0,0.01 -0.01,0.01 -0.01,0.01 0,0.01 -0.01,0.01 -0.01,0.01 -0.01,0.01 -0.01,0.01 0,0.01 -0.01,0.01 -0.02,0.01 -0.01,0.01 -0.01,0 -0.01,0.01 -0.01,0.01 -0.02,0 -0.01,0.01 -0.02,0 -0.01,0 -0.02,0.01 -0.01,0 -0.02,0 -0.02,0 c -0.2,0 -0.39,-0.19 -0.39,-0.38 0,-0.11 0.09,-0.27 0.28,-0.27 0.19,0 0.39,0.19 0.39,0.39 z" /><path
         style="fill:#000000;stroke-width:0"
         inkscape:connector-curvature="0"
         id="path70308"
         d="m 259.84,705.29 -0.02,-0.04 -0.01,-0.05 -0.01,-0.04 -0.02,-0.05 -0.02,-0.04 -0.02,-0.04 -0.02,-0.04 -0.02,-0.04 -0.02,-0.04 -0.02,-0.04 -0.03,-0.03 -0.02,-0.04 -0.03,-0.04 -0.03,-0.03 -0.02,-0.03 -0.03,-0.03 -0.03,-0.03 -0.03,-0.03 -0.04,-0.03 -0.03,-0.02 -0.03,-0.02 -0.04,-0.02 -0.03,-0.02 -0.04,-0.02 -0.03,-0.02 -0.04,-0.01 -0.03,-0.01 -0.04,-0.01 -0.04,-0.01 -0.04,-0.01 -0.03,0 -0.04,0 c -0.09,0 -0.18,0.01 -0.25,0.04 0.18,0.08 0.23,0.25 0.23,0.35 0,0.17 -0.13,0.26 -0.27,0.26 -0.21,0 -0.39,-0.19 -0.39,-0.41 0,-0.26 0.27,-0.44 0.69,-0.44 0.41,0 1.23,0.25 1.44,1.1 l 0.63,2.49 c 0.02,0.08 0.03,0.14 0.03,0.24 0,0.39 -0.32,0.66 -0.74,0.66 -0.77,0 -1.22,-0.97 -1.22,-1.07 0,-0.09 0.1,-0.09 0.12,-0.09 0.08,0 0.09,0.02 0.14,0.13 0.17,0.4 0.54,0.83 0.94,0.83 0.17,0 0.23,-0.11 0.23,-0.34 0,-0.07 -0.01,-0.17 -0.01,-0.21 z" /><path
         style="fill:#000000;stroke-width:0"
         inkscape:connector-curvature="0"
         id="path70310"
         d="m 264.48,705.59 h -0.21 c -0.01,-0.09 -0.06,-0.4 -0.14,-0.45 -0.04,-0.03 -0.46,-0.03 -0.53,-0.03 h -0.98 c 0.33,0.24 0.7,0.52 1,0.72 0.44,0.31 0.86,0.6 0.86,1.12 0,0.64 -0.6,0.99 -1.31,0.99 -0.67,0 -1.16,-0.39 -1.16,-0.87 0,-0.26 0.21,-0.3 0.28,-0.3 0.14,0 0.3,0.08 0.3,0.29 0,0.18 -0.13,0.28 -0.29,0.29 0.14,0.22 0.43,0.37 0.76,0.37 0.49,0 0.89,-0.29 0.89,-0.77 0,-0.42 -0.29,-0.74 -0.67,-1.06 l -1.22,-1.03 c -0.04,-0.04 -0.05,-0.04 -0.05,-0.08 v -0.15 h 2.31 z" /><path
         style="fill:#000000;stroke-width:0"
         inkscape:connector-curvature="0"
         id="path70312"
         d="m 268.5,709.98 0,0.01 0,0.01 -0.01,0.01 0,0.01 0,0.01 0,0.02 -0.01,0.01 0,0.01 0,0.01 -0.01,0.01 -0.01,0.01 0,0.01 -0.01,0.01 -0.01,0.01 0,0.01 -0.01,0.01 -0.01,0.01 -0.01,0.01 -0.01,0.01 -0.01,0.01 -0.01,0.01 -0.01,0 -0.02,0.01 -0.01,0.01 -0.01,0 -0.02,0.01 -0.01,0 -0.02,0 -0.01,0.01 -0.02,0 -0.01,0 -0.02,0 c -0.2,0 -0.39,-0.19 -0.39,-0.38 0,-0.11 0.08,-0.27 0.28,-0.27 0.19,0 0.39,0.19 0.39,0.39 z" /><path
         style="fill:#000000;stroke-width:0"
         inkscape:connector-curvature="0"
         id="path70314"
         d="m 267.02,705.29 -0.01,-0.04 -0.01,-0.05 -0.02,-0.04 -0.01,-0.05 -0.02,-0.04 -0.02,-0.04 -0.02,-0.04 -0.02,-0.04 -0.02,-0.04 -0.03,-0.04 -0.02,-0.03 -0.03,-0.04 -0.02,-0.04 -0.03,-0.03 -0.03,-0.03 -0.03,-0.03 -0.03,-0.03 -0.03,-0.03 -0.03,-0.03 -0.03,-0.02 -0.04,-0.02 -0.03,-0.02 -0.04,-0.02 -0.03,-0.02 -0.04,-0.02 -0.03,-0.01 -0.04,-0.01 -0.04,-0.01 -0.03,-0.01 -0.04,-0.01 -0.04,0 -0.04,0 c -0.09,0 -0.17,0.01 -0.25,0.04 0.18,0.08 0.24,0.25 0.24,0.35 0,0.17 -0.13,0.26 -0.27,0.26 -0.22,0 -0.4,-0.19 -0.4,-0.41 0,-0.26 0.27,-0.44 0.69,-0.44 0.42,0 1.23,0.25 1.45,1.1 l 0.62,2.49 c 0.03,0.08 0.04,0.14 0.04,0.24 0,0.39 -0.33,0.66 -0.75,0.66 -0.77,0 -1.21,-0.97 -1.21,-1.07 0,-0.09 0.09,-0.09 0.11,-0.09 0.09,0 0.09,0.02 0.14,0.13 0.18,0.4 0.54,0.83 0.94,0.83 0.18,0 0.24,-0.11 0.24,-0.34 0,-0.07 -0.01,-0.17 -0.02,-0.21 z" /><path
         style="fill:#000000;stroke-width:0"
         inkscape:connector-curvature="0"
         id="path70316"
         d="m 270.38,706.28 0.04,0 0.04,-0.01 0.04,0 0.04,-0.01 0.04,0 0.04,-0.01 0.04,-0.01 0.03,-0.01 0.03,-0.02 0.04,-0.01 0.03,-0.02 0.03,-0.02 0.03,-0.02 0.03,-0.02 0.03,-0.02 0.02,-0.02 0.03,-0.03 0.02,-0.03 0.02,-0.03 0.02,-0.03 0.02,-0.03 0.02,-0.03 0.01,-0.03 0.02,-0.04 0.01,-0.03 0.01,-0.04 0.01,-0.04 0.01,-0.04 0,-0.04 0.01,-0.05 0,-0.04 0,-0.05 c 0,-0.5 -0.31,-0.77 -0.76,-0.77 -0.05,0 -0.64,0 -0.9,0.26 0.21,0.03 0.27,0.18 0.27,0.3 0,0.18 -0.14,0.3 -0.31,0.3 -0.16,0 -0.3,-0.1 -0.3,-0.31 0,-0.52 0.58,-0.75 1.26,-0.75 0.81,0 1.32,0.49 1.32,0.97 0,0.41 -0.36,0.75 -0.93,0.88 0.6,0.2 0.76,0.57 0.76,0.85 0,0.41 -0.51,0.71 -1.14,0.71 -0.61,0 -1.1,-0.26 -1.1,-0.7 0,-0.24 0.19,-0.3 0.28,-0.3 0.15,0 0.29,0.11 0.29,0.29 0,0.11 -0.06,0.25 -0.24,0.28 0.21,0.23 0.65,0.24 0.76,0.24 0.36,0 0.62,-0.18 0.62,-0.52 0,-0.29 -0.19,-0.74 -0.71,-0.77 -0.14,0 -0.16,-0.01 -0.29,-0.01 -0.05,-0.01 -0.11,-0.01 -0.11,-0.09 0,-0.08 0.05,-0.08 0.14,-0.08 z" /></g>    <g
       style="font-style:normal;font-variant:normal;font-weight:normal;font-stretch:normal;letter-spacing:normal;word-spacing:normal;text-anchor:start;fill:none;stroke:#000000;stroke-linecap:butt;stroke-linejoin:miter;stroke-miterlimit:10.43299961;stroke-opacity:1;stroke-dasharray:none;stroke-dashoffset:0"
       ns0:preamble="/home/milan/phd/Dokumente/tex/graphics/svg_mathbbm.tex"
       ns0:text="$j_3$"
       word-spacing="normal"
       letter-spacing="normal"
       font-size-adjust="none"
       font-stretch="normal"
       font-weight="normal"
       font-variant="normal"
       font-style="normal"
       stroke-miterlimit="10.433"
       xml:space="preserve"
       transform="matrix(1.25,0,0,-1.25,37.532162,1498.5479)"
       id="g87616"><path
         id="path87618"
         d="m 227.38,713.33 0,0.02 0,0.02 0,0.02 0,0.01 -0.01,0.02 0,0.02 -0.01,0.01 0,0.02 -0.01,0.01 -0.01,0.02 -0.01,0.02 0,0.01 -0.01,0.01 -0.01,0.02 -0.02,0.01 -0.01,0.01 -0.01,0.02 -0.01,0.01 -0.02,0.01 -0.01,0.01 -0.02,0.01 -0.01,0.01 -0.02,0 -0.02,0.01 -0.01,0.01 -0.02,0 -0.02,0.01 -0.02,0 -0.02,0.01 -0.02,0 -0.02,0 -0.03,0 c -0.23,0 -0.52,-0.23 -0.52,-0.53 0,-0.19 0.14,-0.35 0.37,-0.35 0.26,0 0.53,0.26 0.53,0.52 z"
         inkscape:connector-curvature="0"
         style="fill:#000000;stroke-width:0" /><path
         id="path87620"
         d="m 225.38,706.63 -0.02,-0.07 -0.02,-0.07 -0.02,-0.07 -0.02,-0.07 -0.03,-0.06 -0.02,-0.06 -0.03,-0.07 -0.03,-0.06 -0.03,-0.06 -0.03,-0.05 -0.04,-0.06 -0.03,-0.05 -0.04,-0.05 -0.03,-0.05 -0.04,-0.05 -0.04,-0.05 -0.04,-0.04 -0.04,-0.04 -0.05,-0.04 -0.04,-0.03 -0.04,-0.04 -0.05,-0.03 -0.05,-0.03 -0.04,-0.02 -0.05,-0.03 -0.05,-0.02 -0.05,-0.01 -0.05,-0.02 -0.05,-0.01 -0.05,-0.01 -0.05,0 -0.05,0 c -0.06,0 -0.21,0 -0.39,0.09 0.3,0.07 0.45,0.32 0.45,0.52 0,0.16 -0.11,0.35 -0.38,0.35 -0.25,0 -0.54,-0.21 -0.54,-0.57 0,-0.39 0.4,-0.61 0.88,-0.61 0.7,0 1.62,0.52 1.87,1.51 l 0.91,3.63 c 0.05,0.2 0.05,0.34 0.05,0.37 0,0.57 -0.41,0.92 -0.91,0.92 -1.02,0 -1.58,-1.44 -1.58,-1.53 0,-0.1 0.1,-0.1 0.12,-0.1 0.09,0 0.1,0.01 0.18,0.2 0.24,0.6 0.7,1.21 1.25,1.21 0.14,0 0.32,-0.04 0.32,-0.46 0,-0.23 -0.03,-0.34 -0.07,-0.51 z"
         inkscape:connector-curvature="0"
         style="fill:#000000;stroke-width:0" /><path
         id="path87622"
         d="m 229.44,707.95 0.05,0 0.05,0 0.04,-0.01 0.05,0 0.05,-0.01 0.04,-0.02 0.05,-0.01 0.04,-0.02 0.04,-0.02 0.04,-0.02 0.04,-0.02 0.04,-0.02 0.04,-0.03 0.03,-0.03 0.04,-0.03 0.03,-0.04 0.03,-0.03 0.03,-0.04 0.02,-0.04 0.03,-0.04 0.02,-0.05 0.02,-0.05 0.02,-0.05 0.02,-0.05 0.02,-0.05 0.01,-0.06 0.01,-0.05 0.01,-0.06 0.01,-0.07 0.01,-0.06 0,-0.07 0,-0.07 c 0,-0.86 -0.5,-1.12 -0.91,-1.12 -0.27,0 -0.89,0.08 -1.18,0.49 0.33,0.02 0.4,0.25 0.4,0.39 0,0.22 -0.16,0.38 -0.38,0.38 -0.19,0 -0.39,-0.12 -0.39,-0.4 0,-0.65 0.72,-1.08 1.57,-1.08 0.97,0 1.64,0.65 1.64,1.34 0,0.55 -0.45,1.09 -1.22,1.25 0.73,0.26 1,0.78 1,1.21 0,0.55 -0.64,0.96 -1.41,0.96 -0.77,0 -1.36,-0.38 -1.36,-0.93 0,-0.24 0.15,-0.37 0.36,-0.37 0.22,0 0.35,0.16 0.35,0.35 0,0.2 -0.13,0.35 -0.35,0.36 0.24,0.31 0.72,0.39 0.98,0.39 0.32,0 0.75,-0.16 0.75,-0.76 0,-0.29 -0.09,-0.61 -0.27,-0.83 -0.24,-0.26 -0.43,-0.28 -0.78,-0.3 -0.17,-0.01 -0.19,-0.01 -0.22,-0.02 -0.02,0 -0.07,-0.01 -0.07,-0.09 0,-0.1 0.06,-0.1 0.18,-0.1 z"
         inkscape:connector-curvature="0"
         style="fill:#000000;stroke-width:0" /></g>    <g
       id="g87624"
       transform="matrix(1.25,0,0,-1.25,-42.467838,1498.5479)"
       xml:space="preserve"
       stroke-miterlimit="10.433"
       font-style="normal"
       font-variant="normal"
       font-weight="normal"
       font-stretch="normal"
       font-size-adjust="none"
       letter-spacing="normal"
       word-spacing="normal"
       ns0:text="$i_1$"
       ns0:preamble="/home/milan/phd/Dokumente/tex/graphics/svg_mathbbm.tex"
       style="font-style:normal;font-variant:normal;font-weight:normal;font-stretch:normal;letter-spacing:normal;word-spacing:normal;text-anchor:start;fill:none;stroke:#000000;stroke-linecap:butt;stroke-linejoin:miter;stroke-miterlimit:10.43299961;stroke-opacity:1;stroke-dasharray:none;stroke-dashoffset:0"><path
         style="fill:#000000;stroke-width:0"
         inkscape:connector-curvature="0"
         d="m 226.26,713.33 0,0.02 0,0.02 -0.01,0.02 0,0.02 0,0.01 -0.01,0.02 0,0.02 -0.01,0.01 0,0.02 -0.01,0.01 -0.01,0.02 -0.01,0.01 -0.01,0.02 -0.01,0.01 -0.01,0.01 -0.01,0.02 -0.01,0.01 -0.02,0.01 -0.01,0.01 -0.01,0.01 -0.02,0.01 -0.01,0.01 -0.02,0.01 -0.02,0 -0.01,0.01 -0.02,0.01 -0.02,0 -0.02,0 -0.02,0.01 -0.02,0 -0.02,0 -0.02,0 c -0.27,0 -0.54,-0.26 -0.54,-0.53 0,-0.18 0.14,-0.35 0.38,-0.35 0.23,0 0.53,0.23 0.53,0.52 z"
         id="path87626" /><path
         style="fill:#000000;stroke-width:0"
         inkscape:connector-curvature="0"
         d="m 225.5,709.6 0.01,0.02 0.01,0.03 0.01,0.02 0.01,0.02 0.01,0.03 0.01,0.02 0,0.01 0.01,0.02 0.01,0.02 0.01,0.02 0,0.01 0.01,0.02 0,0.01 0.01,0.02 0.01,0.02 0.01,0.03 0.01,0.03 0,0.02 0.01,0.01 0.01,0.02 0,0.01 0.01,0.02 0,0.02 0.01,0.02 0.01,0.01 0,0.03 0.01,0.02 0.01,0.02 0.01,0.02 c 0.08,0.2 0.13,0.34 0.13,0.53 0,0.45 -0.32,0.82 -0.82,0.82 -0.93,0 -1.31,-1.44 -1.31,-1.53 0,-0.1 0.1,-0.1 0.12,-0.1 0.1,0 0.11,0.02 0.16,0.18 0.27,0.93 0.67,1.23 1,1.23 0.08,0 0.25,0 0.25,-0.32 0,-0.21 -0.07,-0.42 -0.11,-0.52 -0.08,-0.26 -0.52,-1.41 -0.68,-1.84 -0.1,-0.25 -0.23,-0.58 -0.23,-0.79 0,-0.47 0.34,-0.81 0.81,-0.81 0.94,0 1.31,1.44 1.31,1.53 0,0.1 -0.09,0.1 -0.12,0.1 -0.1,0 -0.1,-0.04 -0.15,-0.18 -0.18,-0.63 -0.51,-1.24 -1.02,-1.24 -0.16,0 -0.24,0.1 -0.24,0.33 0,0.25 0.06,0.39 0.29,0.99 z"
         id="path87628" /><path
         style="fill:#000000;stroke-width:0"
         inkscape:connector-curvature="0"
         d="m 229.2,710.05 0,0.01 0,0.01 0,0.01 0,0.01 0,0 0,0.01 0,0.01 0,0.01 0,0 0,0.01 -0.01,0.01 0,0 0,0.01 0,0 0,0.01 0,0 0,0.01 0,0 0,0.01 0,0.01 -0.01,0.01 0,0 -0.01,0.01 0,0.01 0,0 -0.01,0.01 -0.01,0 0,0 -0.01,0.01 -0.01,0 -0.01,0 -0.01,0 0,0 -0.01,0 0,0 -0.01,0.01 0,0 -0.01,0 -0.01,0 0,0 -0.01,0 -0.01,0 0,0 -0.01,0 -0.01,0 -0.01,0 -0.01,0 0,0 -0.01,0 -0.01,0 c -0.45,-0.44 -1.08,-0.45 -1.37,-0.45 v -0.25 c 0.17,0 0.63,0 1.01,0.2 v -3.55 c 0,-0.23 0,-0.32 -0.69,-0.32 h -0.27 v -0.25 c 0.13,0.01 0.98,0.03 1.24,0.03 0.22,0 1.1,-0.02 1.25,-0.03 v 0.25 h -0.27 c -0.69,0 -0.69,0.09 -0.69,0.32 z"
         id="path87630" /></g>    <g
       style="font-style:normal;font-variant:normal;font-weight:normal;font-stretch:normal;letter-spacing:normal;word-spacing:normal;text-anchor:start;fill:none;stroke:#000000;stroke-linecap:butt;stroke-linejoin:miter;stroke-miterlimit:10.43299961;stroke-opacity:1;stroke-dasharray:none;stroke-dashoffset:0"
       ns0:preamble="/home/milan/phd/Dokumente/tex/graphics/svg_mathbbm.tex"
       ns0:text="$j_1$"
       word-spacing="normal"
       letter-spacing="normal"
       font-size-adjust="none"
       font-stretch="normal"
       font-weight="normal"
       font-variant="normal"
       font-style="normal"
       stroke-miterlimit="10.433"
       xml:space="preserve"
       transform="matrix(1.25,0,0,-1.25,-26.467838,1498.5479)"
       id="g87632"><path
         id="path87634"
         d="m 227.38,713.33 0,0.02 0,0.02 0,0.02 0,0.01 -0.01,0.02 0,0.02 -0.01,0.01 0,0.02 -0.01,0.01 -0.01,0.02 -0.01,0.02 0,0.01 -0.01,0.01 -0.01,0.02 -0.02,0.01 -0.01,0.01 -0.01,0.02 -0.01,0.01 -0.02,0.01 -0.01,0.01 -0.02,0.01 -0.01,0.01 -0.02,0 -0.02,0.01 -0.01,0.01 -0.02,0 -0.02,0.01 -0.02,0 -0.02,0.01 -0.02,0 -0.02,0 -0.03,0 c -0.23,0 -0.52,-0.23 -0.52,-0.53 0,-0.19 0.14,-0.35 0.37,-0.35 0.26,0 0.53,0.26 0.53,0.52 z"
         inkscape:connector-curvature="0"
         style="fill:#000000;stroke-width:0" /><path
         id="path87636"
         d="m 225.38,706.63 -0.02,-0.07 -0.02,-0.07 -0.02,-0.07 -0.02,-0.07 -0.03,-0.06 -0.02,-0.06 -0.03,-0.07 -0.03,-0.06 -0.03,-0.06 -0.03,-0.05 -0.04,-0.06 -0.03,-0.05 -0.04,-0.05 -0.03,-0.05 -0.04,-0.05 -0.04,-0.05 -0.04,-0.04 -0.04,-0.04 -0.05,-0.04 -0.04,-0.03 -0.04,-0.04 -0.05,-0.03 -0.05,-0.03 -0.04,-0.02 -0.05,-0.03 -0.05,-0.02 -0.05,-0.01 -0.05,-0.02 -0.05,-0.01 -0.05,-0.01 -0.05,0 -0.05,0 c -0.06,0 -0.21,0 -0.39,0.09 0.3,0.07 0.45,0.32 0.45,0.52 0,0.16 -0.11,0.35 -0.38,0.35 -0.25,0 -0.54,-0.21 -0.54,-0.57 0,-0.39 0.4,-0.61 0.88,-0.61 0.7,0 1.62,0.52 1.87,1.51 l 0.91,3.63 c 0.05,0.2 0.05,0.34 0.05,0.37 0,0.57 -0.41,0.92 -0.91,0.92 -1.02,0 -1.58,-1.44 -1.58,-1.53 0,-0.1 0.1,-0.1 0.12,-0.1 0.09,0 0.1,0.01 0.18,0.2 0.24,0.6 0.7,1.21 1.25,1.21 0.14,0 0.32,-0.04 0.32,-0.46 0,-0.23 -0.03,-0.34 -0.07,-0.51 z"
         inkscape:connector-curvature="0"
         style="fill:#000000;stroke-width:0" /><path
         id="path87638"
         d="m 229.87,710.05 0,0.01 0,0.01 0,0.01 0,0.01 0,0 0,0.01 0,0.01 0,0.01 0,0 0,0.01 0,0.01 0,0 -0.01,0.01 0,0 0,0.01 0,0 0,0.01 0,0 0,0.01 0,0.01 -0.01,0.01 0,0 0,0.01 -0.01,0.01 0,0 -0.01,0.01 -0.01,0 0,0 -0.01,0.01 -0.01,0 -0.01,0 -0.01,0 0,0 -0.01,0 0,0 -0.01,0.01 0,0 -0.01,0 -0.01,0 0,0 -0.01,0 -0.01,0 0,0 -0.01,0 -0.01,0 -0.01,0 0,0 -0.01,0 -0.01,0 -0.01,0 c -0.45,-0.44 -1.08,-0.45 -1.37,-0.45 v -0.25 c 0.17,0 0.63,0 1.01,0.2 v -3.55 c 0,-0.23 0,-0.32 -0.69,-0.32 h -0.27 v -0.25 c 0.13,0.01 0.98,0.03 1.24,0.03 0.22,0 1.1,-0.02 1.25,-0.03 v 0.25 h -0.26 c -0.7,0 -0.7,0.09 -0.7,0.32 z"
         inkscape:connector-curvature="0"
         style="fill:#000000;stroke-width:0" /></g>    <g
       id="g87640"
       transform="matrix(1.25,0,0,-1.25,-10.467838,1498.5479)"
       xml:space="preserve"
       stroke-miterlimit="10.433"
       font-style="normal"
       font-variant="normal"
       font-weight="normal"
       font-stretch="normal"
       font-size-adjust="none"
       letter-spacing="normal"
       word-spacing="normal"
       ns0:text="$i_2$"
       ns0:preamble="/home/milan/phd/Dokumente/tex/graphics/svg_mathbbm.tex"
       style="font-style:normal;font-variant:normal;font-weight:normal;font-stretch:normal;letter-spacing:normal;word-spacing:normal;text-anchor:start;fill:none;stroke:#000000;stroke-linecap:butt;stroke-linejoin:miter;stroke-miterlimit:10.43299961;stroke-opacity:1;stroke-dasharray:none;stroke-dashoffset:0"><path
         d="m 226.26,713.33 0,0.02 0,0.02 -0.01,0.02 0,0.02 0,0.01 -0.01,0.02 0,0.02 -0.01,0.01 0,0.02 -0.01,0.01 -0.01,0.02 -0.01,0.01 -0.01,0.02 -0.01,0.01 -0.01,0.01 -0.01,0.02 -0.01,0.01 -0.02,0.01 -0.01,0.01 -0.01,0.01 -0.02,0.01 -0.01,0.01 -0.02,0.01 -0.02,0 -0.01,0.01 -0.02,0.01 -0.02,0 -0.02,0 -0.02,0.01 -0.02,0 -0.02,0 -0.02,0 c -0.27,0 -0.54,-0.26 -0.54,-0.53 0,-0.18 0.14,-0.35 0.38,-0.35 0.23,0 0.53,0.23 0.53,0.52 z"
         id="path87642"
         inkscape:connector-curvature="0"
         style="fill:#000000;stroke-width:0" /><path
         d="m 225.5,709.6 0.01,0.02 0.01,0.03 0.01,0.02 0.01,0.02 0.01,0.03 0.01,0.02 0,0.01 0.01,0.02 0.01,0.02 0.01,0.02 0,0.01 0.01,0.02 0,0.01 0.01,0.02 0.01,0.02 0.01,0.03 0.01,0.03 0,0.02 0.01,0.01 0.01,0.02 0,0.01 0.01,0.02 0,0.02 0.01,0.02 0.01,0.01 0,0.03 0.01,0.02 0.01,0.02 0.01,0.02 c 0.08,0.2 0.13,0.34 0.13,0.53 0,0.45 -0.32,0.82 -0.82,0.82 -0.93,0 -1.31,-1.44 -1.31,-1.53 0,-0.1 0.1,-0.1 0.12,-0.1 0.1,0 0.11,0.02 0.16,0.18 0.27,0.93 0.67,1.23 1,1.23 0.08,0 0.25,0 0.25,-0.32 0,-0.21 -0.07,-0.42 -0.11,-0.52 -0.08,-0.26 -0.52,-1.41 -0.68,-1.84 -0.1,-0.25 -0.23,-0.58 -0.23,-0.79 0,-0.47 0.34,-0.81 0.81,-0.81 0.94,0 1.31,1.44 1.31,1.53 0,0.1 -0.09,0.1 -0.12,0.1 -0.1,0 -0.1,-0.04 -0.15,-0.18 -0.18,-0.63 -0.51,-1.24 -1.02,-1.24 -0.16,0 -0.24,0.1 -0.24,0.33 0,0.25 0.06,0.39 0.29,0.99 z"
         id="path87644"
         inkscape:connector-curvature="0"
         style="fill:#000000;stroke-width:0" /><path
         d="m 230.38,706.9 h -0.24 c -0.02,-0.16 -0.09,-0.57 -0.18,-0.64 -0.05,-0.04 -0.59,-0.04 -0.69,-0.04 h -1.28 c 0.73,0.65 0.98,0.84 1.39,1.17 0.52,0.41 1,0.84 1,1.5 0,0.84 -0.74,1.36 -1.63,1.36 -0.86,0 -1.45,-0.61 -1.45,-1.25 0,-0.35 0.3,-0.39 0.37,-0.39 0.17,0 0.37,0.12 0.37,0.37 0,0.13 -0.05,0.37 -0.41,0.37 0.22,0.49 0.69,0.65 1.02,0.65 0.69,0 1.06,-0.54 1.06,-1.11 0,-0.6 -0.44,-1.08 -0.66,-1.33 l -1.68,-1.66 c -0.07,-0.06 -0.07,-0.07 -0.07,-0.27 h 2.87 z"
         id="path87646"
         inkscape:connector-curvature="0"
         style="fill:#000000;stroke-width:0" /></g>    <g
       style="font-style:normal;font-variant:normal;font-weight:normal;font-stretch:normal;letter-spacing:normal;word-spacing:normal;text-anchor:start;fill:none;stroke:#000000;stroke-linecap:butt;stroke-linejoin:miter;stroke-miterlimit:10.43299961;stroke-opacity:1;stroke-dasharray:none;stroke-dashoffset:0"
       ns0:preamble="/home/milan/phd/Dokumente/tex/graphics/svg_mathbbm.tex"
       ns0:text="$j_2$"
       word-spacing="normal"
       letter-spacing="normal"
       font-size-adjust="none"
       font-stretch="normal"
       font-weight="normal"
       font-variant="normal"
       font-style="normal"
       stroke-miterlimit="10.433"
       xml:space="preserve"
       transform="matrix(1.25,0,0,-1.25,5.5321618,1498.5479)"
       id="g87648"><path
         id="path87650"
         d="m 227.38,713.33 0,0.02 0,0.02 0,0.02 0,0.01 -0.01,0.02 0,0.02 -0.01,0.01 0,0.02 -0.01,0.01 -0.01,0.02 -0.01,0.02 0,0.01 -0.01,0.01 -0.01,0.02 -0.02,0.01 -0.01,0.01 -0.01,0.02 -0.01,0.01 -0.02,0.01 -0.01,0.01 -0.02,0.01 -0.01,0.01 -0.02,0 -0.02,0.01 -0.01,0.01 -0.02,0 -0.02,0.01 -0.02,0 -0.02,0.01 -0.02,0 -0.02,0 -0.03,0 c -0.23,0 -0.52,-0.23 -0.52,-0.53 0,-0.19 0.14,-0.35 0.37,-0.35 0.26,0 0.53,0.26 0.53,0.52 z"
         inkscape:connector-curvature="0"
         style="fill:#000000;stroke-width:0" /><path
         id="path87652"
         d="m 225.38,706.63 -0.02,-0.07 -0.02,-0.07 -0.02,-0.07 -0.02,-0.07 -0.03,-0.06 -0.02,-0.06 -0.03,-0.07 -0.03,-0.06 -0.03,-0.06 -0.03,-0.05 -0.04,-0.06 -0.03,-0.05 -0.04,-0.05 -0.03,-0.05 -0.04,-0.05 -0.04,-0.05 -0.04,-0.04 -0.04,-0.04 -0.05,-0.04 -0.04,-0.03 -0.04,-0.04 -0.05,-0.03 -0.05,-0.03 -0.04,-0.02 -0.05,-0.03 -0.05,-0.02 -0.05,-0.01 -0.05,-0.02 -0.05,-0.01 -0.05,-0.01 -0.05,0 -0.05,0 c -0.06,0 -0.21,0 -0.39,0.09 0.3,0.07 0.45,0.32 0.45,0.52 0,0.16 -0.11,0.35 -0.38,0.35 -0.25,0 -0.54,-0.21 -0.54,-0.57 0,-0.39 0.4,-0.61 0.88,-0.61 0.7,0 1.62,0.52 1.87,1.51 l 0.91,3.63 c 0.05,0.2 0.05,0.34 0.05,0.37 0,0.57 -0.41,0.92 -0.91,0.92 -1.02,0 -1.58,-1.44 -1.58,-1.53 0,-0.1 0.1,-0.1 0.12,-0.1 0.09,0 0.1,0.01 0.18,0.2 0.24,0.6 0.7,1.21 1.25,1.21 0.14,0 0.32,-0.04 0.32,-0.46 0,-0.23 -0.03,-0.34 -0.07,-0.51 z"
         inkscape:connector-curvature="0"
         style="fill:#000000;stroke-width:0" /><path
         id="path87654"
         d="m 231.05,706.9 h -0.23 c -0.03,-0.16 -0.09,-0.57 -0.19,-0.64 -0.05,-0.04 -0.59,-0.04 -0.68,-0.04 h -1.29 c 0.74,0.65 0.98,0.84 1.4,1.17 0.51,0.41 0.99,0.84 0.99,1.5 0,0.84 -0.74,1.36 -1.63,1.36 -0.86,0 -1.45,-0.61 -1.45,-1.25 0,-0.35 0.3,-0.39 0.37,-0.39 0.17,0 0.37,0.12 0.37,0.37 0,0.13 -0.05,0.37 -0.41,0.37 0.22,0.49 0.69,0.65 1.02,0.65 0.69,0 1.06,-0.54 1.06,-1.11 0,-0.6 -0.43,-1.08 -0.66,-1.33 l -1.68,-1.66 c -0.07,-0.06 -0.07,-0.07 -0.07,-0.27 h 2.87 z"
         inkscape:connector-curvature="0"
         style="fill:#000000;stroke-width:0" /></g>    <g
       id="g87656"
       transform="matrix(1.25,0,0,-1.25,21.532162,1498.5479)"
       xml:space="preserve"
       stroke-miterlimit="10.433"
       font-style="normal"
       font-variant="normal"
       font-weight="normal"
       font-stretch="normal"
       font-size-adjust="none"
       letter-spacing="normal"
       word-spacing="normal"
       ns0:text="$i_3$"
       ns0:preamble="/home/milan/phd/Dokumente/tex/graphics/svg_mathbbm.tex"
       style="font-style:normal;font-variant:normal;font-weight:normal;font-stretch:normal;letter-spacing:normal;word-spacing:normal;text-anchor:start;fill:none;stroke:#000000;stroke-linecap:butt;stroke-linejoin:miter;stroke-miterlimit:10.43299961;stroke-opacity:1;stroke-dasharray:none;stroke-dashoffset:0"><path
         d="m 226.26,713.33 0,0.02 0,0.02 -0.01,0.02 0,0.02 0,0.01 -0.01,0.02 0,0.02 -0.01,0.01 0,0.02 -0.01,0.01 -0.01,0.02 -0.01,0.01 -0.01,0.02 -0.01,0.01 -0.01,0.01 -0.01,0.02 -0.01,0.01 -0.02,0.01 -0.01,0.01 -0.01,0.01 -0.02,0.01 -0.01,0.01 -0.02,0.01 -0.02,0 -0.01,0.01 -0.02,0.01 -0.02,0 -0.02,0 -0.02,0.01 -0.02,0 -0.02,0 -0.02,0 c -0.27,0 -0.54,-0.26 -0.54,-0.53 0,-0.18 0.14,-0.35 0.38,-0.35 0.23,0 0.53,0.23 0.53,0.52 z"
         id="path87658"
         inkscape:connector-curvature="0"
         style="fill:#000000;stroke-width:0" /><path
         d="m 225.5,709.6 0.01,0.02 0.01,0.03 0.01,0.02 0.01,0.02 0.01,0.03 0.01,0.02 0,0.01 0.01,0.02 0.01,0.02 0.01,0.02 0,0.01 0.01,0.02 0,0.01 0.01,0.02 0.01,0.02 0.01,0.03 0.01,0.03 0,0.02 0.01,0.01 0.01,0.02 0,0.01 0.01,0.02 0,0.02 0.01,0.02 0.01,0.01 0,0.03 0.01,0.02 0.01,0.02 0.01,0.02 c 0.08,0.2 0.13,0.34 0.13,0.53 0,0.45 -0.32,0.82 -0.82,0.82 -0.93,0 -1.31,-1.44 -1.31,-1.53 0,-0.1 0.1,-0.1 0.12,-0.1 0.1,0 0.11,0.02 0.16,0.18 0.27,0.93 0.67,1.23 1,1.23 0.08,0 0.25,0 0.25,-0.32 0,-0.21 -0.07,-0.42 -0.11,-0.52 -0.08,-0.26 -0.52,-1.41 -0.68,-1.84 -0.1,-0.25 -0.23,-0.58 -0.23,-0.79 0,-0.47 0.34,-0.81 0.81,-0.81 0.94,0 1.31,1.44 1.31,1.53 0,0.1 -0.09,0.1 -0.12,0.1 -0.1,0 -0.1,-0.04 -0.15,-0.18 -0.18,-0.63 -0.51,-1.24 -1.02,-1.24 -0.16,0 -0.24,0.1 -0.24,0.33 0,0.25 0.06,0.39 0.29,0.99 z"
         id="path87660"
         inkscape:connector-curvature="0"
         style="fill:#000000;stroke-width:0" /><path
         d="m 228.76,707.95 0.06,0 0.05,0 0.04,-0.01 0.05,0 0.05,-0.01 0.04,-0.02 0.05,-0.01 0.04,-0.02 0.04,-0.02 0.04,-0.02 0.04,-0.02 0.04,-0.02 0.04,-0.03 0.03,-0.03 0.03,-0.03 0.04,-0.04 0.03,-0.03 0.02,-0.04 0.03,-0.04 0.03,-0.04 0.02,-0.05 0.02,-0.05 0.02,-0.05 0.02,-0.05 0.02,-0.05 0.01,-0.06 0.01,-0.05 0.01,-0.06 0.01,-0.07 0,-0.06 0.01,-0.07 0,-0.07 c 0,-0.86 -0.5,-1.12 -0.91,-1.12 -0.28,0 -0.89,0.08 -1.18,0.49 0.33,0.02 0.4,0.25 0.4,0.39 0,0.22 -0.16,0.38 -0.38,0.38 -0.2,0 -0.39,-0.12 -0.39,-0.4 0,-0.65 0.72,-1.08 1.57,-1.08 0.96,0 1.63,0.65 1.63,1.34 0,0.55 -0.44,1.09 -1.21,1.25 0.73,0.26 1,0.78 1,1.21 0,0.55 -0.64,0.96 -1.41,0.96 -0.77,0 -1.36,-0.38 -1.36,-0.93 0,-0.24 0.15,-0.37 0.36,-0.37 0.21,0 0.35,0.16 0.35,0.35 0,0.2 -0.14,0.35 -0.35,0.36 0.24,0.31 0.72,0.39 0.98,0.39 0.31,0 0.75,-0.16 0.75,-0.76 0,-0.29 -0.09,-0.61 -0.28,-0.83 -0.23,-0.26 -0.42,-0.28 -0.77,-0.3 -0.17,-0.01 -0.19,-0.01 -0.22,-0.02 -0.02,0 -0.07,-0.01 -0.07,-0.09 0,-0.1 0.06,-0.1 0.18,-0.1 z"
         id="path87662"
         inkscape:connector-curvature="0"
         style="fill:#000000;stroke-width:0" /></g>    <text
       sodipodi:linespacing="125%"
       id="text93799"
       y="695.57855"
       x="403.54565"
       style="font-size:9px;font-style:normal;font-weight:normal;line-height:125%;letter-spacing:0px;word-spacing:0px;fill:#000000;fill-opacity:1;stroke:none;font-family:Sans"
       xml:space="preserve"><tspan
         y="695.57855"
         x="403.54565"
         id="tspan93801"
         sodipodi:role="line">physical </tspan><tspan
         id="tspan93803"
         y="706.82855"
         x="403.54565"
         sodipodi:role="line">column leg</tspan></text>
    <text
       sodipodi:linespacing="125%"
       id="text93805"
       y="695.83112"
       x="312.76263"
       style="font-size:9px;font-style:normal;font-weight:normal;line-height:125%;letter-spacing:0px;word-spacing:0px;fill:#000000;fill-opacity:1;stroke:none;font-family:Sans"
       xml:space="preserve"><tspan
         id="tspan93807"
         y="695.83112"
         x="312.76263"
         sodipodi:role="line">physical </tspan><tspan
         id="tspan93809"
         y="707.08112"
         x="312.76263"
         sodipodi:role="line">row leg</tspan></text>
    <path
       inkscape:connector-curvature="0"
       id="path93811"
       d="m 351.81595,690.02268 10.10153,-9.34391"
       style="fill:none;stroke:#000000;stroke-width:0.5;stroke-linecap:butt;stroke-linejoin:miter;stroke-miterlimit:4;stroke-opacity:1;stroke-dasharray:0.5, 0.5;stroke-dashoffset:0" />
    <path
       inkscape:connector-curvature="0"
       id="path93813"
       d="m 402.07104,689.77014 -7.57614,-4.79822"
       style="fill:none;stroke:#000000;stroke-width:0.5;stroke-linecap:butt;stroke-linejoin:miter;stroke-miterlimit:4;stroke-opacity:1;stroke-dasharray:0.5, 0.5;stroke-dashoffset:0" />
    <text
       xml:space="preserve"
       style="font-size:9px;font-style:normal;font-weight:normal;line-height:125%;letter-spacing:0px;word-spacing:0px;fill:#000000;fill-opacity:1;stroke:none;font-family:Sans"
       x="448.4696"
       y="627.9231"
       id="text93815"
       sodipodi:linespacing="125%"><tspan
         sodipodi:role="line"
         id="tspan93817"
         x="448.4696"
         y="627.9231">bond leg</tspan></text>
    <path
       style="fill:none;stroke:#000000;stroke-width:0.5;stroke-linecap:butt;stroke-linejoin:miter;stroke-miterlimit:4;stroke-opacity:1;stroke-dasharray:0.5, 0.5;stroke-dashoffset:0"
       d="m 429.18393,653.99454 17.14286,-29.28571"
       id="path93819"
       inkscape:connector-curvature="0"
       sodipodi:nodetypes="cc" />
    <text
       sodipodi:linespacing="125%"
       id="text93805-3"
       y="585.72974"
       x="172.14391"
       style="font-size:9px;font-style:normal;font-weight:normal;line-height:125%;letter-spacing:0px;word-spacing:0px;fill:#000000;fill-opacity:1;stroke:none;font-family:Sans"
       xml:space="preserve"><tspan
         id="tspan93807-6"
         y="585.72974"
         x="172.14391"
         sodipodi:role="line">physical </tspan><tspan
         id="tspan93809-5"
         y="596.97974"
         x="172.14391"
         sodipodi:role="line">row leg</tspan></text>
    <text
       sodipodi:linespacing="125%"
       id="text93799-2"
       y="615.71198"
       x="172.37968"
       style="font-size:9px;font-style:normal;font-weight:normal;line-height:125%;letter-spacing:0px;word-spacing:0px;fill:#000000;fill-opacity:1;stroke:none;font-family:Sans"
       xml:space="preserve"><tspan
         y="615.71198"
         x="172.37968"
         id="tspan93801-4"
         sodipodi:role="line">physical </tspan><tspan
         id="tspan93803-3"
         y="626.96198"
         x="172.37968"
         sodipodi:role="line">column leg</tspan></text>
    <path
       style="fill:none;stroke:#000000;stroke-width:0.5;stroke-linecap:butt;stroke-linejoin:miter;stroke-miterlimit:4;stroke-opacity:1;stroke-dasharray:0.5, 0.5;stroke-dashoffset:0"
       d="m 54.384985,53.242096 c 5.033839,0 27.722421,0.423739 27.6619,-6.162892"
       id="path94499"
       inkscape:connector-curvature="0"
       transform="translate(168.87627,571.1875)"
       sodipodi:nodetypes="cc" />
    <path
       style="fill:none;stroke:#000000;stroke-width:0.5;stroke-linecap:butt;stroke-linejoin:miter;stroke-opacity:1;stroke-miterlimit:4;stroke-dasharray:0.5,0.5;stroke-dashoffset:0"
       d="M 37.375644,25.345605 64.902301,45.296118"
       id="path94501"
       inkscape:connector-curvature="0"
       transform="translate(168.87627,571.1875)" />
  </g>
</svg>
