<?xml version="1.0" encoding="UTF-8" standalone="no"?>
<!-- Created with Inkscape (http://www.inkscape.org/) -->

<svg
   xmlns:ns0="http://www.iki.fi/pav/software/textext/"
   xmlns:dc="http://purl.org/dc/elements/1.1/"
   xmlns:cc="http://creativecommons.org/ns#"
   xmlns:rdf="http://www.w3.org/1999/02/22-rdf-syntax-ns#"
   xmlns:svg="http://www.w3.org/2000/svg"
   xmlns="http://www.w3.org/2000/svg"
   xmlns:sodipodi="http://sodipodi.sourceforge.net/DTD/sodipodi-0.dtd"
   xmlns:inkscape="http://www.inkscape.org/namespaces/inkscape"
   width="364.88562"
   height="127.53552"
   id="svg73625"
   version="1.1"
   inkscape:version="0.92.1 r15371"
   sodipodi:docname="tensors_pmps.svg">
  <defs
     id="defs73627" />
  <sodipodi:namedview
     id="base"
     pagecolor="#ffffff"
     bordercolor="#666666"
     borderopacity="1.0"
     inkscape:pageopacity="0.0"
     inkscape:pageshadow="2"
     inkscape:zoom="1.979899"
     inkscape:cx="284.11304"
     inkscape:cy="135.15098"
     inkscape:document-units="px"
     inkscape:current-layer="layer1"
     showgrid="false"
     fit-margin-top="4"
     fit-margin-left="4"
     fit-margin-right="4"
     fit-margin-bottom="4"
     inkscape:window-width="2560"
     inkscape:window-height="1393"
     inkscape:window-x="0"
     inkscape:window-y="0"
     inkscape:window-maximized="1" />
  <metadata
     id="metadata73630">
    <rdf:RDF>
      <cc:Work
         rdf:about="">
        <dc:format>image/svg+xml</dc:format>
        <dc:type
           rdf:resource="http://purl.org/dc/dcmitype/StillImage" />
        <dc:title />
      </cc:Work>
    </rdf:RDF>
  </metadata>
  <g
     inkscape:label="Ebene 1"
     inkscape:groupmode="layer"
     id="layer1"
     transform="translate(501.35438,-708.875)">
    <path
       inkscape:connector-curvature="0"
       inkscape:connector-type="polyline"
       id="path75413"
       d="m -372.368,726.0856 25.87154,-0.0966"
       style="fill:none;stroke:#000000;stroke-width:1px;stroke-linecap:butt;stroke-linejoin:miter;stroke-opacity:1" />
    <path
       style="fill:none;stroke:#000000;stroke-width:1px;stroke-linecap:butt;stroke-linejoin:miter;stroke-opacity:1"
       d="m -424.60531,792.40454 0,28.52691"
       id="path75415"
       inkscape:connector-curvature="0" />
    <path
       inkscape:connector-curvature="0"
       id="path75417"
       d="m -448.60531,792.40454 0,28.52691"
       style="fill:none;stroke:#000000;stroke-width:1px;stroke-linecap:butt;stroke-linejoin:miter;stroke-opacity:1" />
    <rect
       ry="3.0000007"
       rx="2.9999998"
       y="778.56787"
       x="-468.62833"
       height="26.374731"
       width="64.215195"
       id="rect75419"
       style="fill:#ffeeaa;fill-opacity:1;stroke:#000000;stroke-width:0.5;stroke-linecap:round;stroke-linejoin:miter;stroke-miterlimit:4;stroke-opacity:1;stroke-dasharray:none;stroke-dashoffset:0" />
    <g
       style="font-style:normal;font-variant:normal;font-weight:normal;font-stretch:normal;letter-spacing:normal;word-spacing:normal;text-anchor:start;fill:none;stroke:#000000;stroke-linecap:butt;stroke-linejoin:miter;stroke-miterlimit:10.43299961;stroke-opacity:1;stroke-dasharray:none;stroke-dashoffset:0"
       ns0:preamble="/home/milan/phd/Dokumente/tex/graphics/svg_mathbbm.tex"
       ns0:text="$l$"
       word-spacing="normal"
       letter-spacing="normal"
       font-size-adjust="none"
       font-stretch="normal"
       font-weight="normal"
       font-variant="normal"
       font-style="normal"
       stroke-miterlimit="10.433"
       xml:space="preserve"
       transform="matrix(1.25,0,0,-1.25,-757.97967,1670.723)"
       id="g75421"><path
         style="fill:#000000;stroke-width:0"
         inkscape:connector-curvature="0"
         id="path75423"
         d="m 226,713.91 0,0 0,0 0,0 0,0 0,0.01 0,0 0,0 0,0.01 0,0 0,0.01 0,0 -0.01,0 0,0.01 0,0 0,0.01 0,0 -0.01,0.01 0,0 0,0.01 -0.01,0 0,0.01 0,0 -0.01,0 0,0 0,0.01 -0.01,0 0,0 0,0 -0.01,0 0,0.01 0,0 -0.01,0 0,0 0,0 -0.01,0 0,0 -0.01,0 0,0.01 -0.01,0 0,0 -0.01,0 0,0 -0.01,0 0,0 -0.01,0 c -0.23,0 -0.96,-0.08 -1.21,-0.1 -0.08,-0.01 -0.19,-0.02 -0.19,-0.21 0,-0.11 0.1,-0.11 0.24,-0.11 0.48,0 0.49,-0.09 0.49,-0.17 l -0.03,-0.2 -1.25,-4.96 c -0.03,-0.11 -0.05,-0.18 -0.05,-0.34 0,-0.57 0.44,-0.91 0.9,-0.91 0.33,0 0.58,0.19 0.75,0.55 0.18,0.38 0.3,0.96 0.3,0.98 0,0.1 -0.09,0.1 -0.12,0.1 -0.1,0 -0.11,-0.05 -0.14,-0.18 -0.17,-0.65 -0.36,-1.24 -0.76,-1.24 -0.29,0 -0.29,0.32 -0.29,0.46 0,0.24 0.01,0.29 0.06,0.48 z" /></g>    <g
       style="font-style:normal;font-variant:normal;font-weight:normal;font-stretch:normal;letter-spacing:normal;word-spacing:normal;text-anchor:start;fill:none;stroke:#000000;stroke-linecap:butt;stroke-linejoin:miter;stroke-miterlimit:10.43299961;stroke-opacity:1;stroke-dasharray:none;stroke-dashoffset:0"
       ns0:preamble="/home/milan/phd/Dokumente/tex/graphics/svg_mathbbm.tex"
       ns0:text="$j$"
       word-spacing="normal"
       letter-spacing="normal"
       font-size-adjust="none"
       font-stretch="normal"
       font-weight="normal"
       font-variant="normal"
       font-style="normal"
       stroke-miterlimit="10.433"
       xml:space="preserve"
       transform="matrix(1.25,0,0,-1.25,-701.09391,1701.6722)"
       id="g75425"><path
         style="fill:#000000;stroke-width:0"
         inkscape:connector-curvature="0"
         id="path75427"
         d="m 227.38,713.33 0,0.02 0,0.02 0,0.02 0,0.01 -0.01,0.02 0,0.02 -0.01,0.01 0,0.02 -0.01,0.01 -0.01,0.02 -0.01,0.02 0,0.01 -0.01,0.01 -0.01,0.02 -0.02,0.01 -0.01,0.01 -0.01,0.02 -0.01,0.01 -0.02,0.01 -0.01,0.01 -0.02,0.01 -0.01,0.01 -0.02,0 -0.02,0.01 -0.01,0.01 -0.02,0 -0.02,0.01 -0.02,0 -0.02,0.01 -0.02,0 -0.02,0 -0.03,0 c -0.23,0 -0.52,-0.23 -0.52,-0.53 0,-0.19 0.14,-0.35 0.37,-0.35 0.26,0 0.53,0.26 0.53,0.52 z" /><path
         style="fill:#000000;stroke-width:0"
         inkscape:connector-curvature="0"
         id="path75429"
         d="m 225.38,706.63 -0.02,-0.07 -0.02,-0.07 -0.02,-0.07 -0.02,-0.07 -0.03,-0.06 -0.02,-0.06 -0.03,-0.07 -0.03,-0.06 -0.03,-0.06 -0.03,-0.05 -0.04,-0.06 -0.03,-0.05 -0.04,-0.05 -0.03,-0.05 -0.04,-0.05 -0.04,-0.05 -0.04,-0.04 -0.04,-0.04 -0.05,-0.04 -0.04,-0.03 -0.04,-0.04 -0.05,-0.03 -0.05,-0.03 -0.04,-0.02 -0.05,-0.03 -0.05,-0.02 -0.05,-0.01 -0.05,-0.02 -0.05,-0.01 -0.05,-0.01 -0.05,0 -0.05,0 c -0.06,0 -0.21,0 -0.39,0.09 0.3,0.07 0.45,0.32 0.45,0.52 0,0.16 -0.11,0.35 -0.38,0.35 -0.25,0 -0.54,-0.21 -0.54,-0.57 0,-0.39 0.4,-0.61 0.88,-0.61 0.7,0 1.62,0.52 1.87,1.51 l 0.91,3.63 c 0.05,0.2 0.05,0.34 0.05,0.37 0,0.57 -0.41,0.92 -0.91,0.92 -1.02,0 -1.58,-1.44 -1.58,-1.53 0,-0.1 0.1,-0.1 0.12,-0.1 0.09,0 0.1,0.01 0.18,0.2 0.24,0.6 0.7,1.21 1.25,1.21 0.14,0 0.32,-0.04 0.32,-0.46 0,-0.23 -0.03,-0.34 -0.07,-0.51 z" /></g>    <g
       id="g75431"
       transform="matrix(1.25,0,0,-1.25,-725.09391,1701.6722)"
       xml:space="preserve"
       stroke-miterlimit="10.433"
       font-style="normal"
       font-variant="normal"
       font-weight="normal"
       font-stretch="normal"
       font-size-adjust="none"
       letter-spacing="normal"
       word-spacing="normal"
       ns0:text="$i$"
       ns0:preamble="/home/milan/phd/Dokumente/tex/graphics/svg_mathbbm.tex"
       style="font-style:normal;font-variant:normal;font-weight:normal;font-stretch:normal;letter-spacing:normal;word-spacing:normal;text-anchor:start;fill:none;stroke:#000000;stroke-linecap:butt;stroke-linejoin:miter;stroke-miterlimit:10.43299961;stroke-opacity:1;stroke-dasharray:none;stroke-dashoffset:0"><path
         style="fill:#000000;stroke-width:0"
         inkscape:connector-curvature="0"
         d="m 226.26,713.33 0,0.02 0,0.02 -0.01,0.02 0,0.02 0,0.01 -0.01,0.02 0,0.02 -0.01,0.01 0,0.02 -0.01,0.01 -0.01,0.02 -0.01,0.01 -0.01,0.02 -0.01,0.01 -0.01,0.01 -0.01,0.02 -0.01,0.01 -0.02,0.01 -0.01,0.01 -0.01,0.01 -0.02,0.01 -0.01,0.01 -0.02,0.01 -0.02,0 -0.01,0.01 -0.02,0.01 -0.02,0 -0.02,0 -0.02,0.01 -0.02,0 -0.02,0 -0.02,0 c -0.27,0 -0.54,-0.26 -0.54,-0.53 0,-0.18 0.14,-0.35 0.38,-0.35 0.23,0 0.53,0.23 0.53,0.52 z"
         id="path75433" /><path
         style="fill:#000000;stroke-width:0"
         inkscape:connector-curvature="0"
         d="m 225.5,709.6 0.01,0.02 0.01,0.03 0.01,0.02 0.01,0.02 0.01,0.03 0.01,0.02 0,0.01 0.01,0.02 0.01,0.02 0.01,0.02 0,0.01 0.01,0.02 0,0.01 0.01,0.02 0.01,0.02 0.01,0.03 0.01,0.03 0,0.02 0.01,0.01 0.01,0.02 0,0.01 0.01,0.02 0,0.02 0.01,0.02 0.01,0.01 0,0.03 0.01,0.02 0.01,0.02 0.01,0.02 c 0.08,0.2 0.13,0.34 0.13,0.53 0,0.45 -0.32,0.82 -0.82,0.82 -0.93,0 -1.31,-1.44 -1.31,-1.53 0,-0.1 0.1,-0.1 0.12,-0.1 0.1,0 0.11,0.02 0.16,0.18 0.27,0.93 0.67,1.23 1,1.23 0.08,0 0.25,0 0.25,-0.32 0,-0.21 -0.07,-0.42 -0.11,-0.52 -0.08,-0.26 -0.52,-1.41 -0.68,-1.84 -0.1,-0.25 -0.23,-0.58 -0.23,-0.79 0,-0.47 0.34,-0.81 0.81,-0.81 0.94,0 1.31,1.44 1.31,1.53 0,0.1 -0.09,0.1 -0.12,0.1 -0.1,0 -0.1,-0.04 -0.15,-0.18 -0.18,-0.63 -0.51,-1.24 -1.02,-1.24 -0.16,0 -0.24,0.1 -0.24,0.33 0,0.25 0.06,0.39 0.29,0.99 z"
         id="path75435" /></g>    <g
       id="g75437"
       transform="matrix(1.25,0,0,-1.25,-675.97967,1670.723)"
       xml:space="preserve"
       stroke-miterlimit="10.433"
       font-style="normal"
       font-variant="normal"
       font-weight="normal"
       font-stretch="normal"
       font-size-adjust="none"
       letter-spacing="normal"
       word-spacing="normal"
       ns0:text="$r$"
       ns0:preamble="/home/milan/phd/Dokumente/tex/graphics/svg_mathbbm.tex"
       style="font-style:normal;font-variant:normal;font-weight:normal;font-stretch:normal;letter-spacing:normal;word-spacing:normal;text-anchor:start;fill:none;stroke:#000000;stroke-linecap:butt;stroke-linejoin:miter;stroke-miterlimit:10.43299961;stroke-opacity:1;stroke-dasharray:none;stroke-dashoffset:0"><path
         style="fill:#000000;stroke-width:0"
         inkscape:connector-curvature="0"
         d="m 224.31,707.71 0,-0.01 -0.01,-0.02 0,-0.01 0,-0.02 -0.01,-0.03 -0.01,-0.03 -0.01,-0.03 0,-0.04 -0.01,-0.03 -0.01,-0.03 0,-0.01 -0.01,-0.02 0,-0.01 0,-0.02 0,-0.01 -0.01,-0.01 0,-0.02 0,-0.01 0,-0.01 -0.01,-0.01 0,-0.01 0,-0.01 0,-0.01 0,0 0,-0.01 0,-0.01 c 0,-0.18 0.14,-0.26 0.29,-0.26 0.12,0 0.29,0.07 0.37,0.27 0.02,0.04 0.35,1.39 0.39,1.57 0.08,0.33 0.26,1.03 0.32,1.3 0.04,0.12 0.32,0.59 0.56,0.81 0.08,0.07 0.37,0.33 0.79,0.33 0.26,0 0.41,-0.12 0.42,-0.12 -0.3,-0.05 -0.51,-0.29 -0.51,-0.55 0,-0.16 0.1,-0.35 0.37,-0.35 0.27,0 0.55,0.23 0.55,0.59 0,0.35 -0.32,0.65 -0.83,0.65 -0.64,0 -1.08,-0.49 -1.27,-0.77 -0.08,0.45 -0.44,0.77 -0.91,0.77 -0.45,0 -0.64,-0.39 -0.73,-0.57 -0.18,-0.34 -0.31,-0.93 -0.31,-0.96 0,-0.1 0.1,-0.1 0.12,-0.1 0.1,0 0.11,0.01 0.17,0.22 0.17,0.71 0.37,1.19 0.73,1.19 0.16,0 0.3,-0.08 0.3,-0.46 0,-0.21 -0.03,-0.32 -0.16,-0.83 z"
         id="path75439" /></g>    <path
       inkscape:connector-curvature="0"
       id="path75441"
       d="m -308.60531,792.40454 0,28.52691"
       style="fill:none;stroke:#000000;stroke-width:1px;stroke-linecap:butt;stroke-linejoin:miter;stroke-opacity:1" />
    <path
       style="fill:none;stroke:#000000;stroke-width:1px;stroke-linecap:butt;stroke-linejoin:miter;stroke-opacity:1"
       d="m -332.60531,792.40454 0,28.52691"
       id="path75443"
       inkscape:connector-curvature="0" />
    <rect
       style="fill:#ffeeaa;fill-opacity:1;stroke:#000000;stroke-width:0.5;stroke-linecap:round;stroke-linejoin:miter;stroke-miterlimit:4;stroke-opacity:1;stroke-dasharray:none;stroke-dashoffset:0"
       id="rect75445"
       width="64.215195"
       height="26.374731"
       x="-352.62833"
       y="778.56787"
       rx="2.9999998"
       ry="3.0000007" />
    <g
       id="g75447"
       transform="matrix(1.25,0,0,-1.25,-641.97967,1670.723)"
       xml:space="preserve"
       stroke-miterlimit="10.433"
       font-style="normal"
       font-variant="normal"
       font-weight="normal"
       font-stretch="normal"
       font-size-adjust="none"
       letter-spacing="normal"
       word-spacing="normal"
       ns0:text="$l$"
       ns0:preamble="/home/milan/phd/Dokumente/tex/graphics/svg_mathbbm.tex"
       style="font-style:normal;font-variant:normal;font-weight:normal;font-stretch:normal;letter-spacing:normal;word-spacing:normal;text-anchor:start;fill:none;stroke:#000000;stroke-linecap:butt;stroke-linejoin:miter;stroke-miterlimit:10.43299961;stroke-opacity:1;stroke-dasharray:none;stroke-dashoffset:0"><path
         d="m 226,713.91 0,0 0,0 0,0 0,0 0,0.01 0,0 0,0 0,0.01 0,0 0,0.01 0,0 -0.01,0 0,0.01 0,0 0,0.01 0,0 -0.01,0.01 0,0 0,0.01 -0.01,0 0,0.01 0,0 -0.01,0 0,0 0,0.01 -0.01,0 0,0 0,0 -0.01,0 0,0.01 0,0 -0.01,0 0,0 0,0 -0.01,0 0,0 -0.01,0 0,0.01 -0.01,0 0,0 -0.01,0 0,0 -0.01,0 0,0 -0.01,0 c -0.23,0 -0.96,-0.08 -1.21,-0.1 -0.08,-0.01 -0.19,-0.02 -0.19,-0.21 0,-0.11 0.1,-0.11 0.24,-0.11 0.48,0 0.49,-0.09 0.49,-0.17 l -0.03,-0.2 -1.25,-4.96 c -0.03,-0.11 -0.05,-0.18 -0.05,-0.34 0,-0.57 0.44,-0.91 0.9,-0.91 0.33,0 0.58,0.19 0.75,0.55 0.18,0.38 0.3,0.96 0.3,0.98 0,0.1 -0.09,0.1 -0.12,0.1 -0.1,0 -0.11,-0.05 -0.14,-0.18 -0.17,-0.65 -0.36,-1.24 -0.76,-1.24 -0.29,0 -0.29,0.32 -0.29,0.46 0,0.24 0.01,0.29 0.06,0.48 z"
         id="path75449"
         inkscape:connector-curvature="0"
         style="fill:#000000;stroke-width:0" /></g>    <g
       id="g75451"
       transform="matrix(1.25,0,0,-1.25,-585.09391,1701.6722)"
       xml:space="preserve"
       stroke-miterlimit="10.433"
       font-style="normal"
       font-variant="normal"
       font-weight="normal"
       font-stretch="normal"
       font-size-adjust="none"
       letter-spacing="normal"
       word-spacing="normal"
       ns0:text="$j$"
       ns0:preamble="/home/milan/phd/Dokumente/tex/graphics/svg_mathbbm.tex"
       style="font-style:normal;font-variant:normal;font-weight:normal;font-stretch:normal;letter-spacing:normal;word-spacing:normal;text-anchor:start;fill:none;stroke:#000000;stroke-linecap:butt;stroke-linejoin:miter;stroke-miterlimit:10.43299961;stroke-opacity:1;stroke-dasharray:none;stroke-dashoffset:0"><path
         d="m 227.38,713.33 0,0.02 0,0.02 0,0.02 0,0.01 -0.01,0.02 0,0.02 -0.01,0.01 0,0.02 -0.01,0.01 -0.01,0.02 -0.01,0.02 0,0.01 -0.01,0.01 -0.01,0.02 -0.02,0.01 -0.01,0.01 -0.01,0.02 -0.01,0.01 -0.02,0.01 -0.01,0.01 -0.02,0.01 -0.01,0.01 -0.02,0 -0.02,0.01 -0.01,0.01 -0.02,0 -0.02,0.01 -0.02,0 -0.02,0.01 -0.02,0 -0.02,0 -0.03,0 c -0.23,0 -0.52,-0.23 -0.52,-0.53 0,-0.19 0.14,-0.35 0.37,-0.35 0.26,0 0.53,0.26 0.53,0.52 z"
         id="path75453"
         inkscape:connector-curvature="0"
         style="fill:#000000;stroke-width:0" /><path
         d="m 225.38,706.63 -0.02,-0.07 -0.02,-0.07 -0.02,-0.07 -0.02,-0.07 -0.03,-0.06 -0.02,-0.06 -0.03,-0.07 -0.03,-0.06 -0.03,-0.06 -0.03,-0.05 -0.04,-0.06 -0.03,-0.05 -0.04,-0.05 -0.03,-0.05 -0.04,-0.05 -0.04,-0.05 -0.04,-0.04 -0.04,-0.04 -0.05,-0.04 -0.04,-0.03 -0.04,-0.04 -0.05,-0.03 -0.05,-0.03 -0.04,-0.02 -0.05,-0.03 -0.05,-0.02 -0.05,-0.01 -0.05,-0.02 -0.05,-0.01 -0.05,-0.01 -0.05,0 -0.05,0 c -0.06,0 -0.21,0 -0.39,0.09 0.3,0.07 0.45,0.32 0.45,0.52 0,0.16 -0.11,0.35 -0.38,0.35 -0.25,0 -0.54,-0.21 -0.54,-0.57 0,-0.39 0.4,-0.61 0.88,-0.61 0.7,0 1.62,0.52 1.87,1.51 l 0.91,3.63 c 0.05,0.2 0.05,0.34 0.05,0.37 0,0.57 -0.41,0.92 -0.91,0.92 -1.02,0 -1.58,-1.44 -1.58,-1.53 0,-0.1 0.1,-0.1 0.12,-0.1 0.09,0 0.1,0.01 0.18,0.2 0.24,0.6 0.7,1.21 1.25,1.21 0.14,0 0.32,-0.04 0.32,-0.46 0,-0.23 -0.03,-0.34 -0.07,-0.51 z"
         id="path75455"
         inkscape:connector-curvature="0"
         style="fill:#000000;stroke-width:0" /></g>    <g
       style="font-style:normal;font-variant:normal;font-weight:normal;font-stretch:normal;letter-spacing:normal;word-spacing:normal;text-anchor:start;fill:none;stroke:#000000;stroke-linecap:butt;stroke-linejoin:miter;stroke-miterlimit:10.43299961;stroke-opacity:1;stroke-dasharray:none;stroke-dashoffset:0"
       ns0:preamble="/home/milan/phd/Dokumente/tex/graphics/svg_mathbbm.tex"
       ns0:text="$i$"
       word-spacing="normal"
       letter-spacing="normal"
       font-size-adjust="none"
       font-stretch="normal"
       font-weight="normal"
       font-variant="normal"
       font-style="normal"
       stroke-miterlimit="10.433"
       xml:space="preserve"
       transform="matrix(1.25,0,0,-1.25,-609.09391,1701.6722)"
       id="g75457"><path
         id="path75459"
         d="m 226.26,713.33 0,0.02 0,0.02 -0.01,0.02 0,0.02 0,0.01 -0.01,0.02 0,0.02 -0.01,0.01 0,0.02 -0.01,0.01 -0.01,0.02 -0.01,0.01 -0.01,0.02 -0.01,0.01 -0.01,0.01 -0.01,0.02 -0.01,0.01 -0.02,0.01 -0.01,0.01 -0.01,0.01 -0.02,0.01 -0.01,0.01 -0.02,0.01 -0.02,0 -0.01,0.01 -0.02,0.01 -0.02,0 -0.02,0 -0.02,0.01 -0.02,0 -0.02,0 -0.02,0 c -0.27,0 -0.54,-0.26 -0.54,-0.53 0,-0.18 0.14,-0.35 0.38,-0.35 0.23,0 0.53,0.23 0.53,0.52 z"
         inkscape:connector-curvature="0"
         style="fill:#000000;stroke-width:0" /><path
         id="path75461"
         d="m 225.5,709.6 0.01,0.02 0.01,0.03 0.01,0.02 0.01,0.02 0.01,0.03 0.01,0.02 0,0.01 0.01,0.02 0.01,0.02 0.01,0.02 0,0.01 0.01,0.02 0,0.01 0.01,0.02 0.01,0.02 0.01,0.03 0.01,0.03 0,0.02 0.01,0.01 0.01,0.02 0,0.01 0.01,0.02 0,0.02 0.01,0.02 0.01,0.01 0,0.03 0.01,0.02 0.01,0.02 0.01,0.02 c 0.08,0.2 0.13,0.34 0.13,0.53 0,0.45 -0.32,0.82 -0.82,0.82 -0.93,0 -1.31,-1.44 -1.31,-1.53 0,-0.1 0.1,-0.1 0.12,-0.1 0.1,0 0.11,0.02 0.16,0.18 0.27,0.93 0.67,1.23 1,1.23 0.08,0 0.25,0 0.25,-0.32 0,-0.21 -0.07,-0.42 -0.11,-0.52 -0.08,-0.26 -0.52,-1.41 -0.68,-1.84 -0.1,-0.25 -0.23,-0.58 -0.23,-0.79 0,-0.47 0.34,-0.81 0.81,-0.81 0.94,0 1.31,1.44 1.31,1.53 0,0.1 -0.09,0.1 -0.12,0.1 -0.1,0 -0.1,-0.04 -0.15,-0.18 -0.18,-0.63 -0.51,-1.24 -1.02,-1.24 -0.16,0 -0.24,0.1 -0.24,0.33 0,0.25 0.06,0.39 0.29,0.99 z"
         inkscape:connector-curvature="0"
         style="fill:#000000;stroke-width:0" /></g>    <g
       style="font-style:normal;font-variant:normal;font-weight:normal;font-stretch:normal;letter-spacing:normal;word-spacing:normal;text-anchor:start;fill:none;stroke:#000000;stroke-linecap:butt;stroke-linejoin:miter;stroke-miterlimit:10.43299961;stroke-opacity:1;stroke-dasharray:none;stroke-dashoffset:0"
       ns0:preamble="/home/milan/phd/Dokumente/tex/graphics/svg_mathbbm.tex"
       ns0:text="$r$"
       word-spacing="normal"
       letter-spacing="normal"
       font-size-adjust="none"
       font-stretch="normal"
       font-weight="normal"
       font-variant="normal"
       font-style="normal"
       stroke-miterlimit="10.433"
       xml:space="preserve"
       transform="matrix(1.25,0,0,-1.25,-559.97967,1670.723)"
       id="g75463"><path
         id="path75465"
         d="m 224.31,707.71 0,-0.01 -0.01,-0.02 0,-0.01 0,-0.02 -0.01,-0.03 -0.01,-0.03 -0.01,-0.03 0,-0.04 -0.01,-0.03 -0.01,-0.03 0,-0.01 -0.01,-0.02 0,-0.01 0,-0.02 0,-0.01 -0.01,-0.01 0,-0.02 0,-0.01 0,-0.01 -0.01,-0.01 0,-0.01 0,-0.01 0,-0.01 0,0 0,-0.01 0,-0.01 c 0,-0.18 0.14,-0.26 0.29,-0.26 0.12,0 0.29,0.07 0.37,0.27 0.02,0.04 0.35,1.39 0.39,1.57 0.08,0.33 0.26,1.03 0.32,1.3 0.04,0.12 0.32,0.59 0.56,0.81 0.08,0.07 0.37,0.33 0.79,0.33 0.26,0 0.41,-0.12 0.42,-0.12 -0.3,-0.05 -0.51,-0.29 -0.51,-0.55 0,-0.16 0.1,-0.35 0.37,-0.35 0.27,0 0.55,0.23 0.55,0.59 0,0.35 -0.32,0.65 -0.83,0.65 -0.64,0 -1.08,-0.49 -1.27,-0.77 -0.08,0.45 -0.44,0.77 -0.91,0.77 -0.45,0 -0.64,-0.39 -0.73,-0.57 -0.18,-0.34 -0.31,-0.93 -0.31,-0.96 0,-0.1 0.1,-0.1 0.12,-0.1 0.1,0 0.11,0.01 0.17,0.22 0.17,0.71 0.37,1.19 0.73,1.19 0.16,0 0.3,-0.08 0.3,-0.46 0,-0.21 -0.03,-0.32 -0.16,-0.83 z"
         inkscape:connector-curvature="0"
         style="fill:#000000;stroke-width:0" /></g>    <path
       style="fill:none;stroke:#000000;stroke-width:1px;stroke-linecap:butt;stroke-linejoin:miter;stroke-opacity:1"
       d="m -192.60531,792.40454 0,28.52691"
       id="path75467"
       inkscape:connector-curvature="0" />
    <path
       inkscape:connector-curvature="0"
       id="path75469"
       d="m -216.60531,792.40454 0,28.52691"
       style="fill:none;stroke:#000000;stroke-width:1px;stroke-linecap:butt;stroke-linejoin:miter;stroke-opacity:1" />
    <rect
       ry="3.0000007"
       rx="2.9999998"
       y="778.56787"
       x="-236.62837"
       height="26.374731"
       width="64.215195"
       id="rect75471"
       style="fill:#ffeeaa;fill-opacity:1;stroke:#000000;stroke-width:0.5;stroke-linecap:round;stroke-linejoin:miter;stroke-miterlimit:4;stroke-opacity:1;stroke-dasharray:none;stroke-dashoffset:0" />
    <g
       style="font-style:normal;font-variant:normal;font-weight:normal;font-stretch:normal;letter-spacing:normal;word-spacing:normal;text-anchor:start;fill:none;stroke:#000000;stroke-linecap:butt;stroke-linejoin:miter;stroke-miterlimit:10.43299961;stroke-opacity:1;stroke-dasharray:none;stroke-dashoffset:0"
       ns0:preamble="/home/milan/phd/Dokumente/tex/graphics/svg_mathbbm.tex"
       ns0:text="$l$"
       word-spacing="normal"
       letter-spacing="normal"
       font-size-adjust="none"
       font-stretch="normal"
       font-weight="normal"
       font-variant="normal"
       font-style="normal"
       stroke-miterlimit="10.433"
       xml:space="preserve"
       transform="matrix(1.25,0,0,-1.25,-525.97967,1670.723)"
       id="g75473"><path
         style="fill:#000000;stroke-width:0"
         inkscape:connector-curvature="0"
         id="path75475"
         d="m 226,713.91 0,0 0,0 0,0 0,0 0,0.01 0,0 0,0 0,0.01 0,0 0,0.01 0,0 -0.01,0 0,0.01 0,0 0,0.01 0,0 -0.01,0.01 0,0 0,0.01 -0.01,0 0,0.01 0,0 -0.01,0 0,0 0,0.01 -0.01,0 0,0 0,0 -0.01,0 0,0.01 0,0 -0.01,0 0,0 0,0 -0.01,0 0,0 -0.01,0 0,0.01 -0.01,0 0,0 -0.01,0 0,0 -0.01,0 0,0 -0.01,0 c -0.23,0 -0.96,-0.08 -1.21,-0.1 -0.08,-0.01 -0.19,-0.02 -0.19,-0.21 0,-0.11 0.1,-0.11 0.24,-0.11 0.48,0 0.49,-0.09 0.49,-0.17 l -0.03,-0.2 -1.25,-4.96 c -0.03,-0.11 -0.05,-0.18 -0.05,-0.34 0,-0.57 0.44,-0.91 0.9,-0.91 0.33,0 0.58,0.19 0.75,0.55 0.18,0.38 0.3,0.96 0.3,0.98 0,0.1 -0.09,0.1 -0.12,0.1 -0.1,0 -0.11,-0.05 -0.14,-0.18 -0.17,-0.65 -0.36,-1.24 -0.76,-1.24 -0.29,0 -0.29,0.32 -0.29,0.46 0,0.24 0.01,0.29 0.06,0.48 z" /></g>    <g
       style="font-style:normal;font-variant:normal;font-weight:normal;font-stretch:normal;letter-spacing:normal;word-spacing:normal;text-anchor:start;fill:none;stroke:#000000;stroke-linecap:butt;stroke-linejoin:miter;stroke-miterlimit:10.43299961;stroke-opacity:1;stroke-dasharray:none;stroke-dashoffset:0"
       ns0:preamble="/home/milan/phd/Dokumente/tex/graphics/svg_mathbbm.tex"
       ns0:text="$j$"
       word-spacing="normal"
       letter-spacing="normal"
       font-size-adjust="none"
       font-stretch="normal"
       font-weight="normal"
       font-variant="normal"
       font-style="normal"
       stroke-miterlimit="10.433"
       xml:space="preserve"
       transform="matrix(1.25,0,0,-1.25,-469.09391,1701.6722)"
       id="g75477"><path
         style="fill:#000000;stroke-width:0"
         inkscape:connector-curvature="0"
         id="path75479"
         d="m 227.38,713.33 0,0.02 0,0.02 0,0.02 0,0.01 -0.01,0.02 0,0.02 -0.01,0.01 0,0.02 -0.01,0.01 -0.01,0.02 -0.01,0.02 0,0.01 -0.01,0.01 -0.01,0.02 -0.02,0.01 -0.01,0.01 -0.01,0.02 -0.01,0.01 -0.02,0.01 -0.01,0.01 -0.02,0.01 -0.01,0.01 -0.02,0 -0.02,0.01 -0.01,0.01 -0.02,0 -0.02,0.01 -0.02,0 -0.02,0.01 -0.02,0 -0.02,0 -0.03,0 c -0.23,0 -0.52,-0.23 -0.52,-0.53 0,-0.19 0.14,-0.35 0.37,-0.35 0.26,0 0.53,0.26 0.53,0.52 z" /><path
         style="fill:#000000;stroke-width:0"
         inkscape:connector-curvature="0"
         id="path75481"
         d="m 225.38,706.63 -0.02,-0.07 -0.02,-0.07 -0.02,-0.07 -0.02,-0.07 -0.03,-0.06 -0.02,-0.06 -0.03,-0.07 -0.03,-0.06 -0.03,-0.06 -0.03,-0.05 -0.04,-0.06 -0.03,-0.05 -0.04,-0.05 -0.03,-0.05 -0.04,-0.05 -0.04,-0.05 -0.04,-0.04 -0.04,-0.04 -0.05,-0.04 -0.04,-0.03 -0.04,-0.04 -0.05,-0.03 -0.05,-0.03 -0.04,-0.02 -0.05,-0.03 -0.05,-0.02 -0.05,-0.01 -0.05,-0.02 -0.05,-0.01 -0.05,-0.01 -0.05,0 -0.05,0 c -0.06,0 -0.21,0 -0.39,0.09 0.3,0.07 0.45,0.32 0.45,0.52 0,0.16 -0.11,0.35 -0.38,0.35 -0.25,0 -0.54,-0.21 -0.54,-0.57 0,-0.39 0.4,-0.61 0.88,-0.61 0.7,0 1.62,0.52 1.87,1.51 l 0.91,3.63 c 0.05,0.2 0.05,0.34 0.05,0.37 0,0.57 -0.41,0.92 -0.91,0.92 -1.02,0 -1.58,-1.44 -1.58,-1.53 0,-0.1 0.1,-0.1 0.12,-0.1 0.09,0 0.1,0.01 0.18,0.2 0.24,0.6 0.7,1.21 1.25,1.21 0.14,0 0.32,-0.04 0.32,-0.46 0,-0.23 -0.03,-0.34 -0.07,-0.51 z" /></g>    <g
       id="g75483"
       transform="matrix(1.25,0,0,-1.25,-493.09391,1701.6722)"
       xml:space="preserve"
       stroke-miterlimit="10.433"
       font-style="normal"
       font-variant="normal"
       font-weight="normal"
       font-stretch="normal"
       font-size-adjust="none"
       letter-spacing="normal"
       word-spacing="normal"
       ns0:text="$i$"
       ns0:preamble="/home/milan/phd/Dokumente/tex/graphics/svg_mathbbm.tex"
       style="font-style:normal;font-variant:normal;font-weight:normal;font-stretch:normal;letter-spacing:normal;word-spacing:normal;text-anchor:start;fill:none;stroke:#000000;stroke-linecap:butt;stroke-linejoin:miter;stroke-miterlimit:10.43299961;stroke-opacity:1;stroke-dasharray:none;stroke-dashoffset:0"><path
         style="fill:#000000;stroke-width:0"
         inkscape:connector-curvature="0"
         d="m 226.26,713.33 0,0.02 0,0.02 -0.01,0.02 0,0.02 0,0.01 -0.01,0.02 0,0.02 -0.01,0.01 0,0.02 -0.01,0.01 -0.01,0.02 -0.01,0.01 -0.01,0.02 -0.01,0.01 -0.01,0.01 -0.01,0.02 -0.01,0.01 -0.02,0.01 -0.01,0.01 -0.01,0.01 -0.02,0.01 -0.01,0.01 -0.02,0.01 -0.02,0 -0.01,0.01 -0.02,0.01 -0.02,0 -0.02,0 -0.02,0.01 -0.02,0 -0.02,0 -0.02,0 c -0.27,0 -0.54,-0.26 -0.54,-0.53 0,-0.18 0.14,-0.35 0.38,-0.35 0.23,0 0.53,0.23 0.53,0.52 z"
         id="path75485" /><path
         style="fill:#000000;stroke-width:0"
         inkscape:connector-curvature="0"
         d="m 225.5,709.6 0.01,0.02 0.01,0.03 0.01,0.02 0.01,0.02 0.01,0.03 0.01,0.02 0,0.01 0.01,0.02 0.01,0.02 0.01,0.02 0,0.01 0.01,0.02 0,0.01 0.01,0.02 0.01,0.02 0.01,0.03 0.01,0.03 0,0.02 0.01,0.01 0.01,0.02 0,0.01 0.01,0.02 0,0.02 0.01,0.02 0.01,0.01 0,0.03 0.01,0.02 0.01,0.02 0.01,0.02 c 0.08,0.2 0.13,0.34 0.13,0.53 0,0.45 -0.32,0.82 -0.82,0.82 -0.93,0 -1.31,-1.44 -1.31,-1.53 0,-0.1 0.1,-0.1 0.12,-0.1 0.1,0 0.11,0.02 0.16,0.18 0.27,0.93 0.67,1.23 1,1.23 0.08,0 0.25,0 0.25,-0.32 0,-0.21 -0.07,-0.42 -0.11,-0.52 -0.08,-0.26 -0.52,-1.41 -0.68,-1.84 -0.1,-0.25 -0.23,-0.58 -0.23,-0.79 0,-0.47 0.34,-0.81 0.81,-0.81 0.94,0 1.31,1.44 1.31,1.53 0,0.1 -0.09,0.1 -0.12,0.1 -0.1,0 -0.1,-0.04 -0.15,-0.18 -0.18,-0.63 -0.51,-1.24 -1.02,-1.24 -0.16,0 -0.24,0.1 -0.24,0.33 0,0.25 0.06,0.39 0.29,0.99 z"
         id="path75487" /></g>    <g
       id="g75489"
       transform="matrix(1.25,0,0,-1.25,-443.97967,1670.723)"
       xml:space="preserve"
       stroke-miterlimit="10.433"
       font-style="normal"
       font-variant="normal"
       font-weight="normal"
       font-stretch="normal"
       font-size-adjust="none"
       letter-spacing="normal"
       word-spacing="normal"
       ns0:text="$r$"
       ns0:preamble="/home/milan/phd/Dokumente/tex/graphics/svg_mathbbm.tex"
       style="font-style:normal;font-variant:normal;font-weight:normal;font-stretch:normal;letter-spacing:normal;word-spacing:normal;text-anchor:start;fill:none;stroke:#000000;stroke-linecap:butt;stroke-linejoin:miter;stroke-miterlimit:10.43299961;stroke-opacity:1;stroke-dasharray:none;stroke-dashoffset:0"><path
         style="fill:#000000;stroke-width:0"
         inkscape:connector-curvature="0"
         d="m 224.31,707.71 0,-0.01 -0.01,-0.02 0,-0.01 0,-0.02 -0.01,-0.03 -0.01,-0.03 -0.01,-0.03 0,-0.04 -0.01,-0.03 -0.01,-0.03 0,-0.01 -0.01,-0.02 0,-0.01 0,-0.02 0,-0.01 -0.01,-0.01 0,-0.02 0,-0.01 0,-0.01 -0.01,-0.01 0,-0.01 0,-0.01 0,-0.01 0,0 0,-0.01 0,-0.01 c 0,-0.18 0.14,-0.26 0.29,-0.26 0.12,0 0.29,0.07 0.37,0.27 0.02,0.04 0.35,1.39 0.39,1.57 0.08,0.33 0.26,1.03 0.32,1.3 0.04,0.12 0.32,0.59 0.56,0.81 0.08,0.07 0.37,0.33 0.79,0.33 0.26,0 0.41,-0.12 0.42,-0.12 -0.3,-0.05 -0.51,-0.29 -0.51,-0.55 0,-0.16 0.1,-0.35 0.37,-0.35 0.27,0 0.55,0.23 0.55,0.59 0,0.35 -0.32,0.65 -0.83,0.65 -0.64,0 -1.08,-0.49 -1.27,-0.77 -0.08,0.45 -0.44,0.77 -0.91,0.77 -0.45,0 -0.64,-0.39 -0.73,-0.57 -0.18,-0.34 -0.31,-0.93 -0.31,-0.96 0,-0.1 0.1,-0.1 0.12,-0.1 0.1,0 0.11,0.01 0.17,0.22 0.17,0.71 0.37,1.19 0.73,1.19 0.16,0 0.3,-0.08 0.3,-0.46 0,-0.21 -0.03,-0.32 -0.16,-0.83 z"
         id="path75491" /></g>    <path
       inkscape:connector-curvature="0"
       inkscape:connector-type="polyline"
       id="path75493"
       d="m -404.41315,791.75524 h 51.78481"
       style="fill:none;stroke:#000000;stroke-width:1px;stroke-linecap:butt;stroke-linejoin:miter;stroke-opacity:1" />
    <path
       inkscape:connector-curvature="0"
       inkscape:connector-type="polyline"
       id="path75495"
       d="m -288.41315,791.75524 h 51.78481"
       style="fill:none;stroke:#000000;stroke-width:1px;stroke-linecap:butt;stroke-linejoin:miter;stroke-opacity:1" />
    <path
       inkscape:connector-curvature="0"
       inkscape:connector-type="polyline"
       id="path75497"
       d="m -172.41317,791.75524 h 31.94742"
       style="fill:none;stroke:#000000;stroke-width:0.99999994px;stroke-linecap:butt;stroke-linejoin:miter;stroke-opacity:1" />
    <path
       inkscape:connector-curvature="0"
       inkscape:connector-type="polyline"
       id="path75499"
       d="m -468.62834,791.81538 -28.72604,0.0538"
       style="fill:none;stroke:#000000;stroke-width:1px;stroke-linecap:butt;stroke-linejoin:miter;stroke-opacity:1" />
    <g
       id="g75501"
       transform="matrix(1.25,0,0,-1.25,-737.2873,1678.156)"
       xml:space="preserve"
       stroke-miterlimit="10.433"
       font-style="normal"
       font-variant="normal"
       font-weight="normal"
       font-stretch="normal"
       font-size-adjust="none"
       letter-spacing="normal"
       word-spacing="normal"
       ns0:text="$\\bigl(A_{i,j}\\bigr)_{l,r}$"
       ns0:preamble="/home/milan/phd/Dokumente/tex/graphics/svg_mathbbm.tex"
       style="font-style:normal;font-variant:normal;font-weight:normal;font-stretch:normal;letter-spacing:normal;word-spacing:normal;text-anchor:start;fill:none;stroke:#000000;stroke-linecap:butt;stroke-linejoin:miter;stroke-miterlimit:10.43299961;stroke-opacity:1;stroke-dasharray:none;stroke-dashoffset:0"><path
         style="fill:#000000;stroke-width:0"
         inkscape:connector-curvature="0"
         d="m 227.54,703.78 0,0 0,0.01 0,0 0,0.01 0,0 0,0 0,0 0,0.01 0,0 0,0 -0.01,0.01 0,0 0,0 0,0 0,0.01 0,0 0,0 -0.01,0.01 0,0 0,0.01 -0.01,0 0,0.01 -0.01,0 0,0.01 c -0.46,0.49 -1.13,1.29 -1.55,2.91 -0.23,0.9 -0.32,1.93 -0.32,2.85 0,2.61 0.63,4.44 1.82,5.73 0.09,0.09 0.09,0.11 0.09,0.13 0,0.1 -0.08,0.1 -0.12,0.1 -0.15,0 -0.68,-0.59 -0.81,-0.74 -1.02,-1.2 -1.67,-2.99 -1.67,-5.21 0,-1.41 0.25,-3.41 1.56,-5.08 0.1,-0.12 0.74,-0.88 0.92,-0.88 0.04,0 0.12,0 0.12,0.1 z"
         id="path75503" /><path
         style="fill:#000000;stroke-width:0"
         inkscape:connector-curvature="0"
         d="m 229.78,708.27 -0.04,-0.06 -0.04,-0.06 -0.03,-0.06 -0.04,-0.05 -0.04,-0.05 -0.03,-0.04 -0.04,-0.05 -0.04,-0.04 -0.04,-0.04 -0.03,-0.04 -0.04,-0.03 -0.04,-0.03 -0.04,-0.03 -0.03,-0.03 -0.04,-0.02 -0.04,-0.03 -0.04,-0.02 -0.03,-0.02 -0.04,-0.02 -0.04,-0.02 -0.04,-0.01 -0.04,-0.01 -0.04,-0.02 -0.03,-0.01 -0.04,-0.01 -0.04,-0.01 -0.04,0 -0.04,-0.01 -0.08,-0.01 -0.09,-0.01 c -0.11,-0.01 -0.2,-0.01 -0.2,-0.2 0,-0.06 0.05,-0.11 0.13,-0.11 0.26,0 0.57,0.04 0.85,0.04 0.33,0 0.68,-0.04 1,-0.04 0.06,0 0.18,0 0.18,0.19 0,0.11 -0.08,0.12 -0.15,0.12 -0.23,0.02 -0.47,0.1 -0.47,0.35 0,0.12 0.06,0.23 0.14,0.37 l 0.75,1.27 h 2.5 l -0.03,0.31 h -2.28 l 1.96,3.28 0.32,-3.28 0.03,-0.31 c 0.02,-0.21 0.16,-1.56 0.16,-1.66 0,-0.3 -0.52,-0.33 -0.72,-0.33 -0.13,0 -0.23,0 -0.23,-0.2 0,-0.11 0.11,-0.11 0.13,-0.11 0.41,0 0.84,0.04 1.25,0.04 0.25,0 0.87,-0.04 1.12,-0.04 0.06,0 0.18,0 0.18,0.2 0,0.11 -0.1,0.11 -0.23,0.11 -0.61,0 -0.61,0.07 -0.64,0.36 l -0.61,6.21 c -0.02,0.2 -0.02,0.24 -0.19,0.24 -0.16,0 -0.2,-0.07 -0.26,-0.17 z"
         id="path75505" /><path
         style="fill:#000000;stroke-width:0"
         inkscape:connector-curvature="0"
         d="m 237.73,709.98 0,0.01 0,0.01 -0.01,0.01 0,0.01 0,0.01 0,0.01 -0.01,0.01 0,0.02 0,0.01 -0.01,0.01 0,0.01 -0.01,0.01 -0.01,0.01 0,0.01 -0.01,0.01 -0.01,0.01 -0.01,0.01 -0.01,0.01 -0.01,0.01 -0.01,0.01 -0.01,0 -0.01,0.01 -0.01,0.01 -0.02,0.01 -0.01,0 -0.01,0.01 -0.02,0 -0.01,0 -0.02,0.01 -0.02,0 -0.01,0 -0.02,0 c -0.19,0 -0.39,-0.18 -0.39,-0.38 0,-0.12 0.09,-0.27 0.28,-0.27 0.2,0 0.39,0.2 0.39,0.39 z"
         id="path75507" /><path
         style="fill:#000000;stroke-width:0"
         inkscape:connector-curvature="0"
         d="m 236.31,706.45 -0.01,-0.02 0,-0.02 -0.02,-0.03 0,-0.02 -0.01,-0.02 0,-0.01 -0.01,-0.02 0,-0.02 0,-0.02 -0.01,-0.02 0,-0.01 0,-0.01 0,-0.01 0,-0.01 -0.01,-0.01 0,-0.02 0,-0.01 0,-0.01 0,-0.01 c 0,-0.32 0.28,-0.59 0.66,-0.59 0.7,0 1.01,0.96 1.01,1.06 0,0.1 -0.09,0.1 -0.11,0.1 -0.1,0 -0.11,-0.05 -0.14,-0.12 -0.16,-0.56 -0.46,-0.84 -0.73,-0.84 -0.14,0 -0.18,0.09 -0.18,0.24 0,0.16 0.05,0.29 0.11,0.45 0.07,0.18 0.15,0.37 0.23,0.55 0.06,0.17 0.31,0.8 0.34,0.88 0.02,0.07 0.04,0.16 0.04,0.23 0,0.32 -0.28,0.59 -0.66,0.59 -0.69,0 -1.01,-0.95 -1.01,-1.07 0,-0.09 0.1,-0.09 0.12,-0.09 0.09,0 0.1,0.04 0.12,0.11 0.18,0.6 0.49,0.85 0.75,0.85 0.11,0 0.17,-0.05 0.17,-0.24 0,-0.16 -0.04,-0.27 -0.22,-0.7 z"
         id="path75509" /><path
         style="fill:#000000;stroke-width:0"
         inkscape:connector-curvature="0"
         d="m 239.76,705.74 0,-0.07 -0.01,-0.07 0,-0.08 -0.01,-0.08 -0.01,-0.03 0,-0.04 -0.01,-0.04 -0.01,-0.04 -0.01,-0.04 -0.01,-0.04 -0.01,-0.04 -0.02,-0.04 -0.01,-0.04 -0.02,-0.04 -0.02,-0.04 -0.01,-0.04 -0.03,-0.04 -0.02,-0.04 -0.02,-0.05 -0.03,-0.04 -0.03,-0.04 -0.03,-0.04 -0.03,-0.04 -0.04,-0.04 -0.03,-0.04 -0.04,-0.05 -0.04,-0.04 -0.05,-0.04 c -0.02,-0.03 -0.04,-0.05 -0.04,-0.08 0,-0.05 0.05,-0.1 0.09,-0.1 0.1,0 0.69,0.55 0.69,1.38 0,0.43 -0.16,0.76 -0.48,0.76 -0.23,0 -0.4,-0.18 -0.4,-0.4 0,-0.22 0.16,-0.4 0.4,-0.4 0.17,0 0.28,0.11 0.29,0.11 z"
         id="path75511" /><path
         style="fill:#000000;stroke-width:0"
         inkscape:connector-curvature="0"
         d="m 243.71,709.98 0,0.01 0,0.01 0,0.01 0,0.01 0,0.01 -0.01,0.02 0,0.01 0,0.01 -0.01,0.01 0,0.01 -0.01,0.01 -0.01,0.01 0,0.01 -0.01,0.01 -0.01,0.01 -0.01,0.01 -0.01,0.01 0,0.01 -0.01,0.01 -0.02,0.01 -0.01,0.01 -0.01,0 -0.01,0.01 -0.01,0.01 -0.02,0 -0.01,0.01 -0.02,0 -0.01,0 -0.02,0.01 -0.01,0 -0.02,0 -0.02,0 c -0.2,0 -0.39,-0.19 -0.39,-0.38 0,-0.11 0.09,-0.27 0.28,-0.27 0.19,0 0.39,0.19 0.39,0.39 z"
         id="path75513" /><path
         style="fill:#000000;stroke-width:0"
         inkscape:connector-curvature="0"
         d="m 242.24,705.29 -0.02,-0.04 -0.01,-0.05 -0.01,-0.04 -0.02,-0.05 -0.02,-0.04 -0.02,-0.04 -0.02,-0.04 -0.02,-0.04 -0.02,-0.04 -0.02,-0.04 -0.03,-0.03 -0.02,-0.04 -0.03,-0.04 -0.03,-0.03 -0.02,-0.03 -0.03,-0.03 -0.03,-0.03 -0.04,-0.03 -0.03,-0.03 -0.03,-0.02 -0.03,-0.02 -0.04,-0.02 -0.03,-0.02 -0.04,-0.02 -0.03,-0.02 -0.04,-0.01 -0.03,-0.01 -0.04,-0.01 -0.04,-0.01 -0.04,-0.01 -0.03,0 -0.04,0 c -0.09,0 -0.18,0.01 -0.25,0.04 0.18,0.08 0.23,0.25 0.23,0.35 0,0.17 -0.13,0.26 -0.27,0.26 -0.21,0 -0.4,-0.19 -0.4,-0.41 0,-0.26 0.28,-0.44 0.7,-0.44 0.41,0 1.23,0.25 1.44,1.1 l 0.63,2.49 c 0.02,0.08 0.04,0.14 0.04,0.24 0,0.39 -0.33,0.66 -0.75,0.66 -0.77,0 -1.22,-0.97 -1.22,-1.07 0,-0.09 0.1,-0.09 0.12,-0.09 0.08,0 0.09,0.02 0.14,0.13 0.17,0.4 0.54,0.83 0.94,0.83 0.17,0 0.24,-0.11 0.24,-0.34 0,-0.07 -0.02,-0.17 -0.03,-0.21 z"
         id="path75515" /><path
         style="fill:#000000;stroke-width:0"
         inkscape:connector-curvature="0"
         d="m 247.89,709.63 -0.01,0.27 -0.01,0.29 -0.01,0.29 -0.03,0.31 -0.04,0.31 -0.05,0.32 -0.06,0.32 -0.08,0.33 -0.04,0.17 -0.05,0.17 -0.05,0.17 -0.06,0.16 -0.06,0.17 -0.07,0.17 -0.07,0.17 -0.07,0.16 -0.08,0.17 -0.09,0.17 -0.09,0.16 -0.09,0.17 -0.11,0.16 -0.1,0.16 -0.12,0.16 -0.11,0.16 c -0.1,0.12 -0.75,0.87 -0.93,0.87 -0.05,0 -0.12,-0.02 -0.12,-0.1 0,-0.04 0.02,-0.07 0.06,-0.1 0.48,-0.51 1.13,-1.32 1.53,-2.9 0.23,-0.9 0.32,-1.92 0.32,-2.85 0,-1 -0.09,-2.02 -0.35,-2.99 -0.37,-1.39 -0.96,-2.18 -1.47,-2.74 -0.09,-0.09 -0.09,-0.11 -0.09,-0.13 0,-0.08 0.07,-0.1 0.12,-0.1 0.15,0 0.7,0.61 0.82,0.75 1.01,1.2 1.66,2.99 1.66,5.2 z"
         id="path75517" /><path
         style="fill:#000000;stroke-width:0"
         inkscape:connector-curvature="0"
         d="m 251.38,707.76 0,0 0,0 0,0 0,0 0,0 0.01,0 0,0 0,0.01 0,0 0,0 0,0.01 0,0 0,0 0,0.01 0,0 0,0.01 0.01,0 0,0.01 0,0.01 0,0.01 0,0 0,0 0,0.01 0.01,0 0,0.01 0,0 0,0 0,0.01 0,0 0,0 0,0 0,0 0,0 0,0 0,0.01 0,0 0,0 0,0 0,0 0,0 c 0,0.03 -0.03,0.1 -0.11,0.1 -0.14,0 -0.72,-0.06 -0.89,-0.07 -0.05,-0.01 -0.15,-0.02 -0.15,-0.16 0,-0.1 0.1,-0.1 0.18,-0.1 0.33,0 0.33,-0.05 0.33,-0.11 0,-0.04 -0.01,-0.09 -0.03,-0.15 l -0.86,-3.43 c -0.02,-0.07 -0.03,-0.15 -0.03,-0.22 0,-0.44 0.4,-0.66 0.73,-0.66 0.17,0 0.38,0.06 0.56,0.37 0.15,0.26 0.24,0.67 0.24,0.69 0,0.09 -0.09,0.09 -0.11,0.09 -0.1,0 -0.11,-0.04 -0.14,-0.16 -0.09,-0.35 -0.22,-0.79 -0.52,-0.79 -0.19,0 -0.24,0.17 -0.24,0.34 0,0.07 0.02,0.21 0.04,0.28 z"
         id="path75519" /><path
         style="fill:#000000;stroke-width:0"
         inkscape:connector-curvature="0"
         d="m 253.45,703.25 0,-0.07 0,-0.08 -0.01,-0.07 -0.01,-0.08 0,-0.03 -0.01,-0.04 -0.01,-0.04 -0.01,-0.04 -0.01,-0.04 -0.01,-0.04 -0.01,-0.04 -0.01,-0.04 -0.02,-0.04 -0.02,-0.04 -0.01,-0.04 -0.02,-0.04 -0.02,-0.04 -0.03,-0.05 -0.02,-0.04 -0.03,-0.04 -0.03,-0.04 -0.03,-0.04 -0.03,-0.04 -0.03,-0.04 -0.04,-0.05 -0.04,-0.04 -0.04,-0.04 -0.04,-0.04 c -0.03,-0.03 -0.05,-0.05 -0.05,-0.08 0,-0.05 0.05,-0.1 0.1,-0.1 0.09,0 0.69,0.55 0.69,1.38 0,0.43 -0.17,0.76 -0.49,0.76 -0.23,0 -0.4,-0.18 -0.4,-0.4 0,-0.22 0.16,-0.4 0.4,-0.4 0.17,0 0.28,0.11 0.29,0.11 z"
         id="path75521" /><path
         style="fill:#000000;stroke-width:0"
         inkscape:connector-curvature="0"
         d="m 255.98,704.54 0,0.01 0,0 0,0 0.01,0.01 0,0 0,0.01 0,0.01 0,0.01 0,0 0.01,0.01 0,0.01 0,0.01 0,0.01 0.01,0.01 0,0.03 0.01,0.02 0.01,0.03 0,0.03 0.01,0.03 0.01,0.03 0.01,0.03 0.01,0.06 0.02,0.06 0,0.03 0.01,0.03 0.01,0.03 0.01,0.03 0,0.02 0.01,0.03 0.01,0.02 0,0.01 0,0.01 0.01,0.01 0,0.01 0,0.01 0,0.01 0,0.01 0.01,0 0,0.01 0,0 0,0.01 0,0 0,0 0,0.01 c 0.02,0.05 0.22,0.4 0.44,0.57 0.08,0.05 0.27,0.19 0.57,0.19 0.07,0 0.24,0 0.38,-0.1 -0.22,-0.06 -0.31,-0.25 -0.31,-0.38 0,-0.15 0.12,-0.25 0.28,-0.25 0.16,0 0.39,0.13 0.39,0.42 0,0.36 -0.38,0.51 -0.74,0.51 -0.36,0 -0.67,-0.15 -0.98,-0.5 -0.12,0.43 -0.55,0.5 -0.71,0.5 -0.26,0 -0.44,-0.16 -0.55,-0.36 -0.16,-0.27 -0.26,-0.67 -0.26,-0.71 0,-0.09 0.1,-0.09 0.12,-0.09 0.1,0 0.11,0.02 0.16,0.21 0.1,0.42 0.23,0.75 0.5,0.75 0.18,0 0.23,-0.15 0.23,-0.34 0,-0.13 -0.06,-0.39 -0.11,-0.58 -0.05,-0.18 -0.12,-0.47 -0.15,-0.62 l -0.22,-0.89 c -0.03,-0.09 -0.07,-0.27 -0.07,-0.29 0,-0.15 0.12,-0.22 0.23,-0.22 0.11,0 0.25,0.06 0.3,0.2 0.02,0.04 0.09,0.35 0.13,0.52 z"
         id="path75523" /></g>    <g
       style="font-style:normal;font-variant:normal;font-weight:normal;font-stretch:normal;letter-spacing:normal;word-spacing:normal;text-anchor:start;fill:none;stroke:#000000;stroke-linecap:butt;stroke-linejoin:miter;stroke-miterlimit:10.43299961;stroke-opacity:1;stroke-dasharray:none;stroke-dashoffset:0"
       ns0:preamble="/home/milan/phd/Dokumente/tex/graphics/svg_mathbbm.tex"
       ns0:text="$\\bigl(B_{i,j}\\bigr)_{l,r}$"
       word-spacing="normal"
       letter-spacing="normal"
       font-size-adjust="none"
       font-stretch="normal"
       font-weight="normal"
       font-variant="normal"
       font-style="normal"
       stroke-miterlimit="10.433"
       xml:space="preserve"
       transform="matrix(1.25,0,0,-1.25,-621.2873,1678.156)"
       id="g75525"><path
         id="path75527"
         d="m 227.54,703.78 0,0 0,0.01 0,0 0,0.01 0,0 0,0 0,0 0,0.01 0,0 0,0 -0.01,0.01 0,0 0,0 0,0 0,0.01 0,0 0,0 -0.01,0.01 0,0 0,0.01 -0.01,0 0,0.01 -0.01,0 0,0.01 c -0.46,0.49 -1.13,1.29 -1.55,2.91 -0.23,0.9 -0.32,1.93 -0.32,2.85 0,2.61 0.63,4.44 1.82,5.73 0.09,0.09 0.09,0.11 0.09,0.13 0,0.1 -0.08,0.1 -0.12,0.1 -0.15,0 -0.68,-0.59 -0.81,-0.74 -1.02,-1.2 -1.67,-2.99 -1.67,-5.21 0,-1.41 0.25,-3.41 1.56,-5.08 0.1,-0.12 0.74,-0.88 0.92,-0.88 0.04,0 0.12,0 0.12,0.1 z"
         inkscape:connector-curvature="0"
         style="fill:#000000;stroke-width:0" /><path
         id="path75529"
         d="m 229.59,707.9 -0.01,-0.04 -0.01,-0.03 -0.01,-0.03 -0.01,-0.03 0,-0.03 -0.01,-0.03 -0.01,-0.02 -0.01,-0.03 -0.01,-0.02 -0.02,-0.02 -0.01,-0.02 -0.01,-0.02 -0.02,-0.02 -0.02,-0.01 -0.02,-0.02 -0.02,-0.01 -0.02,-0.01 -0.02,-0.01 -0.03,-0.01 -0.03,-0.01 -0.03,-0.01 -0.02,0 -0.02,-0.01 -0.02,0 -0.02,0 -0.02,-0.01 -0.02,0 -0.02,0 -0.02,0 -0.02,-0.01 -0.03,0 -0.02,0 -0.03,0 -0.03,0 -0.03,0 -0.02,0 -0.03,0 -0.04,-0.01 -0.03,0 -0.03,0 -0.03,0 -0.04,0 -0.04,0 c -0.17,0 -0.26,0 -0.26,-0.2 0,-0.11 0.09,-0.11 0.26,-0.11 h 3.56 c 1.57,0 2.74,1.18 2.74,2.15 0,0.72 -0.58,1.29 -1.54,1.4 1.04,0.19 2.08,0.92 2.08,1.87 0,0.73 -0.66,1.37 -1.85,1.37 l -0.14,-0.31 c 0.87,0 1.08,-0.58 1.08,-1.02 0,-0.87 -0.85,-1.82 -2.07,-1.82 h -1.45 l -0.06,-0.22 h 1.88 c 0.96,0 1.15,-0.73 1.15,-1.16 0,-0.98 -0.89,-1.95 -2.06,-1.95 h -1.36 c -0.13,0 -0.15,0 -0.21,0.01 -0.1,0.01 -0.13,0.02 -0.13,0.1 0,0.03 0,0.05 0.05,0.23 l 0.68,2.77 0.06,0.22 0.62,2.46 c 0.09,0.35 0.11,0.38 0.54,0.38 h 1.28 l 0.14,0.31 h -3.34 c -0.19,0 -0.29,0 -0.29,-0.2 0,-0.11 0.09,-0.11 0.28,-0.11 0.02,0 0.2,0 0.37,-0.02 0.18,-0.02 0.27,-0.03 0.27,-0.16 0,-0.04 -0.01,-0.07 -0.04,-0.19 z"
         inkscape:connector-curvature="0"
         style="fill:#000000;stroke-width:0" /><path
         id="path75531"
         d="m 237.81,709.98 0,0.01 0,0.01 0,0.01 0,0.01 -0.01,0.01 0,0.01 0,0.01 -0.01,0.02 0,0.01 0,0.01 -0.01,0.01 -0.01,0.01 0,0.01 -0.01,0.01 -0.01,0.01 0,0.01 -0.01,0.01 -0.01,0.01 -0.01,0.01 -0.01,0.01 -0.01,0 -0.02,0.01 -0.01,0.01 -0.01,0.01 -0.01,0 -0.02,0.01 -0.01,0 -0.02,0 -0.02,0.01 -0.01,0 -0.02,0 -0.02,0 c -0.18,0 -0.39,-0.18 -0.39,-0.38 0,-0.12 0.09,-0.27 0.28,-0.27 0.2,0 0.39,0.2 0.39,0.39 z"
         inkscape:connector-curvature="0"
         style="fill:#000000;stroke-width:0" /><path
         id="path75533"
         d="m 236.39,706.45 0,-0.02 -0.01,-0.02 -0.01,-0.03 -0.01,-0.02 0,-0.02 -0.01,-0.01 0,-0.02 -0.01,-0.02 0,-0.02 0,-0.02 -0.01,-0.01 0,-0.01 0,-0.01 0,-0.01 0,-0.01 0,-0.02 0,-0.01 0,-0.01 0,-0.01 c 0,-0.32 0.28,-0.59 0.66,-0.59 0.7,0 1,0.96 1,1.06 0,0.1 -0.09,0.1 -0.11,0.1 -0.1,0 -0.1,-0.05 -0.13,-0.12 -0.16,-0.56 -0.47,-0.84 -0.74,-0.84 -0.14,0 -0.17,0.09 -0.17,0.24 0,0.16 0.04,0.29 0.11,0.45 0.07,0.18 0.14,0.37 0.22,0.55 0.06,0.17 0.31,0.8 0.34,0.88 0.02,0.07 0.04,0.16 0.04,0.23 0,0.32 -0.28,0.59 -0.66,0.59 -0.69,0 -1.01,-0.95 -1.01,-1.07 0,-0.09 0.1,-0.09 0.12,-0.09 0.1,0 0.1,0.04 0.13,0.11 0.18,0.6 0.48,0.85 0.74,0.85 0.11,0 0.17,-0.05 0.17,-0.24 0,-0.16 -0.04,-0.27 -0.21,-0.7 z"
         inkscape:connector-curvature="0"
         style="fill:#000000;stroke-width:0" /><path
         id="path75535"
         d="m 239.84,705.74 0,-0.07 0,-0.07 -0.01,-0.08 -0.01,-0.08 0,-0.03 -0.01,-0.04 -0.01,-0.04 0,-0.04 -0.01,-0.04 -0.01,-0.04 -0.02,-0.04 -0.01,-0.04 -0.02,-0.04 -0.01,-0.04 -0.02,-0.04 -0.02,-0.04 -0.02,-0.04 -0.02,-0.04 -0.03,-0.05 -0.03,-0.04 -0.02,-0.04 -0.03,-0.04 -0.04,-0.04 -0.03,-0.04 -0.04,-0.04 -0.04,-0.05 -0.04,-0.04 -0.04,-0.04 c -0.03,-0.03 -0.05,-0.05 -0.05,-0.08 0,-0.05 0.06,-0.1 0.1,-0.1 0.1,0 0.69,0.55 0.69,1.38 0,0.43 -0.17,0.76 -0.49,0.76 -0.23,0 -0.4,-0.18 -0.4,-0.4 0,-0.22 0.16,-0.4 0.41,-0.4 0.17,0 0.28,0.11 0.28,0.11 z"
         inkscape:connector-curvature="0"
         style="fill:#000000;stroke-width:0" /><path
         id="path75537"
         d="m 243.8,709.98 0,0.01 0,0.01 -0.01,0.01 0,0.01 0,0.01 0,0.02 -0.01,0.01 0,0.01 0,0.01 -0.01,0.01 -0.01,0.01 0,0.01 -0.01,0.01 -0.01,0.01 0,0.01 -0.01,0.01 -0.01,0.01 -0.01,0.01 -0.01,0.01 -0.01,0.01 -0.01,0.01 -0.01,0 -0.02,0.01 -0.01,0.01 -0.01,0 -0.02,0.01 -0.01,0 -0.02,0 -0.01,0.01 -0.02,0 -0.01,0 -0.02,0 c -0.2,0 -0.39,-0.19 -0.39,-0.38 0,-0.11 0.08,-0.27 0.28,-0.27 0.19,0 0.39,0.19 0.39,0.39 z"
         inkscape:connector-curvature="0"
         style="fill:#000000;stroke-width:0" /><path
         id="path75539"
         d="m 242.32,705.29 -0.01,-0.04 -0.01,-0.05 -0.02,-0.04 -0.01,-0.05 -0.02,-0.04 -0.02,-0.04 -0.02,-0.04 -0.02,-0.04 -0.02,-0.04 -0.03,-0.04 -0.02,-0.03 -0.03,-0.04 -0.02,-0.04 -0.03,-0.03 -0.03,-0.03 -0.03,-0.03 -0.03,-0.03 -0.03,-0.03 -0.03,-0.03 -0.03,-0.02 -0.04,-0.02 -0.03,-0.02 -0.04,-0.02 -0.03,-0.02 -0.04,-0.02 -0.03,-0.01 -0.04,-0.01 -0.04,-0.01 -0.03,-0.01 -0.04,-0.01 -0.04,0 -0.04,0 c -0.09,0 -0.17,0.01 -0.25,0.04 0.18,0.08 0.24,0.25 0.24,0.35 0,0.17 -0.13,0.26 -0.27,0.26 -0.22,0 -0.4,-0.19 -0.4,-0.41 0,-0.26 0.27,-0.44 0.69,-0.44 0.42,0 1.23,0.25 1.45,1.1 l 0.63,2.49 c 0.02,0.08 0.03,0.14 0.03,0.24 0,0.39 -0.33,0.66 -0.75,0.66 -0.77,0 -1.21,-0.97 -1.21,-1.07 0,-0.09 0.09,-0.09 0.11,-0.09 0.09,0 0.1,0.02 0.14,0.13 0.18,0.4 0.54,0.83 0.94,0.83 0.18,0 0.24,-0.11 0.24,-0.34 0,-0.07 -0.01,-0.17 -0.02,-0.21 z"
         inkscape:connector-curvature="0"
         style="fill:#000000;stroke-width:0" /><path
         id="path75541"
         d="m 247.97,709.63 0,0.27 -0.01,0.29 -0.02,0.29 -0.03,0.31 -0.04,0.31 -0.05,0.32 -0.06,0.32 -0.08,0.33 -0.04,0.17 -0.05,0.17 -0.05,0.17 -0.06,0.16 -0.06,0.17 -0.06,0.17 -0.07,0.17 -0.08,0.16 -0.08,0.17 -0.08,0.17 -0.09,0.16 -0.1,0.17 -0.1,0.16 -0.11,0.16 -0.11,0.16 -0.12,0.16 c -0.1,0.12 -0.75,0.87 -0.93,0.87 -0.04,0 -0.11,-0.02 -0.11,-0.1 0,-0.04 0.02,-0.07 0.05,-0.1 0.48,-0.51 1.13,-1.32 1.54,-2.9 0.23,-0.9 0.32,-1.92 0.32,-2.85 0,-1 -0.09,-2.02 -0.35,-2.99 -0.38,-1.39 -0.97,-2.18 -1.48,-2.74 -0.08,-0.09 -0.08,-0.11 -0.08,-0.13 0,-0.08 0.07,-0.1 0.11,-0.1 0.15,0 0.7,0.61 0.82,0.75 1.02,1.2 1.66,2.99 1.66,5.2 z"
         inkscape:connector-curvature="0"
         style="fill:#000000;stroke-width:0" /><path
         id="path75543"
         d="m 251.47,707.76 0,0 0,0 0,0 0,0 0,0 0,0 0,0 0,0.01 0,0 0,0 0,0.01 0.01,0 0,0 0,0.01 0,0 0,0.01 0,0 0,0.01 0,0.01 0.01,0.01 0,0 0,0 0,0.01 0,0 0,0.01 0,0 0,0 0,0.01 0,0 0,0 0,0 0.01,0 0,0 0,0 0,0.01 0,0 0,0 0,0 0,0 0,0 c 0,0.03 -0.03,0.1 -0.12,0.1 -0.14,0 -0.71,-0.06 -0.89,-0.07 -0.05,-0.01 -0.14,-0.02 -0.14,-0.16 0,-0.1 0.09,-0.1 0.17,-0.1 0.33,0 0.33,-0.05 0.33,-0.11 0,-0.04 -0.01,-0.09 -0.02,-0.15 l -0.87,-3.43 c -0.02,-0.07 -0.02,-0.15 -0.02,-0.22 0,-0.44 0.39,-0.66 0.73,-0.66 0.16,0 0.37,0.06 0.55,0.37 0.15,0.26 0.25,0.67 0.25,0.69 0,0.09 -0.09,0.09 -0.11,0.09 -0.1,0 -0.12,-0.04 -0.14,-0.16 -0.09,-0.35 -0.23,-0.79 -0.52,-0.79 -0.19,0 -0.24,0.17 -0.24,0.34 0,0.07 0.02,0.21 0.04,0.28 z"
         inkscape:connector-curvature="0"
         style="fill:#000000;stroke-width:0" /><path
         id="path75545"
         d="m 253.54,703.25 -0.01,-0.07 0,-0.08 0,-0.07 -0.01,-0.08 -0.01,-0.03 -0.01,-0.04 0,-0.04 -0.01,-0.04 -0.01,-0.04 -0.01,-0.04 -0.02,-0.04 -0.01,-0.04 -0.01,-0.04 -0.02,-0.04 -0.02,-0.04 -0.02,-0.04 -0.02,-0.04 -0.02,-0.05 -0.03,-0.04 -0.02,-0.04 -0.03,-0.04 -0.03,-0.04 -0.03,-0.04 -0.04,-0.04 -0.04,-0.05 -0.03,-0.04 -0.04,-0.04 -0.05,-0.04 c -0.03,-0.03 -0.05,-0.05 -0.05,-0.08 0,-0.05 0.06,-0.1 0.1,-0.1 0.1,0 0.69,0.55 0.69,1.38 0,0.43 -0.17,0.76 -0.49,0.76 -0.23,0 -0.39,-0.18 -0.39,-0.4 0,-0.22 0.16,-0.4 0.4,-0.4 0.17,0 0.28,0.11 0.29,0.11 z"
         inkscape:connector-curvature="0"
         style="fill:#000000;stroke-width:0" /><path
         id="path75547"
         d="m 256.07,704.54 0,0.01 0,0 0,0 0,0.01 0,0 0,0.01 0.01,0.01 0,0.01 0,0 0,0.01 0,0.01 0.01,0.01 0,0.01 0,0.01 0.01,0.03 0,0.02 0.01,0.03 0.01,0.03 0,0.03 0.01,0.03 0.01,0.03 0.02,0.06 0.01,0.06 0.01,0.03 0.01,0.03 0,0.03 0.01,0.03 0.01,0.02 0.01,0.03 0,0.02 0,0.01 0.01,0.01 0,0.01 0,0.01 0.01,0.01 0,0.01 0,0.01 0,0 0,0.01 0,0 0.01,0.01 0,0 0,0 0,0.01 c 0.01,0.05 0.21,0.4 0.44,0.57 0.08,0.05 0.26,0.19 0.56,0.19 0.07,0 0.25,0 0.39,-0.1 -0.23,-0.06 -0.31,-0.25 -0.31,-0.38 0,-0.15 0.12,-0.25 0.28,-0.25 0.16,0 0.39,0.13 0.39,0.42 0,0.36 -0.39,0.51 -0.74,0.51 -0.36,0 -0.68,-0.15 -0.98,-0.5 -0.13,0.43 -0.55,0.5 -0.72,0.5 -0.26,0 -0.43,-0.16 -0.54,-0.36 -0.16,-0.27 -0.26,-0.67 -0.26,-0.71 0,-0.09 0.1,-0.09 0.12,-0.09 0.1,0 0.1,0.02 0.15,0.21 0.1,0.42 0.24,0.75 0.51,0.75 0.18,0 0.23,-0.15 0.23,-0.34 0,-0.13 -0.06,-0.39 -0.11,-0.58 -0.05,-0.18 -0.12,-0.47 -0.16,-0.62 l -0.22,-0.89 c -0.03,-0.09 -0.07,-0.27 -0.07,-0.29 0,-0.15 0.13,-0.22 0.24,-0.22 0.1,0 0.24,0.06 0.3,0.2 0.01,0.04 0.09,0.35 0.13,0.52 z"
         inkscape:connector-curvature="0"
         style="fill:#000000;stroke-width:0" /></g>    <g
       id="g75549"
       transform="matrix(1.25,0,0,-1.25,-505.2873,1678.156)"
       xml:space="preserve"
       stroke-miterlimit="10.433"
       font-style="normal"
       font-variant="normal"
       font-weight="normal"
       font-stretch="normal"
       font-size-adjust="none"
       letter-spacing="normal"
       word-spacing="normal"
       ns0:text="$\\bigl(C_{i,j}\\bigr)_{l,r}$"
       ns0:preamble="/home/milan/phd/Dokumente/tex/graphics/svg_mathbbm.tex"
       style="font-style:normal;font-variant:normal;font-weight:normal;font-stretch:normal;letter-spacing:normal;word-spacing:normal;text-anchor:start;fill:none;stroke:#000000;stroke-linecap:butt;stroke-linejoin:miter;stroke-miterlimit:10.43299961;stroke-dasharray:none;stroke-dashoffset:0;stroke-opacity:1"><path
         style="fill:#000000;stroke-width:0"
         inkscape:connector-curvature="0"
         d="m 227.54,703.78 v 0 0.01 0 0.01 0 0 0 0.01 0 0 l -0.01,0.01 v 0 0 0 0.01 0 0 l -0.01,0.01 v 0 0.01 h -0.01 v 0.01 h -0.01 v 0.01 c -0.46,0.49 -1.13,1.29 -1.55,2.91 -0.23,0.9 -0.32,1.93 -0.32,2.85 0,2.61 0.63,4.44 1.82,5.73 0.09,0.09 0.09,0.11 0.09,0.13 0,0.1 -0.08,0.1 -0.12,0.1 -0.15,0 -0.68,-0.59 -0.81,-0.74 -1.02,-1.2 -1.67,-2.99 -1.67,-5.21 0,-1.41 0.25,-3.41 1.56,-5.08 0.1,-0.12 0.74,-0.88 0.92,-0.88 0.04,0 0.12,0 0.12,0.1 z"
         id="path75551" /><path
         style="fill:#000000;stroke-width:0"
         inkscape:connector-curvature="0"
         d="m 235.56,714.03 v 0 0.01 0 0 0.01 0 0 l -0.01,0.01 v 0 0.01 0 0 0.01 h -0.01 v 0.01 0 0 l -0.01,0.01 v 0 h -0.01 v 0.01 0 h -0.01 l -0.01,0.01 v 0 0 h -0.01 v 0 0 h -0.01 v 0 0.01 h -0.01 v 0 0 h -0.01 v 0 h -0.01 v 0 c -0.03,0 -0.04,-0.01 -0.15,-0.12 l -0.7,-0.77 c -0.09,0.14 -0.54,0.89 -1.65,0.89 -2.22,0 -4.46,-2.2 -4.46,-4.5 0,-1.64 1.18,-2.72 2.7,-2.72 0.87,0 1.62,0.39 2.15,0.85 0.93,0.82 1.09,1.72 1.09,1.75 0,0.1 -0.09,0.1 -0.11,0.1 -0.06,0 -0.11,-0.02 -0.13,-0.1 -0.09,-0.29 -0.32,-0.99 -1.01,-1.57 -0.69,-0.56 -1.31,-0.73 -1.83,-0.73 -0.89,0 -1.95,0.52 -1.95,2.07 0,0.57 0.21,2.18 1.2,3.34 0.61,0.7 1.55,1.2 2.43,1.2 1.02,0 1.6,-0.77 1.6,-1.92 0,-0.39 -0.03,-0.4 -0.03,-0.5 0,-0.1 0.11,-0.1 0.15,-0.1 0.13,0 0.13,0.02 0.18,0.2 z"
         id="path75553" /><path
         style="fill:#000000;stroke-width:0"
         inkscape:connector-curvature="0"
         d="m 237.38,709.98 -0.01,0.01 v 0.01 0.01 0.01 0.01 0.01 l -0.01,0.01 v 0.02 l -0.01,0.01 v 0.01 l -0.01,0.01 v 0.01 l -0.01,0.01 -0.01,0.01 v 0.01 l -0.01,0.01 -0.01,0.01 -0.01,0.01 -0.01,0.01 -0.01,0.01 h -0.01 l -0.01,0.01 -0.01,0.01 -0.02,0.01 h -0.01 l -0.01,0.01 h -0.02 -0.02 l -0.01,0.01 h -0.02 -0.02 -0.01 c -0.19,0 -0.39,-0.18 -0.39,-0.38 0,-0.12 0.09,-0.27 0.28,-0.27 0.2,0 0.39,0.2 0.39,0.39 z"
         id="path75555" /><path
         style="fill:#000000;stroke-width:0"
         inkscape:connector-curvature="0"
         d="m 235.96,706.45 -0.01,-0.02 -0.01,-0.02 -0.01,-0.03 v -0.02 l -0.01,-0.02 v -0.01 l -0.01,-0.02 v -0.02 l -0.01,-0.02 v -0.02 -0.01 -0.01 -0.01 l -0.01,-0.01 v -0.01 -0.02 -0.01 -0.01 -0.01 c 0,-0.32 0.28,-0.59 0.66,-0.59 0.7,0 1.01,0.96 1.01,1.06 0,0.1 -0.09,0.1 -0.11,0.1 -0.1,0 -0.11,-0.05 -0.14,-0.12 -0.16,-0.56 -0.46,-0.84 -0.74,-0.84 -0.14,0 -0.17,0.09 -0.17,0.24 0,0.16 0.05,0.29 0.11,0.45 0.07,0.18 0.15,0.37 0.23,0.55 0.06,0.17 0.31,0.8 0.34,0.88 0.02,0.07 0.04,0.16 0.04,0.23 0,0.32 -0.28,0.59 -0.66,0.59 -0.69,0 -1.01,-0.95 -1.01,-1.07 0,-0.09 0.09,-0.09 0.12,-0.09 0.09,0 0.1,0.04 0.12,0.11 0.18,0.6 0.49,0.85 0.74,0.85 0.12,0 0.18,-0.05 0.18,-0.24 0,-0.16 -0.04,-0.27 -0.22,-0.7 z"
         id="path75557" /><path
         style="fill:#000000;stroke-width:0"
         inkscape:connector-curvature="0"
         d="m 239.41,705.74 v -0.07 l -0.01,-0.07 v -0.08 l -0.01,-0.08 -0.01,-0.03 v -0.04 l -0.01,-0.04 -0.01,-0.04 -0.01,-0.04 -0.01,-0.04 -0.01,-0.04 -0.02,-0.04 -0.01,-0.04 -0.02,-0.04 -0.02,-0.04 -0.02,-0.04 -0.02,-0.04 -0.02,-0.04 -0.02,-0.05 -0.03,-0.04 -0.03,-0.04 -0.03,-0.04 -0.03,-0.04 -0.04,-0.04 -0.03,-0.04 -0.04,-0.05 -0.04,-0.04 -0.05,-0.04 c -0.02,-0.03 -0.04,-0.05 -0.04,-0.08 0,-0.05 0.05,-0.1 0.09,-0.1 0.1,0 0.69,0.55 0.69,1.38 0,0.43 -0.17,0.76 -0.48,0.76 -0.24,0 -0.4,-0.18 -0.4,-0.4 0,-0.22 0.16,-0.4 0.4,-0.4 0.17,0 0.28,0.11 0.29,0.11 z"
         id="path75559" /><path
         style="fill:#000000;stroke-width:0"
         inkscape:connector-curvature="0"
         d="m 243.36,709.98 v 0.01 0.01 0.01 0.01 l -0.01,0.01 v 0.02 0.01 l -0.01,0.01 v 0.01 l -0.01,0.01 v 0.01 l -0.01,0.01 v 0.01 l -0.01,0.01 -0.01,0.01 -0.01,0.01 -0.01,0.01 -0.01,0.01 -0.01,0.01 -0.01,0.01 -0.01,0.01 h -0.01 l -0.01,0.01 -0.01,0.01 h -0.02 l -0.01,0.01 h -0.02 -0.01 l -0.02,0.01 h -0.01 -0.02 -0.02 c -0.2,0 -0.39,-0.19 -0.39,-0.38 0,-0.11 0.09,-0.27 0.28,-0.27 0.19,0 0.39,0.19 0.39,0.39 z"
         id="path75561" /><path
         style="fill:#000000;stroke-width:0"
         inkscape:connector-curvature="0"
         d="m 241.88,705.29 -0.01,-0.04 -0.01,-0.05 -0.01,-0.04 -0.02,-0.05 -0.02,-0.04 -0.02,-0.04 -0.02,-0.04 -0.02,-0.04 -0.02,-0.04 -0.02,-0.04 -0.03,-0.03 -0.02,-0.04 -0.03,-0.04 -0.03,-0.03 -0.03,-0.03 -0.02,-0.03 -0.04,-0.03 -0.03,-0.03 -0.03,-0.03 -0.03,-0.02 -0.03,-0.02 -0.04,-0.02 -0.03,-0.02 -0.04,-0.02 -0.03,-0.02 -0.04,-0.01 -0.04,-0.01 -0.03,-0.01 -0.04,-0.01 -0.04,-0.01 h -0.04 -0.03 c -0.09,0 -0.18,0.01 -0.25,0.04 0.18,0.08 0.23,0.25 0.23,0.35 0,0.17 -0.13,0.26 -0.27,0.26 -0.21,0 -0.4,-0.19 -0.4,-0.41 0,-0.26 0.28,-0.44 0.69,-0.44 0.42,0 1.24,0.25 1.45,1.1 l 0.63,2.49 c 0.02,0.08 0.03,0.14 0.03,0.24 0,0.39 -0.32,0.66 -0.74,0.66 -0.77,0 -1.22,-0.97 -1.22,-1.07 0,-0.09 0.1,-0.09 0.12,-0.09 0.08,0 0.09,0.02 0.14,0.13 0.17,0.4 0.53,0.83 0.94,0.83 0.17,0 0.23,-0.11 0.23,-0.34 0,-0.07 -0.01,-0.17 -0.02,-0.21 z"
         id="path75563" /><path
         style="fill:#000000;stroke-width:0"
         inkscape:connector-curvature="0"
         d="m 247.54,709.63 -0.01,0.27 -0.01,0.29 -0.02,0.29 -0.02,0.31 -0.04,0.31 -0.05,0.32 -0.06,0.32 -0.08,0.33 -0.05,0.17 -0.04,0.17 -0.06,0.17 -0.05,0.16 -0.06,0.17 -0.07,0.17 -0.07,0.17 -0.07,0.16 -0.08,0.17 -0.09,0.17 -0.09,0.16 -0.09,0.17 -0.11,0.16 -0.1,0.16 -0.12,0.16 -0.12,0.16 c -0.1,0.12 -0.74,0.87 -0.92,0.87 -0.05,0 -0.12,-0.02 -0.12,-0.1 0,-0.04 0.02,-0.07 0.06,-0.1 0.48,-0.51 1.12,-1.32 1.53,-2.9 0.23,-0.9 0.32,-1.92 0.32,-2.85 0,-1 -0.09,-2.02 -0.35,-2.99 -0.38,-1.39 -0.96,-2.18 -1.47,-2.74 -0.09,-0.09 -0.09,-0.11 -0.09,-0.13 0,-0.08 0.07,-0.1 0.12,-0.1 0.15,0 0.7,0.61 0.82,0.75 1.01,1.2 1.66,2.99 1.66,5.2 z"
         id="path75565" /><path
         style="fill:#000000;stroke-width:0"
         inkscape:connector-curvature="0"
         d="m 251.03,707.76 v 0 0 0 0 0 0 0 l 0.01,0.01 v 0 0 0.01 0 0 0.01 0 0.01 h 0.01 v 0.01 0.01 0.01 0 0 0.01 0 l 0.01,0.01 v 0 0 0.01 0 0 0 0 0 0 0.01 0 0 0 0 0 c 0,0.03 -0.03,0.1 -0.11,0.1 -0.14,0 -0.72,-0.06 -0.89,-0.07 -0.05,-0.01 -0.15,-0.02 -0.15,-0.16 0,-0.1 0.1,-0.1 0.18,-0.1 0.33,0 0.33,-0.05 0.33,-0.11 0,-0.04 -0.02,-0.09 -0.03,-0.15 l -0.86,-3.43 c -0.02,-0.07 -0.03,-0.15 -0.03,-0.22 0,-0.44 0.4,-0.66 0.73,-0.66 0.17,0 0.38,0.06 0.56,0.37 0.14,0.26 0.24,0.67 0.24,0.69 0,0.09 -0.09,0.09 -0.11,0.09 -0.1,0 -0.11,-0.04 -0.14,-0.16 -0.09,-0.35 -0.22,-0.79 -0.52,-0.79 -0.19,0 -0.24,0.17 -0.24,0.34 0,0.07 0.02,0.21 0.04,0.28 z"
         id="path75567" /><path
         style="fill:#000000;stroke-width:0"
         inkscape:connector-curvature="0"
         d="m 253.1,703.25 v -0.07 -0.08 l -0.01,-0.07 -0.01,-0.08 -0.01,-0.03 v -0.04 l -0.01,-0.04 -0.01,-0.04 -0.01,-0.04 -0.01,-0.04 -0.01,-0.04 -0.02,-0.04 -0.01,-0.04 -0.02,-0.04 -0.01,-0.04 -0.02,-0.04 -0.03,-0.04 -0.02,-0.05 -0.02,-0.04 -0.03,-0.04 -0.03,-0.04 -0.03,-0.04 -0.03,-0.04 -0.03,-0.04 -0.04,-0.05 -0.04,-0.04 -0.04,-0.04 -0.04,-0.04 c -0.03,-0.03 -0.05,-0.05 -0.05,-0.08 0,-0.05 0.05,-0.1 0.09,-0.1 0.1,0 0.69,0.55 0.69,1.38 0,0.43 -0.16,0.76 -0.48,0.76 -0.23,0 -0.4,-0.18 -0.4,-0.4 0,-0.22 0.16,-0.4 0.4,-0.4 0.17,0 0.28,0.11 0.29,0.11 z"
         id="path75569" /><path
         style="fill:#000000;stroke-width:0"
         inkscape:connector-curvature="0"
         d="m 255.63,704.54 v 0.01 0 0 l 0.01,0.01 v 0 0.01 0.01 0.01 0 l 0.01,0.01 v 0.01 0.01 0.01 l 0.01,0.01 v 0.03 l 0.01,0.02 v 0.03 l 0.01,0.03 0.01,0.03 0.01,0.03 v 0.03 l 0.02,0.06 0.02,0.06 v 0.03 l 0.01,0.03 0.01,0.03 0.01,0.03 v 0.02 l 0.01,0.03 0.01,0.02 v 0.01 0.01 0.01 l 0.01,0.01 v 0.01 0.01 0.01 h 0.01 v 0.01 0 0.01 0 0 0.01 c 0.02,0.05 0.22,0.4 0.44,0.57 0.08,0.05 0.27,0.19 0.57,0.19 0.07,0 0.24,0 0.38,-0.1 -0.22,-0.06 -0.31,-0.25 -0.31,-0.38 0,-0.15 0.12,-0.25 0.28,-0.25 0.16,0 0.39,0.13 0.39,0.42 0,0.36 -0.38,0.51 -0.74,0.51 -0.36,0 -0.67,-0.15 -0.98,-0.5 -0.12,0.43 -0.55,0.5 -0.72,0.5 -0.25,0 -0.43,-0.16 -0.54,-0.36 -0.16,-0.27 -0.26,-0.67 -0.26,-0.71 0,-0.09 0.1,-0.09 0.12,-0.09 0.1,0 0.11,0.02 0.16,0.21 0.1,0.42 0.23,0.75 0.5,0.75 0.18,0 0.23,-0.15 0.23,-0.34 0,-0.13 -0.06,-0.39 -0.11,-0.58 -0.05,-0.18 -0.12,-0.47 -0.15,-0.62 l -0.22,-0.89 c -0.03,-0.09 -0.07,-0.27 -0.07,-0.29 0,-0.15 0.12,-0.22 0.23,-0.22 0.11,0 0.25,0.06 0.3,0.2 0.02,0.04 0.09,0.35 0.13,0.52 z"
         id="path75571" /></g>    <path
       inkscape:connector-curvature="0"
       id="path75573"
       d="m -413.46245,726.97597 0,28.52691"
       style="fill:none;stroke:#000000;stroke-width:1px;stroke-linecap:butt;stroke-linejoin:miter;stroke-opacity:1" />
    <path
       style="fill:none;stroke:#000000;stroke-width:1px;stroke-linecap:butt;stroke-linejoin:miter;stroke-opacity:1"
       d="m -397.46245,726.97597 0,28.52691"
       id="path75575"
       inkscape:connector-curvature="0" />
    <path
       style="fill:none;stroke:#000000;stroke-width:1px;stroke-linecap:butt;stroke-linejoin:miter;stroke-opacity:1"
       d="m -381.46245,726.97597 0,28.52691"
       id="path75577"
       inkscape:connector-curvature="0" />
    <path
       style="fill:none;stroke:#000000;stroke-width:1px;stroke-linecap:butt;stroke-linejoin:miter;stroke-opacity:1"
       d="m -461.46245,726.97597 0,28.52691"
       id="path75603"
       inkscape:connector-curvature="0" />
    <path
       inkscape:connector-curvature="0"
       id="path75605"
       d="m -445.46245,726.97597 0,28.52691"
       style="fill:none;stroke:#000000;stroke-width:1px;stroke-linecap:butt;stroke-linejoin:miter;stroke-opacity:1" />
    <path
       inkscape:connector-curvature="0"
       id="path75607"
       d="m -429.46245,726.97597 0,28.52691"
       style="fill:none;stroke:#000000;stroke-width:1px;stroke-linecap:butt;stroke-linejoin:miter;stroke-opacity:1" />
    <g
       style="font-style:normal;font-variant:normal;font-weight:normal;font-stretch:normal;letter-spacing:normal;word-spacing:normal;text-anchor:start;fill:none;stroke:#000000;stroke-linecap:butt;stroke-linejoin:miter;stroke-miterlimit:10.43299961;stroke-opacity:1;stroke-dasharray:none;stroke-dashoffset:0"
       ns0:preamble="/home/milan/phd/Dokumente/tex/graphics/svg_mathbbm.tex"
       ns0:text="$=$"
       word-spacing="normal"
       letter-spacing="normal"
       font-size-adjust="none"
       font-stretch="normal"
       font-weight="normal"
       font-variant="normal"
       font-style="normal"
       stroke-miterlimit="10.433"
       xml:space="preserve"
       transform="matrix(1.25,0,0,-1.25,-587.22058,1613.175)"
       id="g75609"><path
         id="path75611"
         d="m 230.27,710.37 0.03,0 0.02,0 0.03,0 0.02,0.01 0.01,0 0.02,0 0.01,0 0.02,0 0.01,0 0.01,0.01 0.02,0 0.01,0 0.01,0.01 0.01,0 0.02,0.01 0.01,0 0.01,0.01 0.01,0.01 0.01,0.01 0.01,0.01 0,0.01 0.01,0 0,0.01 0,0 0.01,0.01 0,0.01 0,0 0,0.01 0.01,0.01 0,0 0,0.01 0,0.01 0,0.01 0,0.01 0,0 0,0.01 0,0.01 c 0,0.2 -0.18,0.2 -0.32,0.2 h -5.96 c -0.14,0 -0.33,0 -0.33,-0.2 0,-0.2 0.19,-0.2 0.34,-0.2 z"
         inkscape:connector-curvature="0"
         style="fill:#000000;stroke-width:0" /><path
         id="path75613"
         d="m 230.28,708.45 0.01,0 0.01,0 0.03,0 0.03,0 0.01,0 0.02,0 0.01,0 0.01,0 0.02,0 0.01,0.01 0.02,0 0.01,0 0.01,0.01 0.01,0 0.02,0.01 0.01,0 0.01,0.01 0.01,0 0.01,0.01 0.01,0.01 0.01,0.01 0,0 0,0.01 0.01,0.01 0,0 0,0.01 0.01,0 0,0.01 0,0.01 0,0 0.01,0.01 0,0.01 0,0 0,0.01 0,0.01 0,0.01 0,0.01 0,0.01 0,0.01 c 0,0.19 -0.18,0.19 -0.33,0.19 h -5.94 c -0.15,0 -0.34,0 -0.34,-0.19 0,-0.2 0.19,-0.2 0.33,-0.2 z"
         inkscape:connector-curvature="0"
         style="fill:#000000;stroke-width:0" /></g>    <rect
       style="fill:#ffeeaa;fill-opacity:1;stroke:#000000;stroke-width:0.49999997;stroke-linecap:round;stroke-linejoin:miter;stroke-miterlimit:4;stroke-opacity:1;stroke-dasharray:none;stroke-dashoffset:0"
       id="rect75639"
       width="99.317993"
       height="26.374731"
       x="-469.48547"
       y="713.13928"
       rx="2.9999998"
       ry="3.0000007" />
    <path
       inkscape:connector-curvature="0"
       inkscape:connector-type="polyline"
       id="path75641"
       d="m -469.48549,726.44423 -27.34351,0.0498"
       style="fill:none;stroke:#000000;stroke-width:1px;stroke-linecap:butt;stroke-linejoin:miter;stroke-opacity:1" />
    <g
       style="font-style:normal;font-variant:normal;font-weight:normal;font-stretch:normal;letter-spacing:normal;word-spacing:normal;text-anchor:start;fill:none;stroke:#000000;stroke-linecap:butt;stroke-linejoin:miter;stroke-miterlimit:10.43299961;stroke-opacity:1;stroke-dasharray:none;stroke-dashoffset:0"
       ns0:preamble="/home/milan/phd/Dokumente/tex/graphics/svg_mathbbm.tex"
       ns0:text="$\\psi_{i_1j_1i_2j_2i_3j_3}$"
       word-spacing="normal"
       letter-spacing="normal"
       font-size-adjust="none"
       font-stretch="normal"
       font-weight="normal"
       font-variant="normal"
       font-style="normal"
       stroke-miterlimit="10.433"
       xml:space="preserve"
       transform="matrix(1.25,0,0,-1.25,-729.65968,1612.7274)"
       id="g75643"><path
         id="path76857"
         d="m 228.23,713.76 0,0 0,0.01 0,0.01 0,0.01 0.01,0 0,0.01 0,0.01 0,0.01 0.01,0.01 0,0.01 0,0.01 0,0.01 0,0.01 0.01,0.01 0,0.01 0,0.01 0,0.01 0,0 c 0,0.1 -0.07,0.11 -0.12,0.11 -0.1,0 -0.11,-0.02 -0.15,-0.2 l -1.65,-6.57 c -0.76,0.09 -1.14,0.46 -1.14,1.12 0,0.2 0,0.45 0.54,1.84 0.04,0.12 0.11,0.29 0.11,0.49 0,0.45 -0.32,0.82 -0.82,0.82 -0.94,0 -1.31,-1.44 -1.31,-1.53 0,-0.1 0.1,-0.1 0.12,-0.1 0.1,0 0.11,0.02 0.16,0.18 0.27,0.94 0.67,1.23 1,1.23 0.08,0 0.25,0 0.25,-0.32 0,-0.26 -0.1,-0.51 -0.23,-0.86 -0.47,-1.25 -0.47,-1.51 -0.47,-1.67 0,-0.95 0.77,-1.36 1.73,-1.41 -0.08,-0.36 -0.08,-0.38 -0.22,-0.91 -0.03,-0.11 -0.23,-0.91 -0.23,-0.94 0,-0.01 0,-0.1 0.12,-0.1 0.02,0 0.07,0 0.09,0.04 0.03,0.02 0.09,0.27 0.12,0.41 l 0.38,1.48 c 0.36,0 1.24,0 2.17,1.06 0.41,0.46 0.62,0.89 0.73,1.19 0.09,0.25 0.31,1.11 0.31,1.55 0,0.56 -0.27,0.7 -0.44,0.7 -0.25,0 -0.49,-0.26 -0.49,-0.48 0,-0.13 0.05,-0.19 0.14,-0.27 0.11,-0.11 0.36,-0.37 0.36,-0.84 0,-0.64 -0.52,-1.45 -0.86,-1.81 -0.88,-0.89 -1.52,-0.89 -1.87,-0.89 z"
         inkscape:connector-curvature="0"
         style="fill:#000000;stroke-width:0" /><path
         id="path76859"
         d="m 232.18,709.98 0,0.01 0,0.01 0,0.01 -0.01,0.01 0,0.01 0,0.01 0,0.01 -0.01,0.02 0,0.01 -0.01,0.01 0,0.01 -0.01,0.01 -0.01,0.01 0,0.01 -0.01,0.01 -0.01,0.01 -0.01,0.01 -0.01,0.01 -0.01,0.01 -0.01,0.01 -0.01,0 -0.01,0.01 -0.01,0.01 -0.01,0.01 -0.02,0 -0.01,0.01 -0.02,0 -0.01,0 -0.02,0.01 -0.01,0 -0.02,0 -0.02,0 c -0.19,0 -0.39,-0.18 -0.39,-0.38 0,-0.12 0.09,-0.27 0.28,-0.27 0.2,0 0.39,0.2 0.39,0.39 z"
         inkscape:connector-curvature="0"
         style="fill:#000000;stroke-width:0" /><path
         id="path76861"
         d="m 230.76,706.45 -0.01,-0.02 0,-0.02 -0.01,-0.03 -0.01,-0.02 0,-0.02 -0.01,-0.01 0,-0.02 -0.01,-0.02 0,-0.02 -0.01,-0.02 0,-0.01 0,-0.01 0,-0.01 0,-0.01 0,-0.01 0,-0.02 0,-0.01 0,-0.01 0,-0.01 c 0,-0.32 0.27,-0.59 0.66,-0.59 0.69,0 1,0.96 1,1.06 0,0.1 -0.09,0.1 -0.11,0.1 -0.1,0 -0.11,-0.05 -0.13,-0.12 -0.16,-0.56 -0.47,-0.84 -0.74,-0.84 -0.14,0 -0.18,0.09 -0.18,0.24 0,0.16 0.05,0.29 0.12,0.45 0.06,0.18 0.14,0.37 0.22,0.55 0.06,0.17 0.31,0.8 0.34,0.88 0.02,0.07 0.04,0.16 0.04,0.23 0,0.32 -0.28,0.59 -0.66,0.59 -0.69,0 -1.01,-0.95 -1.01,-1.07 0,-0.09 0.1,-0.09 0.12,-0.09 0.09,0 0.1,0.04 0.12,0.11 0.18,0.6 0.49,0.85 0.75,0.85 0.11,0 0.17,-0.05 0.17,-0.24 0,-0.16 -0.04,-0.27 -0.21,-0.7 z"
         inkscape:connector-curvature="0"
         style="fill:#000000;stroke-width:0" /><path
         id="path76863"
         d="m 234.72,707.79 0,0.01 0,0.01 0,0 0,0.01 0,0.01 0,0 0,0.01 0,0 0,0.01 0,0 0,0.01 0,0 0,0.01 0,0 0,0.01 0,0 -0.01,0 0,0.01 0,0 0,0 0,0.01 0,0.01 -0.01,0 0,0.01 0,0 -0.01,0 0,0.01 -0.01,0 0,0 -0.01,0 -0.01,0.01 0,0 -0.01,0 -0.01,0 0,0 -0.01,0 0,0 -0.01,0 0,0 -0.01,0 0,0 -0.01,0 0,0 -0.01,0 -0.01,0 0,0 -0.01,0 -0.01,0 0,0 -0.01,0 -0.01,0 c -0.35,-0.32 -0.91,-0.32 -1,-0.32 h -0.09 v -0.21 h 0.09 c 0.11,0 0.43,0.01 0.72,0.13 v -2.48 c 0,-0.15 0,-0.21 -0.52,-0.21 h -0.25 v -0.22 c 0.27,0.02 0.71,0.02 1,0.02 0.29,0 0.73,0 1.01,-0.02 v 0.22 h -0.25 c -0.53,0 -0.53,0.06 -0.53,0.21 z"
         inkscape:connector-curvature="0"
         style="fill:#000000;stroke-width:0" /><path
         id="path76865"
         d="m 239.69,709.98 0,0.01 -0.01,0.01 0,0.01 0,0.01 0,0.01 0,0.02 -0.01,0.01 0,0.01 -0.01,0.01 0,0.01 -0.01,0.01 0,0.01 -0.01,0.01 -0.01,0.01 0,0.01 -0.01,0.01 -0.01,0.01 -0.01,0.01 -0.01,0.01 -0.01,0.01 -0.01,0.01 -0.01,0 -0.02,0.01 -0.01,0.01 -0.01,0 -0.02,0.01 -0.01,0 -0.02,0 -0.01,0.01 -0.02,0 -0.01,0 -0.02,0 c -0.2,0 -0.39,-0.19 -0.39,-0.38 0,-0.11 0.08,-0.27 0.28,-0.27 0.18,0 0.39,0.19 0.39,0.39 z"
         inkscape:connector-curvature="0"
         style="fill:#000000;stroke-width:0" /><path
         id="path76867"
         d="m 238.21,705.29 -0.01,-0.04 -0.02,-0.05 -0.01,-0.04 -0.02,-0.05 -0.01,-0.04 -0.02,-0.04 -0.02,-0.04 -0.02,-0.04 -0.03,-0.04 -0.02,-0.04 -0.02,-0.03 -0.03,-0.04 -0.02,-0.04 -0.03,-0.03 -0.03,-0.03 -0.03,-0.03 -0.03,-0.03 -0.03,-0.03 -0.03,-0.03 -0.04,-0.02 -0.03,-0.02 -0.03,-0.02 -0.04,-0.02 -0.03,-0.02 -0.04,-0.02 -0.03,-0.01 -0.04,-0.01 -0.04,-0.01 -0.03,-0.01 -0.04,-0.01 -0.04,0 -0.04,0 c -0.09,0 -0.17,0.01 -0.25,0.04 0.18,0.08 0.24,0.25 0.24,0.35 0,0.17 -0.14,0.26 -0.27,0.26 -0.22,0 -0.4,-0.19 -0.4,-0.41 0,-0.26 0.27,-0.44 0.69,-0.44 0.42,0 1.23,0.25 1.45,1.1 l 0.62,2.49 c 0.02,0.08 0.04,0.14 0.04,0.24 0,0.39 -0.33,0.66 -0.75,0.66 -0.77,0 -1.22,-0.97 -1.22,-1.07 0,-0.09 0.1,-0.09 0.12,-0.09 0.09,0 0.09,0.02 0.14,0.13 0.18,0.4 0.54,0.83 0.94,0.83 0.18,0 0.24,-0.11 0.24,-0.34 0,-0.07 -0.02,-0.17 -0.02,-0.21 z"
         inkscape:connector-curvature="0"
         style="fill:#000000;stroke-width:0" /><path
         id="path76869"
         d="m 241.9,707.79 0,0.01 0,0.01 0,0 0,0.01 0,0.01 0,0 0,0.01 0,0 0,0.01 0,0 0,0.01 0,0 0,0.01 0,0 0,0.01 0,0 0,0 0,0.01 0,0 0,0 -0.01,0.01 0,0.01 0,0 0,0.01 -0.01,0 0,0 -0.01,0.01 0,0 -0.01,0 -0.01,0 0,0.01 -0.01,0 -0.01,0 0,0 -0.01,0 0,0 -0.01,0 0,0 -0.01,0 0,0 -0.01,0 0,0 -0.01,0 -0.01,0 0,0 -0.01,0 0,0 -0.01,0 -0.01,0 -0.01,0 0,0 c -0.36,-0.32 -0.91,-0.32 -1.01,-0.32 h -0.08 v -0.21 h 0.08 c 0.12,0 0.44,0.01 0.73,0.13 v -2.48 c 0,-0.15 0,-0.21 -0.53,-0.21 h -0.25 v -0.22 c 0.28,0.02 0.72,0.02 1.01,0.02 0.28,0 0.73,0 1,-0.02 v 0.22 h -0.25 c -0.53,0 -0.53,0.06 -0.53,0.21 z"
         inkscape:connector-curvature="0"
         style="fill:#000000;stroke-width:0" /><path
         id="path76871"
         d="m 246.07,709.98 0,0.01 0,0.01 0,0.01 0,0.01 -0.01,0.01 0,0.01 0,0.01 -0.01,0.02 0,0.01 -0.01,0.01 0,0.01 -0.01,0.01 0,0.01 -0.01,0.01 -0.01,0.01 -0.01,0.01 0,0.01 -0.01,0.01 -0.01,0.01 -0.01,0.01 -0.02,0 -0.01,0.01 -0.01,0.01 -0.01,0.01 -0.02,0 -0.01,0.01 -0.01,0 -0.02,0 -0.02,0.01 -0.01,0 -0.02,0 -0.02,0 c -0.19,0 -0.39,-0.18 -0.39,-0.38 0,-0.12 0.09,-0.27 0.28,-0.27 0.2,0 0.39,0.2 0.39,0.39 z"
         inkscape:connector-curvature="0"
         style="fill:#000000;stroke-width:0" /><path
         id="path76873"
         d="m 244.65,706.45 -0.01,-0.02 0,-0.02 -0.01,-0.03 -0.01,-0.02 0,-0.02 -0.01,-0.01 0,-0.02 -0.01,-0.02 0,-0.02 0,-0.02 -0.01,-0.01 0,-0.01 0,-0.01 0,-0.01 0,-0.01 0,-0.02 0,-0.01 0,-0.01 0,-0.01 c 0,-0.32 0.28,-0.59 0.66,-0.59 0.7,0 1,0.96 1,1.06 0,0.1 -0.09,0.1 -0.11,0.1 -0.1,0 -0.1,-0.05 -0.13,-0.12 -0.16,-0.56 -0.47,-0.84 -0.74,-0.84 -0.14,0 -0.17,0.09 -0.17,0.24 0,0.16 0.04,0.29 0.11,0.45 0.07,0.18 0.14,0.37 0.22,0.55 0.06,0.17 0.31,0.8 0.34,0.88 0.02,0.07 0.04,0.16 0.04,0.23 0,0.32 -0.28,0.59 -0.66,0.59 -0.69,0 -1.01,-0.95 -1.01,-1.07 0,-0.09 0.1,-0.09 0.12,-0.09 0.1,0 0.1,0.04 0.12,0.11 0.19,0.6 0.49,0.85 0.75,0.85 0.11,0 0.17,-0.05 0.17,-0.24 0,-0.16 -0.04,-0.27 -0.21,-0.7 z"
         inkscape:connector-curvature="0"
         style="fill:#000000;stroke-width:0" /><path
         id="path76875"
         d="m 249.56,705.59 h -0.21 c -0.01,-0.09 -0.06,-0.4 -0.14,-0.45 -0.04,-0.03 -0.46,-0.03 -0.53,-0.03 h -0.98 c 0.33,0.24 0.7,0.52 1,0.72 0.44,0.31 0.86,0.6 0.86,1.12 0,0.64 -0.6,0.99 -1.31,0.99 -0.67,0 -1.16,-0.39 -1.16,-0.87 0,-0.26 0.21,-0.3 0.28,-0.3 0.14,0 0.3,0.08 0.3,0.29 0,0.18 -0.13,0.28 -0.29,0.29 0.14,0.22 0.43,0.37 0.76,0.37 0.49,0 0.89,-0.29 0.89,-0.77 0,-0.42 -0.29,-0.74 -0.67,-1.06 l -1.22,-1.03 c -0.04,-0.04 -0.05,-0.04 -0.05,-0.08 v -0.15 h 2.31 z"
         inkscape:connector-curvature="0"
         style="fill:#000000;stroke-width:0" /><path
         id="path76877"
         d="m 253.58,709.98 0,0.01 0,0.01 0,0.01 -0.01,0.01 0,0.01 0,0.02 -0.01,0.01 0,0.01 0,0.01 -0.01,0.01 0,0.01 -0.01,0.01 -0.01,0.01 0,0.01 -0.01,0.01 -0.01,0.01 -0.01,0.01 -0.01,0.01 -0.01,0.01 -0.01,0.01 -0.01,0.01 -0.01,0 -0.01,0.01 -0.02,0.01 -0.01,0 -0.01,0.01 -0.02,0 -0.01,0 -0.02,0.01 -0.02,0 -0.01,0 -0.02,0 c -0.2,0 -0.39,-0.19 -0.39,-0.38 0,-0.11 0.08,-0.27 0.28,-0.27 0.19,0 0.39,0.19 0.39,0.39 z"
         inkscape:connector-curvature="0"
         style="fill:#000000;stroke-width:0" /><path
         id="path76879"
         d="m 252.1,705.29 -0.01,-0.04 -0.01,-0.05 -0.02,-0.04 -0.01,-0.05 -0.02,-0.04 -0.02,-0.04 -0.02,-0.04 -0.02,-0.04 -0.02,-0.04 -0.03,-0.04 -0.02,-0.03 -0.03,-0.04 -0.02,-0.04 -0.03,-0.03 -0.03,-0.03 -0.03,-0.03 -0.03,-0.03 -0.03,-0.03 -0.03,-0.03 -0.03,-0.02 -0.04,-0.02 -0.03,-0.02 -0.03,-0.02 -0.04,-0.02 -0.04,-0.02 -0.03,-0.01 -0.04,-0.01 -0.04,-0.01 -0.03,-0.01 -0.04,-0.01 -0.04,0 -0.04,0 c -0.09,0 -0.17,0.01 -0.25,0.04 0.18,0.08 0.24,0.25 0.24,0.35 0,0.17 -0.13,0.26 -0.27,0.26 -0.22,0 -0.4,-0.19 -0.4,-0.41 0,-0.26 0.27,-0.44 0.69,-0.44 0.42,0 1.23,0.25 1.45,1.1 l 0.63,2.49 c 0.02,0.08 0.03,0.14 0.03,0.24 0,0.39 -0.33,0.66 -0.74,0.66 -0.78,0 -1.22,-0.97 -1.22,-1.07 0,-0.09 0.09,-0.09 0.12,-0.09 0.08,0 0.09,0.02 0.13,0.13 0.18,0.4 0.54,0.83 0.94,0.83 0.18,0 0.24,-0.11 0.24,-0.34 0,-0.07 -0.01,-0.17 -0.02,-0.21 z"
         inkscape:connector-curvature="0"
         style="fill:#000000;stroke-width:0" /><path
         id="path76881"
         d="m 256.75,705.59 h -0.21 c -0.02,-0.09 -0.07,-0.4 -0.15,-0.45 -0.04,-0.03 -0.45,-0.03 -0.53,-0.03 h -0.97 c 0.32,0.24 0.69,0.52 0.99,0.72 0.45,0.31 0.87,0.6 0.87,1.12 0,0.64 -0.61,0.99 -1.32,0.99 -0.67,0 -1.16,-0.39 -1.16,-0.87 0,-0.26 0.22,-0.3 0.29,-0.3 0.13,0 0.29,0.08 0.29,0.29 0,0.18 -0.13,0.28 -0.28,0.29 0.14,0.22 0.43,0.37 0.76,0.37 0.48,0 0.88,-0.29 0.88,-0.77 0,-0.42 -0.28,-0.74 -0.67,-1.06 l -1.21,-1.03 c -0.05,-0.04 -0.06,-0.04 -0.06,-0.08 v -0.15 h 2.31 z"
         inkscape:connector-curvature="0"
         style="fill:#000000;stroke-width:0" /><path
         id="path76883"
         d="m 259.96,709.98 0,0.01 0,0.01 0,0.01 0,0.01 0,0.01 -0.01,0.01 0,0.01 0,0.02 -0.01,0.01 0,0.01 -0.01,0.01 0,0.01 -0.01,0.01 -0.01,0.01 -0.01,0.01 0,0.01 -0.01,0.01 -0.01,0.01 -0.01,0.01 -0.01,0.01 -0.01,0 -0.02,0.01 -0.01,0.01 -0.01,0.01 -0.01,0 -0.02,0.01 -0.01,0 -0.02,0 -0.01,0.01 -0.02,0 -0.02,0 -0.02,0 c -0.18,0 -0.39,-0.18 -0.39,-0.38 0,-0.12 0.09,-0.27 0.28,-0.27 0.2,0 0.39,0.2 0.39,0.39 z"
         inkscape:connector-curvature="0"
         style="fill:#000000;stroke-width:0" /><path
         id="path76885"
         d="m 258.54,706.45 0,-0.02 -0.01,-0.02 -0.01,-0.03 -0.01,-0.02 0,-0.02 -0.01,-0.01 0,-0.02 0,-0.02 -0.01,-0.02 0,-0.02 -0.01,-0.01 0,-0.01 0,-0.01 0,-0.01 0,-0.01 0,-0.02 0,-0.01 0,-0.01 0,-0.01 c 0,-0.32 0.28,-0.59 0.66,-0.59 0.7,0 1,0.96 1,1.06 0,0.1 -0.09,0.1 -0.11,0.1 -0.1,0 -0.1,-0.05 -0.13,-0.12 -0.16,-0.56 -0.47,-0.84 -0.74,-0.84 -0.14,0 -0.17,0.09 -0.17,0.24 0,0.16 0.05,0.29 0.11,0.45 0.07,0.18 0.14,0.37 0.22,0.55 0.06,0.17 0.32,0.8 0.34,0.88 0.02,0.07 0.04,0.16 0.04,0.23 0,0.32 -0.27,0.59 -0.66,0.59 -0.69,0 -1.01,-0.95 -1.01,-1.07 0,-0.09 0.1,-0.09 0.12,-0.09 0.1,0 0.11,0.04 0.13,0.11 0.18,0.6 0.49,0.85 0.74,0.85 0.11,0 0.18,-0.05 0.18,-0.24 0,-0.16 -0.05,-0.27 -0.22,-0.7 z"
         inkscape:connector-curvature="0"
         style="fill:#000000;stroke-width:0" /><path
         id="path76887"
         d="m 262.17,706.28 0.04,0 0.04,-0.01 0.04,0 0.04,-0.01 0.04,0 0.04,-0.01 0.03,-0.01 0.04,-0.01 0.03,-0.02 0.03,-0.01 0.04,-0.02 0.03,-0.02 0.03,-0.02 0.03,-0.02 0.02,-0.02 0.03,-0.02 0.02,-0.03 0.03,-0.03 0.02,-0.03 0.02,-0.03 0.02,-0.03 0.01,-0.03 0.02,-0.03 0.01,-0.04 0.01,-0.03 0.02,-0.04 0.01,-0.04 0,-0.04 0.01,-0.04 0,-0.05 0.01,-0.04 0,-0.05 c 0,-0.5 -0.32,-0.77 -0.76,-0.77 -0.05,0 -0.65,0 -0.9,0.26 0.2,0.03 0.26,0.18 0.26,0.3 0,0.18 -0.14,0.3 -0.3,0.3 -0.16,0 -0.31,-0.1 -0.31,-0.31 0,-0.52 0.59,-0.75 1.26,-0.75 0.82,0 1.33,0.49 1.33,0.97 0,0.41 -0.36,0.75 -0.93,0.88 0.59,0.2 0.75,0.57 0.75,0.85 0,0.41 -0.5,0.71 -1.13,0.71 -0.61,0 -1.1,-0.26 -1.1,-0.7 0,-0.24 0.19,-0.3 0.28,-0.3 0.14,0 0.28,0.11 0.28,0.29 0,0.11 -0.06,0.25 -0.24,0.28 0.22,0.23 0.66,0.24 0.76,0.24 0.37,0 0.63,-0.18 0.63,-0.52 0,-0.29 -0.19,-0.74 -0.71,-0.77 -0.14,0 -0.16,-0.01 -0.29,-0.01 -0.06,-0.01 -0.11,-0.01 -0.11,-0.09 0,-0.08 0.05,-0.08 0.14,-0.08 z"
         inkscape:connector-curvature="0"
         style="fill:#000000;stroke-width:0" /><path
         id="path76889"
         d="m 267.47,709.98 0,0.01 0,0.01 0,0.01 0,0.01 -0.01,0.01 0,0.02 0,0.01 -0.01,0.01 0,0.01 -0.01,0.01 0,0.01 -0.01,0.01 -0.01,0.01 0,0.01 -0.01,0.01 -0.01,0.01 -0.01,0.01 -0.01,0.01 -0.01,0.01 -0.01,0.01 -0.01,0.01 -0.01,0 -0.01,0.01 -0.02,0.01 -0.01,0 -0.01,0.01 -0.02,0 -0.01,0 -0.02,0.01 -0.01,0 -0.02,0 -0.02,0 c -0.2,0 -0.39,-0.19 -0.39,-0.38 0,-0.11 0.09,-0.27 0.28,-0.27 0.19,0 0.39,0.19 0.39,0.39 z"
         inkscape:connector-curvature="0"
         style="fill:#000000;stroke-width:0" /><path
         id="path76891"
         d="m 265.99,705.29 -0.01,-0.04 -0.01,-0.05 -0.02,-0.04 -0.01,-0.05 -0.02,-0.04 -0.02,-0.04 -0.02,-0.04 -0.02,-0.04 -0.02,-0.04 -0.02,-0.04 -0.03,-0.03 -0.02,-0.04 -0.03,-0.04 -0.03,-0.03 -0.03,-0.03 -0.03,-0.03 -0.03,-0.03 -0.03,-0.03 -0.03,-0.03 -0.03,-0.02 -0.03,-0.02 -0.04,-0.02 -0.03,-0.02 -0.04,-0.02 -0.03,-0.02 -0.04,-0.01 -0.04,-0.01 -0.03,-0.01 -0.04,-0.01 -0.04,-0.01 -0.04,0 -0.03,0 c -0.09,0 -0.18,0.01 -0.25,0.04 0.18,0.08 0.23,0.25 0.23,0.35 0,0.17 -0.13,0.26 -0.27,0.26 -0.22,0 -0.4,-0.19 -0.4,-0.41 0,-0.26 0.27,-0.44 0.69,-0.44 0.42,0 1.23,0.25 1.45,1.1 l 0.63,2.49 c 0.02,0.08 0.03,0.14 0.03,0.24 0,0.39 -0.32,0.66 -0.74,0.66 -0.78,0 -1.22,-0.97 -1.22,-1.07 0,-0.09 0.1,-0.09 0.12,-0.09 0.08,0 0.09,0.02 0.14,0.13 0.17,0.4 0.53,0.83 0.94,0.83 0.17,0 0.23,-0.11 0.23,-0.34 0,-0.07 -0.01,-0.17 -0.02,-0.21 z"
         inkscape:connector-curvature="0"
         style="fill:#000000;stroke-width:0" /><path
         id="path76893"
         d="m 269.35,706.28 0.04,0 0.04,-0.01 0.05,0 0.03,-0.01 0.04,0 0.04,-0.01 0.04,-0.01 0.03,-0.01 0.04,-0.02 0.03,-0.01 0.03,-0.02 0.03,-0.02 0.03,-0.02 0.03,-0.02 0.03,-0.02 0.02,-0.02 0.03,-0.03 0.02,-0.03 0.02,-0.03 0.02,-0.03 0.02,-0.03 0.02,-0.03 0.01,-0.03 0.02,-0.04 0.01,-0.03 0.01,-0.04 0.01,-0.04 0.01,-0.04 0,-0.04 0.01,-0.05 0,-0.04 0,-0.05 c 0,-0.5 -0.31,-0.77 -0.75,-0.77 -0.06,0 -0.65,0 -0.91,0.26 0.21,0.03 0.27,0.18 0.27,0.3 0,0.18 -0.14,0.3 -0.3,0.3 -0.16,0 -0.31,-0.1 -0.31,-0.31 0,-0.52 0.58,-0.75 1.26,-0.75 0.82,0 1.32,0.49 1.32,0.97 0,0.41 -0.36,0.75 -0.93,0.88 0.6,0.2 0.76,0.57 0.76,0.85 0,0.41 -0.51,0.71 -1.13,0.71 -0.62,0 -1.11,-0.26 -1.11,-0.7 0,-0.24 0.19,-0.3 0.29,-0.3 0.14,0 0.28,0.11 0.28,0.29 0,0.11 -0.06,0.25 -0.24,0.28 0.21,0.23 0.66,0.24 0.76,0.24 0.36,0 0.62,-0.18 0.62,-0.52 0,-0.29 -0.19,-0.74 -0.71,-0.77 -0.14,0 -0.16,-0.01 -0.29,-0.01 -0.05,-0.01 -0.11,-0.01 -0.11,-0.09 0,-0.08 0.05,-0.08 0.14,-0.08 z"
         inkscape:connector-curvature="0"
         style="fill:#000000;stroke-width:0" /></g>    <g
       style="font-style:normal;font-variant:normal;font-weight:normal;font-stretch:normal;letter-spacing:normal;word-spacing:normal;text-anchor:start;fill:none;stroke:#000000;stroke-linecap:butt;stroke-linejoin:miter;stroke-miterlimit:10.43299961;stroke-opacity:1;stroke-dasharray:none;stroke-dashoffset:0"
       ns0:preamble="/home/milan/phd/Dokumente/tex/graphics/svg_mathbbm.tex"
       ns0:text="$j_3$"
       word-spacing="normal"
       letter-spacing="normal"
       font-size-adjust="none"
       font-stretch="normal"
       font-weight="normal"
       font-variant="normal"
       font-style="normal"
       stroke-miterlimit="10.433"
       xml:space="preserve"
       transform="matrix(1.25,0,0,-1.25,-658.96121,1636.2436)"
       id="g87698"><path
         id="path87700"
         d="m 227.38,713.33 0,0.02 0,0.02 0,0.02 0,0.01 -0.01,0.02 0,0.02 -0.01,0.01 0,0.02 -0.01,0.01 -0.01,0.02 -0.01,0.02 0,0.01 -0.01,0.01 -0.01,0.02 -0.02,0.01 -0.01,0.01 -0.01,0.02 -0.01,0.01 -0.02,0.01 -0.01,0.01 -0.02,0.01 -0.01,0.01 -0.02,0 -0.02,0.01 -0.01,0.01 -0.02,0 -0.02,0.01 -0.02,0 -0.02,0.01 -0.02,0 -0.02,0 -0.03,0 c -0.23,0 -0.52,-0.23 -0.52,-0.53 0,-0.19 0.14,-0.35 0.37,-0.35 0.26,0 0.53,0.26 0.53,0.52 z"
         inkscape:connector-curvature="0"
         style="fill:#000000;stroke-width:0" /><path
         id="path87702"
         d="m 225.38,706.63 -0.02,-0.07 -0.02,-0.07 -0.02,-0.07 -0.02,-0.07 -0.03,-0.06 -0.02,-0.06 -0.03,-0.07 -0.03,-0.06 -0.03,-0.06 -0.03,-0.05 -0.04,-0.06 -0.03,-0.05 -0.04,-0.05 -0.03,-0.05 -0.04,-0.05 -0.04,-0.05 -0.04,-0.04 -0.04,-0.04 -0.05,-0.04 -0.04,-0.03 -0.04,-0.04 -0.05,-0.03 -0.05,-0.03 -0.04,-0.02 -0.05,-0.03 -0.05,-0.02 -0.05,-0.01 -0.05,-0.02 -0.05,-0.01 -0.05,-0.01 -0.05,0 -0.05,0 c -0.06,0 -0.21,0 -0.39,0.09 0.3,0.07 0.45,0.32 0.45,0.52 0,0.16 -0.11,0.35 -0.38,0.35 -0.25,0 -0.54,-0.21 -0.54,-0.57 0,-0.39 0.4,-0.61 0.88,-0.61 0.7,0 1.62,0.52 1.87,1.51 l 0.91,3.63 c 0.05,0.2 0.05,0.34 0.05,0.37 0,0.57 -0.41,0.92 -0.91,0.92 -1.02,0 -1.58,-1.44 -1.58,-1.53 0,-0.1 0.1,-0.1 0.12,-0.1 0.09,0 0.1,0.01 0.18,0.2 0.24,0.6 0.7,1.21 1.25,1.21 0.14,0 0.32,-0.04 0.32,-0.46 0,-0.23 -0.03,-0.34 -0.07,-0.51 z"
         inkscape:connector-curvature="0"
         style="fill:#000000;stroke-width:0" /><path
         id="path87704"
         d="m 229.44,707.95 0.05,0 0.05,0 0.04,-0.01 0.05,0 0.05,-0.01 0.04,-0.02 0.05,-0.01 0.04,-0.02 0.04,-0.02 0.04,-0.02 0.04,-0.02 0.04,-0.02 0.04,-0.03 0.03,-0.03 0.04,-0.03 0.03,-0.04 0.03,-0.03 0.03,-0.04 0.02,-0.04 0.03,-0.04 0.02,-0.05 0.02,-0.05 0.02,-0.05 0.02,-0.05 0.02,-0.05 0.01,-0.06 0.01,-0.05 0.01,-0.06 0.01,-0.07 0.01,-0.06 0,-0.07 0,-0.07 c 0,-0.86 -0.5,-1.12 -0.91,-1.12 -0.27,0 -0.89,0.08 -1.18,0.49 0.33,0.02 0.4,0.25 0.4,0.39 0,0.22 -0.16,0.38 -0.38,0.38 -0.19,0 -0.39,-0.12 -0.39,-0.4 0,-0.65 0.72,-1.08 1.57,-1.08 0.97,0 1.64,0.65 1.64,1.34 0,0.55 -0.45,1.09 -1.22,1.25 0.73,0.26 1,0.78 1,1.21 0,0.55 -0.64,0.96 -1.41,0.96 -0.77,0 -1.36,-0.38 -1.36,-0.93 0,-0.24 0.15,-0.37 0.36,-0.37 0.22,0 0.35,0.16 0.35,0.35 0,0.2 -0.13,0.35 -0.35,0.36 0.24,0.31 0.72,0.39 0.98,0.39 0.32,0 0.75,-0.16 0.75,-0.76 0,-0.29 -0.09,-0.61 -0.27,-0.83 -0.24,-0.26 -0.43,-0.28 -0.78,-0.3 -0.17,-0.01 -0.19,-0.01 -0.22,-0.02 -0.02,0 -0.07,-0.01 -0.07,-0.09 0,-0.1 0.06,-0.1 0.18,-0.1 z"
         inkscape:connector-curvature="0"
         style="fill:#000000;stroke-width:0" /></g>    <g
       id="g87706"
       transform="matrix(1.25,0,0,-1.25,-738.96121,1636.2436)"
       xml:space="preserve"
       stroke-miterlimit="10.433"
       font-style="normal"
       font-variant="normal"
       font-weight="normal"
       font-stretch="normal"
       font-size-adjust="none"
       letter-spacing="normal"
       word-spacing="normal"
       ns0:text="$i_1$"
       ns0:preamble="/home/milan/phd/Dokumente/tex/graphics/svg_mathbbm.tex"
       style="font-style:normal;font-variant:normal;font-weight:normal;font-stretch:normal;letter-spacing:normal;word-spacing:normal;text-anchor:start;fill:none;stroke:#000000;stroke-linecap:butt;stroke-linejoin:miter;stroke-miterlimit:10.43299961;stroke-opacity:1;stroke-dasharray:none;stroke-dashoffset:0"><path
         style="fill:#000000;stroke-width:0"
         inkscape:connector-curvature="0"
         d="m 226.26,713.33 0,0.02 0,0.02 -0.01,0.02 0,0.02 0,0.01 -0.01,0.02 0,0.02 -0.01,0.01 0,0.02 -0.01,0.01 -0.01,0.02 -0.01,0.01 -0.01,0.02 -0.01,0.01 -0.01,0.01 -0.01,0.02 -0.01,0.01 -0.02,0.01 -0.01,0.01 -0.01,0.01 -0.02,0.01 -0.01,0.01 -0.02,0.01 -0.02,0 -0.01,0.01 -0.02,0.01 -0.02,0 -0.02,0 -0.02,0.01 -0.02,0 -0.02,0 -0.02,0 c -0.27,0 -0.54,-0.26 -0.54,-0.53 0,-0.18 0.14,-0.35 0.38,-0.35 0.23,0 0.53,0.23 0.53,0.52 z"
         id="path87708" /><path
         style="fill:#000000;stroke-width:0"
         inkscape:connector-curvature="0"
         d="m 225.5,709.6 0.01,0.02 0.01,0.03 0.01,0.02 0.01,0.02 0.01,0.03 0.01,0.02 0,0.01 0.01,0.02 0.01,0.02 0.01,0.02 0,0.01 0.01,0.02 0,0.01 0.01,0.02 0.01,0.02 0.01,0.03 0.01,0.03 0,0.02 0.01,0.01 0.01,0.02 0,0.01 0.01,0.02 0,0.02 0.01,0.02 0.01,0.01 0,0.03 0.01,0.02 0.01,0.02 0.01,0.02 c 0.08,0.2 0.13,0.34 0.13,0.53 0,0.45 -0.32,0.82 -0.82,0.82 -0.93,0 -1.31,-1.44 -1.31,-1.53 0,-0.1 0.1,-0.1 0.12,-0.1 0.1,0 0.11,0.02 0.16,0.18 0.27,0.93 0.67,1.23 1,1.23 0.08,0 0.25,0 0.25,-0.32 0,-0.21 -0.07,-0.42 -0.11,-0.52 -0.08,-0.26 -0.52,-1.41 -0.68,-1.84 -0.1,-0.25 -0.23,-0.58 -0.23,-0.79 0,-0.47 0.34,-0.81 0.81,-0.81 0.94,0 1.31,1.44 1.31,1.53 0,0.1 -0.09,0.1 -0.12,0.1 -0.1,0 -0.1,-0.04 -0.15,-0.18 -0.18,-0.63 -0.51,-1.24 -1.02,-1.24 -0.16,0 -0.24,0.1 -0.24,0.33 0,0.25 0.06,0.39 0.29,0.99 z"
         id="path87710" /><path
         style="fill:#000000;stroke-width:0"
         inkscape:connector-curvature="0"
         d="m 229.2,710.05 0,0.01 0,0.01 0,0.01 0,0.01 0,0 0,0.01 0,0.01 0,0.01 0,0 0,0.01 -0.01,0.01 0,0 0,0.01 0,0 0,0.01 0,0 0,0.01 0,0 0,0.01 0,0.01 -0.01,0.01 0,0 -0.01,0.01 0,0.01 0,0 -0.01,0.01 -0.01,0 0,0 -0.01,0.01 -0.01,0 -0.01,0 -0.01,0 0,0 -0.01,0 0,0 -0.01,0.01 0,0 -0.01,0 -0.01,0 0,0 -0.01,0 -0.01,0 0,0 -0.01,0 -0.01,0 -0.01,0 -0.01,0 0,0 -0.01,0 -0.01,0 c -0.45,-0.44 -1.08,-0.45 -1.37,-0.45 v -0.25 c 0.17,0 0.63,0 1.01,0.2 v -3.55 c 0,-0.23 0,-0.32 -0.69,-0.32 h -0.27 v -0.25 c 0.13,0.01 0.98,0.03 1.24,0.03 0.22,0 1.1,-0.02 1.25,-0.03 v 0.25 h -0.27 c -0.69,0 -0.69,0.09 -0.69,0.32 z"
         id="path87712" /></g>    <g
       style="font-style:normal;font-variant:normal;font-weight:normal;font-stretch:normal;letter-spacing:normal;word-spacing:normal;text-anchor:start;fill:none;stroke:#000000;stroke-linecap:butt;stroke-linejoin:miter;stroke-miterlimit:10.43299961;stroke-opacity:1;stroke-dasharray:none;stroke-dashoffset:0"
       ns0:preamble="/home/milan/phd/Dokumente/tex/graphics/svg_mathbbm.tex"
       ns0:text="$j_1$"
       word-spacing="normal"
       letter-spacing="normal"
       font-size-adjust="none"
       font-stretch="normal"
       font-weight="normal"
       font-variant="normal"
       font-style="normal"
       stroke-miterlimit="10.433"
       xml:space="preserve"
       transform="matrix(1.25,0,0,-1.25,-722.96121,1636.2436)"
       id="g87714"><path
         id="path87716"
         d="m 227.38,713.33 0,0.02 0,0.02 0,0.02 0,0.01 -0.01,0.02 0,0.02 -0.01,0.01 0,0.02 -0.01,0.01 -0.01,0.02 -0.01,0.02 0,0.01 -0.01,0.01 -0.01,0.02 -0.02,0.01 -0.01,0.01 -0.01,0.02 -0.01,0.01 -0.02,0.01 -0.01,0.01 -0.02,0.01 -0.01,0.01 -0.02,0 -0.02,0.01 -0.01,0.01 -0.02,0 -0.02,0.01 -0.02,0 -0.02,0.01 -0.02,0 -0.02,0 -0.03,0 c -0.23,0 -0.52,-0.23 -0.52,-0.53 0,-0.19 0.14,-0.35 0.37,-0.35 0.26,0 0.53,0.26 0.53,0.52 z"
         inkscape:connector-curvature="0"
         style="fill:#000000;stroke-width:0" /><path
         id="path87718"
         d="m 225.38,706.63 -0.02,-0.07 -0.02,-0.07 -0.02,-0.07 -0.02,-0.07 -0.03,-0.06 -0.02,-0.06 -0.03,-0.07 -0.03,-0.06 -0.03,-0.06 -0.03,-0.05 -0.04,-0.06 -0.03,-0.05 -0.04,-0.05 -0.03,-0.05 -0.04,-0.05 -0.04,-0.05 -0.04,-0.04 -0.04,-0.04 -0.05,-0.04 -0.04,-0.03 -0.04,-0.04 -0.05,-0.03 -0.05,-0.03 -0.04,-0.02 -0.05,-0.03 -0.05,-0.02 -0.05,-0.01 -0.05,-0.02 -0.05,-0.01 -0.05,-0.01 -0.05,0 -0.05,0 c -0.06,0 -0.21,0 -0.39,0.09 0.3,0.07 0.45,0.32 0.45,0.52 0,0.16 -0.11,0.35 -0.38,0.35 -0.25,0 -0.54,-0.21 -0.54,-0.57 0,-0.39 0.4,-0.61 0.88,-0.61 0.7,0 1.62,0.52 1.87,1.51 l 0.91,3.63 c 0.05,0.2 0.05,0.34 0.05,0.37 0,0.57 -0.41,0.92 -0.91,0.92 -1.02,0 -1.58,-1.44 -1.58,-1.53 0,-0.1 0.1,-0.1 0.12,-0.1 0.09,0 0.1,0.01 0.18,0.2 0.24,0.6 0.7,1.21 1.25,1.21 0.14,0 0.32,-0.04 0.32,-0.46 0,-0.23 -0.03,-0.34 -0.07,-0.51 z"
         inkscape:connector-curvature="0"
         style="fill:#000000;stroke-width:0" /><path
         id="path87720"
         d="m 229.87,710.05 0,0.01 0,0.01 0,0.01 0,0.01 0,0 0,0.01 0,0.01 0,0.01 0,0 0,0.01 0,0.01 0,0 -0.01,0.01 0,0 0,0.01 0,0 0,0.01 0,0 0,0.01 0,0.01 -0.01,0.01 0,0 0,0.01 -0.01,0.01 0,0 -0.01,0.01 -0.01,0 0,0 -0.01,0.01 -0.01,0 -0.01,0 -0.01,0 0,0 -0.01,0 0,0 -0.01,0.01 0,0 -0.01,0 -0.01,0 0,0 -0.01,0 -0.01,0 0,0 -0.01,0 -0.01,0 -0.01,0 0,0 -0.01,0 -0.01,0 -0.01,0 c -0.45,-0.44 -1.08,-0.45 -1.37,-0.45 v -0.25 c 0.17,0 0.63,0 1.01,0.2 v -3.55 c 0,-0.23 0,-0.32 -0.69,-0.32 h -0.27 v -0.25 c 0.13,0.01 0.98,0.03 1.24,0.03 0.22,0 1.1,-0.02 1.25,-0.03 v 0.25 h -0.26 c -0.7,0 -0.7,0.09 -0.7,0.32 z"
         inkscape:connector-curvature="0"
         style="fill:#000000;stroke-width:0" /></g>    <g
       id="g87722"
       transform="matrix(1.25,0,0,-1.25,-706.96121,1636.2436)"
       xml:space="preserve"
       stroke-miterlimit="10.433"
       font-style="normal"
       font-variant="normal"
       font-weight="normal"
       font-stretch="normal"
       font-size-adjust="none"
       letter-spacing="normal"
       word-spacing="normal"
       ns0:text="$i_2$"
       ns0:preamble="/home/milan/phd/Dokumente/tex/graphics/svg_mathbbm.tex"
       style="font-style:normal;font-variant:normal;font-weight:normal;font-stretch:normal;letter-spacing:normal;word-spacing:normal;text-anchor:start;fill:none;stroke:#000000;stroke-linecap:butt;stroke-linejoin:miter;stroke-miterlimit:10.43299961;stroke-opacity:1;stroke-dasharray:none;stroke-dashoffset:0"><path
         d="m 226.26,713.33 0,0.02 0,0.02 -0.01,0.02 0,0.02 0,0.01 -0.01,0.02 0,0.02 -0.01,0.01 0,0.02 -0.01,0.01 -0.01,0.02 -0.01,0.01 -0.01,0.02 -0.01,0.01 -0.01,0.01 -0.01,0.02 -0.01,0.01 -0.02,0.01 -0.01,0.01 -0.01,0.01 -0.02,0.01 -0.01,0.01 -0.02,0.01 -0.02,0 -0.01,0.01 -0.02,0.01 -0.02,0 -0.02,0 -0.02,0.01 -0.02,0 -0.02,0 -0.02,0 c -0.27,0 -0.54,-0.26 -0.54,-0.53 0,-0.18 0.14,-0.35 0.38,-0.35 0.23,0 0.53,0.23 0.53,0.52 z"
         id="path87724"
         inkscape:connector-curvature="0"
         style="fill:#000000;stroke-width:0" /><path
         d="m 225.5,709.6 0.01,0.02 0.01,0.03 0.01,0.02 0.01,0.02 0.01,0.03 0.01,0.02 0,0.01 0.01,0.02 0.01,0.02 0.01,0.02 0,0.01 0.01,0.02 0,0.01 0.01,0.02 0.01,0.02 0.01,0.03 0.01,0.03 0,0.02 0.01,0.01 0.01,0.02 0,0.01 0.01,0.02 0,0.02 0.01,0.02 0.01,0.01 0,0.03 0.01,0.02 0.01,0.02 0.01,0.02 c 0.08,0.2 0.13,0.34 0.13,0.53 0,0.45 -0.32,0.82 -0.82,0.82 -0.93,0 -1.31,-1.44 -1.31,-1.53 0,-0.1 0.1,-0.1 0.12,-0.1 0.1,0 0.11,0.02 0.16,0.18 0.27,0.93 0.67,1.23 1,1.23 0.08,0 0.25,0 0.25,-0.32 0,-0.21 -0.07,-0.42 -0.11,-0.52 -0.08,-0.26 -0.52,-1.41 -0.68,-1.84 -0.1,-0.25 -0.23,-0.58 -0.23,-0.79 0,-0.47 0.34,-0.81 0.81,-0.81 0.94,0 1.31,1.44 1.31,1.53 0,0.1 -0.09,0.1 -0.12,0.1 -0.1,0 -0.1,-0.04 -0.15,-0.18 -0.18,-0.63 -0.51,-1.24 -1.02,-1.24 -0.16,0 -0.24,0.1 -0.24,0.33 0,0.25 0.06,0.39 0.29,0.99 z"
         id="path87726"
         inkscape:connector-curvature="0"
         style="fill:#000000;stroke-width:0" /><path
         d="m 230.38,706.9 h -0.24 c -0.02,-0.16 -0.09,-0.57 -0.18,-0.64 -0.05,-0.04 -0.59,-0.04 -0.69,-0.04 h -1.28 c 0.73,0.65 0.98,0.84 1.39,1.17 0.52,0.41 1,0.84 1,1.5 0,0.84 -0.74,1.36 -1.63,1.36 -0.86,0 -1.45,-0.61 -1.45,-1.25 0,-0.35 0.3,-0.39 0.37,-0.39 0.17,0 0.37,0.12 0.37,0.37 0,0.13 -0.05,0.37 -0.41,0.37 0.22,0.49 0.69,0.65 1.02,0.65 0.69,0 1.06,-0.54 1.06,-1.11 0,-0.6 -0.44,-1.08 -0.66,-1.33 l -1.68,-1.66 c -0.07,-0.06 -0.07,-0.07 -0.07,-0.27 h 2.87 z"
         id="path87728"
         inkscape:connector-curvature="0"
         style="fill:#000000;stroke-width:0" /></g>    <g
       style="font-style:normal;font-variant:normal;font-weight:normal;font-stretch:normal;letter-spacing:normal;word-spacing:normal;text-anchor:start;fill:none;stroke:#000000;stroke-linecap:butt;stroke-linejoin:miter;stroke-miterlimit:10.43299961;stroke-opacity:1;stroke-dasharray:none;stroke-dashoffset:0"
       ns0:preamble="/home/milan/phd/Dokumente/tex/graphics/svg_mathbbm.tex"
       ns0:text="$j_2$"
       word-spacing="normal"
       letter-spacing="normal"
       font-size-adjust="none"
       font-stretch="normal"
       font-weight="normal"
       font-variant="normal"
       font-style="normal"
       stroke-miterlimit="10.433"
       xml:space="preserve"
       transform="matrix(1.25,0,0,-1.25,-690.96121,1636.2436)"
       id="g87730"><path
         id="path87732"
         d="m 227.38,713.33 0,0.02 0,0.02 0,0.02 0,0.01 -0.01,0.02 0,0.02 -0.01,0.01 0,0.02 -0.01,0.01 -0.01,0.02 -0.01,0.02 0,0.01 -0.01,0.01 -0.01,0.02 -0.02,0.01 -0.01,0.01 -0.01,0.02 -0.01,0.01 -0.02,0.01 -0.01,0.01 -0.02,0.01 -0.01,0.01 -0.02,0 -0.02,0.01 -0.01,0.01 -0.02,0 -0.02,0.01 -0.02,0 -0.02,0.01 -0.02,0 -0.02,0 -0.03,0 c -0.23,0 -0.52,-0.23 -0.52,-0.53 0,-0.19 0.14,-0.35 0.37,-0.35 0.26,0 0.53,0.26 0.53,0.52 z"
         inkscape:connector-curvature="0"
         style="fill:#000000;stroke-width:0" /><path
         id="path87734"
         d="m 225.38,706.63 -0.02,-0.07 -0.02,-0.07 -0.02,-0.07 -0.02,-0.07 -0.03,-0.06 -0.02,-0.06 -0.03,-0.07 -0.03,-0.06 -0.03,-0.06 -0.03,-0.05 -0.04,-0.06 -0.03,-0.05 -0.04,-0.05 -0.03,-0.05 -0.04,-0.05 -0.04,-0.05 -0.04,-0.04 -0.04,-0.04 -0.05,-0.04 -0.04,-0.03 -0.04,-0.04 -0.05,-0.03 -0.05,-0.03 -0.04,-0.02 -0.05,-0.03 -0.05,-0.02 -0.05,-0.01 -0.05,-0.02 -0.05,-0.01 -0.05,-0.01 -0.05,0 -0.05,0 c -0.06,0 -0.21,0 -0.39,0.09 0.3,0.07 0.45,0.32 0.45,0.52 0,0.16 -0.11,0.35 -0.38,0.35 -0.25,0 -0.54,-0.21 -0.54,-0.57 0,-0.39 0.4,-0.61 0.88,-0.61 0.7,0 1.62,0.52 1.87,1.51 l 0.91,3.63 c 0.05,0.2 0.05,0.34 0.05,0.37 0,0.57 -0.41,0.92 -0.91,0.92 -1.02,0 -1.58,-1.44 -1.58,-1.53 0,-0.1 0.1,-0.1 0.12,-0.1 0.09,0 0.1,0.01 0.18,0.2 0.24,0.6 0.7,1.21 1.25,1.21 0.14,0 0.32,-0.04 0.32,-0.46 0,-0.23 -0.03,-0.34 -0.07,-0.51 z"
         inkscape:connector-curvature="0"
         style="fill:#000000;stroke-width:0" /><path
         id="path87736"
         d="m 231.05,706.9 h -0.23 c -0.03,-0.16 -0.09,-0.57 -0.19,-0.64 -0.05,-0.04 -0.59,-0.04 -0.68,-0.04 h -1.29 c 0.74,0.65 0.98,0.84 1.4,1.17 0.51,0.41 0.99,0.84 0.99,1.5 0,0.84 -0.74,1.36 -1.63,1.36 -0.86,0 -1.45,-0.61 -1.45,-1.25 0,-0.35 0.3,-0.39 0.37,-0.39 0.17,0 0.37,0.12 0.37,0.37 0,0.13 -0.05,0.37 -0.41,0.37 0.22,0.49 0.69,0.65 1.02,0.65 0.69,0 1.06,-0.54 1.06,-1.11 0,-0.6 -0.43,-1.08 -0.66,-1.33 l -1.68,-1.66 c -0.07,-0.06 -0.07,-0.07 -0.07,-0.27 h 2.87 z"
         inkscape:connector-curvature="0"
         style="fill:#000000;stroke-width:0" /></g>    <g
       id="g87738"
       transform="matrix(1.25,0,0,-1.25,-674.96121,1636.2436)"
       xml:space="preserve"
       stroke-miterlimit="10.433"
       font-style="normal"
       font-variant="normal"
       font-weight="normal"
       font-stretch="normal"
       font-size-adjust="none"
       letter-spacing="normal"
       word-spacing="normal"
       ns0:text="$i_3$"
       ns0:preamble="/home/milan/phd/Dokumente/tex/graphics/svg_mathbbm.tex"
       style="font-style:normal;font-variant:normal;font-weight:normal;font-stretch:normal;letter-spacing:normal;word-spacing:normal;text-anchor:start;fill:none;stroke:#000000;stroke-linecap:butt;stroke-linejoin:miter;stroke-miterlimit:10.43299961;stroke-opacity:1;stroke-dasharray:none;stroke-dashoffset:0"><path
         d="m 226.26,713.33 0,0.02 0,0.02 -0.01,0.02 0,0.02 0,0.01 -0.01,0.02 0,0.02 -0.01,0.01 0,0.02 -0.01,0.01 -0.01,0.02 -0.01,0.01 -0.01,0.02 -0.01,0.01 -0.01,0.01 -0.01,0.02 -0.01,0.01 -0.02,0.01 -0.01,0.01 -0.01,0.01 -0.02,0.01 -0.01,0.01 -0.02,0.01 -0.02,0 -0.01,0.01 -0.02,0.01 -0.02,0 -0.02,0 -0.02,0.01 -0.02,0 -0.02,0 -0.02,0 c -0.27,0 -0.54,-0.26 -0.54,-0.53 0,-0.18 0.14,-0.35 0.38,-0.35 0.23,0 0.53,0.23 0.53,0.52 z"
         id="path87740"
         inkscape:connector-curvature="0"
         style="fill:#000000;stroke-width:0" /><path
         d="m 225.5,709.6 0.01,0.02 0.01,0.03 0.01,0.02 0.01,0.02 0.01,0.03 0.01,0.02 0,0.01 0.01,0.02 0.01,0.02 0.01,0.02 0,0.01 0.01,0.02 0,0.01 0.01,0.02 0.01,0.02 0.01,0.03 0.01,0.03 0,0.02 0.01,0.01 0.01,0.02 0,0.01 0.01,0.02 0,0.02 0.01,0.02 0.01,0.01 0,0.03 0.01,0.02 0.01,0.02 0.01,0.02 c 0.08,0.2 0.13,0.34 0.13,0.53 0,0.45 -0.32,0.82 -0.82,0.82 -0.93,0 -1.31,-1.44 -1.31,-1.53 0,-0.1 0.1,-0.1 0.12,-0.1 0.1,0 0.11,0.02 0.16,0.18 0.27,0.93 0.67,1.23 1,1.23 0.08,0 0.25,0 0.25,-0.32 0,-0.21 -0.07,-0.42 -0.11,-0.52 -0.08,-0.26 -0.52,-1.41 -0.68,-1.84 -0.1,-0.25 -0.23,-0.58 -0.23,-0.79 0,-0.47 0.34,-0.81 0.81,-0.81 0.94,0 1.31,1.44 1.31,1.53 0,0.1 -0.09,0.1 -0.12,0.1 -0.1,0 -0.1,-0.04 -0.15,-0.18 -0.18,-0.63 -0.51,-1.24 -1.02,-1.24 -0.16,0 -0.24,0.1 -0.24,0.33 0,0.25 0.06,0.39 0.29,0.99 z"
         id="path87742"
         inkscape:connector-curvature="0"
         style="fill:#000000;stroke-width:0" /><path
         d="m 228.76,707.95 0.06,0 0.05,0 0.04,-0.01 0.05,0 0.05,-0.01 0.04,-0.02 0.05,-0.01 0.04,-0.02 0.04,-0.02 0.04,-0.02 0.04,-0.02 0.04,-0.02 0.04,-0.03 0.03,-0.03 0.03,-0.03 0.04,-0.04 0.03,-0.03 0.02,-0.04 0.03,-0.04 0.03,-0.04 0.02,-0.05 0.02,-0.05 0.02,-0.05 0.02,-0.05 0.02,-0.05 0.01,-0.06 0.01,-0.05 0.01,-0.06 0.01,-0.07 0,-0.06 0.01,-0.07 0,-0.07 c 0,-0.86 -0.5,-1.12 -0.91,-1.12 -0.28,0 -0.89,0.08 -1.18,0.49 0.33,0.02 0.4,0.25 0.4,0.39 0,0.22 -0.16,0.38 -0.38,0.38 -0.2,0 -0.39,-0.12 -0.39,-0.4 0,-0.65 0.72,-1.08 1.57,-1.08 0.96,0 1.63,0.65 1.63,1.34 0,0.55 -0.44,1.09 -1.21,1.25 0.73,0.26 1,0.78 1,1.21 0,0.55 -0.64,0.96 -1.41,0.96 -0.77,0 -1.36,-0.38 -1.36,-0.93 0,-0.24 0.15,-0.37 0.36,-0.37 0.21,0 0.35,0.16 0.35,0.35 0,0.2 -0.14,0.35 -0.35,0.36 0.24,0.31 0.72,0.39 0.98,0.39 0.31,0 0.75,-0.16 0.75,-0.76 0,-0.29 -0.09,-0.61 -0.28,-0.83 -0.23,-0.26 -0.42,-0.28 -0.77,-0.3 -0.17,-0.01 -0.19,-0.01 -0.22,-0.02 -0.02,0 -0.07,-0.01 -0.07,-0.09 0,-0.1 0.06,-0.1 0.18,-0.1 z"
         id="path87744"
         inkscape:connector-curvature="0"
         style="fill:#000000;stroke-width:0" /></g>    <text
       xml:space="preserve"
       style="font-style:normal;font-weight:normal;line-height:0%;font-family:sans-serif;letter-spacing:0px;word-spacing:0px;fill:#000000;fill-opacity:1;stroke:none"
       x="-292.88727"
       y="830.28589"
       id="text89458"><tspan
         sodipodi:role="line"
         id="tspan89460"
         x="-292.88727"
         y="830.28589"
         style="font-size:9px;line-height:1.25;font-family:sans-serif">ancilla site</tspan></text>
    <text
       xml:space="preserve"
       style="font-style:normal;font-weight:normal;line-height:0%;font-family:sans-serif;letter-spacing:0px;word-spacing:0px;fill:#000000;fill-opacity:1;stroke:none"
       x="-399.67026"
       y="830.53845"
       id="text89462"><tspan
         sodipodi:role="line"
         id="tspan89464"
         x="-399.67026"
         y="830.53845"
         style="font-size:9px;line-height:1.25;font-family:sans-serif">system site</tspan></text>
    <path
       style="fill:none;stroke:#000000;stroke-width:0.5;stroke-linecap:butt;stroke-linejoin:miter;stroke-miterlimit:4;stroke-opacity:1;stroke-dasharray:0.5, 0.5;stroke-dashoffset:0"
       d="m -344.61697,824.73005 10.10153,-9.34391"
       id="path89466"
       inkscape:connector-curvature="0" />
    <path
       style="fill:none;stroke:#000000;stroke-width:0.5;stroke-linecap:butt;stroke-linejoin:miter;stroke-miterlimit:4;stroke-opacity:1;stroke-dasharray:0.5, 0.5;stroke-dashoffset:0"
       d="m -294.36188,824.47751 -7.57614,-4.79822"
       id="path89468"
       inkscape:connector-curvature="0" />
  </g>
</svg>
