<?xml version="1.0" encoding="UTF-8"?>
<svg xmlns="http://www.w3.org/2000/svg" xmlns:xlink="http://www.w3.org/1999/xlink" width="639pt" height="77pt" viewBox="0 0 639 77" version="1.1">
<g id="surface1">
<path style="fill:none;stroke-width:1;stroke-linecap:butt;stroke-linejoin:miter;stroke:rgb(0%,0%,0%);stroke-opacity:1;stroke-miterlimit:4;" d="M -476.126524 622.267029 L -476.126524 650.794373 " transform="matrix(1,0,0,1,613.25543,-604.03656)"/>
<path style="fill-rule:nonzero;fill:rgb(100%,93.333333%,66.666667%);fill-opacity:1;stroke-width:0.5;stroke-linecap:round;stroke-linejoin:miter;stroke:rgb(0%,0%,0%);stroke-opacity:1;stroke-miterlimit:4;" d="M -503.149961 608.431091 L -444.931211 608.431091 C -443.274961 608.431091 -441.931211 609.770935 -441.931211 611.431091 L -441.931211 631.802185 C -441.931211 633.462341 -443.274961 634.802185 -444.931211 634.802185 L -503.149961 634.802185 C -504.806211 634.802185 -506.149961 633.462341 -506.149961 631.802185 L -506.149961 611.431091 C -506.149961 609.770935 -504.806211 608.431091 -503.149961 608.431091 Z M -503.149961 608.431091 " transform="matrix(1,0,0,1,613.25543,-604.03656)"/>
<path style="fill:none;stroke-width:1;stroke-linecap:butt;stroke-linejoin:miter;stroke:rgb(0%,0%,0%);stroke-opacity:1;stroke-miterlimit:4;" d="M -394.126524 622.267029 L -394.126524 650.794373 " transform="matrix(1,0,0,1,613.25543,-604.03656)"/>
<path style="fill:none;stroke-width:1;stroke-linecap:butt;stroke-linejoin:miter;stroke:rgb(0%,0%,0%);stroke-opacity:1;stroke-miterlimit:4;" d="M -310.126524 622.267029 L -310.126524 650.794373 " transform="matrix(1,0,0,1,613.25543,-604.03656)"/>
<path style="fill:none;stroke-width:1;stroke-linecap:butt;stroke-linejoin:miter;stroke:rgb(0%,0%,0%);stroke-opacity:1;stroke-miterlimit:4;" d="M -226.126524 622.267029 L -226.126524 650.794373 " transform="matrix(1,0,0,1,613.25543,-604.03656)"/>
<path style="fill:none;stroke-width:1;stroke-linecap:butt;stroke-linejoin:miter;stroke:rgb(0%,0%,0%);stroke-opacity:1;stroke-miterlimit:4;" d="M -441.931211 621.618591 L -390.149961 621.618591 " transform="matrix(1,0,0,1,613.25543,-604.03656)"/>
<path style="fill:none;stroke-width:1;stroke-linecap:butt;stroke-linejoin:miter;stroke:rgb(0%,0%,0%);stroke-opacity:1;stroke-miterlimit:4;" d="M -359.931211 621.618591 L -308.149961 621.618591 " transform="matrix(1,0,0,1,613.25543,-604.03656)"/>
<path style="fill:none;stroke-width:1;stroke-linecap:butt;stroke-linejoin:miter;stroke:rgb(0%,0%,0%);stroke-opacity:1;stroke-miterlimit:4;" d="M -275.931211 621.618591 L -224.149961 621.618591 " transform="matrix(1,0,0,1,613.25543,-604.03656)"/>
<path style="fill:none;stroke-width:1;stroke-linecap:butt;stroke-linejoin:miter;stroke:rgb(0%,0%,0%);stroke-opacity:1;stroke-miterlimit:4;" d="M -600.981993 622.122498 L -600.981993 650.649841 " transform="matrix(1,0,0,1,613.25543,-604.03656)"/>
<path style="fill:none;stroke-width:1;stroke-linecap:butt;stroke-linejoin:miter;stroke:rgb(0%,0%,0%);stroke-opacity:1;stroke-miterlimit:4;" d="M -584.981993 622.122498 L -584.981993 650.649841 " transform="matrix(1,0,0,1,613.25543,-604.03656)"/>
<path style="fill:none;stroke-width:1;stroke-linecap:butt;stroke-linejoin:miter;stroke:rgb(0%,0%,0%);stroke-opacity:1;stroke-miterlimit:4;" d="M -568.981993 622.122498 L -568.981993 650.649841 " transform="matrix(1,0,0,1,613.25543,-604.03656)"/>
<path style="fill:none;stroke-width:1;stroke-linecap:butt;stroke-linejoin:miter;stroke:rgb(0%,0%,0%);stroke-opacity:1;stroke-miterlimit:4;" d="M -552.981993 622.122498 L -552.981993 650.649841 " transform="matrix(1,0,0,1,613.25543,-604.03656)"/>
<path style="fill-rule:nonzero;fill:rgb(100%,93.333333%,66.666667%);fill-opacity:1;stroke-width:0.5;stroke-linecap:round;stroke-linejoin:miter;stroke:rgb(0%,0%,0%);stroke-opacity:1;stroke-miterlimit:4;" d="M -606.00543 608.28656 L -547.790586 608.28656 C -546.134336 608.28656 -544.790586 609.63031 -544.790586 611.28656 L -544.790586 631.66156 C -544.790586 633.31781 -546.134336 634.66156 -547.790586 634.66156 L -606.00543 634.66156 C -607.66168 634.66156 -609.00543 633.31781 -609.00543 631.66156 L -609.00543 611.28656 C -609.00543 609.63031 -607.66168 608.28656 -606.00543 608.28656 Z M -606.00543 608.28656 " transform="matrix(1,0,0,1,613.25543,-604.03656)"/>
<path style=" stroke:none;fill-rule:nonzero;fill:rgb(0%,0%,0%);fill-opacity:1;" d="M 92.351562 16.324219 L 92.453125 16.324219 L 92.476562 16.3125 L 92.566406 16.3125 L 92.578125 16.296875 L 92.613281 16.296875 L 92.628906 16.285156 L 92.640625 16.285156 L 92.664062 16.273438 L 92.675781 16.273438 L 92.691406 16.261719 L 92.703125 16.25 L 92.714844 16.234375 L 92.726562 16.222656 L 92.726562 16.210938 L 92.738281 16.210938 L 92.738281 16.199219 L 92.753906 16.1875 L 92.753906 16.160156 L 92.765625 16.148438 L 92.765625 16.074219 C 92.765625 15.824219 92.539062 15.824219 92.363281 15.824219 L 84.914062 15.824219 C 84.738281 15.824219 84.503906 15.824219 84.503906 16.074219 C 84.503906 16.324219 84.738281 16.324219 84.925781 16.324219 Z M 92.351562 16.324219 "/>
<path style=" stroke:none;fill-rule:nonzero;fill:rgb(0%,0%,0%);fill-opacity:1;" d="M 92.363281 18.722656 L 92.550781 18.722656 L 92.566406 18.710938 L 92.601562 18.710938 L 92.613281 18.699219 L 92.628906 18.699219 L 92.652344 18.6875 L 92.664062 18.6875 L 92.675781 18.671875 L 92.691406 18.671875 L 92.726562 18.636719 L 92.726562 18.625 L 92.738281 18.609375 L 92.738281 18.597656 L 92.753906 18.597656 L 92.753906 18.574219 L 92.765625 18.5625 L 92.765625 18.472656 C 92.765625 18.234375 92.539062 18.234375 92.351562 18.234375 L 84.925781 18.234375 C 84.738281 18.234375 84.503906 18.234375 84.503906 18.472656 C 84.503906 18.722656 84.738281 18.722656 84.914062 18.722656 Z M 92.363281 18.722656 "/>
<path style="fill-rule:nonzero;fill:rgb(100%,93.333333%,66.666667%);fill-opacity:1;stroke-width:0.5;stroke-linecap:round;stroke-linejoin:miter;stroke:rgb(0%,0%,0%);stroke-opacity:1;stroke-miterlimit:4;" d="M -253.149961 608.431091 L -194.931211 608.431091 C -193.274961 608.431091 -191.931211 609.770935 -191.931211 611.431091 L -191.931211 631.802185 C -191.931211 633.462341 -193.274961 634.802185 -194.931211 634.802185 L -253.149961 634.802185 C -254.806211 634.802185 -256.149961 633.462341 -256.149961 631.802185 L -256.149961 611.431091 C -256.149961 609.770935 -254.806211 608.431091 -253.149961 608.431091 Z M -253.149961 608.431091 " transform="matrix(1,0,0,1,613.25543,-604.03656)"/>
<path style="fill-rule:nonzero;fill:rgb(100%,93.333333%,66.666667%);fill-opacity:1;stroke-width:0.5;stroke-linecap:round;stroke-linejoin:miter;stroke:rgb(0%,0%,0%);stroke-opacity:1;stroke-miterlimit:4;" d="M -337.149961 608.431091 L -278.931211 608.431091 C -277.274961 608.431091 -275.931211 609.770935 -275.931211 611.431091 L -275.931211 631.802185 C -275.931211 633.462341 -277.274961 634.802185 -278.931211 634.802185 L -337.149961 634.802185 C -338.806211 634.802185 -340.149961 633.462341 -340.149961 631.802185 L -340.149961 611.431091 C -340.149961 609.770935 -338.806211 608.431091 -337.149961 608.431091 Z M -337.149961 608.431091 " transform="matrix(1,0,0,1,613.25543,-604.03656)"/>
<path style="fill-rule:nonzero;fill:rgb(100%,93.333333%,66.666667%);fill-opacity:1;stroke-width:0.5;stroke-linecap:round;stroke-linejoin:miter;stroke:rgb(0%,0%,0%);stroke-opacity:1;stroke-miterlimit:4;" d="M -421.149961 608.431091 L -362.931211 608.431091 C -361.274961 608.431091 -359.931211 609.770935 -359.931211 611.431091 L -359.931211 631.802185 C -359.931211 633.462341 -361.274961 634.802185 -362.931211 634.802185 L -421.149961 634.802185 C -422.806211 634.802185 -424.149961 633.462341 -424.149961 631.802185 L -424.149961 611.431091 C -424.149961 609.770935 -422.806211 608.431091 -421.149961 608.431091 Z M -421.149961 608.431091 " transform="matrix(1,0,0,1,613.25543,-604.03656)"/>
</g>
</svg>
